<svg width="32px" height="32px" viewBox="0 0 32 32" version="1.1" xmlns="http://www.w3.org/2000/svg" xmlns:xlink="http://www.w3.org/1999/xlink">
    <defs>
        <rect id="path-1" x="0" y="0" width="32" height="32" rx="3"></rect>
        <mask id="mask-2" maskContentUnits="userSpaceOnUse" maskUnits="objectBoundingBox" x="0" y="0" width="32" height="32" fill="white">
            <use xlink:href="#path-1"></use>
        </mask>
    </defs>
    <g stroke="none" stroke-width="1" fill="none" fill-rule="evenodd">
        <g transform="translate(-1193.000000, -38.000000)">
            <g transform="translate(1028.000000, 38.000000)">
                <g transform="translate(165.000000, 0.000000)">
                    <g>
                        <use stroke="#298DCF" mask="url(#mask-2)" stroke-width="2" fill="#FFFFFF" xlink:href="#path-1"></use>
                        <g transform="translate(7.384615, 11.076923)" fill="#298DCF">
                            <path d="M17.0287863,8.89969231 C17.008,8.85483761 16.9887179,8.81805128 16.9706667,8.78810256 C16.673641,8.25340171 16.1057094,7.5968547 15.2681026,6.81859829 L15.2505983,6.80041026 L15.2414359,6.79179487 L15.2324103,6.78276923 L15.2237949,6.78276923 C14.8434872,6.42010256 14.6025299,6.17641026 14.5016068,6.05196581 C14.317265,5.8142906 14.2756923,5.57333333 14.3766154,5.32977778 C14.4481368,5.1454359 14.7152137,4.75664957 15.1789402,4.16205128 C15.4224957,3.84738462 15.6158632,3.59466667 15.7579487,3.4045812 C16.7863248,2.03760684 17.2318632,1.16417094 17.0951111,0.783863248 L17.042188,0.695111111 C17.006359,0.641777778 16.9145983,0.592547009 16.7660855,0.548239316 C16.6175726,0.503384615 16.4273504,0.495863248 16.1955556,0.525811966 L13.6281709,0.543452991 C13.5870085,0.529094017 13.5272479,0.530051282 13.4502564,0.548239316 C13.3728547,0.565880342 13.3338803,0.574905983 13.3338803,0.574905983 L13.2895726,0.597470085 L13.2542906,0.624136752 C13.2243419,0.641777778 13.1917949,0.672683761 13.1559658,0.717538462 C13.1206838,0.761982906 13.0908718,0.814222222 13.0673504,0.87357265 C12.7874188,1.59261538 12.4701538,2.26092308 12.1132308,2.87890598 C11.8931966,3.24745299 11.6912137,3.56690598 11.5070085,3.83726496 C11.3226667,4.10748718 11.1682735,4.30687179 11.0438291,4.43446154 C10.9188376,4.56218803 10.8061538,4.66475214 10.705094,4.74160684 C10.6036239,4.8191453 10.5267692,4.85169231 10.4732991,4.83993162 C10.4198291,4.82762393 10.369094,4.81586325 10.321641,4.80410256 C10.2382222,4.75076923 10.1714872,4.67801709 10.1212991,4.5857094 C10.0705641,4.49381197 10.0363761,4.37784615 10.018735,4.23794872 C10.001094,4.09846154 9.99042735,3.97825641 9.9871453,3.87733333 C9.98454701,3.77641026 9.98605128,3.63323077 9.99193162,3.4494359 C9.99781197,3.26509402 10.001094,3.14010256 10.001094,3.07500855 C10.001094,2.84895726 10.0053333,2.60376068 10.0139487,2.3394188 C10.0229744,2.07494017 10.0304957,1.86557265 10.0363761,1.71117949 C10.0422564,1.55678632 10.0454017,1.39336752 10.0454017,1.22078632 C10.0454017,1.04875214 10.034735,0.913641026 10.0139487,0.815316239 C9.99357265,0.717538462 9.96211966,0.622495726 9.92041026,0.530051282 C9.87870085,0.438153846 9.81784615,0.366632479 9.7377094,0.316444444 C9.65757265,0.265709402 9.5582906,0.225641026 9.43958974,0.195692308 C9.12451282,0.124581197 8.72328205,0.0861538462 8.23617094,0.0797264957 C7.13094017,0.067965812 6.42092308,0.139623932 6.1057094,0.294017094 C5.98071795,0.359111111 5.86803419,0.448410256 5.76711111,0.561094017 C5.66030769,0.691965812 5.64526496,0.763487179 5.72225641,0.775247863 C6.07904274,0.828717949 6.33121368,0.956444444 6.4802735,1.1582906 L6.53360684,1.26564103 C6.57531624,1.34263248 6.61702564,1.47938462 6.65818803,1.67535043 C6.69976068,1.87145299 6.7265641,2.08834188 6.73818803,2.32601709 C6.76813675,2.75979487 6.76813675,3.13107692 6.73818803,3.44041026 C6.70892308,3.74905983 6.68061538,3.99001709 6.65381197,4.16205128 C6.6271453,4.33463248 6.58707692,4.47398291 6.53360684,4.58133333 C6.4802735,4.6882735 6.44444444,4.75336752 6.42625641,4.7774359 C6.40861538,4.80095726 6.3937094,4.81586325 6.38194872,4.82174359 C6.30454701,4.85169231 6.22441026,4.86659829 6.14099145,4.86659829 C6.05825641,4.86659829 5.95719658,4.82502564 5.83808547,4.74160684 C5.71952137,4.65832479 5.59617094,4.544 5.46844444,4.39808547 C5.3408547,4.2528547 5.1965812,4.04936752 5.03576068,3.78762393 C4.87548718,3.5262906 4.70947009,3.21764103 4.53688889,2.86071795 L4.39425641,2.60225641 C4.30495726,2.43610256 4.18324786,2.19405128 4.0288547,1.87569231 C3.87446154,1.55788034 3.7377094,1.25073504 3.6191453,0.953162393 C3.57155556,0.828717949 3.50003419,0.733675214 3.4048547,0.667897436 L3.36054701,0.641230769 C3.33059829,0.617709402 3.2831453,0.592547009 3.21791453,0.565333333 C3.1522735,0.538666667 3.08444444,0.519384615 3.01278632,0.507623932 L0.570529915,0.525264957 C0.321094017,0.525264957 0.15165812,0.581880342 0.0624957265,0.694564103 L0.0266666667,0.748034188 C0.00902564103,0.777982906 0,0.825435897 0,0.890666667 C0,0.956444444 0.0176410256,1.03644444 0.0534700855,1.13162393 C0.41025641,1.96923077 0.797538462,2.7774359 1.21682051,3.55569231 C1.63569231,4.33463248 1.99945299,4.96123077 2.30823932,5.4365812 C2.61757265,5.91206838 2.93210256,6.36075214 3.25319658,6.78222222 C3.5742906,7.20423932 3.78680342,7.47459829 3.89046154,7.5937094 C3.99466667,7.71282051 4.07644444,7.8014359 4.13565812,7.86078632 L4.35842735,8.07494017 C4.50105983,8.21757265 4.71042735,8.38851282 4.98721368,8.58721368 C5.26331624,8.78646154 5.56950427,8.9825641 5.90495726,9.17593162 C6.24095726,9.36875214 6.63138462,9.5262906 7.07747009,9.64813675 C7.52300855,9.76998291 7.95678632,9.81907692 8.37880342,9.79500855 L9.40389744,9.79500855 C9.61162393,9.77736752 9.76929915,9.7117265 9.87610256,9.59904274 L9.91138462,9.55473504 C9.93531624,9.51890598 9.95774359,9.46379487 9.97811966,9.38953846 C9.99890598,9.3154188 10.0095726,9.23364103 10.0095726,9.14447863 C10.0036923,8.88902564 10.0229744,8.65887179 10.0672821,8.45374359 C10.1115897,8.24916239 10.1623248,8.09476923 10.2190769,7.9905641 C10.2756923,7.88635897 10.3391453,7.79883761 10.4108034,7.7277265 C10.4817778,7.65620513 10.5326496,7.61340171 10.5624615,7.59849573 C10.5918632,7.58345299 10.6153846,7.57333333 10.6335726,7.56690598 C10.7762051,7.51945299 10.9438632,7.56594872 11.1372308,7.70529915 C11.330188,7.84533333 11.5112479,8.01723077 11.681094,8.22235897 C11.8503932,8.42748718 12.0540171,8.65777778 12.2911453,8.91309402 C12.5293675,9.16841026 12.7372308,9.35863248 12.9150085,9.48362393 L13.0934701,9.59042735 C13.2125812,9.66208547 13.3669744,9.72717949 13.5571966,9.78652991 C13.7472821,9.8462906 13.9134359,9.86133333 14.0560684,9.83138462 L16.338188,9.79555556 C16.5635556,9.79555556 16.7392821,9.75822222 16.8637265,9.68396581 C16.9887179,9.6097094 17.0625641,9.52793162 17.0864957,9.43931624 C17.1105641,9.35001709 17.1116581,9.24909402 17.0912821,9.13586325 C17.0699487,9.02317949 17.0491624,8.94413675 17.0287863,8.89969231 L17.0287863,8.89969231 Z"></path>
                        </g>
                    </g>
                </g>
            </g>
        </g>
    </g>
</svg>