<svg version="1.1" id="Layer_1" xmlns="http://www.w3.org/2000/svg" xmlns:xlink="http://www.w3.org/1999/xlink" x="0px" y="0px"
	 viewBox="0 0 29.3 29.3" style="enable-background:new 0 0 29.3 29.3;" xml:space="preserve">
<g>
	<path fill="#4D4D4D" d="M14.6,0C6.6,0,0,6.6,0,14.6c0,8.1,6.6,14.6,14.6,14.6s14.6-6.6,14.6-14.6C29.3,6.6,22.7,0,14.6,0z M19.8,14.7
		c0,0.1,0,0.2-0.2,0.2c-1.1,0-2.2,0-3.3,0c-0.1,0-0.2,0-0.2,0.2c0,2.9,0,5.8,0,8.7c0,0.2,0,0.2-0.2,0.2c-1,0-2.1,0-3.1,0
		c-0.2,0-0.2-0.1-0.2-0.2c0-1.4,0-2.9,0-4.3c0-1.4,0-2.9,0-4.3c0-0.2,0-0.2-0.2-0.2c-0.9,0-1.9,0-2.8,0c-0.1,0-0.2,0-0.2-0.2
		c0-0.9,0-1.8,0-2.7c0-0.1,0-0.2,0.2-0.2c0.9,0,1.9,0,2.8,0c0.1,0,0.2,0,0.2-0.2c0-0.7,0-1.4,0-2.1c0.1-0.9,0.4-1.7,0.9-2.4
		C14.2,6.3,15,5.7,16,5.5c0.3-0.1,0.7-0.1,1-0.1c0.9,0,1.8,0,2.7,0c0.1,0,0.2,0,0.2,0.2c0,1,0,1.9,0,2.9c0,0.2-0.1,0.2-0.2,0.2
		c-0.5,0-1.1,0-1.6,0c-0.4,0-0.9,0-1.3,0c-0.3,0-0.3,0.3-0.4,0.4c-0.1,0.2-0.1,0.4-0.1,0.6c0,0.6,0,1.2,0,1.8c0,0.1,0,0.2,0.2,0.2
		c1.1,0,2.2,0,3.3,0c0.2,0,0.2,0,0.2,0.2C19.8,12.9,19.8,13.8,19.8,14.7z"/>
</g>
</svg>
