<svg version="1.1" id="Layer_1" xmlns="http://www.w3.org/2000/svg" xmlns:xlink="http://www.w3.org/1999/xlink" x="0px" y="0px"
	 viewBox="0 0 21.6 21.6" style="enable-background:new 0 0 21.6 21.6;" xml:space="preserve">
<g>
	<path fill="#1D1D1B" d="M7.8,15.6c-2,0-4-0.8-5.5-2.3c-3-3-3-8,0-11c3-3,8-3,11,0c3,3,3,8,0,11h0C11.8,14.8,9.8,15.6,7.8,15.6z
		 M7.8,4c-1,0-1.9,0.4-2.7,1.1c-1.5,1.5-1.5,3.9,0,5.4s3.9,1.5,5.4,0C12,9,12,6.6,10.5,5.1C9.7,4.4,8.8,4,7.8,4z"/>
	<rect x="13.3" y="15.3" transform="matrix(0.7071 0.7071 -0.7071 0.7071 17.3394 -7.1816)" fill="#1D1D1B" width="8" height="4"/>
</g>
</svg>
