<svg xmlns="http://www.w3.org/2000/svg" viewBox="0 0 40.01 24.22"><path d="M19.87,24.22H19.6A23,23,0,0,1,.2,13L0,12.65V11.53l.24-.4C.52,10.68,7.13,0,20.14,0h.27A23,23,0,0,1,39.81,11.2l.2.37v1.11l-.24.39C39.5,13.54,32.88,24.22,19.87,24.22ZM3.55,12.14a19.65,19.65,0,0,0,16.09,8.77h.23c9.44,0,15-6.61,16.6-8.84A19.65,19.65,0,0,0,20.38,3.31h-.23C10.7,3.31,5.15,9.92,3.55,12.14Z" fill="#b3b3b3"/><path d="M20,20.17a8.06,8.06,0,1,1,8.06-8.06A8.07,8.07,0,0,1,20,20.17ZM20,7.36a4.75,4.75,0,1,0,4.75,4.75A4.75,4.75,0,0,0,20,7.36Z" fill="#b3b3b3"/></svg>