<svg version="1.1" id="Layer_1" xmlns="http://www.w3.org/2000/svg" xmlns:xlink="http://www.w3.org/1999/xlink" x="0px" y="0px"
	 viewBox="0 0 29.3 29.3" style="enable-background:new 0 0 29.3 29.3;" xml:space="preserve">
<g>
	<path fill="#4D4D4D" d="M20.6,9.6c-0.5-0.8-1.3-1.2-2.2-1.3c-0.5-0.1-1-0.1-1.6-0.1c-1.7,0-3.4,0-5.1,0c-0.4,0-0.9,0.1-1.3,0.1
		c-1.1,0.2-1.7,0.9-2.1,1.9c-0.2,0.5-0.2,1-0.2,1.6c0,0.9,0,1.9,0,2.8c0,0,0,0,0,0c0,0.3,0,0.5,0,0.8c0,1,0,2,0.1,3
		c0.1,0.5,0.2,1,0.5,1.4c0.5,0.8,1.3,1.1,2.2,1.2c0.5,0.1,0.9,0.1,1.4,0.1c1.7,0,3.4,0,5.1,0c0.5,0,0.9,0,1.4-0.1
		c1.1-0.2,1.8-0.9,2.1-2c0.1-0.5,0.2-1.1,0.2-1.6c0-1,0-2.1,0-3.1c0-1.1,0-2.2-0.1-3.4C21,10.4,20.9,10,20.6,9.6z M14.5,18.7
		c-2.2-0.1-4-1.9-4-4.1c0-2.2,1.8-4,4.1-4c2.2,0,4.1,1.8,4,4.1C18.6,16.9,16.8,18.7,14.5,18.7z M18.9,11.4c-0.5,0-1-0.4-0.9-0.9
		c0-0.5,0.4-0.9,1-0.9c0.5,0,0.9,0.4,0.9,0.9C19.8,11,19.4,11.4,18.9,11.4z"/>
	<path fill="#4D4D4D" d="M14.7,12c-1.4,0-2.6,1.2-2.6,2.6c0,1.4,1.2,2.6,2.6,2.6c1.5,0,2.6-1.2,2.6-2.6C17.3,13.2,16.1,12,14.7,12z"/>
	<path fill="#4D4D4D" d="M14.6,0C6.6,0,0,6.6,0,14.6c0,8.1,6.6,14.6,14.6,14.6c8.1,0,14.6-6.6,14.6-14.6C29.3,6.6,22.7,0,14.6,0z
		 M22.5,16.9c0,0.7,0,1.4-0.2,2.1c-0.4,1.8-1.6,3-3.3,3.3c-0.4,0.1-0.9,0.1-1.3,0.1c-1.2,0-2.5,0-3.7,0c-0.8,0-1.6,0-2.4,0
		c-0.7,0-1.5-0.1-2.2-0.4c-1.2-0.5-2-1.5-2.4-2.7c-0.1-0.5-0.2-1.1-0.2-1.6c0-1.6,0-3.2,0-4.8c0-0.6,0-1.3,0.1-1.9
		c0.1-0.8,0.3-1.6,0.7-2.4c0.6-1,1.5-1.5,2.7-1.7c0.6-0.1,1.2-0.2,1.8-0.2c0.9,0,1.8,0,2.6,0c0.9,0,1.7,0,2.6,0c0.7,0,1.5,0,2.2,0.3
		c1.6,0.5,2.6,1.6,2.9,3.2c0.2,0.7,0.2,1.4,0.2,2.1C22.5,13.9,22.5,15.4,22.5,16.9z"/>
</g>
</svg>
