<svg version="1.1" id="Layer_1" xmlns="http://www.w3.org/2000/svg" xmlns:xlink="http://www.w3.org/1999/xlink" x="0px" y="0px"
	 viewBox="0 0 29.3 29.3" style="enable-background:new 0 0 29.3 29.3;" xml:space="preserve">
<g>
	<path fill="#4D4D4D" d="M14.6,0C6.6,0,0,6.6,0,14.6c0,8.1,6.6,14.6,14.6,14.6c8.1,0,14.6-6.6,14.6-14.6C29.3,6.6,22.7,0,14.6,0z
		 M21.4,16.4c0.5,0.5,1.1,1,1.6,1.6c0.3,0.3,0.6,0.7,0.9,1.1c0.1,0.2,0.2,0.4,0.3,0.6c0.1,0.4-0.1,0.7-0.5,0.7
		c-0.4,0.1-0.9,0.1-1.3,0.1c-0.6,0-1.1,0-1.7,0c-0.4,0-0.7-0.1-1-0.3c-0.4-0.2-0.7-0.6-1-0.9c-0.3-0.3-0.6-0.7-0.9-1
		c-0.1-0.1-0.3-0.2-0.4-0.3c-0.2-0.1-0.4-0.1-0.6,0.1c-0.3,0.3-0.4,0.6-0.4,0.9c0,0.3-0.1,0.6-0.1,0.9c0,0.3-0.2,0.5-0.5,0.5
		c-0.6,0-1.2,0-1.8,0c-0.9,0-1.7-0.4-2.5-0.8c-1.2-0.7-2-1.6-2.8-2.6c-1.4-1.9-2.5-4-3.5-6.2c-0.2-0.5,0-0.7,0.5-0.8
		c0.9,0,1.8,0,2.7,0c0.3,0,0.6,0.2,0.7,0.5c0.2,0.4,0.4,0.8,0.6,1.3c0.3,0.6,0.6,1.3,1,1.9c0.2,0.4,0.5,0.8,0.9,1.1
		c0.1,0.1,0.3,0.2,0.5,0.2c0.1,0,0.2-0.1,0.3-0.2c0.2-0.3,0.2-0.7,0.2-1c0.1-0.6,0.1-1.3,0-1.9c0-0.2-0.1-0.4-0.1-0.6
		c-0.1-0.5-0.5-0.7-0.9-0.8c-0.2,0-0.2-0.1-0.1-0.2c0.2-0.3,0.5-0.4,0.8-0.5c0.4-0.1,0.9-0.1,1.3-0.1c0.7,0,1.3,0,2,0.1
		c0.5,0.1,0.7,0.3,0.7,0.9c0,0.6,0,1.1,0,1.8c0,0.5,0,1.1,0,1.6c0,0.2,0,0.4,0.1,0.6c0.2,0.3,0.4,0.3,0.7,0.1c0.3-0.3,0.6-0.6,0.9-1
		c0.7-1,1.2-2.1,1.7-3.2c0-0.1,0.1-0.2,0.1-0.3c0.1-0.1,0.2-0.2,0.4-0.2c1.2,0,2.4,0,3.5,0c0.4,0,0.6,0.3,0.5,0.6
		c-0.1,0.5-0.3,0.9-0.6,1.3c-0.5,0.8-1.1,1.5-1.7,2.3c-0.2,0.3-0.5,0.6-0.6,0.9C21,15.7,21,16,21.4,16.4z"/>
</g>
</svg>
