<svg version="1.1" id="Layer_1" xmlns="http://www.w3.org/2000/svg" xmlns:xlink="http://www.w3.org/1999/xlink" x="0px" y="0px"
	 viewBox="0 0 351.6 205.7" style="enable-background:new 0 0 351.6 205.7;" xml:space="preserve">
<g>
	<path fill="#FB4E42" d="M14.1,84.7c0-18.7,7.4-35.7,19.4-48.3l-10-9.8C9,41.7,0,62.2,0,84.7c0,22.3,8.8,42.6,23.2,57.7l10-9.8
		C21.3,120,14.1,103.1,14.1,84.7z"/>
	<path fill="#FB4E42" d="M157.5,76.4h14.2c-1.9-19.2-10.4-36.5-23.1-49.8l-10,9.8C148.8,47.1,155.6,61,157.5,76.4z"/>
	<path fill="#FB4E42" d="M27,146.2c13.1,12.2,30,20.4,48.8,22.6v-14c-14.9-2.1-28.3-8.7-38.8-18.4L27,146.2z"/>
	<path fill="#FB4E42" d="M86,13.9c18.8,0,35.9,7.1,48.7,18.7l10-9.8C129.3,8.7,108.7,0,86,0C63.4,0,42.8,8.7,27.4,22.8l10,9.8
		C50.2,21,67.3,13.9,86,13.9z"/>
	<path fill="#FB4E42" d="M131,43.8c-1.2-1.3-2.5-2.6-3.8-3.8c-10.9-9.7-25.3-15.7-41.1-15.7c-15.8,0-30.3,5.9-41.1,15.7
		c-1.3,1.2-2.6,2.5-3.8,3.8c-9.4,10.1-15.5,23.3-16.2,37.8H39c0.7-10.7,5.1-20.5,12-28c1.2-1.3,2.5-2.6,3.9-3.8
		c8.3-7.2,19.2-11.6,31.1-11.6c11.9,0,22.8,4.4,31.1,11.6c1.4,1.2,2.6,2.4,3.9,3.8c5.8,6.3,9.8,14.1,11.4,22.7h14.3
		C144.9,63.9,139.3,52.6,131,43.8z"/>
	<path fill="#FB4E42" d="M50.7,115.3C43.8,107.7,39.5,97.8,39,87H24.8c0.6,14.7,6.5,28,15.8,38.2c1.2,1.3,2.5,2.6,3.8,3.8
		c8.5,7.8,19.3,13.2,31.3,15.2V130c-8.1-1.8-15.4-5.6-21.3-10.9C53.2,117.9,51.9,116.6,50.7,115.3z"/>
	<path fill="#FB4E42" d="M68.4,97.9C66,94.8,64.4,91,64,87c-0.1-0.8-0.1-1.5-0.1-2.3c0-1,0.1-2.1,0.2-3.1c0.6-4,2.2-7.6,4.6-10.6
		c1.1-1.4,2.4-2.6,3.9-3.7c3.7-2.8,8.4-4.5,13.4-4.5c5,0,9.7,1.7,13.4,4.5c1.4,1.1,2.8,2.3,3.9,3.7c1.3,1.6,2.4,3.4,3.2,5.4h14.7
		c-1.4-5.7-4.2-10.9-8-15.2c-1.2-1.3-2.5-2.6-3.9-3.8C103.1,52.2,95,49,86,49c-8.9,0-17.1,3.2-23.4,8.5c-1.4,1.2-2.7,2.4-3.9,3.8
		c-4.9,5.6-8.2,12.6-8.8,20.4c-0.1,1-0.2,2-0.2,3.1c0,0.8,0.1,1.5,0.1,2.3c0.5,7.9,3.6,15.1,8.5,20.8c1.2,1.4,2.5,2.6,3.8,3.8
		c3.9,3.4,8.5,5.9,13.6,7.4V104c-1.3-0.7-2.5-1.4-3.6-2.3C70.7,100.6,69.5,99.3,68.4,97.9z"/>
	<path fill="#FB4E42" d="M191.9,175.4c0.1,0.3,0.1,0.6,0.1,0.8c0,0.8-0.1,1.7-0.1,2.5c-0.1,1.7-0.2,3.4-0.2,5c0,2.6,0.2,5.2,0.3,7.7
		c0,0.7,0.1,1.4,0.1,2.1c0,0.6,0.2,1.2,0.3,1.7c0.2,0.6,0.7,1.1,1.4,1.5c0.1,0.1,0.2,0.1,0.3,0.1c0.2,0.1,0.3,0.2,0.4,0.2
		c0.1,0,0.2,0,0.3-0.1c0.1,0,0.2-0.1,0.4-0.1c2.1-0.4,2.6-3,2.6-3.7c0-0.8,0-1.6-0.1-2.3c0-1.7-0.1-3.4-0.2-5.1
		c-0.2-3.2-0.2-5-0.1-8c0-0.3,0-0.5,0.1-0.8c0-0.1,0-0.2,0.1-0.2l0.1,0c0.2,0,0.3,0,0.5,0c0.6,0,2.1,0,3.5,0.1c1.1,0,2.1,0,2.6,0
		c0.3,0,0.7,0,0.8,0.1c0,0,0,0.1,0,0.3c0,0.8,0,1.3-0.1,1.8c-0.1,0.5-0.1,1.1-0.1,2c0.1,3.2,0.1,6.4,0.2,9.5c0,0.8,0.1,1.7,0.2,2.5
		c0,0.3,0.1,0.7,0.3,1c0.3,1,1.6,0.9,2.1,0.9c1.5-0.1,3.2-0.9,3.2-2.4c-0.2-1.8-0.2-3.7-0.2-5.5c0-1.8,0-3.7-0.2-5.5
		c-0.1-1.5-0.2-3-0.4-4.4l0-0.3c0-0.2,0-0.4,0-0.7c0-1.6-0.1-3-0.6-3.6c-0.5-0.5-3.8-0.5-9.1-0.3c-1.6,0-3.1,0.1-4.4,0.1
		c0,0,0,0-0.1,0c-0.5,0-0.9,0-1.3,0c-0.9,0-1.7-0.1-2.7,0.1c-0.4,0.1-0.6,0.2-0.7,0.5c-0.3,0.7,0.3,1.7,0.6,2.3
		C191.8,175.2,191.9,175.3,191.9,175.4z"/>
	<path fill="#FB4E42" d="M317.1,175.4c-0.9-1.1-2-2-3.3-2.5c-1.3-0.6-2.8-0.8-4.4-0.6c-1,0.1-2.2,0.2-3.5,0.3c-0.6,0-1.2,0-1.8,0
		l-0.5,0c0,0,0,0,0,0c-1.1,0-1.8,0.4-2.3,0.7c-0.5,0.3-0.9,0.7-1.3,1.1c-0.1,0.1-0.3,0.3-0.4,0.4c-1.2,1.1-1.7,2.4-2.1,3.5
		c-0.7,2.3-0.8,4.7-0.8,6.7c0,1.7,0.3,3.3,1,4.8c0.7,1.6,1.8,3.3,4.1,4.6c2.1,1.2,4.1,1.7,6.3,1.7c0,0,0,0,0,0
		c1.1,0,2.2-0.1,3.2-0.5c0.6-0.3,1.4-0.6,2-1c1.3-0.8,2.3-1.8,3.2-3c2.1-2.8,3.2-5.9,3.1-9.2l0-0.2c0-0.2,0-0.3,0-0.5
		C319.6,179.6,318.8,177.5,317.1,175.4z M302.8,187.4l0-0.1c-0.2-2.1-0.1-3.8,0.3-5.3c0.2-0.9,0.5-1.9,0.8-2.8l0-0.1
		c0.2-0.3,2.3-2.3,4.1-2.7c3.2-0.6,4.8,2.9,5.3,3.9c1.1,2.7,0.5,5.5-1.7,9c-1,1.5-2.5,2.6-4.1,2.9c-1.1,0.2-2,0-2.7-0.6
		C303.1,190.4,303,189.1,302.8,187.4z"/>
	<path fill="#FB4E42" d="M156.4,186.4c-0.1,1.3-0.2,2.7-0.2,4c-0.1,1.9,1,4.4,2.4,5.4c0.2,0.2,0.6,0.2,1.1,0.2c0.4,0,0.9-0.1,1.4-0.2
		c0.7-0.2,1.1-0.6,1.2-1.1c0.5-0.9,0.7-2,0.7-3.2c0-2.4-0.1-7.7-0.2-11.9c-0.1-2.9-0.2-5.6-0.1-5.8c0-0.3-0.1-0.5-0.3-0.9
		c-0.5-0.7-1.5-1.2-2.3-1.3c-1.1-0.1-1.9,0.3-2.3,0.7c-0.6,0.5-0.9,1.1-0.9,1.5l0,0.5c0,0.7-0.1,1.6-0.1,2.1c0,1,0,1.4,0.1,1.8
		c0,0.4,0,0.7,0.1,1.6c0,0.1,0,0.2,0,0.4c0,0,0,0,0,0c-0.3,0-0.8,0.1-1.8,0.2c-2,0.3-5,0.7-5.9,0.6c-0.2,0-0.5,0-0.6-0.1
		c0,0,0,0,0-0.2c0-1.3-0.1-3.7-0.1-5c0-0.1,0-0.3,0-0.5c0.1-1,0.1-1.4-0.1-1.6c-0.4-0.5-1-1.4-2.1-1.7c-0.4-0.1-1.3-0.3-2.1,0.3
		c-1,0.7-1.6,2.3-1.8,4.7c0,1.6,0,3.3-0.1,4.8c0,1-0.1,2-0.2,3c0,0.7-0.1,1.4-0.1,2c-0.1,0.9-0.1,1.8-0.1,2.7c0,1.7,0.3,4.3,0.9,5.1
		c1.1,1.4,3.7,1.5,4.3,1.1c1.4-0.9,1.5-4.7,1.4-8.5c0-0.7,0-1.3,0-1.7c0-0.1,0-0.2,0-0.2c0,0,0.2,0,0.4-0.1l0.3,0
		c2.3-0.3,4.5-0.6,6.4-1c0.6-0.1,0.8-0.1,0.8,0c0.1,0.1,0.1,0.4,0.1,0.6L156.4,186.4z"/>
	<path fill="#FB4E42" d="M91.8,187.6c0.1-1.8,0.2-3.6,0.1-4.8c0-0.7,0-0.7,1-0.8c1.1-0.1,2.5-0.4,4.1-0.7c1.7-0.3,3.4-0.6,4.6-0.7
		c0.2,0,0.7,0,0.8,0c0.1,0,0.1,0.3,0.1,0.4c0,1,0.1,2.3,0.1,3.6c0.1,2.1,0.1,4.3,0.2,5.8c0,0.4,0,0.9,0.1,1.4c0,0.6,0,1.2,0.1,1.6
		l0,0.4c0.1,1.3,0.1,1.9,0.7,3c0.3,0.6,0.8,1,1.3,1.1c1,0.2,1.9-0.8,2.5-1.3l0.2-0.2c1.2-1.8,1.5-3.7,1.5-6.2c0-1.2-0.1-4.2-0.1-5.4
		c0-0.9-0.1-1.7-0.1-2.6c0-0.7-0.1-1.5-0.1-2.2c0.4-0.3,1.8-1.3,1.8-2.8c0-1-1.5-1.8-2-2.1c0-0.9,0-1.8,0-2.7c0-0.7,0-1.1,0-1.6
		c0-0.4,0.1-0.9,0-1.6c0-1.1-0.3-1.9-1-2.5c-0.1,0-0.1-0.1-0.2-0.1c-0.7-0.5-1.7-0.6-2.5-0.3c-0.8,0.2-1.3,0.8-1.7,1.5
		c-0.6,1.2-0.6,2.6-0.6,2.8c0,1.7,0,3.3-0.1,4.9c0,0.3,0,0.3-0.6,0.4c-1.2,0.1-6.8,1.4-9.2,1.9c-0.4,0.1-0.7,0.1-0.8,0.2
		c0,0,0,0,0,0c0-0.2,0-0.3,0-0.5c0-0.9,0-1.7,0-2.6c0-1.5,0.1-3,0.1-4.5c0-0.4,0-0.7,0-1.1c0-0.2,0-0.5,0-0.7c0-0.3,0-0.6,0-0.9
		c0-0.5-0.4-1.5-1.2-2.1c-0.6-0.5-1.3-0.7-2-0.5c-2,0.3-3.2,3-3.1,3.9c0,0.2,0,0.3,0,0.5c0,0.3,0,0.6,0,0.9c0,0.1,0,0.3,0,0.4
		c0,0.4-0.1,0.9-0.1,1.3c-0.1,1.2-0.2,2.5-0.2,3.8c0,2.4-0.1,5.1-0.3,8.1c-0.1,3.3-0.3,6.8-0.3,9.6c0,0.3,0,0.5,0,0.8
		c0,1.1,0,2.4,0.4,3.4c0.3,0.8,0.9,1.3,1.7,1.6c0.4,0.1,0.8,0.2,1.1,0.2c0.6,0,1.2-0.1,1.5-0.3c1.7-1,2.5-3.4,2.3-7.2
		C91.7,190.8,91.8,189.2,91.8,187.6z"/>
	<path fill="#FB4E42" d="M329.2,169.2c0-0.1,0-0.2,0-0.2c-0.3-1.9-1.7-2.6-2.8-2.6c0,0-0.1,0-0.1,0c-1.4,0.1-3,1.1-3.1,2.9
		c0,0.7,0,1.5,0,2.2c0,0.5,0,1,0,1.4c0,1.6,0,5.3-0.1,7c0,0.9-0.1,1-0.1,1.2c0,0.2-0.1,0.4-0.1,1.3c0,0.9-0.1,3.1-0.1,4
		c0,2.1,3,3.9,3.7,4.1c0,0,0.1,0,0.1,0c0.1,0,0.3,0,0.4-0.1c0.4-0.4,0.6-1.4,0.6-1.8c0-0.9,0-1.2,0.2-1.9l0.1-0.4
		c0.1-0.8,1.3-13.8,1.3-15.1c0-0.2,0-0.4,0.1-0.6c0-0.2,0.1-0.4,0.1-0.6C329.3,169.7,329.3,169.4,329.2,169.2z"/>
	<path fill="#FB4E42" d="M276.8,188.9c0.2,0.2,0.4,0.4,0.7,0.7c0.5,0.5,1.1,0.8,1.8,0.9c0.5,0.1,0.9,0.1,1.1-0.1
		c0.2-0.1,0.2-0.3,0.2-0.6c0-0.2,0-0.4,0-0.4c0.1-0.1,0.2-0.3,0.3-0.7c0.1-0.6,0.3-1.3,0.3-2c0.1-2,0.3-2.2,0.7-2.2c0,0,0,0,0.1,0
		c1.9,0.1,3.6,0.2,5.3,0.3c0.3,0,0.7,0.1,0.7,0.1c0,0,0,0.2,0,0.4l-0.1,1.4c-0.1,1.3-0.1,2.6-0.2,3.9c-0.1,1.8,0.4,4.1,2,5.3
		c0.3,0.2,0.7,0.4,1,0.4c0.1,0,0.3,0,0.4-0.1c0.9-0.2,1.5-1,1.7-1.3c0.4-0.9,0.6-1.9,0.6-3.1c0-4.3,0.1-8.1,0-12c0-1-0.1-2-0.2-2.9
		c0-0.3-0.1-0.7-0.1-1c-0.2-2.6-1.2-4.2-2.6-4.2c0,0,0,0,0,0c-1.4,0-2.4,2-2.4,2.7c0,0.2,0,0.5,0,0.7c0,0.4,0,0.9,0,1.3
		c0,1,0,1.8,0.1,2.6c0,0.6,0,1.3,0,2.1c0,0.1,0,0.2,0,0.4c-0.1,0-0.2,0-0.2,0c-0.8-0.3-1.7-0.4-2.5-0.5c-1.2-0.1-2.4-0.2-3.6-0.4
		c-0.1,0-0.4,0-0.4-0.1c0,0,0,0,0-0.2c0-1.2-0.1-2.5,0-3.8c0,0-0.2-4.8-2.6-4.8c-2.4,0-2.9,2.1-2.9,2.6c0,0.6,0,1.2,0,1.7
		c0,0.5,0,1.1,0,1.6c0,1.6,0,3.2-0.1,4.7c0,0.9-0.1,1.6-0.2,2.2c-0.1,0.6-0.1,1.1-0.1,1.5C275.5,187.7,275.8,188,276.8,188.9z"/>
	<path fill="#FB4E42" d="M213.9,183.2c0.5,0.5,1,0.9,1,1.5l-0.1,1.2c-0.1,1-0.2,2-0.2,3.1c-0.1,0.7-0.1,1.5-0.2,2.2l-0.1,1.5
		c0,0.3,0.1,0.6,0.3,0.9c0.3,0.5,2.4,2.5,3.6,2.7c0.2,0,0.3,0,0.5,0c0.8,0,1.5-0.4,1.7-1l0-0.2c0-0.2,0.1-0.4,0.1-0.6l0.1-0.8
		c0.1-1.3,0.2-2.7,0.3-4c0-0.7,0-1.4,0.1-2.1c0-0.4,0-0.8,0-1.2c0-0.2,0-0.2,0-0.2c0,0,0.2,0,0.4-0.1c1.7-0.1,4.2-0.5,6-1
		c2-0.5,3.5-1.2,4.6-2.1c1.3-1,1.8-2.2,1.5-3.5c-0.4-1.8-1.7-3.3-3.8-4.5c-0.8-0.5-1.7-0.9-2.4-1.3c-1.7-0.8-3.6-1.5-5.6-1.9
		c-0.7-0.2-4-0.4-5.6,0.8c-0.6,0.4-0.9,1-0.9,1.6c0,1.3,0,2.6,0,3.9c0,1,0,2,0,3.1c0,0.7-1,0.9-1.1,0.9c-0.2,0-0.3,0.3-0.4,0.4
		C213.4,182.9,213.7,183.1,213.9,183.2z M220.1,176.3c0,0,0-0.1,0-0.1l0-0.1c0,0,0-0.1,0.2-0.1c0.5-0.1,1.1-0.1,1.7-0.1
		c1.9,0,4.1,0.3,5.5,0.8c0.3,0.1,0.5,0.3,0.5,0.6c0.1,0.6-0.2,1.2-1,1.9c-0.6,0.5-1.2,0.8-1.8,1c-0.5,0.2-1.4,0.3-2.3,0.4
		c-0.8,0.1-1.6,0.3-2.1,0.4c-0.1,0-0.2,0-0.3,0c0,0,0,0-0.1,0c0,0,0,0,0,0c0-0.1-0.1-0.2-0.1-0.3c-0.1-1.2-0.1-2.4-0.2-3.6
		L220.1,176.3z"/>
	<path fill="#FB4E42" d="M262.8,195.5c1.2,0.5,2.6,0.8,4,1l0.3,0c0.8,0.1,1.7,0.2,2.6,0.2c0.6,0,1.2,0,1.9-0.1c2-0.2,3.9-0.7,5.9-1.7
		c1.4-0.7,2.2-1.4,2.4-2.4c0.2-0.6-0.3-0.9-0.6-1c-0.1,0-0.2-0.1-0.2-0.1c-0.1,0-0.2-0.1-0.3-0.2c-0.1-0.2-0.3-0.2-0.6-0.3
		c-0.1,0-0.2,0-0.2,0c0,0-0.1,0-0.1,0l-0.1,0c-0.8-0.3-0.9-0.3-1.6,0c-1.3,0.6-2.6,1.1-4,1.8c-1.3,0.6-2.8,1-4.5,1.2
		c-1.2,0.1-2.1-0.1-2.6-0.6c-0.1-0.1-0.2-0.2-0.3-0.3c-0.2-0.1-0.3-0.3-0.5-0.4c-0.9-1-1.4-2.1-1.5-3.3c-0.2-1.9,0.1-3.7,0.7-5.3
		c0.8-2.2,1.9-4.9,4-6.4c1.4-1.1,2.9-1.1,3.8-1c0.3,0,0.5,0,0.7,0c0.2,0,0.4-0.1,0.6-0.2c0.1,0,0.1-0.1,0.2-0.1l0.1,0l0.2-0.6
		c0-0.1,0.1-0.3,0-0.4c0-0.1,0.1-0.3,0.2-0.5c0.2-0.3,0.3-0.6,0.2-0.9c0-0.1-0.1-0.2-0.3-0.3l-0.2-0.1c-5.5-2-9.8-1.4-12.4,1.9
		c-2.5,3.1-4.2,8-4,11.8c0.1,1.9,0.7,3.6,1.8,5.1C259.5,193.6,261,194.7,262.8,195.5z"/>
	<path fill="#FB4E42" d="M112.8,192c-0.1,1-0.2,3.3,1.2,3.9l0.1,0l0.1,0c0.1,0,0.2,0,0.3,0c0.2,0,0.5,0,0.7,0c0.5-0.1,1.4-0.2,2.4-0.3
		c6.2-0.7,12.9-1.5,14-2c0.3-0.1,0.6-0.3,0.8-0.6c0.3-0.4,0.4-1.1,0.1-1.8c-0.3-0.7-0.8-1-1.5-1.1c-0.4,0-0.6,0-0.8,0
		c-0.3,0-0.5,0-1,0c-1.6,0-3.1,0.2-4.6,0.4c-1.5,0.2-3,0.4-4.6,0.4c-0.1,0-0.3,0-0.5,0l-0.1,0c0-0.7,0.1-1.5,0.1-2.3
		c0-0.8,0-1.6,0.1-2.4c0.7-0.1,2.7-0.5,5.2-1.1l1.5-0.3c2.6-0.6,4.2-1.6,4.1-2.5c-0.1-0.7-1-1.1-2.4-1c-1.3,0-2.7,0.2-4,0.4
		c-1.3,0.2-2.6,0.3-3.9,0.4c-0.1,0-0.3,0-0.5,0l-0.2,0c0,0,0,0,0,0c0-0.1-0.1-0.2-0.1-0.3c-0.1-0.9-0.1-1.5-0.2-2.1
		c0-0.6-0.1-1.3-0.2-2.1c0-0.1,0-0.2,0-0.2c0.1,0,0.4-0.1,0.8-0.1c0.7-0.1,8.6-1.2,10.2-1.5c1.7-0.3,2.2-1.2,2.2-2
		c-0.1-0.9-1-1.8-2.2-1.8c0,0,0,0-0.1,0c-1.8,0-3.7,0.3-5.4,0.6c-1.1,0.2-2.3,0.3-3.5,0.5l-2,0.2c-4.6,0.7-5.7,1.9-6.1,3.6
		c0,0.1-0.1,0.2-0.1,0.4c-0.1,0.4-0.3,0.9-0.2,1.3c0,1.1,0.1,2.3,0.2,3.4c0.1,1.1,0.1,2.3,0.2,3.5c0.1,2.1,0.1,4.2,0.1,6.6
		C112.8,191.7,112.8,191.8,112.8,192z"/>
	<path fill="#FB4E42" d="M327,191.7c-0.2-0.1-0.5-0.2-0.7-0.4c-0.8-0.5-1.8-1-2.5-0.8c-1,0.2-1.8,0.9-1.8,1l-0.1,0.1
		c-0.5,0.6-1.6,2.7-0.9,3.9c0.6,1,2.3,2.2,3.6,2.3c0,0,0,0,0.1,0c1.2,0,3.4-1.5,3.7-2.5C328.5,194.4,328,192,327,191.7z"/>
	<path fill="#FB4E42" d="M164.8,193c-0.8,1.8-1.2,4.3-0.4,5.4c0.3,0.4,0.7,0.6,1.2,0.6c0,0,0.1,0,0.1,0c1.8-0.1,2.2-0.7,3.2-1.8
		c0.2-0.2,0.4-0.4,0.6-0.7c1.3-1.5,3.1-5.5,3.4-6.3l8.7-1.8c0.3,0.4,1,1.5,1.5,3c0.4,1.3,1.3,2.4,2.4,2.9c0.6,0.3,1.2,0.3,1.8,0.1
		c1.4-0.6,1.8-1.7,1.3-3.2c-0.4-1.1-1.3-3-1.6-3.7c0.8-0.3,2.9-1.3,3.2-2.2c0.1-0.2,0.1-0.4,0-0.6c-0.5-1-3.6-0.9-4.6-0.8
		c-0.3-0.5-1.3-2.4-1.6-3.6c0,0-1.7-4.7-2.8-4.7c-0.7,0-1.1,1.2-1.3,4.3c-0.1,1.4,0.7,3.8,1,4.6l-5.8,0.9c0.9-1.9,4.6-9.8,5-10.7
		l0.1-0.2c0.3-0.7,0.7-1.7,0.3-2.3c-0.3-0.4-0.8-0.6-1.6-0.6c0,0,0,0-0.1,0c-2.5,0-6,5-7.1,6.8l0,0c0,0-0.7,1.2-1.8,3.4
		C168.8,183.8,166.2,189.8,164.8,193z"/>
	<path fill="#FB4E42" d="M231.8,191c-0.8,1.8-1.2,4.3-0.4,5.4c0.3,0.4,0.7,0.6,1.2,0.6c0,0,0.1,0,0.1,0c1.8-0.1,2.2-0.7,3.2-1.8
		c0.2-0.2,0.4-0.4,0.6-0.7c1.2-1.4,2.2-3.7,2.5-4.2l8.6-1.8c0.3,0.7,1.5,3.2,1.9,4.7c0.4,1.3,1.3,2.4,2.4,2.9
		c0.6,0.3,1.2,0.3,1.8,0.1c1.4-0.6,1.8-1.7,1.3-3.2c-0.4-1.1-1.7-4.5-2.1-5.4c0.7-0.3,2.9-1.3,3.2-2.2c0.1-0.2,0.1-0.4,0-0.6
		c-0.5-1-3.6-0.9-4.6-0.8c-0.3-0.5-1.2-2.4-1.6-3.6c0,0-1.7-4.7-2.8-4.7c-0.7,0-1.1,1.2-1.3,4.3c-0.1,1.4,0.7,3.8,1,4.6l-5.8,0.9
		c0.9-1.9,4.6-9.8,5-10.7l0.1-0.2c0.3-0.7,0.7-1.7,0.3-2.3c-0.3-0.4-0.8-0.6-1.6-0.6c0,0,0,0-0.1,0c-2.5,0-6,5-7.1,6.8l0,0
		c0,0-0.7,1.2-1.8,3.4c-1,1.9-2.6,5.6-3.7,8.1L231.8,191z"/>
	<path fill="#FB4E42" d="M314.7,199.2l-220.2,1.3c-3,0-5.5,5.1-1.6,5.1l221-3.4C318.5,202,316.7,199.2,314.7,199.2z"/>
	<path fill="#1D1D1B" d="M92.5,105.6v-4.4h3.2c1.2,0,2.2-0.1,3.2-0.4c1.2-0.3,2.3-0.7,3.2-1.2c0.7-0.4,1.3-0.9,1.8-1.4
		c0.8-0.9,1.4-2,1.7-3.4c0.1-0.6,0.2-1.2,0.2-1.9c0-2.5-0.9-4.5-2.5-5.9c-1.7-1.5-4.2-2.3-7.2-2.3h-5.9h-0.8H86V87v1.1v0v18.5v1.3
		h6.5V105.6z M92.5,90.1h3.1c0.1,0,0.1,0,0.1,0c2.3,0,3.6,1.1,3.6,3c0,0.2-0.1,0.3-0.1,0.4c-0.2,1.6-1.5,2.6-3.6,2.6h-1.4h-1.7v-1.7
		V90.1z"/>
	<path fill="#1D1D1B" d="M118.3,101l4.6,6.8h4h3.5l-2-2.9l-3.6-5.2c2.9-1.2,4.8-3.6,4.8-7.1c0-2.3-0.7-4.1-2.1-5.5
		c-0.1-0.1-0.2-0.1-0.3-0.2c-1.2-1.1-2.8-1.8-5-2.1c-0.7-0.1-1.6-0.2-2.4-0.2h-11.1V87v15.9v4.9h4.9h0.2h1.5v-2.1v-4.9h2.9
		L118.3,101z M115.3,90.2h4.3c0.9,0,1.6,0.2,2.2,0.5c0.8,0.4,1.3,1.2,1.3,2.2c0,1.5-0.9,2.4-2.5,2.7c-0.3,0.1-0.6,0.1-1,0.1h-4.3
		V90.2z"/>
	<path fill="#1D1D1B" d="M144.6,108.3c5,0,9.1-2.6,11.2-6.3c1-1.7,1.5-3.6,1.5-5.7c0-0.4-0.1-0.9-0.1-1.3c-0.3-3.3-1.9-6.1-4.4-8
		c-1.5-1.2-3.4-2.1-5.5-2.5c-0.8-0.2-1.7-0.2-2.6-0.2c-3.1,0-5.9,1.1-8.1,2.7c-2.2,1.7-3.7,4-4.3,6.7c0,0.1-0.1,0.3-0.1,0.4
		c-0.1,0.7-0.2,1.4-0.2,2.1c0,6,4.3,10.9,10.5,11.8C143.2,108.2,143.9,108.3,144.6,108.3z M138.7,96.3c0-3.4,2.4-6.2,5.9-6.2
		c0.9,0,1.6,0.2,2.4,0.5c2.3,1,3.7,3.2,3.7,5.8c0,3.4-2.4,6.3-6,6.3c-0.1,0-0.1,0-0.1,0C141.1,102.4,138.7,99.5,138.7,96.3z"/>
	<polygon fill="#1D1D1B" points="167.5,99.6 170.7,99.6 178.6,99.6 178.6,94.2 171.5,94.2 167.5,94.2 167.5,90.3 171.9,90.3 
		179.8,90.3 179.8,84.7 172.1,84.7 160.9,84.7 160.9,107.8 167.5,107.8 	"/>
	<rect x="183.2" y="84.7" fill="#1D1D1B" width="6.5" height="23.1"/>
	<polygon fill="#1D1D1B" points="201,84.7 194.5,84.7 194.5,107.8 212.4,107.8 212.4,102.2 201,102.2 	"/>
	<path fill="#1D1D1B" d="M224.1,84.5l-10,23.3h6.9l1.7-4.1h9.1l1.7,4.1h7l-10-23.3H224.1z M224.6,98.7l2.7-6.6l2.6,6.6H224.6z"/>
	<polygon fill="#1D1D1B" points="265.1,84.7 257.4,84.7 249.3,94.1 249.3,84.7 242.8,84.7 242.8,107.8 249.3,107.8 249.3,101.8 
		251.7,99.2 257.6,107.8 265.4,107.8 256.2,94.6 	"/>
	<polygon fill="#1D1D1B" points="266.8,90.3 273.9,90.3 273.9,107.8 280.4,107.8 280.4,90.3 287.4,90.3 287.4,84.7 266.8,84.7 	"/>
	<rect x="290.2" y="84.7" fill="#1D1D1B" width="6.6" height="23.1"/>
	<polygon fill="#1D1D1B" points="323.8,84.7 316,84.7 307.9,94.1 307.9,84.7 301.4,84.7 301.4,107.8 307.9,107.8 307.9,101.8 
		310.3,99.2 316.2,107.8 324.1,107.8 314.9,94.6 	"/>
	<path fill="#1D1D1B" d="M335.3,84.5l-10,23.3h6.9l1.7-4.1h9.1l1.7,4.1h7l-10-23.3H335.3z M335.8,98.7l2.7-6.6l2.6,6.6H335.8z"/>
	<polygon fill="#1D1D1B" points="98.6,136.8 94.5,130.3 93,127.9 86.1,127.9 86.1,131.1 86.1,145 86.1,151 92.5,151 92.5,144.6 
		92.5,137.8 96.6,144 98.5,146.8 98.6,146.8 101,143.1 104.6,137.7 104.6,142.1 104.6,151 111,151 111.1,151 111.1,151 111.1,139.7 
		111.1,127.9 104.2,127.9 	"/>
	<polygon fill="#1D1D1B" points="122.3,145.6 122.3,141.9 128.3,141.9 133.6,141.9 133.6,137.8 133.6,136.8 122.3,136.8 122.3,133.3 
		132,133.3 134.7,133.3 134.7,128.5 134.7,127.9 134.1,127.9 128.7,127.9 126.5,127.9 115.8,127.9 115.8,137.3 115.8,149.1 
		115.8,151 134.9,151 134.9,145.6 122.7,145.6 	"/>
	<path fill="#1D1D1B" d="M148,127.9H143h-4v4.7v0v7.5V151h0.4h8.5c0.7,0,1.3-0.1,2-0.1c2.3-0.2,4.3-0.8,5.9-1.7c3.6-2,5.5-5.6,5.5-9.8
		c0-3.3-1.2-6.2-3.4-8.2C155.6,129.1,152.3,127.9,148,127.9z M148.1,145.3H146h-0.5V139v-5.5h2.7c2.7,0,4.8,1.1,5.8,3.1
		c0.4,0.8,0.7,1.8,0.7,2.9c0,2.6-1.3,4.5-3.3,5.3C150.4,145.1,149.3,145.3,148.1,145.3z"/>
	<rect x="165" y="127.9" fill="#1D1D1B" width="6.6" height="23.2"/>
	<path fill="#1D1D1B" d="M184,127.7l-10,23.3h6.9l1.7-4.1h9.1l1.7,4.1h7l-10-23.3H184z M184.4,141.9l2.7-6.6l2.6,6.6H184.4z"/>
</g>
</svg>
