<svg width="40px" height="40px" viewBox="0 0 40 40" version="1.1" xmlns="http://www.w3.org/2000/svg" xmlns:xlink="http://www.w3.org/1999/xlink">
    <g stroke="none" stroke-width="1" fill="none" fill-rule="evenodd">
        <g transform="translate(-250.000000, -1066.000000)" fill="#FFFFFF">
            <g transform="translate(135.000000, 814.000000)">
                <g transform="translate(0.000000, 64.000000)">
                    <g transform="translate(115.000000, 188.000000)">
                        <circle opacity="0.200000003" cx="20" cy="20" r="20"></circle>
                        <path d="M26.3360039,25.7245039 C26.5169764,25.9048826 26.7637354,26 27.001232,26 C27.2387287,26 27.4854877,25.9048826 27.6664601,25.7245039 C28.0365986,25.3543654 28.0365986,24.765255 27.6664601,24.3946415 L23.2730506,20.001232 L27.6664601,15.6078225 C28.0365986,15.237209 28.0365986,14.6485736 27.6664601,14.2779601 C27.2957278,13.9073466 26.7067362,13.9073466 26.3360039,14.2779601 L21.2779601,19.3360039 C20.9073466,19.7066174 20.9073466,20.2957278 21.2779601,20.6663413 L26.3360039,25.7245039 Z" transform="translate(24.472032, 20.000000) scale(-1, 1) translate(-24.472032, -20.000000) "></path>
                        <rect x="12" y="19" width="14" height="2" rx="1"></rect>
                    </g>
                </g>
            </g>
        </g>
    </g>
</svg>