<?xml version="1.0" encoding="UTF-8"?>
<svg width="16px" height="16px" viewBox="0 0 16 16" version="1.1" xmlns="http://www.w3.org/2000/svg" xmlns:xlink="http://www.w3.org/1999/xlink">
    <!-- Generator: sketchtool 41.2 (35397) - http://www.bohemiancoding.com/sketch -->
    <title>A873B49B-8BD0-4413-B882-84FA04363A4A</title>
    <desc>Created with sketchtool.</desc>
    <defs>
        <polygon id="path-1" points="0.0208695652 0.283948571 0.0208695652 15.9998056 15.7515518 15.9998056 15.7515518 0.283948571 0.0208695652 0.283948571"></polygon>
    </defs>
    <g id="Page-1" stroke="none" stroke-width="1" fill="none" fill-rule="evenodd">
        <g id="desktop-header" transform="translate(-573.000000, -43.000000)">
            <g id="Group-2" transform="translate(573.000000, 21.000000)">
                <g id="call-answer" transform="translate(0.000000, 22.000000)">
                    <mask id="mask-2" fill="white">
                        <use xlink:href="#path-1"></use>
                    </mask>
                    <g id="Clip-2"></g>
                    <path d="M15.3982609,12.7144348 L12.965913,10.2810435 C12.4810435,9.7986087 11.6793043,9.81356522 11.178087,10.3151304 L9.95234783,11.5405217 C9.87513043,11.4984348 9.79478261,11.4535652 9.7106087,11.4062609 C8.936,10.9766957 7.87756522,10.389913 6.76208696,9.27443478 C5.64417391,8.15617391 5.05565217,7.09495652 4.62643478,6.32034783 C4.58017391,6.23895652 4.53669565,6.16034783 4.4946087,6.08417391 L5.31652174,5.26330435 L5.7213913,4.85843478 C6.22295652,4.35582609 6.23791304,3.55408696 5.75408696,3.0706087 L3.32069565,0.637217391 C2.83826087,0.153391304 2.03547826,0.168347826 1.53252174,0.670956522 L0.848,1.36 L0.865391304,1.37878261 C0.635826087,1.67234783 0.444173913,2.01078261 0.301565217,2.37495652 C0.16973913,2.72278261 0.0869565217,3.05426087 0.0504347826,3.38573913 C-0.271652174,6.04869565 0.94573913,8.48208696 4.24730435,11.7850435 C8.81252174,16.3488696 12.4918261,16.0052174 12.6507826,15.9874783 C12.9958261,15.9467826 13.3273043,15.864 13.6643478,15.7335652 C14.0257391,15.5923478 14.3641739,15.4006957 14.6563478,15.1711304 L14.6713043,15.1846957 L15.3669565,14.504 C15.8667826,14.0010435 15.8817391,13.1996522 15.3982609,12.7144348 Z" id="Fill-1" fill="#48ABEC" mask="url(#mask-2)"></path>
                </g>
            </g>
        </g>
    </g>
</svg>