<svg width="32px" height="32px" viewBox="0 0 32 32" version="1.1" xmlns="http://www.w3.org/2000/svg" xmlns:xlink="http://www.w3.org/1999/xlink">
    <g stroke="none" stroke-width="1" fill="none" fill-rule="evenodd">
        <g transform="translate(-135.000000, -281.000000)">
            <g transform="translate(135.000000, 281.000000)">
                <rect fill="#44B8FD" x="0" y="0" width="32" height="32"></rect>
                <g transform="translate(8.000000, 6.000000)" fill="#FFFFFF">
                    <path d="M7.98751958,0.0208877285 C3.58438642,0.0208877285 0,3.60527415 0,8.00840731 C0,8.50960836 0.0459007833,9.01503916 0.141984334,9.50809399 C0.146266319,9.53723238 0.162976501,9.62516971 0.196449086,9.77550914 C0.317389034,10.3144125 0.497127937,10.8449608 0.731070496,11.3504439 C1.59164491,13.3766057 3.48402089,16.4887206 7.63644909,19.8224021 C7.74088773,19.9060574 7.86637076,19.9478851 7.99159269,19.9478851 C8.1170235,19.9478851 8.24229765,19.9060574 8.34673629,19.8224021 C12.4950914,16.4887206 14.3917493,13.3766057 15.2521149,11.3504439 C15.4861097,10.8449608 15.6657963,10.3184856 15.7869452,9.77550914 C15.8204178,9.62516971 15.8371279,9.53723238 15.841201,9.50809399 C15.9332115,9.01503916 15.9831854,8.50960836 15.9831854,8.00840731 C15.9750392,3.60527415 12.3906527,0.0208877285 7.98751958,0.0208877285 L7.98751958,0.0208877285 Z M14.7217755,9.31185379 C14.7217755,9.32 14.7174935,9.32835509 14.7174935,9.33671018 C14.7134204,9.35775457 14.7007833,9.42036554 14.6799478,9.51644909 L14.6799478,9.52480418 C14.5755091,9.99274151 14.4208877,10.4480418 14.2160836,10.8865796 C14.2120104,10.8908616 14.2120104,10.8992167 14.2077285,10.9032898 C13.4266841,12.754047 11.7138381,15.5781723 7.98751958,18.6568668 C4.26120104,15.5781723 2.54835509,12.754047 1.76710183,10.9032898 C1.76302872,10.8992167 1.76302872,10.8908616 1.75874674,10.8865796 C1.55822454,10.4523238 1.40360313,9.99274151 1.29509138,9.52480418 L1.29509138,9.51644909 C1.26997389,9.42036554 1.2616188,9.35775457 1.25733681,9.33671018 C1.25733681,9.32835509 1.25326371,9.32 1.25326371,9.3075718 C1.16960836,8.87738903 1.12804178,8.44287206 1.12804178,8.00412533 C1.12804178,4.22349869 4.20673629,1.14464752 7.98751958,1.14464752 C11.768094,1.14464752 14.8469974,4.22349869 14.8469974,8.00412533 C14.8469974,8.44694517 14.8052219,8.88574413 14.7217755,9.31185379 L14.7217755,9.31185379 Z"></path>
                    <path d="M7.98751958,3.02454308 C5.19274151,3.02454308 2.91592689,5.3013577 2.91592689,8.09613577 C2.91592689,10.8908616 5.19274151,13.1677285 7.98751958,13.1677285 C10.7822454,13.1677285 13.0589034,10.8908616 13.0589034,8.09613577 C13.0589034,5.3013577 10.7822454,3.02454308 7.98751958,3.02454308 L7.98751958,3.02454308 Z M7.98751958,12.0396867 C5.81101828,12.0396867 4.04391645,10.2683029 4.04391645,8.09613577 C4.04391645,5.92370757 5.81509138,4.15253264 7.98751958,4.15253264 C10.1597389,4.15253264 11.9310705,5.92370757 11.9310705,8.09613577 C11.9310705,10.2683029 10.1640209,12.0396867 7.98751958,12.0396867 L7.98751958,12.0396867 Z"></path>
                </g>
            </g>
        </g>
    </g>
</svg>