<svg width="64px" height="64px" viewBox="0 0 64 64" version="1.1" xmlns="http://www.w3.org/2000/svg" xmlns:xlink="http://www.w3.org/1999/xlink">
    <defs>
        <polygon id="path-1" points="37.60175 0.824 0.06 0.824 0.06 32.0002348 37.60175 32.0002348 37.60175 0.824"></polygon>
    </defs>
    <g stroke="none" stroke-width="1" fill="none" fill-rule="evenodd">
        <g transform="translate(-538.000000, -902.000000)">
            <g transform="translate(538.000000, 902.000000)">
                <path d="M32,64 C14.3562677,64 0,49.6440545 0,32.0007181 C0,14.3559455 14.3562677,-1.42108547e-14 32,-1.42108547e-14 C49.6437323,-1.42108547e-14 64,14.3559455 64,32.0007181 C64,49.6440545 49.6437323,64 32,64 L32,64 Z M32.0023275,3 C16.0138848,3 3,16.0138848 3,32.0038792 C3,47.9923219 16.0138848,61 32.0023275,61 C47.9923219,61 61,47.9923219 61,32.0038792 C61,16.0138848 47.9923219,3 32.0023275,3 L32.0023275,3 Z" fill="#FFFFFF" opacity="0.5"></path>
                <g transform="translate(13.000000, 16.000000)">
                    <mask id="mask-2" fill="white">
                        <use xlink:href="#path-1"></use>
                    </mask>
                    <g></g>
                    <path d="M25.391,5.855 C25.301,5.769 25.191,5.703 25.07,5.664 L17.891,3.41 C15.02,2.507 13.152,4.081 12.648,4.585 C12.355,4.878 12.129,5.191 12.016,5.46 L8.816,12.984 C8.633,13.414 8.695,13.988 8.98,14.558 C9.395,15.374 10.137,15.964 11.02,16.175 C12.012,16.414 13.039,16.089 13.844,15.289 C14.055,15.078 14.234,14.843 14.34,14.648 L15.414,12.652 C15.59,12.324 15.848,11.98 16.117,11.71 C17.043,10.789 17.48,11.21 17.664,11.39 C19.273,12.941 27.707,21.414 27.707,21.414 C28.008,21.71 27.945,22.281 27.57,22.656 C27.195,23.027 26.629,23.093 26.328,22.792 L23.957,20.425 C23.652,20.121 23.16,20.121 22.855,20.425 C22.547,20.73 22.547,21.222 22.855,21.527 L25.223,23.898 C25.523,24.199 25.461,24.765 25.086,25.14 C24.711,25.515 24.141,25.578 23.844,25.277 L21.473,22.91 C21.168,22.605 20.676,22.605 20.371,22.91 C20.066,23.214 20.066,23.706 20.371,24.015 L22.738,26.382 C23.039,26.683 22.973,27.249 22.602,27.624 C22.227,27.999 21.66,28.062 21.359,27.761 L18.988,25.394 C18.684,25.089 18.191,25.089 17.887,25.394 C17.582,25.699 17.582,26.195 17.887,26.496 L20.254,28.867 C20.555,29.167 20.492,29.738 20.117,30.109 C19.742,30.484 19.172,30.546 18.875,30.249 L15.988,27.363 C16.402,26.742 16.289,25.843 15.676,25.23 C14.992,24.546 13.941,24.484 13.332,25.093 C13.941,24.484 13.879,23.429 13.195,22.746 C12.508,22.062 11.457,21.999 10.848,22.609 C11.457,21.999 11.395,20.949 10.707,20.261 C10.023,19.578 8.973,19.515 8.359,20.124 C8.973,19.515 8.91,18.464 8.223,17.777 C7.582,17.136 6.625,17.046 6.004,17.535 L1.332,12.863 C1.027,12.558 0.531,12.558 0.227,12.863 C-0.074,13.167 -0.074,13.664 0.227,13.968 L4.887,18.628 L3.508,20.011 C2.898,20.617 2.957,21.671 3.645,22.355 C4.332,23.042 5.379,23.105 5.992,22.492 C5.379,23.105 5.441,24.156 6.129,24.839 C6.812,25.527 7.867,25.589 8.477,24.98 C7.867,25.589 7.93,26.64 8.613,27.324 C9.301,28.011 10.352,28.074 10.961,27.464 C10.352,28.074 10.414,29.124 11.098,29.812 C11.785,30.496 12.836,30.558 13.445,29.949 L14.906,28.488 L17.77,31.355 C18.684,32.269 20.23,32.203 21.223,31.214 C21.703,30.734 21.961,30.117 21.996,29.507 C22.605,29.472 23.223,29.214 23.707,28.73 C24.188,28.249 24.445,27.632 24.484,27.023 C25.094,26.988 25.707,26.726 26.191,26.246 C26.676,25.761 26.934,25.148 26.969,24.539 C27.578,24.503 28.195,24.246 28.676,23.761 C29.668,22.769 29.727,21.222 28.812,20.308 L27.605,19.101 L32.566,14.14 C32.871,13.835 32.871,13.343 32.566,13.039 L25.391,5.855 Z" fill="#FFFFFF" mask="url(#mask-2)"></path>
                    <path d="M37.145,7.601 L30.824,1.281 C30.211,0.671 29.223,0.671 28.613,1.281 L26.402,3.488 C25.793,4.101 25.793,5.089 26.402,5.699 L32.727,12.019 C33.336,12.628 34.324,12.628 34.934,12.019 L37.145,9.812 C37.754,9.203 37.754,8.21 37.145,7.601 L37.145,7.601 Z M33.828,10.82 C33.121,10.82 32.543,10.249 32.543,9.539 C32.543,8.831 33.121,8.257 33.828,8.257 C34.535,8.257 35.109,8.831 35.109,9.539 C35.109,10.246 34.535,10.82 33.828,10.82 L33.828,10.82 Z" fill="#FFFFFF" mask="url(#mask-2)"></path>
                </g>
            </g>
        </g>
    </g>
</svg>