<?xml version="1.0" encoding="UTF-8" standalone="no"?>
<svg width="16px" height="17px" viewBox="0 0 16 17" version="1.1" xmlns="http://www.w3.org/2000/svg" xmlns:xlink="http://www.w3.org/1999/xlink">
    <!-- Generator: Sketch 41 (35326) - http://www.bohemiancoding.com/sketch -->
    <title>Fill 1</title>
    <desc>Created with Sketch.</desc>
    <defs></defs>
    <g id="Главная" stroke="none" stroke-width="1" fill="none" fill-rule="evenodd">
        <g id="01-Главная" transform="translate(-863.000000, -29.000000)" fill="#298DCF">
            <g id="01-Header">
                <g id="call-answer" transform="translate(863.000000, 29.000000)">
                    <path d="M15.6775935,13.4715818 L13.2012688,10.9941947 C12.7076327,10.5030375 11.8913982,10.5182644 11.3811187,11.028898 L10.1332182,12.2764444 C10.0546047,12.2335965 9.97280422,12.1879157 9.88710844,12.1397561 C9.09849481,11.7024243 8.0209235,11.1050327 6.88527737,9.96938652 C5.74715244,8.83090747 5.14799022,7.75050325 4.71101257,6.96188961 C4.6639153,6.87902675 4.61965095,6.79899681 4.57680306,6.72144567 L5.41357631,5.88573477 L5.82576592,5.47354515 C6.33639945,4.96184928 6.35162638,4.14561469 5.85905271,3.65339514 L3.38166565,1.17600807 C2.89050843,0.683434396 2.0732115,0.698661332 1.56116151,1.2103572 L0.864263607,1.9118586 L0.881969347,1.9309808 C0.648253586,2.22985368 0.453136337,2.57440737 0.307949273,2.94516556 C0.173739768,3.29928035 0.0894604477,3.63675174 0.0522783948,3.97422313 C-0.2756319,6.68532596 0.963769863,9.16271303 4.32502744,12.5253871 C8.97278406,17.1717272 12.7186103,16.8218618 12.8804408,16.803802 C13.2317226,16.7623705 13.569194,16.6780912 13.9123313,16.5452982 C14.2802565,16.4015276 14.6248102,16.2064103 14.9222666,15.9726945 L14.9374936,15.986505 L15.6457231,15.2935024 C16.1545861,14.7814524 16.169813,13.9655719 15.6775935,13.4715818 L15.6775935,13.4715818 Z" id="Fill-1"></path>
                </g>
            </g>
        </g>
    </g>
</svg>