<svg width="64px" height="64px" viewBox="0 0 64 64" version="1.1" xmlns="http://www.w3.org/2000/svg" xmlns:xlink="http://www.w3.org/1999/xlink">
    <g stroke="none" stroke-width="1" fill="none" fill-rule="evenodd">
        <g transform="translate(-1136.000000, -902.000000)" fill="#FFFFFF">
            <g transform="translate(1035.000000, 878.000000)">
                <g transform="translate(101.000000, 24.000000)">
                    <path d="M32,64 C14.3562677,64 0,49.6440545 0,32.0007181 C0,14.3559455 14.3562677,-1.42108547e-14 32,-1.42108547e-14 C49.6437323,-1.42108547e-14 64,14.3559455 64,32.0007181 C64,49.6440545 49.6437323,64 32,64 L32,64 Z M32.0023275,3 C16.0138848,3 3,16.0138848 3,32.0038792 C3,47.9923219 16.0138848,61 32.0023275,61 C47.9923219,61 61,47.9923219 61,32.0038792 C61,16.0138848 47.9923219,3 32.0023275,3 L32.0023275,3 Z" opacity="0.5"></path>
                    <path d="M30.2279948,44.381914 L39.6936115,44.381914 C40.6681721,44.381914 41.4592438,43.5908422 41.4592438,42.6162816 L41.4592438,17.8040156 C41.4592438,16.829455 40.6681721,16.0383833 39.6936115,16.0383833 L27.0805215,16.0383833 L27.0805215,16.6224772 C27.0871969,16.6825971 27.090618,16.746013 27.090618,16.8093872 L27.090618,21.645601 C27.090618,23.0175124 25.975708,24.1322555 24.6039635,24.1322555 L19.7675828,24.1322555 C19.7175593,24.1322555 19.6642816,24.1290013 19.6140913,24.1255802 L19,24.1255802 L19,42.6162816 C19,43.5908422 19.7910717,44.381914 20.7656323,44.381914 L30.2279948,44.381914 Z M30.5850847,38.3808083 L24.4137992,38.3808083 C23.9530743,38.3808083 23.5793794,38.0069465 23.5793794,37.5463885 C23.5793794,37.0857888 23.9530743,36.7119687 24.4137992,36.7119687 L30.5885059,36.7119687 C31.0490639,36.7119687 31.4229257,37.0857888 31.4229257,37.5463885 C31.4229257,38.0069465 31.0456428,38.3808083 30.5850847,38.3808083 L30.5850847,38.3808083 Z M36.7597914,34.1219713 L24.4137992,34.1219713 C23.9530743,34.1219713 23.5793794,33.7481095 23.5793794,33.2875515 C23.5793794,32.8268266 23.9530743,32.4531317 24.4137992,32.4531317 L36.7597914,32.4531317 C37.2203494,32.4531317 37.5942112,32.8268266 37.5942112,33.2875515 C37.5942112,33.7481095 37.2203494,34.1219713 36.7597914,34.1219713 L36.7597914,34.1219713 Z M24.4137992,27.9304928 L36.7597914,27.9304928 C37.2203494,27.9304928 37.5942112,28.3043546 37.5942112,28.7649126 C37.5942112,29.2254707 37.2203494,29.5993325 36.7597914,29.5993325 L24.4137992,29.5993325 C23.9530743,29.5993325 23.5793794,29.2254707 23.5793794,28.7649126 C23.5793794,28.3043546 23.9530743,27.9304928 24.4137992,27.9304928 L24.4137992,27.9304928 Z"></path>
                    <path d="M19.7675828,23.1309518 L24.6173559,23.1309518 C25.4250326,23.1242764 26.0792177,22.4700913 26.0858931,21.6624146 L26.0858931,16.8093872 C26.0858931,16.3622216 25.7187066,16.0651265 25.3383364,16.0651265 C25.1546806,16.0651265 24.9711499,16.1317549 24.8176167,16.285455 L19.2403963,21.8627171 C18.7729961,22.3299505 19.1034681,23.1309518 19.7675828,23.1309518 L19.7675828,23.1309518 Z"></path>
                    <path d="M43.3984772,19.6563859 L42.4638018,19.6563859 L42.4638018,42.6162816 C42.4638018,44.1417262 41.2223103,45.3832177 39.6968657,45.3832177 L22.6981904,45.3832177 L22.6981904,46.2344511 C22.6981904,47.2090117 23.4892621,47.9999166 24.4638227,47.9999166 L43.3950561,47.9999166 C44.3696167,47.9999166 45.1606884,47.2090117 45.1606884,46.2344511 L45.1606884,21.4220183 C45.1606884,20.4474576 44.3730378,19.6563859 43.3984772,19.6563859 L43.3984772,19.6563859 Z"></path>
                </g>
            </g>
        </g>
    </g>
</svg>