<svg width="26px" height="32px" viewBox="0 0 26 32" version="1.1" xmlns="http://www.w3.org/2000/svg" xmlns:xlink="http://www.w3.org/1999/xlink">
    <g stroke="none" stroke-width="1" fill="none" fill-rule="evenodd" opacity="0.800000012">
        <g transform="translate(-455.000000, -296.000000)">
            <g transform="translate(455.000000, 296.000000)">
                <path d="M20.7993333,13.3333333 L7.466,13.3333333 C7.172,13.3333333 6.932,13.5726667 6.932,13.8673333 C6.932,14.1613333 7.172,14.4013333 7.466,14.4013333 L20.7993333,14.4013333 C21.094,14.4013333 21.3333333,14.1613333 21.3333333,13.8673333 C21.3333333,13.5726667 21.094,13.3333333 20.7993333,13.3333333 L20.7993333,13.3333333 Z" fill="#000000"></path>
                <path d="M7.466,10.1326667 L12.7993333,10.1326667 C13.094,10.1326667 13.3333333,9.896 13.3333333,9.59866667 C13.3333333,9.30466667 13.094,9.068 12.7993333,9.068 L7.466,9.068 C7.172,9.068 6.932,9.30466667 6.932,9.59866667 C6.932,9.896 7.172,10.1326667 7.466,10.1326667 L7.466,10.1326667 Z" fill="#000000"></path>
                <path d="M20.7993333,17.5986667 L7.466,17.5986667 C7.172,17.5986667 6.932,17.8386667 6.932,18.1326667 C6.932,18.4273333 7.172,18.6666667 7.466,18.6666667 L20.7993333,18.6666667 C21.094,18.6666667 21.3333333,18.4273333 21.3333333,18.1326667 C21.3333333,17.8386667 21.094,17.5986667 20.7993333,17.5986667 L20.7993333,17.5986667 Z" fill="#000000"></path>
                <path d="M20.7993333,21.8673333 L7.466,21.8673333 C7.172,21.8673333 6.932,22.104 6.932,22.4013333 C6.932,22.6953333 7.172,22.932 7.466,22.932 L20.7993333,22.932 C21.094,22.932 21.3333333,22.6953333 21.3333333,22.4013333 C21.3333333,22.104 21.094,21.8673333 20.7993333,21.8673333 L20.7993333,21.8673333 Z" fill="#000000"></path>
                <g>
                    <mask id="mask-2" fill="white">
                        <polygon points="25.5986667 31.96 0.04 31.96 0.04 0 12.8193333 0 25.5986667 0 25.5986667 31.96"></polygon>
                    </mask>
                    <path d="M20.7993333,26.1326667 L7.466,26.1326667 C7.172,26.1326667 6.932,26.3726667 6.932,26.6666667 C6.932,26.9606667 7.172,27.2006667 7.466,27.2006667 L20.7993333,27.2006667 C21.094,27.2006667 21.3333333,26.9606667 21.3333333,26.6666667 C21.3333333,26.3726667 21.094,26.1326667 20.7993333,26.1326667 L20.7993333,26.1326667 Z" fill="#000000" mask="url(#mask-2)"></path>
                    <path d="M22.932,7.77866667 L22.932,0 L0,0 L0,29.3333333 L2.66666667,29.3333333 L2.66666667,32 L25.5986667,32 L25.5986667,10.4453333 L22.932,7.77866667 Z M18.1326667,4.48666667 L23.7786667,10.1326667 L18.1326667,10.1326667 L18.1326667,4.48666667 Z M1.068,28.2653333 L1.068,1.068 L21.8673333,1.068 L21.8673333,6.71333333 L17.82,2.66666667 L2.66666667,2.66666667 L2.66666667,28.2653333 L1.068,28.2653333 Z M3.73466667,30.932 L3.73466667,3.73466667 L17.068,3.73466667 L17.068,11.2006667 L24.534,11.2006667 L24.534,30.932 L3.73466667,30.932 Z" fill="#000000" mask="url(#mask-2)"></path>
                </g>
            </g>
        </g>
    </g>
</svg>