<svg width="16px" height="16px" viewBox="0 0 16 16" version="1.1" xmlns="http://www.w3.org/2000/svg" xmlns:xlink="http://www.w3.org/1999/xlink">
    <g stroke="none" stroke-width="1" fill="none" fill-rule="evenodd">
        <g transform="translate(-1279.000000, -3098.000000)" fill="#298DCF">
            <g transform="translate(135.000000, 3088.000000)">
                <g transform="translate(900.000000, 0.000000)">
                    <path d="M259.805613,25.1866077 L255.930254,21.3112928 C256.969768,20.1161989 257.599116,18.5567735 257.599116,16.8525525 C257.599116,13.1009945 254.547669,10.0529945 250.799558,10.0529945 C247.048,10.0529945 244,13.104442 244,16.8525525 C244,20.600663 247.051448,23.6521105 250.799558,23.6521105 C252.503779,23.6521105 254.063204,23.0227624 255.258298,21.9832486 L259.133613,25.8586077 C259.225635,25.950453 259.349436,26 259.469613,26 C259.58979,26 259.713591,25.9540773 259.805613,25.8586077 C259.989481,25.6746961 259.989481,25.3705193 259.805613,25.1866077 L259.805613,25.1866077 Z M244.95116,16.8525525 C244.95116,13.6277569 247.574762,11.007779 250.79611,11.007779 C254.020729,11.007779 256.640884,13.6313812 256.640884,16.8525525 C256.640884,20.0737238 254.020729,22.7009503 250.79611,22.7009503 C247.574762,22.7009503 244.95116,20.0773481 244.95116,16.8525525 L244.95116,16.8525525 Z"></path>
                </g>
            </g>
        </g>
    </g>
</svg>