<svg width="16px" height="16px" viewBox="0 0 16 16" version="1.1" xmlns="http://www.w3.org/2000/svg" xmlns:xlink="http://www.w3.org/1999/xlink">
    <g stroke="none" stroke-width="1" fill="none" fill-rule="evenodd">
        <g transform="translate(-135.000000, -273.000000)" fill="#888888">
            <path d="M150.861611,288.18723 L146.972522,284.298185 C148.015718,283.098857 148.647296,281.533907 148.647296,279.823648 C148.647296,276.058799 145.585038,273 141.823648,273 C138.058799,273 135,276.062258 135,279.823648 C135,283.585038 138.062258,286.647296 141.823648,286.647296 C143.533907,286.647296 145.098857,286.015718 146.298185,284.972522 L150.18723,288.861611 C150.279578,288.953782 150.403818,289.003504 150.52442,289.003504 C150.645023,289.003504 150.769263,288.957419 150.861611,288.861611 C151.04613,288.677048 151.04613,288.371793 150.861611,288.18723 L150.861611,288.18723 Z M135.95453,279.823648 C135.95453,276.587427 138.587427,273.958167 141.820188,273.958167 C145.056232,273.958167 147.685669,276.591065 147.685669,279.823648 C147.685669,283.056232 145.056232,285.692766 141.820188,285.692766 C138.587427,285.692766 135.95453,283.059869 135.95453,279.823648 L135.95453,279.823648 Z"></path>
        </g>
    </g>
</svg>