<svg width="32px" height="32px" viewBox="0 0 32 32" version="1.1" xmlns="http://www.w3.org/2000/svg" xmlns:xlink="http://www.w3.org/1999/xlink">
    <g stroke="none" stroke-width="1" fill="none" fill-rule="evenodd">
        <g transform="translate(-935.000000, -281.000000)">
            <g transform="translate(935.000000, 281.000000)">
                <rect fill="#44B8FD" x="0" y="0" width="32" height="32"></rect>
                <path d="M24.1886406,26.9192031 L8.08079688,26.9192031 L8.08079688,23.2905156 C8.08079688,21.8410469 9.26003125,20.6617656 10.7095,20.6617656 C10.7291875,20.6617656 11.5987656,20.6406719 12.2858594,20.3284375 L15.1746719,24.4424687 C15.3942344,24.7551719 15.7535313,24.941875 16.1356094,24.941875 L16.1357031,24.941875 C16.5177344,24.941875 16.8770313,24.7551719 17.0965938,24.4424687 L19.9849844,20.3290469 C20.7685938,20.6618594 21.5402969,20.6618594 21.5599844,20.6618594 C23.0094062,20.6618594 24.1886406,21.8410937 24.1886406,23.2905625 L24.1886406,26.9192031 L24.1886406,26.9192031 Z M14.7918438,17.2296719 C15.2201875,17.3847344 15.6708438,17.4676094 16.1355156,17.4676094 C16.5965313,17.4676094 17.0469531,17.3873594 17.4781563,17.2325313 C17.6759688,18.2633594 18.2491094,19.1618125 19.0497344,19.7803281 L16.2121562,23.8213281 C16.1935938,23.8477187 16.1679063,23.8610781 16.1356094,23.8610781 C16.1034063,23.8610781 16.0777188,23.8477187 16.0592031,23.821375 L13.2209219,19.7794375 C14.0216406,19.1602187 14.5945938,18.2611094 14.7918438,17.2296719 L14.7918438,17.2296719 Z M12.2404844,11.7332031 C12.922375,11.1254687 13.4614844,10.3691875 13.8123906,9.5303125 C13.8656406,9.5794375 13.9215625,9.62589063 13.9799688,9.66953125 C14.3425938,9.94014063 14.7741719,10.08325 15.2280625,10.08325 L18.911125,10.08325 C19.4321875,10.08325 19.8813906,10.3958125 20.0818281,10.8431406 C20.0817813,10.8469844 20.0812188,10.8506875 20.0812188,10.8544844 C20.0812188,13.9050625 18.3112188,16.3868125 16.1355625,16.3868125 C15.1886875,16.3868125 14.2704531,15.9021719 13.5501719,15.0221875 C12.847,14.1632031 12.3864531,13.0031875 12.2404844,11.7332031 L12.2404844,11.7332031 Z M14.0202813,5.67582812 C14.2174844,5.61882812 14.42575,5.58503125 14.6393125,5.57542187 C14.7185781,5.57185938 14.7961094,5.55090625 14.8663281,5.51396875 C15.4134531,5.22653125 15.9929688,5.08079688 16.5888438,5.08079688 C18.8001719,5.08079688 20.5991875,7.0590625 20.5991875,9.49070312 C20.5991875,9.5636875 20.597125,9.63629687 20.5939375,9.708625 C20.1650312,9.2730625 19.5691562,9.00240625 18.9110313,9.00240625 L15.2280156,9.00240625 C15.0089219,9.00240625 14.8008906,8.93359375 14.6264688,8.803375 C14.4775469,8.69223437 14.3624219,8.54284375 14.2936094,8.371375 C14.1871094,8.10615625 13.9245625,7.94026562 13.6386719,7.95826562 C13.35175,7.9765 13.1103906,8.17576562 13.0379219,8.45410938 C12.8245,9.27423437 12.398875,10.0296719 11.8150469,10.6422812 C11.2718594,8.40634375 12.2523438,6.186625 14.0202813,5.67582812 L14.0202813,5.67582812 Z M21.6870625,19.5842031 C21.6679844,19.5821406 18.9053125,19.6636094 18.4945469,16.703125 C18.9509688,16.3846562 19.371625,15.9712187 19.7422187,15.4695625 C20.4631562,14.4935781 20.9276875,13.2692969 21.0931562,11.9450781 C21.1500156,11.8936094 21.1970781,11.8296719 21.2287656,11.75425 C21.5281563,11.0410469 21.6799844,10.2795156 21.6799844,9.49070312 C21.6799844,6.46314062 19.3961875,4 16.5888438,4 C15.8546875,4 15.1423281,4.169125 14.4695781,4.50310938 C14.2129375,4.52270313 13.9614531,4.56784375 13.7202812,4.6375 C12.5672969,4.97064062 11.6290469,5.8255 11.0783125,7.04471875 C10.5436562,8.2285 10.4382812,9.622 10.7816875,10.9686719 C10.8542969,11.2531562 10.9465,11.5327656 11.0559062,11.7998125 C11.0855312,11.8720937 11.1296406,11.9336875 11.1826563,11.9844062 C11.4507344,14.0513594 12.4341719,15.7639375 13.7751719,16.6989531 C13.3631406,19.6645 10.6015,19.5821875 10.5824219,19.58425 C8.59571875,19.6516094 7,21.2877344 7,23.2905156 L7,27.4595781 C7,27.7580781 7.24192188,28 7.54042187,28 L24.7290156,28 C25.0274219,28 25.2693906,27.7580781 25.2693906,27.4595781 L25.2693906,23.2905156 C25.2693906,21.2876875 23.6737656,19.6515625 21.6870625,19.5842031 L21.6870625,19.5842031 Z" fill="#FFFFFF"></path>
            </g>
        </g>
    </g>
</svg>