<svg width="64px" height="64px" viewBox="0 0 64 64" version="1.1" xmlns="http://www.w3.org/2000/svg" xmlns:xlink="http://www.w3.org/1999/xlink">
    <defs>
        <polygon id="path-1" points="26.882325 6.5575125 26.882325 13.10625 0.003375 13.10625 0.003375 0.008775 26.882325 0.008775 26.882325 6.5575125"></polygon>
    </defs>
    <g stroke="none" stroke-width="1" fill="none" fill-rule="evenodd">
        <g transform="translate(-838.000000, -902.000000)">
            <g transform="translate(735.000000, 878.000000)">
                <g transform="translate(103.000000, 24.000000)">
                    <path d="M32,64 C14.3562677,64 0,49.6440545 0,32.0007181 C0,14.3559455 14.3562677,1.42108547e-14 32,1.42108547e-14 C49.6437323,1.42108547e-14 64,14.3559455 64,32.0007181 C64,49.6440545 49.6437323,64 32,64 L32,64 Z M32.0023275,3 C16.0138848,3 3,16.0138848 3,32.0038792 C3,47.9923219 16.0138848,61 32.0023275,61 C47.9923219,61 61,47.9923219 61,32.0038792 C61,16.0138848 47.9923219,3 32.0023275,3 L32.0023275,3 Z" fill="#FFFFFF" opacity="0.5"></path>
                    <g transform="translate(18.000000, 17.000000)">
                        <g transform="translate(0.000000, 15.693750)">
                            <mask id="mask-2" fill="white">
                                <use xlink:href="#path-1"></use>
                            </mask>
                            <g></g>
                            <path d="M25.097175,6.14750625 L18.5234625,10.627875 C17.5289063,11.3067 16.3666688,11.6589937 15.1624688,11.6589937 L10.9801688,11.6589937 C9.62600625,11.6589937 8.2688625,11.1980812 7.2136125,10.349325 L5.78885625,9.2343375 L5.78885625,3.50971875 L8.4616875,4.34356875 C9.5281875,4.6737 10.6650563,4.85701875 11.7815063,4.85701875 L16.541325,4.85701875 C16.9892437,4.85701875 17.2944,5.1895125 17.2944,5.63743125 L17.2944,6.51223125 C16.4260688,6.7494375 14.3937,7.16956875 12.3372,6.83865 C11.9428875,6.7753125 11.5860937,7.0435125 11.5225875,7.43805 C11.4591375,7.83264375 11.7349313,8.20395 12.129525,8.2675125 C12.7586813,8.36870625 13.3839,8.40931875 13.9764938,8.40931875 C16.304625,8.40931875 18.18495,7.78235625 18.3069,7.7407875 C18.3070125,7.740675 18.3081938,7.74061875 18.3083063,7.74061875 C18.3089813,7.74039375 18.3108938,7.7398875 18.3114563,7.739775 C18.3382313,7.73055 18.3641063,7.7196375 18.3890813,7.7077125 C18.3908813,7.7068125 18.3929063,7.70630625 18.39465,7.7054625 L24.3206438,4.81179375 C24.5658938,4.6920375 24.839325,4.70626875 25.07085,4.85083125 C25.3023188,4.99545 25.435125,5.23485 25.435125,5.50783125 C25.435125,5.76399375 25.3087875,6.00305625 25.097175,6.14750625 L25.097175,6.14750625 Z M1.44714375,11.5142625 L4.3416,11.5142625 L4.3416,1.455975 L1.44714375,1.455975 L1.44714375,11.5142625 Z M25.8374813,3.6234 C25.18335,3.2148 24.3493312,3.17295 23.6561063,3.51135 L18.7416563,5.89663125 L18.7416563,5.63743125 C18.7416563,4.39149375 17.7872625,3.4097625 16.541325,3.4097625 L11.7815063,3.4097625 C10.81035,3.4097625 9.8173125,3.24815625 8.8896375,2.9611125 L5.78896875,1.9947375 L5.78896875,0.74446875 C5.78896875,0.3448125 5.52526875,0.008775 5.1256125,0.008775 L0.7839,0.008775 C0.38424375,0.008775 0,0.3448125 0,0.74446875 L0,12.2500125 C0,12.6496687 0.3843,12.9615187 0.7839,12.9615187 L5.1256125,12.9615187 C5.52526875,12.9615187 5.78896875,12.6495562 5.78896875,12.2500125 L5.78896875,11.0915437 L6.3066375,11.4771937 C7.61805,12.5319375 9.29716875,13.10625 10.9801688,13.10625 L15.1624688,13.10625 C16.659,13.10625 18.1033313,12.666825 19.3393688,11.8231875 L25.9130813,7.33966875 C26.5200187,6.9253875 26.882325,6.24099375 26.882325,5.50625625 C26.882325,4.73484375 26.491725,4.032 25.8374813,3.6234 L25.8374813,3.6234 Z" fill="#FFFFFF" mask="url(#mask-2)"></path>
                        </g>
                        <path d="M22.5044438,11.650275 L25.3989,11.650275 L25.3989,1.5919875 L22.5044438,1.5919875 L22.5044438,11.650275 Z M18.432675,8.81145 C17.3662313,8.48131875 16.2775125,8.321625 15.1611188,8.321625 L10.4013,8.321625 C9.95338125,8.321625 9.5517,7.94176875 9.5517,7.49385 L9.5517,6.61899375 C10.4923688,6.3817875 12.5004375,5.96165625 14.5571625,6.29263125 C14.9514188,6.356025 15.3324,6.0877125 15.3959063,5.69323125 C15.4593563,5.2986375 15.1957125,4.92733125 14.8011188,4.86376875 C11.7033188,4.36516875 8.79058125,5.33626875 8.631675,5.39038125 C8.63139375,5.3904375 8.63235,5.39049375 8.63206875,5.3906625 C8.6313375,5.39094375 8.63071875,5.3913375 8.63015625,5.39150625 C8.61519375,5.39668125 8.60203125,5.40253125 8.589375,5.40860625 C8.57536875,5.4144 8.5613625,5.41918125 8.54769375,5.42581875 L2.62175625,8.3194875 C2.37645,8.4391875 2.1031875,8.4250125 1.87171875,8.28045 C1.64025,8.13583125 1.5075,7.89643125 1.5075,7.62350625 C1.5075,7.36734375 1.6338375,7.128225 1.84539375,6.983775 L8.41910625,2.49091875 C9.41371875,1.81209375 10.5759563,1.44725625 11.7800438,1.44725625 L15.9623438,1.44725625 C17.3165625,1.44725625 18.6255,1.9207125 19.68075,2.7694125 L21.0571313,3.89705625 L21.0571313,9.621675 L18.432675,8.81145 L18.432675,8.81145 Z M26.158725,0.14473125 L21.8170125,0.14473125 C21.4173563,0.14473125 21.0571875,0.481725 21.0571875,0.88138125 L21.0571875,2.03979375 L20.5877813,1.64165625 C19.2763125,0.5869125 17.6453438,0 15.9623438,0 L11.7800438,0 C10.283625,0 8.83929375,0.4519125 7.60314375,1.2956625 L1.0294875,5.78548125 C0.42260625,6.1997625 0.0603,6.88719375 0.0603,7.6219875 C0.0603,8.3934 0.4509,9.09855 1.1050875,9.50720625 C1.7593875,9.91575 2.5450875,9.95799375 3.23825625,9.6195375 L8.1045,7.23465 L8.1045,7.49385 C8.1045,8.7397875 9.1553625,9.768825 10.4013563,9.768825 L15.161175,9.768825 C16.1323875,9.768825 17.0771063,9.90675 18.0047813,10.1939062 L21.0573,11.1366 L21.0573,12.3868687 C21.0573,12.786525 21.4174125,13.097475 21.8170688,13.097475 L26.1587813,13.097475 C26.5584375,13.097475 26.8462125,12.786525 26.8462125,12.3868687 L26.8462125,0.88138125 C26.8461563,0.481725 26.5583813,0.14473125 26.158725,0.14473125 L26.158725,0.14473125 Z" fill="#FFFFFF"></path>
                        <path d="M13.3428937,17.703 C13.4685,17.79255 13.6155937,17.8372687 13.7626312,17.8372687 C13.9096687,17.8372687 14.0567625,17.79255 14.182425,17.703 C14.2115062,17.6822437 14.9034937,17.187525 15.6040312,16.5233812 C16.6600125,15.5222437 17.17335,14.6746687 17.17335,13.932225 C17.17335,12.6806062 16.1550562,11.6622562 14.903325,11.6622562 C14.4997312,11.6622562 14.1060375,11.770875 13.7626312,11.9703937 C13.4191125,11.770875 13.025475,11.6622562 12.621825,11.6622562 C11.3702062,11.6622562 10.3519125,12.68055 10.3519125,13.932225 C10.3519125,14.6746125 10.86525,15.5221875 11.9212312,16.5233812 C12.6217687,17.187525 13.3137562,17.6822437 13.3428937,17.703 L13.3428937,17.703 Z" fill="#FFFFFF"></path>
                    </g>
                </g>
            </g>
        </g>
    </g>
</svg>