<svg width="77px" height="95px" viewBox="0 0 77 95" version="1.1" xmlns="http://www.w3.org/2000/svg" xmlns:xlink="http://www.w3.org/1999/xlink">
    <defs>
        <polygon id="path-1" points="0.213333333 0.301333333 0.213333333 94.9928889 76.416 94.9928889 76.416 0.301333333 0.213333333 0.301333333"></polygon>
    </defs>
    <g stroke="none" stroke-width="1" fill="none" fill-rule="evenodd">
        <g transform="translate(-2116.000000, -339.000000)">
            <g transform="translate(1770.000000, 108.000000)">
                <g transform="translate(210.000000, 158.000000)">
                    <g transform="translate(136.000000, 73.000000)">
                        <g>
                            <mask id="mask-2" fill="white">
                                <use xlink:href="#path-1"></use>
                            </mask>
                            <g opacity="0.900000036"></g>
                            <path d="M69.3048889,94.9928889 L7.11111111,94.9928889 C3.19288889,94.9928889 0,91.8142222 0,87.8817778 L0,7.41244444 C0,3.49422222 3.19288889,0.301333333 7.11111111,0.301333333 L52.2773333,0.301333333 C53.056,0.301333333 53.696,0.937777778 53.696,1.71644444 C53.696,2.50933333 53.056,3.14577778 52.2773333,3.14577778 L7.11111111,3.14577778 C4.76444444,3.14577778 2.848,5.06222222 2.848,7.41244444 L2.848,87.8817778 C2.848,90.2426667 4.76444444,92.1626667 7.11111111,92.1626667 L69.3048889,92.1626667 C71.6515556,92.1626667 73.568,90.2426667 73.568,87.8817778 L73.568,25.0622222 C73.568,24.2728889 74.208,23.6328889 74.9866667,23.6328889 C75.776,23.6328889 76.416,24.2728889 76.416,25.0622222 L76.416,87.896 C76.416,91.8142222 73.2231111,94.9928889 69.3048889,94.9928889 L69.3048889,94.9928889 Z" fill="#AAAAAA"></path>
                        </g>
                        <g transform="translate(24.000000, 35.000000)" fill="#44B8FD">
                            <path d="M14.208,35.8008889 C13.4151111,35.8008889 12.7786667,35.1608889 12.7786667,34.3822222 L12.7786667,2.30044444 C12.7786667,1.50755556 13.4151111,0.871111111 14.208,0.871111111 C14.9866667,0.871111111 15.6266667,1.50755556 15.6266667,2.30044444 L15.6266667,34.3822222 C15.6266667,35.1608889 14.9866667,35.8008889 14.208,35.8008889 L14.208,35.8008889 Z"></path>
                            <path d="M14.208,35.8008889 C13.8346667,35.8008889 13.472,35.6622222 13.1946667,35.3848889 L0.931555556,23.1182222 C0.373333333,22.5635556 0.373333333,21.6604444 0.931555556,21.1057778 C1.48622222,20.5511111 2.38933333,20.5511111 2.944,21.1057778 L14.1937778,32.3697778 L25.4577778,21.1057778 C26.0124444,20.5511111 26.9155556,20.5511111 27.4737778,21.1057778 C28.0284444,21.6604444 28.0284444,22.5635556 27.4737778,23.1182222 L15.2071111,35.3848889 C14.9297778,35.6622222 14.5706667,35.8008889 14.208,35.8008889 L14.208,35.8008889 Z"></path>
                        </g>
                        <path d="M74.9866667,26.4808889 L52.2773333,26.4808889 C51.4844444,26.4808889 50.848,25.8408889 50.848,25.0622222 L50.848,2.34222222 C50.848,1.54933333 51.4844444,0.909333333 52.2773333,0.909333333 C53.056,0.909333333 53.696,1.54933333 53.696,2.34222222 L53.696,23.6328889 L74.9866667,23.6328889 C75.776,23.6328889 76.416,24.2728889 76.416,25.0515556 C76.416,25.8408889 75.776,26.4808889 74.9866667,26.4808889 L74.9866667,26.4808889 Z" fill="#AAAAAA"></path>
                        <path d="M74.9866667,26.4808889 C74.624,26.4808889 74.2506667,26.3422222 73.9733333,26.0506667 L51.2497778,2.71555556 C50.7093333,2.16088889 50.7235556,1.25777778 51.2782222,0.703111111 C51.8471111,0.162666667 52.7502222,0.173333333 53.2906667,0.731555556 L76.0142222,24.0631111 C76.5546667,24.632 76.5404444,25.5351111 75.9857778,26.0791111 C75.7084444,26.3422222 75.3457778,26.4808889 74.9866667,26.4808889 L74.9866667,26.4808889 Z" fill="#AAAAAA"></path>
                    </g>
                </g>
            </g>
        </g>
    </g>
</svg>