<svg width="32px" height="32px" viewBox="0 0 32 32" version="1.1" xmlns="http://www.w3.org/2000/svg" xmlns:xlink="http://www.w3.org/1999/xlink">
        <polygon id="path-1" points="0 0.0502439704 0 19.9998947 19.9207111 19.9998947 19.9207111 0.0502439704 5.70632722e-21 0.0502439704"></polygon>
    </defs>
    <g stroke="none" stroke-width="1" fill="none" fill-rule="evenodd">
        <g transform="translate(-535.000000, -281.000000)">
            <g transform="translate(535.000000, 281.000000)">
                <rect fill="#44B8FD" x="0" y="0" width="32" height="32"></rect>
                <g transform="translate(6.000000, 6.000000)">
                    <mask id="mask-2" fill="white">
                        <use xlink:href="#path-1"></use>
                    </mask>
                    <g></g>
                    <path d="M15.7520526,12.4084211 C15.3435263,11.9832632 14.8509474,11.7558947 14.3289474,11.7558947 C13.8110526,11.7558947 13.3141579,11.9789474 12.889,12.4043158 L11.5583684,13.7305789 C11.4487895,13.6715789 11.3394211,13.6168947 11.2341579,13.5622105 C11.0826316,13.4863684 10.9393684,13.4147895 10.8172105,13.3389474 C9.57094737,12.5474211 8.43831579,11.5157368 7.352,10.1810526 C6.82568421,9.51573684 6.47205263,8.95568421 6.21526316,8.38747368 C6.56042105,8.07168421 6.88052632,7.74310526 7.192,7.42731579 C7.31005263,7.30952632 7.42784211,7.18742105 7.54584211,7.06942105 C8.42989474,6.18536842 8.42989474,5.04 7.54584211,4.15573684 L6.39615789,3.00626316 C6.26584211,2.87573684 6.13094737,2.74105263 6.00473684,2.60642105 C5.75205263,2.34531579 5.48684211,2.07578947 5.21321053,1.82310526 C4.80468421,1.41889474 4.31621053,1.20426316 3.80263158,1.20426316 C3.28884211,1.20426316 2.79215789,1.41889474 2.37110526,1.82310526 L2.36268421,1.83152632 L0.930947368,3.27584211 C0.392052632,3.81468421 0.0846842105,4.47152632 0.0172631579,5.23368421 C-0.0836842105,6.46310526 0.278368421,7.60847368 0.556315789,8.35784211 C1.23826316,10.1978947 2.25742105,11.9030526 3.77736842,13.7305789 C5.62152632,15.9326842 7.84047368,17.6715789 10.3752105,18.8968947 C11.3435263,19.3557895 12.6363158,19.8989474 14.0803684,19.9914737 C14.169,19.9957895 14.2615263,19.9998947 14.3457895,19.9998947 C15.3184737,19.9998947 16.1352632,19.6506316 16.7752632,18.9556842 C16.7794211,18.9472632 16.7878421,18.9431579 16.7921579,18.9347368 C17.0111053,18.6695263 17.2635789,18.4293684 17.529,18.1726316 C17.7098947,17.9998947 17.8951579,17.819 18.0762632,17.6294211 C18.4932105,17.1958421 18.7119474,16.6904737 18.7119474,16.1726316 C18.7119474,15.6506316 18.4888947,15.1493684 18.0637368,14.7283158 L15.7520526,12.4084211 Z M17.2594737,16.842 C17.2551579,16.842 17.2551579,16.8463158 17.2594737,16.842 C17.0952105,17.0190526 16.9267895,17.179 16.7456842,17.3557895 C16.4720526,17.6168947 16.1941053,17.8905263 15.9331579,18.1978947 C15.5077895,18.6526842 15.0067895,18.8673158 14.3498947,18.8673158 C14.2867895,18.8673158 14.2193684,18.8673158 14.1562632,18.8632105 C12.9058421,18.7832105 11.7436316,18.2947368 10.8721053,17.878 C8.48889474,16.7242105 6.39615789,15.0862632 4.65726316,13.0105789 C3.22163158,11.2799474 2.26152632,9.68 1.62584211,7.96210526 C1.23415789,6.91378947 1.09105263,6.09673684 1.15421053,5.32636842 C1.19631579,4.83357895 1.38568421,4.42526316 1.73521053,4.07578947 L3.17105263,2.63989474 C3.37726316,2.44626316 3.59621053,2.341 3.81105263,2.341 C4.07626316,2.341 4.29089474,2.50115789 4.42578947,2.63578947 L4.43831579,2.64836842 C4.69531579,2.88847368 4.93936842,3.13684211 5.19631579,3.40205263 C5.32689474,3.53689474 5.46157895,3.67157895 5.59621053,3.81057895 L6.74568421,4.96005263 C7.192,5.40636842 7.192,5.819 6.74568421,6.26531579 C6.62357895,6.38747368 6.50573684,6.50957895 6.38363158,6.62736842 C6.03,6.98942105 5.69305263,7.32636842 5.32689474,7.65473684 C5.31847368,7.66315789 5.31005263,7.66747368 5.30573684,7.67568421 C4.94368421,8.03794737 5.01110526,8.39157895 5.08673684,8.63147368 L5.09952632,8.66952632 C5.39842105,9.39363158 5.81947368,10.0757895 6.45947368,10.8884737 L6.46363158,10.8925789 C7.62584211,12.3241053 8.85094737,13.4401053 10.2025263,14.2947368 C10.3752105,14.4043158 10.552,14.4927368 10.7204211,14.5767895 C10.8721053,14.6526842 11.0152105,14.7242105 11.1373158,14.8000526 C11.1542105,14.8085263 11.1710526,14.8210526 11.1878947,14.8294737 C11.331,14.901 11.4656842,14.9347368 11.6046316,14.9347368 C11.9541579,14.9347368 12.1731053,14.7157895 12.2446316,14.6442632 L13.6846316,13.2042632 C13.8278947,13.0609474 14.0553158,12.8884737 14.3205263,12.8884737 C14.5816316,12.8884737 14.7962632,13.0525263 14.9267895,13.1958421 L17.2551579,15.5241579 C17.6889474,15.9536316 17.6889474,16.3958947 17.2594737,16.842 L17.2594737,16.842 Z" fill="#FFFFFF" mask="url(#mask-2)"></path>
                    <path d="M10.7668421,4.79573684 C11.8698421,4.981 12.8721053,5.50321053 13.6721053,6.30315789 C14.4720526,7.10310526 14.9899474,8.10515789 15.1794737,9.20836842 C15.2257368,9.48636842 15.4656842,9.68 15.7395263,9.68 C15.7730526,9.68 15.8026316,9.67568421 15.8363684,9.67157895 C16.1478421,9.621 16.3542105,9.32636842 16.3036842,9.01473684 C16.0762632,7.68 15.4446842,6.46310526 14.4804737,5.49889474 C13.5162632,4.53463158 12.2993684,3.90305263 10.9646316,3.67568421 C10.6531579,3.62531579 10.3626842,3.83152632 10.3077895,4.13889474 C10.2531053,4.44626316 10.4551579,4.74515789 10.7668421,4.79573684 L10.7668421,4.79573684 Z" fill="#FFFFFF" mask="url(#mask-2)"></path>
                    <path d="M19.912,8.85042105 C19.5374211,6.65268421 18.5014211,4.65268421 16.9099474,3.06094737 C15.3184737,1.46947368 13.3184737,0.433736842 11.1204737,0.0588947368 C10.8131053,0.00421052632 10.5226316,0.214736842 10.4679474,0.522105263 C10.4173684,0.833578947 10.6235789,1.12431579 10.9352632,1.179 C12.8974211,1.51163158 14.6868947,2.44215789 16.11,3.86115789 C17.5331053,5.28426316 18.4594737,7.07373684 18.7921579,9.03589474 C18.8384211,9.31363158 19.0783158,9.50731579 19.352,9.50731579 C19.3856842,9.50731579 19.4153158,9.50321053 19.4487895,9.49889474 C19.7563684,9.45263158 19.9668947,9.15778947 19.912,8.85042105 L19.912,8.85042105 Z" fill="#FFFFFF" mask="url(#mask-2)"></path>
                </g>
            </g>
        </g>
    </g>
</svg>