<svg width="32px" height="32px" viewBox="0 0 32 32" version="1.1" xmlns="http://www.w3.org/2000/svg" xmlns:xlink="http://www.w3.org/1999/xlink">
    <defs>
        <rect id="path-1" x="0" y="0" width="32" height="32" rx="3"></rect>
        <mask id="mask-2" maskContentUnits="userSpaceOnUse" maskUnits="objectBoundingBox" x="0" y="0" width="32" height="32" fill="white">
            <use xlink:href="#path-1"></use>
        </mask>
    </defs>
    <g stroke="none" stroke-width="1" fill="none" fill-rule="evenodd">
        <g transform="translate(-1273.000000, -38.000000)">
            <g transform="translate(1028.000000, 38.000000)">
                <g transform="translate(165.000000, 0.000000)">
                    <g transform="translate(80.000000, 0.000000)">
                        <use stroke="#298DCF" mask="url(#mask-2)" stroke-width="2" fill="#FFFFFF" xlink:href="#path-1"></use>
                        <path d="M24.3704615,12.1009231 C23.7932308,12.3569231 23.168,12.5341538 22.5144615,12.6116923 C23.1827692,12.2116923 23.6923077,11.5778462 23.9372308,10.8221538 C23.312,11.1926154 22.6203077,11.4621538 21.8793846,11.6061538 C21.2935385,10.9809231 20.4516923,10.5870769 19.5236923,10.5870769 C17.7403077,10.5870769 16.2929231,12.0344615 16.2929231,13.8178462 C16.2929231,14.0726154 16.3224615,14.3175385 16.3753846,14.5538462 C13.6873846,14.4184615 11.3083077,13.1347692 9.712,11.1778462 C9.43261538,11.6541538 9.27384615,12.2116923 9.27384615,12.8036923 C9.27384615,13.9236923 9.84615385,14.9144615 10.7113846,15.4904615 C10.1821538,15.4769231 9.68738462,15.328 9.25046154,15.0867692 L9.25046154,15.1261538 C9.25046154,16.6929231 10.3655385,18 11.8412308,18.2990769 C11.5716923,18.3704615 11.2836923,18.4086154 10.9907692,18.4086154 C10.784,18.4086154 10.5821538,18.3901538 10.3803077,18.352 C10.7938462,19.6356923 11.9852308,20.5673846 13.3993846,20.5969231 C12.2929231,21.4621538 10.8984615,21.9766154 9.38461538,21.9766154 C9.12492308,21.9766154 8.87015385,21.9618462 8.61538462,21.9335385 C10.048,22.8516923 11.7452308,23.3846154 13.5716923,23.3846154 C19.5138462,23.3846154 22.7643077,18.4615385 22.7643077,14.1932308 L22.7544615,13.7747692 C23.3895385,13.3181538 23.9372308,12.7507692 24.3704615,12.1009231 L24.3704615,12.1009231 Z" fill="#298DCF"></path>
                    </g>
                </g>
            </g>
        </g>
    </g>
</svg>