<svg width="64px" height="64px" viewBox="0 0 64 64" version="1.1" xmlns="http://www.w3.org/2000/svg" xmlns:xlink="http://www.w3.org/1999/xlink">
    <g stroke="none" stroke-width="1" fill="none" fill-rule="evenodd">
        <g transform="translate(-240.000000, -902.000000)" fill="#FFFFFF">
            <g transform="translate(135.000000, 878.000000)">
                <g transform="translate(105.000000, 24.000000)">
                    <path d="M32,64 C14.3562677,64 0,49.6440545 0,32.0007181 C0,14.3559455 14.3562677,-1.42108547e-14 32,-1.42108547e-14 C49.6437323,-1.42108547e-14 64,14.3559455 64,32.0007181 C64,49.6440545 49.6437323,64 32,64 L32,64 Z M32.0023275,3 C16.0138848,3 3,16.0138848 3,32.0038792 C3,47.9923219 16.0138848,61 32.0023275,61 C47.9923219,61 61,47.9923219 61,32.0038792 C61,16.0138848 47.9923219,3 32.0023275,3 L32.0023275,3 Z" opacity="0.5"></path>
                    <path d="M24.3657058,25.3106087 C24.7379833,24.3458131 25.2651397,23.5131619 25.9372285,22.8083922 C26.6093173,22.1036226 27.4249177,21.5537317 28.3740833,21.1601406 C29.3232488,20.759445 30.3889288,20.5662017 31.5654394,20.5662017 C33.0801258,20.5662017 34.3461536,20.7708122 35.3621018,21.1928215 C36.37805,21.6091471 37.1936503,22.1249362 37.8145865,22.7472932 C38.4369436,23.3682294 38.8802664,24.0346346 39.1473969,24.7507715 C39.4131064,25.4669084 39.5466716,26.1375763 39.5466716,26.7542498 C39.5466716,27.7758816 39.4131064,28.6241628 39.1473969,29.2848844 C38.8802664,29.9512895 38.5477743,30.5168104 38.1541832,30.9842886 C37.7534875,31.4560296 37.3215319,31.8553043 36.8384237,32.1877965 C36.3609991,32.5217095 35.906309,32.848518 35.4786161,33.1810102 C35.0509232,33.5149232 34.6672784,33.8914635 34.3404699,34.3191563 C34.0079778,34.7468492 33.7962627,35.2796892 33.7138501,35.9233599 L33.7138501,37.1396559 L29.3843478,37.1396559 L29.3843478,35.6960148 C29.4511304,34.7795301 29.6230601,34.0079778 29.9115042,33.3927253 C30.1999482,32.7703682 30.538124,32.2432118 30.9217687,31.799889 C31.3096762,31.3665125 31.7146346,30.9842886 32.1423275,30.6617428 C32.5700204,30.339197 32.9636115,30.0237558 33.3302054,29.7068936 C33.6911156,29.3800851 33.9852433,29.0305421 34.2069047,28.6468973 C34.4342498,28.2646735 34.5351341,27.7758816 34.5123996,27.2032562 C34.5123996,26.2157262 34.2736873,25.4939056 33.7905791,25.0221647 C33.3131545,24.5504237 32.6424866,24.317395 31.7871008,24.317395 C31.2102128,24.317395 30.7157373,24.4282257 30.2994117,24.651308 C29.8774024,24.8786531 29.5392266,25.1784644 29.2735171,25.549321 C29.0007031,25.9272821 28.8060389,26.3663423 28.6795782,26.8650805 C28.5516966,27.3709232 28.484914,27.9094468 28.484914,28.4863349 L23.7717669,28.4863349 C23.7945014,27.3311378 23.9891656,26.2711415 24.3657058,25.3106087 L24.3657058,25.3106087 Z M28.9339204,43.9997928 L33.9681924,43.9997928 L33.9681924,39.0649843 L28.9339204,39.0649843 L28.9339204,43.9997928 Z"></path>
                </g>
            </g>
        </g>
    </g>
</svg>