<svg width="30px" height="30px" viewBox="0 0 30 30" version="1.1" xmlns="http://www.w3.org/2000/svg" xmlns:xlink="http://www.w3.org/1999/xlink">
    <g stroke="none" stroke-width="1" fill="none" fill-rule="evenodd">
        <g transform="translate(-655.000000, -285.000000)">
            <g transform="translate(655.000000, 285.000000)">
                <circle fill="#CFCECB" cx="15" cy="15" r="15"></circle>
                <path d="M17.3360039,20.7245039 C17.5169764,20.9048826 17.7637354,21 18.001232,21 C18.2387287,21 18.4854877,20.9048826 18.6664601,20.7245039 C19.0365986,20.3543654 19.0365986,19.765255 18.6664601,19.3946415 L14.2730506,15.001232 L18.6664601,10.6078225 C19.0365986,10.237209 19.0365986,9.64857363 18.6664601,9.27796013 C18.2957278,8.90734662 17.7067362,8.90734662 17.3360039,9.27796013 L12.2779601,14.3360039 C11.9073466,14.7066174 11.9073466,15.2957278 12.2779601,15.6663413 L17.3360039,20.7245039 Z" fill="#FFFFFF" transform="translate(15.472032, 15.000000) scale(-1, 1) translate(-15.472032, -15.000000) "></path>
            </g>
        </g>
    </g>
</svg>