<?xml version="1.0" encoding="UTF-8"?>
<svg width="32px" height="32px" viewBox="0 0 32 32" version="1.1" xmlns="http://www.w3.org/2000/svg" xmlns:xlink="http://www.w3.org/1999/xlink">
    <!-- Generator: Sketch 41.2 (35397) - http://www.bohemiancoding.com/sketch -->
    <title>Group 8</title>
    <desc>Created with Sketch.</desc>
    <defs>
        <rect id="path-1" x="0" y="0" width="32" height="32" rx="2"></rect>
        <mask id="mask-2" maskContentUnits="userSpaceOnUse" maskUnits="objectBoundingBox" x="0" y="0" width="32" height="32" fill="white">
            <use xlink:href="#path-1"></use>
        </mask>
    </defs>
    <g id="Меню-2" stroke="none" stroke-width="1" fill="none" fill-rule="evenodd">
        <g id="Group-8">
            <use id="Rectangle-7" stroke="#5588D2" mask="url(#mask-2)" stroke-width="2" xlink:href="#path-1"></use>
            <g id="odnoklassniki-logo" transform="translate(11.000000, 8.000000)" fill="#5588D2">
                <path d="M4.16782609,11.307013 C2.88130435,11.1788052 1.72043478,10.8760519 0.726086957,10.1334026 C0.602826087,10.0409351 0.475652174,9.95158442 0.363478261,9.84851948 C-0.0713043478,9.44914286 -0.115434783,8.99220779 0.228478261,8.52051948 C0.523043478,8.11719481 1.0173913,8.00914286 1.53108696,8.24062338 C1.63043478,8.28592208 1.72565217,8.34202597 1.81630435,8.40207792 C3.66847826,9.61787013 6.21173913,9.65215584 8.07152174,8.45651948 C8.25586957,8.32166234 8.45195652,8.21132468 8.68043478,8.15522078 C9.12456522,8.04654545 9.53804348,8.20238961 9.77586957,8.5732987 C10.0484783,8.99698701 10.0441304,9.41090909 9.70956522,9.73963636 C9.195,10.2437403 8.57673913,10.609039 7.88978261,10.864 C7.24021739,11.1042078 6.52934783,11.2251429 5.82456522,11.3061818 C5.93152174,11.4167273 5.98086957,11.470961 6.04782609,11.5343377 C7.00413043,12.4531948 7.96456522,13.3670649 8.9173913,14.2884156 C9.24173913,14.6025974 9.30956522,14.9913766 9.13130435,15.3566753 C8.93521739,15.7552208 8.49782609,16.0180779 8.06891304,15.9898182 C7.79717391,15.9719481 7.585,15.8429091 7.39630435,15.6610909 C6.67456522,14.9670649 5.94,14.2859221 5.2326087,13.579013 C5.02717391,13.3728831 4.92782609,13.4117403 4.74695652,13.5904416 C4.02086957,14.3046234 3.28304348,15.0084156 2.54086957,15.7072208 C2.20782609,16.0214026 1.81130435,16.0781299 1.425,15.8988052 C1.01391304,15.7088831 0.752391304,15.3078442 0.772826087,14.9053506 C0.786304348,14.6325195 0.926521739,14.4238961 1.1226087,14.2372987 C2.06869565,13.3346494 3.01195652,12.4288831 3.95630435,11.5245714 C4.01913043,11.4645195 4.07695652,11.4005195 4.16782609,11.307013 Z" id="Fill-1"></path>
                <path d="M4.9523913,8.16187013 C2.65630435,8.1545974 0.772826087,6.33475325 0.786304348,4.1358961 C0.799130435,1.91251948 2.68347826,0.121142857 5.0026087,0.127792208 C7.32673913,0.133402597 9.19152174,1.95075325 9.18043478,4.19677922 C9.16869565,6.39064935 7.2723913,8.16914286 4.9523913,8.16187013 Z M7.03978261,4.14150649 C7.03543478,3.04976623 6.12608696,2.18057143 4.98652174,2.17974026 C3.83652174,2.17807792 2.91956522,3.06285714 2.92804348,4.16498701 C2.93652174,5.25194805 3.85369565,6.11553247 4.99652174,6.11137662 C6.13630435,6.10742857 7.04304348,5.23241558 7.03978261,4.14150649 Z" id="Fill-3"></path>
            </g>
        </g>
    </g>
</svg>