<?xml version="1.0" encoding="UTF-8" standalone="no"?>
<svg width="16px" height="15px" viewBox="0 0 16 15" version="1.1" xmlns="http://www.w3.org/2000/svg" xmlns:xlink="http://www.w3.org/1999/xlink">
    <g stroke="none" stroke-width="1" fill="none" fill-rule="evenodd">
        <g transform="translate(-568.000000, -2437.000000)" fill="#E4E4E4">
            <g transform="translate(17.000000, -42.000000)">
                <g transform="translate(175.000000, 2479.000000)">
                    <g transform="translate(384.500000, 7.500000) rotate(180.000000) translate(-384.500000, -7.500000) translate(368.000000, 0.000000)">
                        <g transform="translate(16.500000, 7.500000) rotate(-180.000000) translate(-16.500000, -7.500000) translate(8.000000, 0.000000)">
                            <g transform="translate(9.379310, 0.000000)">
                                <path d="M1.77635684e-15,7.85714286 L5.79556126,7.85714286 C6.25126709,7.85714286 6.62068966,8.22117823 6.62068966,8.67651939 L6.62068966,14.1806235 C6.62068966,14.6331526 6.24576306,15 5.79556126,15 L0.825128391,15 C0.369422564,15 1.77635684e-15,14.6359646 1.77635684e-15,14.1806235 L1.77635684e-15,7.85714286 Z"></path>
                                <path d="M0,7.85714286 C0,3.65647621 2.93202217,0.225738625 6.62068966,0.0106956876 L6.62068966,3.05952021 C4.76199625,3.30142306 3.31034483,5.35706431 3.31034483,7.85714286 L1.39194212e-14,7.85714286 Z"></path>
                            </g>
                            <g transform="translate(0.000000, 0.000000)">
                                <path d="M3.55271368e-15,7.85714286 L5.79556126,7.85714286 C6.25126709,7.85714286 6.62068966,8.22117823 6.62068966,8.67651939 L6.62068966,14.1806235 C6.62068966,14.6331526 6.24576306,15 5.79556126,15 L0.825128391,15 C0.369422564,15 3.55271368e-15,14.6359646 3.55271368e-15,14.1806235 L3.55271368e-15,7.85714286 Z"></path>
                                <path d="M0,7.85714286 C0,3.65647621 2.93202217,0.225738625 6.62068966,0.0106956876 L6.62068966,3.05952021 C4.76199625,3.30142306 3.31034483,5.35706431 3.31034483,7.85714286 L1.48908663e-14,7.85714286 Z"></path>
                            </g>
                        </g>
                    </g>
                </g>
            </g>
        </g>
    </g>
</svg>