<?xml version="1.0" encoding="UTF-8" standalone="no"?>
<!-- Created with Inkscape (http://www.inkscape.org/) -->

<svg
   xmlns:dc="http://purl.org/dc/elements/1.1/"
   xmlns:cc="http://creativecommons.org/ns#"
   xmlns:rdf="http://www.w3.org/1999/02/22-rdf-syntax-ns#"
   xmlns:svg="http://www.w3.org/2000/svg"
   xmlns="http://www.w3.org/2000/svg"
   xmlns:sodipodi="http://sodipodi.sourceforge.net/DTD/sodipodi-0.dtd"
   xmlns:inkscape="http://www.inkscape.org/namespaces/inkscape"
   width="112.04582mm"
   height="42.355064mm"
   viewBox="0 0 397.01276 150.077"
   id="svg2"
   version="1.1"
   inkscape:version="0.91 r13725"
   sodipodi:docname="logofund.svg">
  <defs
     id="defs4">
    <clipPath
       id="clipPath4150"
       clipPathUnits="userSpaceOnUse">
      <path
         inkscape:connector-curvature="0"
         id="path4152"
         d="m 0,595.28 841.89,0 L 841.89,0 0,0 0,595.28 Z" />
    </clipPath>
  </defs>
  <sodipodi:namedview
     id="base"
     pagecolor="#ffffff"
     bordercolor="#666666"
     borderopacity="1.0"
     inkscape:pageopacity="0.0"
     inkscape:pageshadow="2"
     inkscape:zoom="0.35"
     inkscape:cx="-317.92219"
     inkscape:cy="-144.9615"
     inkscape:document-units="px"
     inkscape:current-layer="layer1"
     showgrid="false"
     fit-margin-top="0"
     fit-margin-left="0"
     fit-margin-right="0"
     fit-margin-bottom="0"
     inkscape:window-width="1827"
     inkscape:window-height="1057"
     inkscape:window-x="1912"
     inkscape:window-y="-8"
     inkscape:window-maximized="1" />
  <metadata
     id="metadata7">
    <rdf:RDF>
      <cc:Work
         rdf:about="">
        <dc:format>image/svg+xml</dc:format>
        <dc:type
           rdf:resource="http://purl.org/dc/dcmitype/StillImage" />
        <dc:title></dc:title>
      </cc:Work>
    </rdf:RDF>
  </metadata>
  <g
     inkscape:label="Layer 1"
     inkscape:groupmode="layer"
     id="layer1"
     transform="translate(-178.63648,-237.32371)">
    <g
       transform="matrix(1.25,0,0,-1.25,-149.03802,684.41208)"
       inkscape:label="ФПР"
       id="g4144">
      <g
         id="g4146">
        <g
           clip-path="url(#clipPath4150)"
           id="g4148">
          <g
             transform="translate(340.3691,342.5617)"
             id="g4154">
            <path
               inkscape:connector-curvature="0"
               id="path4156"
               style="fill:#e7705e;fill-opacity:1;fill-rule:nonzero;stroke:none"
               d="m 0,0 c -10.463,9.744 -24.102,15.109 -38.406,15.109 -14.298,0 -27.932,-5.361 -38.392,-15.096 l 8.986,-4.443 c 8.333,6.665 18.64,10.31 29.406,10.31 10.777,0 21.095,-3.653 29.432,-10.333 L -0.027,-0.029 0,0 Z" />
          </g>
          <g
             transform="translate(376.5757,342.6872)"
             id="g4158">
            <path
               inkscape:connector-curvature="0"
               id="path4160"
               style="fill:#3c403c;fill-opacity:1;fill-rule:nonzero;stroke:none"
               d="m 0,0 0,-6.007 c -2.07,0 -3.51,1.066 -3.51,3.025 C -3.51,-1.088 -2.07,0 0,0 m 4.387,0 c 2.07,0 3.51,-1.088 3.51,-2.982 0,-1.959 -1.44,-3.025 -3.51,-3.025 L 4.387,0 Z M 0,-9.751 l 0,-1.698 4.387,0 0,1.698 c 5.107,0 7.988,2.916 7.988,6.834 0,3.874 -2.926,6.66 -7.988,6.66 l 0,1.349 -4.387,0 0,-1.349 c -5.062,0 -7.987,-2.786 -7.987,-6.66 0,-3.918 2.88,-6.834 7.987,-6.834" />
          </g>
          <g
             transform="translate(399.4165,343.6228)"
             id="g4162">
            <path
               inkscape:connector-curvature="0"
               id="path4164"
               style="fill:#3c403c;fill-opacity:1;fill-rule:nonzero;stroke:none"
               d="m 0,0 c 2.408,0 4.051,-1.916 4.051,-4.114 0,-2.241 -1.597,-4.114 -4.005,-4.114 -2.385,0 -4.028,1.916 -4.028,4.114 C -3.982,-1.873 -2.384,0 0,0 m 0,-12.036 c 4.86,0 8.505,3.547 8.505,7.922 0,4.419 -3.6,7.924 -8.459,7.924 -4.86,0 -8.505,-3.549 -8.505,-7.924 0,-4.419 3.6,-7.922 8.459,-7.922" />
          </g>
          <g
             transform="translate(414.9624,337.6804)"
             id="g4166">
            <path
               inkscape:connector-curvature="0"
               id="path4168"
               style="fill:#3c403c;fill-opacity:1;fill-rule:nonzero;stroke:none"
               d="m 0,0 5.603,0 0,-5.79 4.364,0 0,15.236 -4.364,0 0,-5.702 -5.603,0 0,5.702 -4.365,0 0,-15.236 L 0,-5.79 0,0 Z" />
          </g>
          <g
             transform="translate(434.3691,343.2751)"
             id="g4170">
            <path
               inkscape:connector-curvature="0"
               id="path4172"
               style="fill:#3c403c;fill-opacity:1;fill-rule:nonzero;stroke:none"
               d="m 0,0 0,0.151 3.419,0 0,-7.835 -4.657,0 C -0.519,-5.595 0,-3.375 0,0 m -2.993,-11.385 8.369,0 0,-3.047 3.69,0 0.496,6.748 -1.777,0 0,11.536 -11.993,0 0,-0.392 c 0,-5.726 -0.54,-8.38 -1.598,-11.144 l -1.394,0 0,-6.748 3.914,0 0.293,3.047 z" />
          </g>
          <g
             transform="translate(383.5044,303.136)"
             id="g4174">
            <path
               inkscape:connector-curvature="0"
               id="path4176"
               style="fill:#3c403c;fill-opacity:1;fill-rule:nonzero;stroke:none"
               d="m 0,0 0,15.235 -14.106,0 0,-15.235 4.364,0 0,11.535 5.378,0 L -4.364,0 0,0 Z" />
          </g>
          <g
             transform="translate(393.3608,310.7966)"
             id="g4178">
            <path
               inkscape:connector-curvature="0"
               id="path4180"
               style="fill:#3c403c;fill-opacity:1;fill-rule:nonzero;stroke:none"
               d="m 0,0 -2.07,0 0,4.027 2.047,0 C 1.552,4.027 2.498,3.331 2.498,2.025 2.498,0.785 1.552,0 0,0 m 0.315,7.574 -6.75,0 0,-15.235 4.365,0 0,4.353 2.16,0 c 3.914,0 6.772,1.893 6.772,5.485 0,3.416 -2.566,5.397 -6.547,5.397" />
          </g>
          <g
             transform="translate(410.5439,314.8674)"
             id="g4182">
            <path
               inkscape:connector-curvature="0"
               id="path4184"
               style="fill:#3c403c;fill-opacity:1;fill-rule:nonzero;stroke:none"
               d="m 0,0 c 2.406,0 4.049,-1.916 4.049,-4.114 0,-2.241 -1.596,-4.114 -4.004,-4.114 -2.385,0 -4.027,1.916 -4.027,4.114 C -3.982,-1.872 -2.385,0 0,0 m -8.46,-4.114 c 0,-4.418 3.6,-7.922 8.46,-7.922 4.859,0 8.503,3.547 8.503,7.922 0,4.419 -3.599,7.922 -8.458,7.922 -4.86,0 -8.505,-3.547 -8.505,-7.922" />
          </g>
          <g
             transform="translate(433.4277,307.9245)"
             id="g4186">
            <path
               inkscape:connector-curvature="0"
               id="path4188"
               style="fill:#3c403c;fill-opacity:1;fill-rule:nonzero;stroke:none"
               d="M 0,0 0,6.007 C 2.07,6.007 3.51,4.918 3.51,3.025 3.51,1.067 2.07,0 0,0 m -4.387,0 c -2.07,0 -3.509,1.067 -3.509,3.025 0,1.893 1.439,2.982 3.509,2.982 L -4.387,0 Z M 7.988,3.091 c 0,3.874 -2.926,6.66 -7.988,6.66 l 0,1.349 -4.387,0 0,-1.349 c -5.062,0 -7.987,-2.786 -7.987,-6.66 0,-3.919 2.88,-6.835 7.987,-6.835 l 0,-1.698 4.387,0 0,1.698 c 5.108,0 7.988,2.916 7.988,6.835" />
          </g>
          <g
             transform="translate(443.9062,318.3708)"
             id="g4190">
            <path
               inkscape:connector-curvature="0"
               id="path4192"
               style="fill:#3c403c;fill-opacity:1;fill-rule:nonzero;stroke:none"
               d="m 0,0 0,-15.235 4.073,0 6.097,8.576 0,-8.576 4.32,0 L 14.49,0 10.417,0 4.319,-8.575 4.319,0 0,0 Z" />
          </g>
          <g
             transform="translate(467.9971,314.0842)"
             id="g4194">
            <path
               inkscape:connector-curvature="0"
               id="path4196"
               style="fill:#3c403c;fill-opacity:1;fill-rule:nonzero;stroke:none"
               d="m 0,0 0,0.586 3.668,0 0,-11.534 4.363,0 0,15.235 -12.104,0 0,-2.111 c 0,-9.229 -1.17,-9.837 -2.406,-9.837 -0.204,0 -0.812,0.042 -1.013,0.086 l -0.293,-3.243 c 0.338,-0.109 1.463,-0.349 2.609,-0.349 C -2.115,-11.167 0,-9.295 0,0" />
          </g>
          <g
             transform="translate(486.832,313.4743)"
             id="g4198">
            <path
               inkscape:connector-curvature="0"
               id="path4200"
               style="fill:#3c403c;fill-opacity:1;fill-rule:nonzero;stroke:none"
               d="m 0,0 1.755,-4.332 -3.533,0 L 0,0 Z m -3.06,-7.618 6.076,0 1.146,-2.721 4.68,0 -6.705,15.345 -4.207,0 -6.705,-15.345 4.589,0 1.126,2.721 z" />
          </g>
          <g
             transform="translate(502.0791,307.0744)"
             id="g4202">
            <path
               inkscape:connector-curvature="0"
               id="path4204"
               style="fill:#3c403c;fill-opacity:1;fill-rule:nonzero;stroke:none"
               d="m 0,0 1.597,1.721 3.96,-5.659 5.241,0 -6.164,8.684 5.962,6.55 -5.175,0 L 0,5.116 l 0,6.18 -4.366,0 0,-15.234 4.366,0 L 0,0 Z" />
          </g>
          <g
             transform="translate(518.9727,303.135)"
             id="g4206">
            <path
               inkscape:connector-curvature="0"
               id="path4208"
               style="fill:#3c403c;fill-opacity:1;fill-rule:nonzero;stroke:none"
               d="m 0,0 4.366,0 0,11.537 4.725,0 0,3.699 -13.816,0 0,-3.699 4.725,0 L 0,0 Z" />
          </g>
          <g
             transform="translate(534.5986,309.7961)"
             id="g4210">
            <path
               inkscape:connector-curvature="0"
               id="path4212"
               style="fill:#3c403c;fill-opacity:1;fill-rule:nonzero;stroke:none"
               d="m 0,0 0,8.575 -4.319,0 0,-15.235 4.071,0 6.099,8.576 0,-8.576 4.32,0 0,15.235 -4.073,0 L 0,0 Z" />
          </g>
          <g
             transform="translate(563.1514,318.3708)"
             id="g4214">
            <path
               inkscape:connector-curvature="0"
               id="path4216"
               style="fill:#3c403c;fill-opacity:1;fill-rule:nonzero;stroke:none"
               d="m 0,0 -5.175,0 -5.423,-6.18 0,6.18 -4.364,0 0,-15.235 4.364,0 0,3.939 1.599,1.72 3.96,-5.659 5.241,0 -6.165,8.684 L 0,0 Z" />
          </g>
          <g
             transform="translate(575.6768,318.3708)"
             id="g4218">
            <path
               inkscape:connector-curvature="0"
               id="path4220"
               style="fill:#3c403c;fill-opacity:1;fill-rule:nonzero;stroke:none"
               d="m 0,0 -6.097,-8.575 0,8.575 -4.319,0 0,-15.235 4.071,0 6.099,8.576 0,-8.576 4.319,0 L 4.073,0 0,0 Z" />
          </g>
          <g
             transform="translate(373.7637,286.0681)"
             id="g4222">
            <path
               inkscape:connector-curvature="0"
               id="path4224"
               style="fill:#3c403c;fill-opacity:1;fill-rule:nonzero;stroke:none"
               d="m 0,0 2.046,0 c 1.576,0 2.521,-0.697 2.521,-2.003 0,-1.241 -0.945,-2.024 -2.497,-2.024 L 0,-4.027 0,0 Z m 0,-7.335 2.16,0 c 3.915,0 6.772,1.893 6.772,5.484 0,3.417 -2.566,5.398 -6.547,5.398 l -6.75,0 0,-15.235 4.365,0 0,4.353 z" />
          </g>
          <g
             transform="translate(389.4453,280.3874)"
             id="g4226">
            <path
               inkscape:connector-curvature="0"
               id="path4228"
               style="fill:#3c403c;fill-opacity:1;fill-rule:nonzero;stroke:none"
               d="M 0,0 1.776,4.331 3.533,0 0,0 Z m 3.915,9.336 -4.207,0 -6.706,-15.344 4.59,0 1.126,2.722 6.075,0 1.147,-2.722 4.68,0 -6.705,15.344 z" />
          </g>
          <g
             transform="translate(402.104,289.615)"
             id="g4230">
            <path
               inkscape:connector-curvature="0"
               id="path4232"
               style="fill:#3c403c;fill-opacity:1;fill-rule:nonzero;stroke:none"
               d="m 0,0 0,-15.234 4.366,0 0,3.938 1.597,1.719 3.959,-5.657 5.242,0 L 9,-6.551 14.962,0 9.787,0 4.366,-6.18 4.366,0 0,0 Z" />
          </g>
          <g
             transform="translate(427.3271,284.7185)"
             id="g4234">
            <path
               inkscape:connector-curvature="0"
               id="path4236"
               style="fill:#3c403c;fill-opacity:1;fill-rule:nonzero;stroke:none"
               d="m 0,0 1.755,-4.331 -3.533,0 L 0,0 Z m -3.061,-7.617 6.076,0 1.147,-2.722 4.68,0 -6.705,15.344 -4.207,0 -6.705,-15.344 4.589,0 1.125,2.722 z" />
          </g>
          <g
             transform="translate(447.7793,257.0759)"
             id="g4238">
            <path
               inkscape:connector-curvature="0"
               id="path4240"
               style="fill:#35ae95;fill-opacity:1;fill-rule:nonzero;stroke:none"
               d="m 0,0 c 0.004,-0.565 -0.031,-0.919 -0.064,-1.265 -0.037,-0.36 -0.071,-0.702 -0.059,-1.275 0.04,-2.13 0.099,-4.304 0.156,-6.347 0.015,-0.544 0.047,-1.108 0.097,-1.678 0.016,-0.187 0.081,-0.389 0.144,-0.581 0.064,-0.198 0.227,-0.43 1.022,-0.36 0.712,0.062 1.769,0.449 1.769,1.272 C 2.954,-9.046 2.953,-7.791 2.95,-6.577 2.947,-5.371 2.946,-4.121 2.835,-2.93 2.743,-1.95 2.672,-0.953 2.602,0.011 L 2.587,0.212 C 2.578,0.327 2.575,0.5 2.572,0.706 2.563,1.353 2.543,2.556 2.251,2.854 1.952,3.116 -1.196,3.031 -3.496,2.973 -4.555,2.944 -5.555,2.918 -6.373,2.917 -6.71,2.904 -6.986,2.929 -7.27,2.944 -7.517,2.956 -7.758,2.968 -8.001,2.968 -8.316,2.968 -8.637,2.947 -8.978,2.881 -9.169,2.845 -9.212,2.754 -9.226,2.726 -9.364,2.432 -9.01,1.778 -8.84,1.466 c 0.066,-0.12 0.113,-0.214 0.131,-0.264 0.08,-0.237 0.083,-0.478 0.076,-0.661 -0.022,-0.551 -0.053,-1.102 -0.083,-1.651 -0.06,-1.096 -0.123,-2.23 -0.112,-3.339 0.016,-1.703 0.108,-3.435 0.197,-5.11 0.024,-0.457 0.048,-0.913 0.07,-1.368 0.019,-0.381 0.123,-0.77 0.21,-1.068 0.091,-0.309 0.344,-0.563 0.772,-0.769 0.086,-0.043 0.15,-0.075 0.202,-0.102 0.141,-0.075 0.142,-0.074 0.29,-0.036 0.066,0.016 0.154,0.039 0.275,0.063 1.11,0.233 1.454,1.74 1.441,2.104 -0.018,0.518 -0.029,1.036 -0.041,1.554 -0.026,1.104 -0.053,2.248 -0.132,3.369 -0.151,2.122 -0.149,3.318 -0.087,5.36 0.007,0.198 0.035,0.394 0.063,0.584 0.012,0.075 0.034,0.141 0.059,0.216 l 0.065,0.21 0.276,0.024 c 0.147,0.015 0.271,0.023 0.449,0.022 0.469,0 1.323,-0.017 2.154,-0.035 0.697,-0.013 1.354,-0.027 1.687,-0.028 0.618,0 0.873,0 0.878,-0.541" />
          </g>
          <g
             transform="translate(446.9014,257.4529)"
             id="g4242">
            <path
               inkscape:connector-curvature="0"
               id="path4244"
               style="fill:#35ae95;fill-opacity:1;fill-rule:nonzero;stroke:none"
               d="M 0,0 C -0.76,0 -3.205,0.068 -3.965,0.061 -4.122,0.059 -4.278,0.038 -4.44,0.025 c -0.035,-0.111 -0.073,-0.199 -0.085,-0.287 -0.029,-0.191 -0.058,-0.382 -0.064,-0.573 -0.063,-2.073 -0.059,-3.271 0.087,-5.342 0.116,-1.641 0.118,-3.286 0.174,-4.929 0.013,-0.38 -0.328,-2.011 -1.572,-2.271 -0.598,-0.124 -0.367,-0.158 -0.873,0.087 -0.489,0.237 -0.758,0.533 -0.858,0.872 -0.108,0.366 -0.197,0.736 -0.216,1.106 -0.108,2.162 -0.248,4.323 -0.268,6.484 -0.016,1.666 0.13,3.332 0.195,4.998 0.008,0.201 -0.001,0.406 -0.067,0.602 -0.086,0.251 -1.109,1.707 -0.144,1.894 0.922,0.178 1.66,0.035 2.635,0.038 2.913,0.008 8.311,0.324 8.742,-0.111 0.431,-0.436 0.344,-2.216 0.383,-2.746 0.076,-1.046 0.15,-2.093 0.248,-3.139 0.223,-2.395 0.01,-4.924 0.231,-7.319 0,-0.913 -1.082,-1.364 -1.92,-1.436 -0.681,-0.058 -1.067,0.087 -1.187,0.455 -0.068,0.211 -0.14,0.423 -0.157,0.636 -0.049,0.561 -0.083,1.124 -0.099,1.686 -0.058,2.118 -0.115,4.234 -0.155,6.351 -0.022,1.137 0.133,1.402 0.123,2.54 C 0.71,-0.021 0.664,-0.001 0,0 m 0.425,-2.924 c 0.041,-2.13 0.099,-4.305 0.156,-6.35 0.016,-0.549 0.048,-1.12 0.099,-1.696 0.018,-0.225 0.09,-0.444 0.165,-0.674 0.218,-0.667 1.079,-0.596 1.356,-0.567 0.999,0.085 2.072,0.622 2.071,1.615 -0.11,1.189 -0.112,2.437 -0.114,3.642 -0.003,1.215 -0.005,2.472 -0.117,3.679 -0.092,0.975 -0.163,1.97 -0.233,2.932 L 3.793,-0.141 C 3.785,-0.029 3.783,0.137 3.779,0.335 3.763,1.379 3.72,2.349 3.363,2.709 3.03,3.048 0.878,3.019 -2.627,2.925 -3.684,2.897 -4.682,2.871 -5.497,2.868 l -0.034,0 c -0.299,0 -0.577,0.014 -0.845,0.028 C -6.965,2.923 -7.52,2.952 -8.163,2.829 -8.397,2.782 -8.562,2.668 -8.646,2.49 -8.855,2.044 -8.479,1.347 -8.252,0.931 -8.199,0.834 -8.157,0.76 -8.144,0.719 -8.08,0.531 -8.079,0.331 -8.085,0.178 c -0.021,-0.549 -0.052,-1.1 -0.082,-1.649 -0.061,-1.098 -0.124,-2.237 -0.113,-3.359 0.016,-1.709 0.109,-3.444 0.197,-5.124 0.024,-0.455 0.049,-0.91 0.07,-1.366 0.022,-0.415 0.131,-0.829 0.224,-1.144 0.118,-0.4 0.435,-0.726 0.944,-0.974 0.082,-0.04 0.144,-0.072 0.194,-0.098 0.137,-0.071 0.207,-0.103 0.294,-0.103 0.058,0 0.125,0.016 0.227,0.04 0.064,0.015 0.148,0.037 0.263,0.062 1.348,0.28 1.719,1.98 1.704,2.435 -0.018,0.517 -0.029,1.035 -0.041,1.551 -0.026,1.11 -0.053,2.256 -0.134,3.386 -0.149,2.106 -0.147,3.296 -0.086,5.325 0.006,0.18 0.032,0.36 0.062,0.552 0.007,0.05 0.024,0.098 0.043,0.152 0,0.002 0.001,0.004 0.002,0.007 l 0.058,0.005 c 0.101,0.009 0.198,0.02 0.295,0.02 0.424,-0.002 1.363,-0.014 2.27,-0.034 0.7,-0.013 1.36,-0.027 1.694,-0.027 0.193,0 0.486,0 0.53,-0.037 C 0.542,-0.22 0.547,-0.277 0.548,-0.38 0.552,-0.927 0.518,-1.274 0.485,-1.609 0.45,-1.963 0.413,-2.33 0.425,-2.924" />
          </g>
          <g
             transform="translate(446.9014,257.6169)"
             id="g4246">
            <path
               inkscape:connector-curvature="0"
               id="path4248"
               style="fill:#35ae95;fill-opacity:1;fill-rule:nonzero;stroke:none"
               d="M 0,0 C -0.333,0.001 -0.99,0.015 -1.687,0.028 -2.518,0.046 -3.372,0.062 -3.841,0.062 -4.02,0.064 -4.143,0.056 -4.29,0.041 l -0.276,-0.024 -0.065,-0.21 c -0.025,-0.075 -0.047,-0.141 -0.059,-0.216 -0.028,-0.19 -0.056,-0.386 -0.063,-0.584 -0.062,-2.042 -0.064,-3.238 0.087,-5.36 0.079,-1.121 0.105,-2.265 0.132,-3.369 0.012,-0.518 0.023,-1.036 0.041,-1.554 0.013,-0.364 -0.331,-1.871 -1.441,-2.104 -0.121,-0.024 -0.209,-0.047 -0.275,-0.063 -0.148,-0.038 -0.149,-0.039 -0.29,0.036 -0.052,0.027 -0.116,0.059 -0.202,0.102 -0.428,0.206 -0.681,0.46 -0.772,0.769 -0.088,0.298 -0.191,0.687 -0.21,1.068 -0.022,0.455 -0.046,0.911 -0.07,1.368 -0.089,1.675 -0.181,3.407 -0.197,5.11 -0.011,1.109 0.052,2.243 0.112,3.339 0.03,0.549 0.061,1.1 0.083,1.651 0.007,0.183 0.004,0.424 -0.076,0.661 -0.018,0.05 -0.065,0.144 -0.131,0.264 -0.17,0.312 -0.524,0.966 -0.386,1.26 0.014,0.028 0.057,0.119 0.248,0.155 0.341,0.066 0.662,0.087 0.977,0.087 0.243,0 0.484,-0.012 0.731,-0.024 0.284,-0.015 0.56,-0.04 0.897,-0.027 0.818,10e-4 1.818,0.027 2.877,0.056 C -0.318,2.49 2.83,2.575 3.129,2.313 3.421,2.015 3.44,0.812 3.45,0.165 3.453,-0.041 3.456,-0.214 3.465,-0.329 L 3.479,-0.53 c 0.071,-0.964 0.142,-1.961 0.234,-2.941 0.111,-1.191 0.112,-2.441 0.115,-3.647 0.003,-1.214 0.004,-2.469 0.115,-3.657 0,-0.823 -1.057,-1.21 -1.769,-1.272 -0.795,-0.07 -0.958,0.162 -1.022,0.359 -0.063,0.193 -0.129,0.395 -0.144,0.582 -0.05,0.57 -0.082,1.134 -0.097,1.678 -0.057,2.043 -0.116,4.217 -0.156,6.347 -0.012,0.573 0.022,0.915 0.058,1.275 0.034,0.346 0.069,0.7 0.065,1.265 C 0.873,0 0.618,0 0,0 M 0.713,-0.543 C 0.723,-1.681 0.568,-1.946 0.59,-3.083 0.63,-5.2 0.687,-7.316 0.745,-9.434 c 0.016,-0.562 0.05,-1.125 0.099,-1.686 0.017,-0.213 0.089,-0.425 0.157,-0.636 0.12,-0.368 0.506,-0.514 1.187,-0.455 0.838,0.072 1.92,0.523 1.92,1.436 C 3.887,-8.38 4.1,-5.851 3.877,-3.456 3.779,-2.41 3.705,-1.363 3.629,-0.317 3.59,0.213 3.677,1.993 3.246,2.429 2.815,2.864 -2.583,2.548 -5.496,2.54 -6.471,2.537 -7.209,2.68 -8.131,2.502 -9.096,2.315 -8.073,0.859 -7.987,0.608 -7.921,0.412 -7.912,0.207 -7.92,0.006 -7.985,-1.66 -8.131,-3.326 -8.115,-4.992 c 0.02,-2.161 0.16,-4.322 0.268,-6.484 0.019,-0.37 0.108,-0.74 0.216,-1.106 0.1,-0.339 0.369,-0.635 0.858,-0.872 0.506,-0.245 0.275,-0.211 0.873,-0.087 1.244,0.26 1.585,1.891 1.572,2.27 -0.056,1.644 -0.058,3.289 -0.174,4.93 -0.146,2.07 -0.15,3.269 -0.087,5.342 0.006,0.191 0.035,0.382 0.064,0.573 0.012,0.088 0.05,0.176 0.085,0.287 0.162,0.013 0.318,0.034 0.475,0.035 0.76,0.008 3.205,-0.06 3.965,-0.06 0.664,-0.001 0.71,-0.021 0.713,-0.379" />
          </g>
          <g
             transform="translate(517.4912,248.6198)"
             id="g4250">
            <path
               inkscape:connector-curvature="0"
               id="path4252"
               style="fill:#35ae95;fill-opacity:1;fill-rule:nonzero;stroke:none"
               d="m 0,0 c -0.684,-1.094 -1.776,-1.865 -2.925,-2.06 -0.178,-0.031 -0.352,-0.046 -0.523,-0.046 -0.582,0 -1.114,0.174 -1.531,0.509 -1.228,0.983 -1.301,1.925 -1.393,3.12 l -0.006,0.063 c -0.11,1.41 -0.041,2.571 0.22,3.651 0.15,0.626 0.349,1.259 0.543,1.869 l 0.013,0.044 c 0.086,0.269 1.673,1.738 2.936,1.982 C -0.322,9.576 0.844,7.086 1.148,6.31 1.881,4.428 1.516,2.424 0,0 m 0.977,10.909 c -0.802,0.366 -1.73,0.505 -2.748,0.404 -0.637,-0.062 -1.477,-0.14 -2.323,-0.188 -0.397,-0.025 -0.803,-0.019 -1.199,-0.014 l -0.318,0.003 -0.017,0 c -0.613,0 -1.067,-0.208 -1.34,-0.383 C -7.276,10.533 -7.527,10.296 -7.792,10.045 -7.886,9.956 -7.98,9.867 -8.077,9.778 -8.819,9.111 -9.102,8.326 -9.325,7.581 -9.773,6.098 -9.826,4.554 -9.841,3.224 -9.852,2.14 -9.639,1.109 -9.205,0.16 c 0.453,-0.987 1.11,-2.109 2.553,-2.941 1.342,-0.775 2.573,-1.121 3.987,-1.121 l 0.01,0 c 0.662,0.001 1.359,0.039 1.982,0.303 0.41,0.173 0.881,0.385 1.264,0.638 0.788,0.523 1.459,1.159 1.993,1.889 1.349,1.838 2.016,3.833 1.985,5.928 l 0,0.135 C 4.568,5.103 4.568,5.216 4.569,5.326 4.6,6.692 4.097,7.997 3.03,9.312 2.459,10.021 1.787,10.544 0.977,10.909" />
          </g>
          <g
             transform="translate(517.2109,248.7937)"
             id="g4254">
            <path
               inkscape:connector-curvature="0"
               id="path4256"
               style="fill:#35ae95;fill-opacity:1;fill-rule:nonzero;stroke:none"
               d="m 0,0 c -0.624,-1 -1.658,-1.731 -2.7,-1.909 -0.691,-0.119 -1.327,0.024 -1.792,0.394 -1.116,0.895 -1.181,1.731 -1.272,2.89 l -0.005,0.064 c -0.109,1.374 -0.041,2.501 0.21,3.546 0.149,0.618 0.346,1.243 0.538,1.848 l 0.012,0.036 C -4.894,7.063 -3.49,8.407 -2.323,8.633 -0.227,9.035 0.842,6.732 1.121,6.016 1.812,4.24 1.457,2.329 0,0 M -2.354,8.795 C -3.602,8.555 -5.109,7.099 -5.163,6.927 -5.363,6.294 -5.565,5.661 -5.719,5.024 -6.006,3.83 -6.027,2.628 -5.934,1.427 c 0.095,-1.203 0.145,-2.114 1.338,-3.07 1.309,-1.047 3.592,-0.277 4.737,1.556 1.287,2.06 1.927,4.126 1.133,6.162 -0.405,1.039 -1.546,3.121 -3.628,2.72" />
          </g>
          <g
             transform="translate(522.2246,253.4792)"
             id="g4258">
            <path
               inkscape:connector-curvature="0"
               id="path4260"
               style="fill:#35ae95;fill-opacity:1;fill-rule:nonzero;stroke:none"
               d="m 0,0 c 0.031,-2.121 -0.626,-4.134 -2.016,-6.029 -0.525,-0.717 -1.195,-1.37 -2.035,-1.928 -0.381,-0.254 -0.837,-0.461 -1.292,-0.653 -0.621,-0.263 -1.313,-0.314 -2.046,-0.316 -1.603,-0.003 -2.873,0.446 -4.08,1.142 -1.406,0.811 -2.095,1.874 -2.619,3.017 -0.465,1.017 -0.662,2.067 -0.651,3.133 0.016,1.477 0.084,2.949 0.522,4.404 0.244,0.809 0.549,1.6 1.296,2.272 0.365,0.33 0.694,0.688 1.131,0.969 0.381,0.244 0.877,0.412 1.445,0.409 0.503,-0.004 1.009,-0.019 1.509,0.01 0.774,0.045 1.547,0.113 2.316,0.187 1.023,0.099 1.971,-0.025 2.832,-0.416 C -2.771,5.784 -2.103,5.21 -1.574,4.557 -0.545,3.284 0.033,1.929 0.002,0.464 -0.002,0.309 0.001,0.154 0,0 M -3.62,6.351 C -4.476,6.74 -5.453,6.881 -6.535,6.782 -7.17,6.72 -8.007,6.642 -8.846,6.594 -9.234,6.573 -9.635,6.573 -10.022,6.582 l -0.322,0.001 -0.017,0 c -0.695,0 -1.208,-0.235 -1.518,-0.434 -0.335,-0.215 -0.609,-0.473 -0.873,-0.724 -0.093,-0.088 -0.185,-0.175 -0.279,-0.26 -0.806,-0.726 -1.115,-1.592 -1.344,-2.348 -0.46,-1.526 -0.514,-3.097 -0.529,-4.449 -0.012,-1.134 0.213,-2.211 0.667,-3.204 0.474,-1.035 1.164,-2.212 2.687,-3.092 1.396,-0.803 2.677,-1.163 4.152,-1.163 l 0.009,0 c 0.697,0.002 1.435,0.043 2.111,0.329 0.424,0.179 0.913,0.398 1.319,0.668 0.819,0.544 1.519,1.205 2.076,1.968 1.39,1.896 2.079,3.957 2.048,6.126 l 0,0.132 c 0,0.111 0,0.221 0.001,0.328 0.031,1.428 -0.512,2.84 -1.612,4.2 -0.606,0.749 -1.317,1.303 -2.174,1.691" />
          </g>
          <g
             transform="translate(522.0605,253.6111)"
             id="g4262">
            <path
               inkscape:connector-curvature="0"
               id="path4264"
               style="fill:#35ae95;fill-opacity:1;fill-rule:nonzero;stroke:none"
               d="M 0,0 0,-0.135 C 0.03,-2.23 -0.637,-4.226 -1.985,-6.063 -2.52,-6.793 -3.19,-7.429 -3.979,-7.952 -4.361,-8.205 -4.832,-8.417 -5.242,-8.59 -5.865,-8.854 -6.562,-8.893 -7.225,-8.894 l -0.009,0 c -1.414,0 -2.645,0.347 -3.988,1.122 -1.442,0.832 -2.099,1.954 -2.552,2.941 -0.434,0.949 -0.647,1.979 -0.636,3.063 0.014,1.331 0.067,2.874 0.515,4.358 0.224,0.745 0.506,1.53 1.249,2.197 0.096,0.089 0.191,0.178 0.285,0.267 0.264,0.251 0.515,0.488 0.824,0.686 0.272,0.175 0.726,0.383 1.34,0.383 l 0.016,0 0.319,-0.003 c 0.395,-0.005 0.801,-0.012 1.199,0.014 0.846,0.048 1.685,0.126 2.323,0.187 1.018,0.102 1.945,-0.037 2.747,-0.403 C -2.782,5.553 -2.11,5.029 -1.539,4.32 -0.473,3.006 0.03,1.701 0,0.335 -0.001,0.225 -0.001,0.111 0,0 M -3.524,6.069 C -4.385,6.46 -5.333,6.584 -6.355,6.485 -7.125,6.411 -7.897,6.343 -8.672,6.298 c -0.5,-0.028 -1.006,-0.014 -1.509,-0.01 -0.568,0.003 -1.064,-0.165 -1.445,-0.409 -0.437,-0.28 -0.766,-0.639 -1.131,-0.969 -0.747,-0.672 -1.052,-1.463 -1.296,-2.272 -0.438,-1.454 -0.506,-2.927 -0.522,-4.404 -0.011,-1.066 0.186,-2.116 0.651,-3.132 0.524,-1.144 1.213,-2.206 2.619,-3.018 1.207,-0.696 2.477,-1.145 4.08,-1.142 0.733,0.002 1.425,0.053 2.046,0.316 0.455,0.192 0.911,0.399 1.292,0.653 0.84,0.558 1.51,1.211 2.035,1.928 1.39,1.895 2.047,3.908 2.016,6.029 0.001,0.154 -0.002,0.309 0.002,0.464 0.031,1.465 -0.547,2.82 -1.576,4.093 -0.528,0.653 -1.196,1.227 -2.114,1.644" />
          </g>
          <g
             transform="translate(517.3516,248.7068)"
             id="g4266">
            <path
               inkscape:connector-curvature="0"
               id="path4268"
               style="fill:#35ae95;fill-opacity:1;fill-rule:nonzero;stroke:none"
               d="m 0,0 c -1.145,-1.833 -3.428,-2.604 -4.736,-1.556 -1.194,0.955 -1.243,1.867 -1.338,3.07 -0.094,1.201 -0.072,2.403 0.215,3.597 0.153,0.637 0.355,1.27 0.555,1.903 0.054,0.172 1.562,1.628 2.809,1.868 C -0.413,9.283 0.729,7.201 1.134,6.162 1.928,4.126 1.287,2.06 0,0 M -2.526,9.045 C -3.789,8.801 -5.376,7.332 -5.462,7.063 L -5.476,7.02 C -5.669,6.409 -5.868,5.776 -6.019,5.15 -6.279,4.07 -6.349,2.909 -6.238,1.499 l 0.006,-0.062 c 0.091,-1.196 0.165,-2.138 1.392,-3.121 0.418,-0.335 0.949,-0.509 1.531,-0.509 0.171,0 0.346,0.015 0.524,0.047 1.148,0.194 2.241,0.965 2.925,2.059 1.515,2.424 1.881,4.428 1.148,6.31 -0.305,0.776 -1.471,3.266 -3.814,2.822" />
          </g>
          <g
             transform="translate(415.7319,248.1755)"
             id="g4270">
            <path
               inkscape:connector-curvature="0"
               id="path4272"
               style="fill:#35ae95;fill-opacity:1;fill-rule:nonzero;stroke:none"
               d="m 0,0 c -0.044,-1.202 0.614,-2.735 1.435,-3.351 0.154,-0.109 0.745,-0.154 1.286,0.038 0.191,0.068 0.523,0.225 0.591,0.504 0.292,0.612 0.426,1.243 0.433,2.023 C 3.758,0.781 3.665,4.33 3.589,7.18 3.524,9.622 3.492,10.904 3.511,11.048 3.521,11.132 3.474,11.246 3.377,11.373 3.095,11.74 2.505,12.086 2.062,12.142 1.462,12.217 1.036,11.982 0.786,11.772 0.465,11.503 0.307,11.168 0.301,11.027 L 0.285,10.675 C 0.264,10.207 0.237,9.624 0.242,9.271 0.25,8.622 0.264,8.378 0.28,8.116 0.293,7.873 0.309,7.615 0.321,7.012 0.322,6.916 0.312,6.822 0.298,6.711 0.292,6.661 0.286,6.606 0.28,6.549 L 0.264,6.374 0.095,6.399 C 0.005,6.39 -0.59,6.319 -1.158,6.241 -2.547,6.046 -4.447,5.788 -5.091,5.838 c -0.467,0.044 -0.674,0.08 -0.686,0.499 -0.021,0.836 -0.039,2.46 -0.036,3.342 0,0.075 0.01,0.203 0.022,0.351 0.019,0.234 0.064,0.775 0.013,0.879 -0.211,0.296 -0.609,0.857 -1.176,1.032 -0.229,0.073 -0.673,0.15 -1.091,-0.143 -0.59,-0.41 -0.942,-1.41 -1.018,-2.894 C -9.067,7.818 -9.093,6.731 -9.14,5.681 -9.171,5.012 -9.217,4.344 -9.263,3.677 -9.294,3.226 -9.326,2.772 -9.351,2.321 -9.385,1.741 -9.418,1.123 -9.417,0.518 c 0.002,-1.358 0.237,-2.838 0.502,-3.169 0.635,-0.792 2.129,-0.836 2.362,-0.686 0.852,0.528 0.81,3.665 0.787,5.351 -0.006,0.473 -0.012,0.88 0,1.15 0.02,0.426 0.168,0.461 0.594,0.504 l 0.221,0.024 c 1.469,0.171 2.952,0.402 4.175,0.648 0.168,0.032 0.308,0.05 0.424,0.05 0.174,0 0.298,-0.038 0.388,-0.117 C 0.213,4.119 0.199,3.868 0.187,3.624 L 0.132,2.647 C 0.082,1.766 0.033,0.882 0,0" />
          </g>
          <g
             transform="translate(414.9883,252.3523)"
             id="g4274">
            <path
               inkscape:connector-curvature="0"
               id="path4276"
               style="fill:#35ae95;fill-opacity:1;fill-rule:nonzero;stroke:none"
               d="m 0,0 c -1.24,-0.248 -2.723,-0.479 -4.189,-0.648 -0.606,-0.071 -0.652,-0.018 -0.668,-0.373 -0.059,-1.309 0.303,-5.91 -0.865,-6.633 -0.325,-0.202 -1.898,-0.125 -2.578,0.723 -0.325,0.407 -0.536,2.011 -0.538,3.272 -0.001,0.604 0.03,1.209 0.066,1.813 0.064,1.119 0.16,2.238 0.21,3.357 0.049,1.074 0.074,2.149 0.078,3.224 0.163,3.188 1.511,3.443 2.323,3.188 0.598,-0.188 1.01,-0.741 1.265,-1.101 C -4.779,6.657 -4.904,5.758 -4.905,5.502 -4.907,4.64 -4.89,3.026 -4.868,2.164 -4.861,1.898 -4.805,1.868 -4.332,1.824 -3.383,1.737 0.655,2.42 0.859,2.387 0.876,2.567 0.902,2.699 0.899,2.832 0.875,4.085 0.837,3.839 0.821,5.093 0.815,5.551 0.861,6.398 0.88,6.856 0.896,7.245 1.59,8.287 2.827,8.129 3.527,8.039 4.48,7.324 4.418,6.851 4.374,6.521 4.678,-2.244 4.653,-4.965 4.647,-5.66 4.543,-6.351 4.215,-7.025 4.031,-7.779 2.458,-7.939 2.081,-7.658 1.214,-7.011 0.533,-5.411 0.579,-4.171 0.624,-2.962 0.701,-1.753 0.766,-0.544 0.791,-0.077 0.776,0.155 0,0 M 0.546,-1.512 C 0.497,-2.396 0.446,-3.279 0.414,-4.163 0.367,-5.459 1.085,-7.121 1.982,-7.791 2.127,-7.9 2.387,-7.953 2.683,-7.953 c 0.287,0 0.609,0.051 0.893,0.153 0.445,0.159 0.721,0.414 0.788,0.703 0.303,0.624 0.447,1.301 0.454,2.13 C 4.832,-3.393 4.738,0.158 4.662,3.011 4.612,4.9 4.565,6.685 4.581,6.828 4.604,7.003 4.537,7.194 4.382,7.396 4.049,7.83 3.375,8.225 2.848,8.293 2.123,8.388 1.618,8.101 1.316,7.847 0.935,7.525 0.725,7.11 0.715,6.864 L 0.699,6.512 C 0.678,6.04 0.651,5.452 0.656,5.092 0.665,4.434 0.679,4.186 0.694,3.921 0.708,3.68 0.723,3.425 0.734,2.828 0.736,2.748 0.726,2.668 0.714,2.573 0.713,2.565 0.712,2.555 0.71,2.545 0.531,2.527 0.193,2.481 -0.46,2.391 -1.756,2.209 -3.708,1.926 -4.317,1.989 c -0.101,0.01 -0.338,0.032 -0.372,0.063 -0.003,0.006 -0.012,0.029 -0.014,0.116 -0.022,0.835 -0.04,2.453 -0.037,3.334 0,0.068 0.01,0.187 0.021,0.324 0.052,0.64 0.058,0.949 -0.043,1.093 -0.237,0.332 -0.677,0.95 -1.35,1.161 C -6.399,8.169 -6.957,8.265 -7.49,7.894 -8.176,7.416 -8.566,6.356 -8.649,4.736 -8.653,3.648 -8.679,2.565 -8.727,1.518 -8.756,0.853 -8.803,0.187 -8.848,-0.478 c -0.031,-0.453 -0.063,-0.906 -0.09,-1.357 -0.033,-0.587 -0.066,-1.21 -0.065,-1.824 0.002,-1.106 0.182,-2.884 0.575,-3.374 0.727,-0.908 2.39,-1.009 2.793,-0.761 0.932,0.577 0.977,3.101 0.943,5.636 -0.006,0.467 -0.012,0.87 0,1.132 0.003,0.085 0.01,0.138 0.011,0.146 0.028,0.018 0.159,0.031 0.285,0.043 l 0.226,0.025 c 1.479,0.171 2.971,0.403 4.203,0.651 0.383,0.078 0.496,0.035 0.53,0.01 0.056,-0.05 0.046,-0.244 0.037,-0.385 L 0.546,-1.512 Z" />
          </g>
          <g
             transform="translate(415.7681,252.4489)"
             id="g4278">
            <path
               inkscape:connector-curvature="0"
               id="path4280"
               style="fill:#35ae95;fill-opacity:1;fill-rule:nonzero;stroke:none"
               d="m 0,0 c -0.09,0.078 -0.214,0.116 -0.388,0.116 -0.116,0 -0.257,-0.017 -0.424,-0.05 -1.223,-0.246 -2.706,-0.476 -4.175,-0.647 l -0.221,-0.024 c -0.426,-0.043 -0.574,-0.079 -0.594,-0.504 -0.012,-0.271 -0.006,-0.677 0,-1.151 0.023,-1.685 0.065,-4.822 -0.787,-5.35 -0.233,-0.151 -1.727,-0.107 -2.362,0.685 -0.265,0.331 -0.5,1.812 -0.502,3.169 -0.001,0.606 0.032,1.224 0.066,1.804 0.025,0.451 0.057,0.904 0.088,1.355 0.046,0.667 0.092,1.335 0.123,2.004 0.047,1.051 0.073,2.138 0.076,3.224 0.077,1.483 0.429,2.483 1.018,2.893 0.418,0.293 0.863,0.216 1.092,0.144 C -6.423,7.492 -6.025,6.932 -5.814,6.636 -5.763,6.531 -5.808,5.99 -5.827,5.757 -5.839,5.608 -5.85,5.48 -5.85,5.405 -5.853,4.523 -5.834,2.899 -5.813,2.063 c 0.012,-0.418 0.219,-0.455 0.686,-0.499 0.644,-0.049 2.544,0.208 3.933,0.404 0.568,0.078 1.163,0.148 1.253,0.158 L 0.228,2.101 0.244,2.275 C 0.25,2.333 0.255,2.388 0.262,2.438 0.275,2.549 0.286,2.643 0.285,2.738 0.272,3.342 0.257,3.6 0.244,3.843 0.228,4.104 0.214,4.349 0.206,4.998 0.201,5.351 0.228,5.934 0.249,6.401 L 0.265,6.754 C 0.271,6.895 0.429,7.229 0.75,7.499 1,7.709 1.426,7.943 2.026,7.868 2.469,7.812 3.059,7.467 3.341,7.1 3.438,6.973 3.485,6.858 3.475,6.774 3.456,6.631 3.488,5.349 3.553,2.906 3.628,0.057 3.722,-3.492 3.708,-5.06 3.702,-5.84 3.568,-6.471 3.276,-7.082 3.208,-7.361 2.876,-7.519 2.685,-7.587 2.144,-7.778 1.553,-7.733 1.399,-7.624 c -0.821,0.615 -1.48,2.148 -1.435,3.351 0.033,0.881 0.082,1.765 0.132,2.647 L 0.15,-0.649 C 0.163,-0.405 0.177,-0.154 0,0 m -0.201,-4.268 c -0.046,-1.24 0.635,-2.839 1.502,-3.487 0.377,-0.281 1.95,-0.121 2.135,0.633 0.327,0.675 0.432,1.365 0.438,2.06 C 3.898,-2.341 3.594,6.425 3.638,6.754 3.701,7.228 2.747,7.942 2.047,8.032 0.811,8.19 0.116,7.148 0.1,6.76 0.081,6.302 0.035,5.454 0.041,4.996 0.057,3.742 0.095,3.988 0.12,2.735 0.123,2.603 0.097,2.471 0.08,2.29 -0.125,2.323 -4.163,1.641 -5.112,1.728 -5.585,1.771 -5.641,1.802 -5.648,2.067 -5.67,2.93 -5.687,4.543 -5.685,5.405 c 10e-4,0.256 0.126,1.156 0.009,1.321 -0.255,0.359 -0.667,0.913 -1.265,1.1 -0.811,0.255 -2.16,0 -2.323,-3.187 -0.004,-1.076 -0.028,-2.151 -0.077,-3.225 -0.051,-1.119 -0.146,-2.237 -0.211,-3.356 -0.035,-0.605 -0.067,-1.209 -0.066,-1.814 0.002,-1.261 0.213,-2.865 0.538,-3.271 0.681,-0.849 2.253,-0.926 2.579,-0.724 1.167,0.724 0.806,5.324 0.864,6.634 0.016,0.354 0.062,0.302 0.668,0.372 1.467,0.17 2.949,0.4 4.189,0.648 0.777,0.156 0.791,-0.077 0.766,-0.544 -0.065,-1.209 -0.142,-2.418 -0.187,-3.627" />
          </g>
          <g
             transform="translate(372.9653,253.2146)"
             id="g4282">
            <path
               inkscape:connector-curvature="0"
               id="path4284"
               style="fill:#35ae95;fill-opacity:1;fill-rule:nonzero;stroke:none"
               d="M 0,0 C -0.033,0.727 0.091,0.785 0.969,0.856 1.662,0.913 2.604,1.094 3.6,1.287 4.698,1.497 5.832,1.717 6.633,1.759 7.031,1.788 7.233,1.77 7.369,1.648 7.495,1.532 7.51,1.362 7.52,1.135 7.544,0.474 7.568,-0.394 7.592,-1.299 c 0.035,-1.38 0.073,-2.805 0.126,-3.792 0.014,-0.262 0.026,-0.61 0.038,-0.962 0.012,-0.386 0.025,-0.778 0.042,-1.063 l 0.014,-0.231 c 0.051,-0.872 0.072,-1.231 0.394,-1.841 0.173,-0.325 0.375,-0.506 0.603,-0.539 0.475,-0.052 1.05,0.513 1.324,0.791 l 0.105,0.109 c 0.73,1.105 0.882,2.326 0.884,3.928 0.002,0.758 -0.033,2.801 -0.071,3.555 -0.029,0.578 -0.063,1.155 -0.096,1.731 -0.032,0.528 -0.062,1.055 -0.09,1.583 l -0.005,0.1 0.087,0.05 c 0.011,0.007 1.101,0.654 1.101,1.598 -0.019,0.492 -0.866,0.997 -1.192,1.15 l -0.092,0.043 -0.002,0.103 c -0.012,0.644 -0.02,1.289 -0.022,1.935 0,0.474 0.016,0.773 0.032,1.064 0.017,0.307 0.033,0.597 0.029,1.082 0.033,0.841 -0.308,1.267 -0.601,1.481 C 9.816,10.854 9.287,10.924 8.846,10.765 7.579,10.38 7.57,8.31 7.57,8.221 7.574,7.115 7.553,6.002 7.53,4.963 7.519,4.492 7.334,4.431 6.811,4.375 6.019,4.287 2.39,3.469 0.84,3.118 0.419,3.022 0.14,2.959 0.095,2.95 L -0.085,2.916 -0.1,3.1 c -0.006,0.075 -0.014,0.141 -0.02,0.205 -0.014,0.136 -0.026,0.253 -0.025,0.369 0.01,0.576 0.022,1.152 0.033,1.726 0.021,1.003 0.04,2.005 0.05,3.009 0.005,0.376 -0.016,0.761 -0.035,1.131 -0.01,0.197 -0.021,0.396 -0.028,0.594 -0.009,0.271 -0.242,0.829 -0.654,1.167 -0.247,0.205 -0.526,0.308 -0.83,0.308 -0.075,0 -0.151,-0.006 -0.229,-0.019 C -2.906,11.421 -3.636,9.865 -3.576,9.334 -3.538,8.992 -3.569,8.663 -3.6,8.344 -3.608,8.257 -3.617,8.17 -3.624,8.082 -3.647,7.788 -3.674,7.492 -3.701,7.198 -3.774,6.383 -3.851,5.542 -3.855,4.718 -3.864,3.139 -3.942,1.284 -4.024,-0.679 -4.118,-2.904 -4.214,-5.205 -4.2,-7.048 c 0.001,-0.176 -0.003,-0.36 -0.006,-0.547 -0.014,-0.744 -0.027,-1.512 0.239,-2.161 0.177,-0.429 0.492,-0.72 0.936,-0.865 0.594,-0.198 1.23,-0.065 1.475,0.082 1.005,0.607 1.456,2.074 1.379,4.484 -0.023,0.737 0.031,1.79 0.09,2.905 C -0.026,-1.986 0.037,-0.784 0,0" />
          </g>
          <g
             transform="translate(371.4956,242.5349)"
             id="g4286">
            <path
               inkscape:connector-curvature="0"
               id="path4288"
               style="fill:#35ae95;fill-opacity:1;fill-rule:nonzero;stroke:none"
               d="M 0,0 C -0.499,-0.302 -2.109,-0.445 -2.649,0.861 -3,1.711 -2.888,2.756 -2.895,3.63 c -0.027,3.426 0.326,8.344 0.345,11.769 0.006,1.126 0.141,2.251 0.232,3.377 0.032,0.407 0.094,0.806 0.048,1.219 -0.067,0.597 0.692,2.248 1.876,2.438 1.26,0.201 1.887,-1.125 1.904,-1.615 C 1.531,20.241 1.579,19.664 1.573,19.087 1.557,17.509 1.517,15.931 1.49,14.353 1.488,14.187 1.515,14.02 1.534,13.793 c 0.217,0.041 5.715,1.314 6.729,1.425 0.505,0.054 0.565,0.092 0.572,0.427 0.023,1.085 0.043,2.17 0.04,3.255 0,0.323 0.076,2.301 1.384,2.699 0.866,0.32 2.242,-0.146 2.177,-1.824 0.007,-0.958 -0.063,-1.188 -0.061,-2.146 0.002,-0.645 0.009,-1.288 0.021,-1.933 0,0 1.259,-0.59 1.287,-1.298 0,-1.053 -1.183,-1.741 -1.183,-1.741 0.056,-1.104 0.131,-2.208 0.186,-3.312 0.038,-0.76 0.072,-2.803 0.071,-3.564 C 12.754,4.194 12.611,2.92 11.823,1.733 11.456,1.375 10.287,-0.014 9.53,1.415 9.163,2.109 9.167,2.497 9.104,3.553 9.071,4.103 9.053,5.033 9.023,5.58 8.935,7.229 8.887,10.158 8.825,11.808 8.808,12.253 8.765,12.31 8.111,12.274 6.617,12.195 3.94,11.493 2.453,11.372 1.6,11.303 1.608,11.274 1.635,10.688 1.705,9.166 1.41,6.151 1.458,4.63 1.507,3.068 1.389,0.841 0,0 m 1.711,7.512 c 0.062,1.172 0.125,2.384 0.088,3.195 -0.021,0.444 -0.021,0.444 0.667,0.501 0.711,0.058 1.66,0.241 2.666,0.435 1.087,0.21 2.21,0.424 2.988,0.467 0.131,0.009 0.439,0.023 0.496,-0.027 0.034,-0.03 0.041,-0.2 0.044,-0.282 C 8.685,11.142 8.708,10.276 8.731,9.372 8.768,7.991 8.806,6.562 8.858,5.572 8.873,5.312 8.884,4.967 8.896,4.616 8.908,4.227 8.922,3.832 8.939,3.543 L 8.952,3.313 C 9.005,2.418 9.029,2.01 9.385,1.338 9.609,0.914 9.894,0.676 10.231,0.627 c 0.632,-0.102 1.271,0.545 1.607,0.889 l 0.122,0.128 c 0.798,1.2 0.959,2.473 0.961,4.136 0.002,0.761 -0.033,2.815 -0.07,3.574 -0.03,0.577 -0.064,1.155 -0.097,1.733 -0.029,0.494 -0.059,0.987 -0.085,1.483 0.288,0.19 1.179,0.857 1.179,1.834 -0.028,0.693 -0.968,1.232 -1.288,1.396 -0.011,0.61 -0.018,1.219 -0.02,1.829 -10e-4,0.465 0.016,0.759 0.031,1.044 0.016,0.3 0.033,0.608 0.03,1.096 0.03,0.764 -0.233,1.386 -0.738,1.753 -0.47,0.341 -1.123,0.435 -1.652,0.233 C 8.746,21.312 8.709,19.145 8.71,18.9 8.713,17.798 8.693,16.687 8.67,15.649 8.665,15.427 8.665,15.427 8.244,15.383 7.434,15.294 3.792,14.47 2.237,14.119 2,14.064 1.809,14.021 1.68,13.992 c -10e-4,0.009 -0.002,0.02 -0.003,0.028 -0.012,0.122 -0.024,0.226 -0.022,0.329 0.01,0.575 0.022,1.15 0.032,1.724 0.021,1.005 0.041,2.009 0.051,3.012 0.004,0.387 -0.016,0.776 -0.036,1.152 -0.01,0.195 -0.02,0.392 -0.027,0.586 -0.012,0.332 -0.26,0.989 -0.775,1.412 -0.379,0.315 -0.839,0.438 -1.32,0.36 -1.286,-0.203 -2.087,-1.964 -2.015,-2.619 0.036,-0.306 0.007,-0.606 -0.023,-0.92 -0.009,-0.089 -0.018,-0.178 -0.024,-0.267 -0.024,-0.294 -0.051,-0.588 -0.078,-0.882 -0.074,-0.82 -0.15,-1.67 -0.155,-2.506 C -2.724,13.825 -2.801,11.974 -2.884,10.015 -2.978,7.786 -3.075,5.481 -3.06,3.628 -3.059,3.456 -3.062,3.274 -3.065,3.09 -3.079,2.35 -3.094,1.509 -2.801,0.798 c 0.212,-0.515 0.606,-0.879 1.137,-1.054 0.241,-0.078 0.498,-0.112 0.745,-0.112 0.404,0 0.779,0.092 1.004,0.227 C 1.201,0.534 1.703,2.095 1.623,4.635 1.6,5.358 1.657,6.454 1.711,7.512" />
          </g>
          <g
             transform="translate(372.7886,247.1599)"
             id="g4290">
            <path
               inkscape:connector-curvature="0"
               id="path4292"
               style="fill:#35ae95;fill-opacity:1;fill-rule:nonzero;stroke:none"
               d="m 0,0 c 0.077,-2.41 -0.375,-3.877 -1.379,-4.484 -0.245,-0.147 -0.881,-0.281 -1.475,-0.082 -0.444,0.145 -0.759,0.436 -0.936,0.865 -0.267,0.648 -0.253,1.417 -0.239,2.161 0.003,0.186 0.007,0.371 0.006,0.547 -0.015,1.843 0.082,4.143 0.176,6.369 0.082,1.963 0.159,3.817 0.169,5.396 0.004,0.825 0.08,1.666 0.154,2.481 0.026,0.294 0.054,0.59 0.077,0.884 0.007,0.088 0.015,0.175 0.024,0.261 0.03,0.32 0.062,0.649 0.024,0.991 -0.06,0.531 0.67,2.087 1.737,2.256 0.079,0.012 0.155,0.019 0.229,0.019 0.305,0 0.583,-0.103 0.831,-0.309 C -0.19,17.018 0.042,16.46 0.052,16.188 0.059,15.99 0.07,15.792 0.08,15.595 0.099,15.225 0.12,14.84 0.115,14.464 0.105,13.46 0.085,12.458 0.065,11.455 0.054,10.881 0.042,10.305 0.032,9.729 0.031,9.612 0.042,9.496 0.057,9.359 0.063,9.296 0.071,9.229 0.077,9.154 l 0.014,-0.183 0.18,0.034 c 0.046,0.009 0.325,0.072 0.746,0.168 1.549,0.35 5.179,1.169 5.97,1.257 0.524,0.055 0.709,0.117 0.72,0.588 0.023,1.039 0.043,2.152 0.04,3.257 0,0.089 0.008,2.16 1.276,2.544 0.44,0.16 0.97,0.089 1.354,-0.188 0.292,-0.214 0.634,-0.641 0.601,-1.482 0.004,-0.484 -0.012,-0.774 -0.029,-1.082 -0.016,-0.291 -0.032,-0.589 -0.032,-1.063 0.002,-0.647 0.01,-1.291 0.021,-1.936 l 0.003,-0.102 0.092,-0.043 c 0.325,-0.153 1.173,-0.658 1.192,-1.151 0,-0.943 -1.09,-1.59 -1.101,-1.597 L 11.037,8.125 11.042,8.024 C 11.069,7.497 11.1,6.97 11.132,6.441 11.165,5.865 11.199,5.289 11.228,4.711 11.266,3.957 11.3,1.914 11.298,1.155 11.297,-0.446 11.145,-1.667 10.415,-2.772 L 10.31,-2.881 C 10.036,-3.159 9.461,-3.725 8.985,-3.672 8.757,-3.64 8.556,-3.458 8.383,-3.134 8.061,-2.523 8.04,-2.164 7.989,-1.292 l -0.014,0.23 C 7.958,-0.776 7.944,-0.385 7.933,0.002 7.92,0.354 7.909,0.702 7.895,0.964 7.842,1.95 7.804,3.376 7.769,4.756 7.745,5.661 7.721,6.528 7.697,7.189 7.687,7.417 7.672,7.587 7.545,7.703 7.41,7.824 7.208,7.843 6.81,7.813 6.008,7.771 4.875,7.552 3.777,7.342 2.78,7.148 1.838,6.968 1.146,6.911 0.268,6.84 0.144,6.781 0.177,6.055 0.213,5.271 0.15,4.068 0.09,2.904 0.031,1.79 -0.023,0.736 0,0 M 0.342,6.062 C 0.315,6.649 0.307,6.678 1.16,6.747 2.647,6.868 5.324,7.57 6.818,7.649 7.472,7.685 7.515,7.628 7.532,7.183 7.594,5.533 7.642,2.604 7.73,0.955 7.76,0.408 7.778,-0.522 7.811,-1.072 7.874,-2.128 7.87,-2.516 8.237,-3.21 c 0.757,-1.429 1.926,-0.04 2.293,0.318 0.788,1.187 0.931,2.461 0.934,4.048 10e-4,0.761 -0.033,2.804 -0.071,3.564 -0.055,1.104 -0.13,2.208 -0.186,3.312 0,0 1.183,0.688 1.183,1.741 -0.028,0.708 -1.286,1.298 -1.286,1.298 -0.013,0.645 -0.02,1.288 -0.022,1.933 -0.002,0.958 0.068,1.188 0.061,2.146 0.065,1.678 -1.311,2.144 -2.177,1.824 C 7.658,16.576 7.582,14.598 7.583,14.275 7.585,13.19 7.565,12.105 7.542,11.02 7.535,10.685 7.475,10.647 6.97,10.593 5.956,10.482 0.458,9.209 0.241,9.168 0.222,9.395 0.195,9.562 0.197,9.728 0.224,11.306 0.264,12.884 0.28,14.462 0.286,15.039 0.238,15.616 0.217,16.193 0.2,16.683 -0.427,18.009 -1.687,17.808 -2.871,17.618 -3.63,15.967 -3.563,15.37 -3.517,14.957 -3.579,14.558 -3.611,14.151 -3.702,13.025 -3.837,11.9 -3.843,10.774 -3.862,7.349 -4.215,2.431 -4.188,-0.995 c 0.007,-0.874 -0.104,-1.919 0.246,-2.769 0.54,-1.306 2.15,-1.163 2.649,-0.861 1.389,0.841 1.507,3.068 1.458,4.63 -0.048,1.521 0.247,4.536 0.177,6.057" />
          </g>
          <g
             transform="translate(528.3838,262.3845)"
             id="g4294">
            <path
               inkscape:connector-curvature="0"
               id="path4296"
               style="fill:#35ae95;fill-opacity:1;fill-rule:nonzero;stroke:none"
               d="M 0,0 C -0.138,1.071 -0.871,1.451 -1.535,1.451 -1.556,1.451 -1.577,1.449 -1.598,1.449 -2.383,1.42 -3.245,0.851 -3.3,-0.149 c -0.026,-0.467 -0.006,-0.944 0.015,-1.406 0.014,-0.324 0.028,-0.647 0.027,-0.97 -0.003,-1.067 -0.023,-3.534 -0.057,-4.675 -0.018,-0.606 -0.043,-0.734 -0.071,-0.87 -0.024,-0.12 -0.048,-0.243 -0.069,-0.808 -0.025,-0.647 -0.048,-2.053 -0.048,-2.67 0.001,-1.221 1.814,-2.297 2.166,-2.379 0.008,-0.006 0.023,-0.006 0.054,0.019 0.167,0.135 0.287,0.663 0.283,0.941 -0.009,0.615 0.029,0.842 0.114,1.332 l 0.046,0.27 c 0.082,0.493 0.828,9.199 0.831,10.008 0,0.152 0.02,0.3 0.038,0.446 0.016,0.119 0.033,0.239 0.035,0.36 C 0.068,-0.432 0.047,-0.3 0.025,-0.173 0.016,-0.115 0.007,-0.057 0,0" />
          </g>
          <g
             transform="translate(528.5391,261.0271)"
             id="g4298">
            <path
               inkscape:connector-curvature="0"
               id="path4300"
               style="fill:#35ae95;fill-opacity:1;fill-rule:nonzero;stroke:none"
               d="m 0,0 c -0.002,-0.9 -0.757,-9.585 -0.832,-10.035 -0.116,-0.695 -0.169,-0.87 -0.159,-1.573 0.005,-0.34 -0.175,-1.206 -0.539,-1.121 -0.403,0.092 -2.292,1.223 -2.293,2.54 0,0.63 0.023,2.044 0.048,2.675 0.044,1.168 0.104,0.507 0.139,1.676 0.034,1.121 0.055,3.549 0.058,4.671 0.002,0.794 -0.086,1.59 -0.042,2.383 0.113,2.05 3.32,2.555 3.627,0.162 C 0.03,1.196 0.079,0.994 0.074,0.801 0.066,0.533 0.001,0.267 0,0 M 0.171,1.398 C 0.006,2.687 -0.92,3.137 -1.693,3.137 l -0.073,0 C -2.695,3.103 -3.719,2.422 -3.785,1.226 -3.812,0.743 -3.79,0.258 -3.77,-0.212 c 0.014,-0.318 0.028,-0.637 0.027,-0.956 -0.003,-1.064 -0.023,-3.526 -0.057,-4.665 -0.017,-0.578 -0.041,-0.694 -0.064,-0.815 -0.027,-0.133 -0.053,-0.27 -0.076,-0.859 -0.025,-0.651 -0.048,-2.064 -0.048,-2.683 10e-4,-1.424 1.959,-2.593 2.422,-2.702 0.028,-0.006 0.056,-0.009 0.086,-0.009 0.087,0 0.172,0.032 0.249,0.093 0.292,0.237 0.41,0.912 0.405,1.203 -0.008,0.585 0.026,0.788 0.109,1.271 l 0.047,0.271 c 0.089,0.531 0.833,9.189 0.836,10.063 0,0.13 0.017,0.263 0.035,0.403 0.018,0.13 0.034,0.262 0.038,0.393 0.003,0.152 -0.02,0.3 -0.044,0.441 -0.008,0.055 -0.017,0.11 -0.024,0.161" />
          </g>
          <g
             transform="translate(528.4131,261.4734)"
             id="g4302">
            <path
               inkscape:connector-curvature="0"
               id="path4304"
               style="fill:#35ae95;fill-opacity:1;fill-rule:nonzero;stroke:none"
               d="m 0,0 c -0.019,-0.146 -0.038,-0.294 -0.038,-0.446 -0.003,-0.809 -0.749,-9.515 -0.831,-10.008 l -0.046,-0.27 c -0.085,-0.49 -0.123,-0.716 -0.114,-1.332 0.004,-0.278 -0.117,-0.806 -0.283,-0.941 -0.032,-0.024 -0.046,-0.024 -0.054,-0.019 -0.353,0.082 -2.165,1.159 -2.166,2.379 0,0.617 0.022,2.023 0.048,2.67 0.021,0.565 0.045,0.688 0.069,0.808 0.027,0.137 0.053,0.264 0.07,0.87 0.034,1.142 0.055,3.608 0.058,4.675 10e-4,0.323 -0.014,0.646 -0.027,0.97 -0.021,0.462 -0.041,0.939 -0.015,1.406 0.055,1 0.917,1.569 1.702,1.598 0.021,0 0.042,0.002 0.063,0.002 0.664,0 1.397,-0.38 1.535,-1.451 C -0.022,0.854 -0.014,0.796 -0.004,0.738 0.018,0.611 0.039,0.479 0.035,0.36 0.032,0.239 0.016,0.119 0,0 m -3.494,0.77 c -0.044,-0.793 0.044,-1.589 0.042,-2.383 -0.003,-1.122 -0.024,-3.55 -0.058,-4.671 -0.035,-1.169 -0.095,-0.508 -0.139,-1.676 -0.025,-0.631 -0.048,-2.045 -0.048,-2.676 10e-4,-1.316 1.89,-2.447 2.293,-2.54 0.364,-0.085 0.544,0.781 0.539,1.121 -0.01,0.703 0.043,0.878 0.159,1.574 0.075,0.45 0.83,9.134 0.832,10.035 C 0.127,-0.18 0.192,0.087 0.2,0.354 0.205,0.548 0.156,0.75 0.133,0.932 -0.174,3.325 -3.381,2.819 -3.494,0.77" />
          </g>
          <g
             transform="translate(493.9404,252.0183)"
             id="g4306">
            <path
               inkscape:connector-curvature="0"
               id="path4308"
               style="fill:#35ae95;fill-opacity:1;fill-rule:nonzero;stroke:none"
               d="m 0,0 c -0.047,-0.375 -0.087,-0.697 -0.086,-0.966 10e-4,-0.94 0.126,-1.055 0.729,-1.608 0.135,-0.125 0.294,-0.271 0.477,-0.45 0.292,-0.286 0.611,-0.447 1.031,-0.52 0.303,-0.057 0.404,-0.016 0.436,0.012 0.025,0.022 0.038,0.068 0.036,0.138 -0.006,0.335 -0.003,0.436 0.109,0.52 0.006,0.005 0.039,0.05 0.089,0.275 0.087,0.399 0.171,0.828 0.193,1.246 0.06,1.114 0.147,1.797 0.821,1.797 0.019,0 0.037,0 0.057,-0.002 C 5.13,0.378 6.27,0.303 7.376,0.212 8.068,0.155 8.19,0.098 8.163,-0.484 L 8.114,-1.517 c -0.04,-0.84 -0.081,-1.681 -0.107,-2.524 -0.034,-1.1 0.259,-2.539 1.185,-3.28 0.199,-0.161 0.41,-0.206 0.65,-0.146 0.447,0.116 0.817,0.576 0.869,0.7 0.234,0.57 0.345,1.192 0.352,1.956 0.022,2.846 0.041,5.413 0.025,7.989 -0.003,0.637 -0.062,1.289 -0.119,1.918 -0.021,0.232 -0.042,0.465 -0.06,0.697 -0.124,1.544 -0.652,2.506 -1.38,2.512 l -0.004,0 C 8.828,8.305 8.271,7.146 8.26,6.839 8.254,6.682 8.246,6.526 8.238,6.371 8.223,6.08 8.208,5.79 8.211,5.501 8.218,4.805 8.231,4.287 8.245,3.745 8.256,3.33 8.267,2.9 8.275,2.369 8.276,2.276 8.268,2.185 8.257,2.078 L 8.227,1.733 8.046,1.768 C 7.986,1.779 7.937,1.788 7.894,1.795 7.8,1.811 7.731,1.822 7.673,1.845 7.176,2.039 6.609,2.107 6.116,2.155 5.326,2.232 4.536,2.317 3.746,2.403 3.363,2.446 3.164,2.485 3.155,2.897 3.137,3.704 3.121,4.569 3.123,5.433 3.124,5.654 2.965,7.38 2.299,8.048 2.131,8.217 1.951,8.299 1.746,8.299 0.444,8.299 0.153,7.191 0.15,6.916 0.148,6.54 0.163,6.162 0.177,5.784 0.191,5.417 0.205,5.05 0.204,4.682 0.202,3.626 0.18,2.561 0.14,1.518 0.116,0.932 0.055,0.437 0,0" />
          </g>
          <g
             transform="translate(495.6865,260.4812)"
             id="g4310">
            <path
               inkscape:connector-curvature="0"
               id="path4312"
               style="fill:#35ae95;fill-opacity:1;fill-rule:nonzero;stroke:none"
               d="M 0,0 C 1.306,0 1.543,-2.78 1.542,-3.03 1.54,-3.875 1.556,-4.719 1.573,-5.562 1.579,-5.824 1.626,-5.853 2.019,-5.896 2.807,-5.981 3.596,-6.065 4.386,-6.144 4.942,-6.197 5.488,-6.27 5.984,-6.464 6.062,-6.494 6.161,-6.5 6.33,-6.532 6.345,-6.356 6.366,-6.227 6.364,-6.098 6.344,-4.87 6.312,-4.192 6.3,-2.965 6.295,-2.516 6.333,-2.067 6.349,-1.618 6.362,-1.237 6.979,0.01 7.784,0.005 8.59,0 9.19,-0.956 9.327,-2.656 c 0.069,-0.875 0.175,-1.751 0.18,-2.627 0.014,-2.664 -0.005,-5.328 -0.026,-7.992 -0.005,-0.68 -0.092,-1.357 -0.365,-2.018 -0.103,-0.251 -0.979,-1.255 -1.773,-0.619 -0.94,0.752 -1.285,2.2 -1.247,3.414 0.037,1.184 0.101,2.366 0.156,3.55 0.02,0.457 0.027,0.478 -0.636,0.533 -1.157,0.094 -2.317,0.169 -3.479,0.231 -0.509,0.028 -0.635,-0.358 -0.703,-1.64 -0.024,-0.426 -0.106,-0.852 -0.199,-1.274 -0.143,-0.652 -0.206,-0.095 -0.193,-0.755 0.006,-0.319 -0.214,-0.396 -0.665,-0.317 -0.497,0.088 -0.833,0.286 -1.118,0.566 -1.012,0.989 -1.254,0.941 -1.256,2.175 -10e-4,0.592 0.183,1.396 0.226,2.492 0.041,1.051 0.062,2.104 0.065,3.156 0.002,0.745 -0.06,1.491 -0.054,2.236 C -1.758,-1.254 -1.457,0 0,0 m -1.926,-1.543 c -0.002,-0.383 0.013,-0.767 0.028,-1.149 0.013,-0.363 0.028,-0.725 0.027,-1.089 -0.003,-1.053 -0.025,-2.113 -0.066,-3.151 -0.022,-0.572 -0.083,-1.059 -0.136,-1.49 -0.048,-0.387 -0.089,-0.718 -0.089,-1.007 0.002,-1.086 0.211,-1.277 0.835,-1.851 0.135,-0.123 0.29,-0.267 0.471,-0.443 0.342,-0.335 0.714,-0.523 1.205,-0.609 0.345,-0.06 0.562,-0.034 0.706,0.088 0.104,0.089 0.156,0.222 0.152,0.394 -0.003,0.158 -0.002,0.235 0.002,0.269 0.071,0.064 0.126,0.169 0.187,0.448 0.091,0.413 0.179,0.858 0.202,1.301 0.07,1.301 0.204,1.483 0.487,1.483 l 0.044,0 C 3.363,-8.415 4.5,-8.49 5.603,-8.579 5.768,-8.593 6.045,-8.615 6.082,-8.654 6.1,-8.682 6.093,-8.82 6.087,-8.941 L 6.039,-9.964 c -0.041,-0.843 -0.081,-1.685 -0.108,-2.53 -0.036,-1.18 0.288,-2.73 1.309,-3.547 0.2,-0.161 0.426,-0.243 0.663,-0.243 0.09,0 0.182,0.013 0.275,0.036 0.569,0.147 1.011,0.697 1.091,0.893 0.252,0.61 0.371,1.271 0.377,2.078 0.023,2.848 0.041,5.416 0.026,7.994 -0.004,0.652 -0.063,1.308 -0.12,1.945 C 9.53,-3.105 9.51,-2.875 9.491,-2.643 9.351,-0.887 8.713,0.164 7.785,0.17 l -0.006,0 C 6.866,0.17 6.199,-1.167 6.184,-1.613 6.179,-1.768 6.171,-1.921 6.162,-2.075 6.147,-2.372 6.132,-2.67 6.135,-2.966 6.143,-3.663 6.155,-4.183 6.17,-4.727 6.18,-5.14 6.191,-5.569 6.199,-6.099 6.2,-6.176 6.192,-6.253 6.184,-6.34 6.124,-6.331 6.08,-6.324 6.045,-6.311 5.511,-6.103 4.917,-6.03 4.402,-5.979 3.612,-5.902 2.824,-5.817 2.036,-5.731 1.96,-5.723 1.78,-5.704 1.752,-5.682 1.748,-5.675 1.74,-5.651 1.739,-5.559 1.721,-4.754 1.705,-3.891 1.707,-3.03 1.708,-2.779 1.541,-0.939 0.786,-0.183 0.557,0.048 0.292,0.164 0,0.164 c -1.569,0 -1.922,-1.369 -1.926,-1.707" />
          </g>
          <g
             transform="translate(494.1172,257.8025)"
             id="g4314">
            <path
               inkscape:connector-curvature="0"
               id="path4316"
               style="fill:#35ae95;fill-opacity:1;fill-rule:nonzero;stroke:none"
               d="m 0,0 c -0.014,0.378 -0.028,0.756 -0.026,1.132 0.003,0.275 0.294,1.383 1.595,1.383 0.205,0 0.385,-0.082 0.553,-0.251 C 2.788,1.596 2.947,-0.13 2.946,-0.352 2.944,-1.215 2.96,-2.08 2.979,-2.887 c 0.008,-0.412 0.208,-0.451 0.59,-0.494 0.79,-0.086 1.58,-0.171 2.37,-0.248 0.494,-0.048 1.06,-0.116 1.557,-0.31 0.059,-0.023 0.127,-0.035 0.221,-0.05 0.043,-0.007 0.093,-0.016 0.152,-0.028 l 0.181,-0.034 0.03,0.345 c 0.011,0.106 0.02,0.198 0.019,0.291 -0.009,0.531 -0.02,0.961 -0.031,1.376 -0.013,0.542 -0.027,1.06 -0.034,1.756 -0.003,0.289 0.012,0.579 0.028,0.87 0.007,0.155 0.015,0.31 0.021,0.468 0.011,0.306 0.568,1.466 1.266,1.466 l 0.004,0 c 0.727,-0.006 1.255,-0.968 1.379,-2.512 0.018,-0.233 0.039,-0.465 0.06,-0.697 0.058,-0.629 0.116,-1.281 0.119,-1.918 0.016,-2.577 -0.003,-5.143 -0.025,-7.989 -0.007,-0.764 -0.117,-1.386 -0.352,-1.956 -0.052,-0.124 -0.422,-0.584 -0.869,-0.7 -0.24,-0.061 -0.451,-0.016 -0.649,0.146 -0.927,0.741 -1.22,2.18 -1.186,3.28 0.026,0.843 0.067,1.683 0.107,2.524 l 0.049,1.032 c 0.028,0.582 -0.094,0.64 -0.787,0.697 -1.106,0.091 -2.246,0.166 -3.484,0.23 C 3.695,-5.34 3.677,-5.34 3.658,-5.34 2.984,-5.34 2.897,-6.023 2.837,-7.137 2.815,-7.556 2.731,-7.984 2.645,-8.383 2.595,-8.608 2.562,-8.653 2.556,-8.658 2.443,-8.742 2.44,-8.843 2.446,-9.178 2.448,-9.248 2.436,-9.294 2.41,-9.316 2.378,-9.344 2.277,-9.385 1.975,-9.328 c -0.42,0.073 -0.74,0.234 -1.032,0.519 -0.183,0.18 -0.341,0.326 -0.477,0.451 -0.603,0.553 -0.728,0.668 -0.729,1.608 -0.001,0.269 0.039,0.591 0.086,0.966 0.055,0.437 0.116,0.931 0.14,1.517 0.04,1.043 0.062,2.109 0.064,3.164 C 0.028,-0.734 0.015,-0.367 0,0 m -0.137,-1.103 c -0.003,-1.051 -0.024,-2.104 -0.065,-3.156 -0.043,-1.095 -0.227,-1.899 -0.226,-2.491 0.002,-1.234 0.244,-1.187 1.256,-2.176 0.285,-0.279 0.621,-0.477 1.118,-0.565 0.451,-0.079 0.671,-0.002 0.665,0.317 -0.012,0.659 0.05,0.103 0.194,0.755 0.092,0.422 0.174,0.848 0.198,1.273 0.068,1.283 0.194,1.668 0.703,1.641 1.162,-0.062 2.322,-0.138 3.48,-0.231 0.663,-0.055 0.656,-0.076 0.635,-0.534 -0.054,-1.183 -0.119,-2.366 -0.156,-3.549 -0.038,-1.214 0.308,-2.662 1.247,-3.414 0.794,-0.636 1.67,0.368 1.774,0.619 0.272,0.661 0.359,1.338 0.365,2.017 0.02,2.664 0.04,5.328 0.025,7.993 -0.005,0.875 -0.11,1.751 -0.18,2.626 C 10.76,1.723 10.159,2.679 9.354,2.684 8.549,2.688 7.932,1.441 7.918,1.061 7.902,0.611 7.864,0.163 7.869,-0.286 7.882,-1.514 7.913,-2.191 7.934,-3.419 7.936,-3.548 7.914,-3.678 7.899,-3.854 7.73,-3.821 7.632,-3.815 7.554,-3.785 c -0.496,0.194 -1.042,0.266 -1.599,0.32 -0.79,0.078 -1.579,0.162 -2.367,0.248 -0.393,0.043 -0.44,0.071 -0.445,0.333 -0.018,0.844 -0.034,1.688 -0.032,2.532 10e-4,0.25 -0.236,3.031 -1.542,3.031 -1.457,0 -1.757,-1.254 -1.759,-1.545 -0.006,-0.745 0.055,-1.491 0.053,-2.237" />
          </g>
          <g
             transform="translate(456.8818,257.6921)"
             id="g4318">
            <path
               inkscape:connector-curvature="0"
               id="path4320"
               style="fill:#35ae95;fill-opacity:1;fill-rule:nonzero;stroke:none"
               d="M 0,0 0.002,0.055 C 0.005,0.208 0.084,0.399 0.444,0.44 1.808,0.596 3.999,0.438 5.306,-0.089 5.617,-0.214 5.798,-0.432 5.856,-0.749 5.956,-1.295 5.709,-1.804 5.099,-2.31 4.688,-2.648 4.27,-2.881 3.816,-3.018 3.441,-3.132 2.835,-3.231 2.249,-3.327 1.739,-3.411 1.213,-3.496 0.888,-3.587 0.803,-3.609 0.71,-3.617 0.604,-3.628 0.555,-3.631 0.502,-3.637 0.443,-3.644 L 0.31,-3.658 0.268,-3.53 C 0.254,-3.487 0.237,-3.448 0.222,-3.409 0.185,-3.316 0.146,-3.221 0.14,-3.115 0.097,-2.303 0.06,-1.493 0.023,-0.681 l -0.025,0.558 C -0.004,-0.082 -0.002,-0.041 0,0 m -0.913,-13.113 c 0.505,-0.086 0.956,0.087 1.021,0.396 l 0.03,0.128 c 0.029,0.125 0.056,0.241 0.064,0.356 l 0.04,0.518 c 0.067,0.864 0.136,1.761 0.183,2.641 0.024,0.449 0.03,0.909 0.035,1.352 0.003,0.276 0.007,0.549 0.014,0.824 0.01,0.414 0.152,0.493 0.574,0.52 1.107,0.069 2.709,0.338 3.896,0.654 1.245,0.332 2.198,0.771 2.912,1.346 0.748,0.602 1.03,1.261 0.861,2.019 C 8.472,-1.261 7.677,-0.315 6.354,0.447 5.863,0.731 5.355,0.991 4.791,1.274 3.709,1.822 2.495,2.249 1.181,2.545 0.752,2.639 -1.263,2.757 -2.225,2.041 c -0.299,-0.225 -0.457,-0.5 -0.48,-0.842 0.002,-0.843 0.012,-1.697 0.022,-2.55 0.007,-0.678 0.014,-1.355 0.019,-2.033 0.003,-0.556 -0.519,-0.85 -0.983,-0.938 -0.003,-0.051 0.077,-0.117 0.142,-0.172 0.409,-0.344 0.806,-0.724 0.765,-1.259 l -0.066,-0.878 c -0.048,-0.66 -0.097,-1.32 -0.151,-1.98 -0.037,-0.473 -0.079,-0.946 -0.12,-1.418 -0.031,-0.355 -0.063,-0.71 -0.092,-1.064 -0.01,-0.114 0.038,-0.225 0.13,-0.389 0.171,-0.305 1.448,-1.515 2.126,-1.631" />
          </g>
          <g
             transform="translate(457.2109,257.6784)"
             id="g4322">
            <path
               inkscape:connector-curvature="0"
               id="path4324"
               style="fill:#35ae95;fill-opacity:1;fill-rule:nonzero;stroke:none"
               d="m 0,0 0.002,0.062 c 0,0.013 0.001,0.047 0.151,0.064 0.324,0.038 0.695,0.057 1.09,0.057 1.219,0 2.66,-0.18 3.611,-0.563 0.208,-0.086 0.31,-0.205 0.348,-0.415 C 5.28,-1.218 5.076,-1.614 4.559,-2.043 4.184,-2.353 3.802,-2.564 3.391,-2.689 3.037,-2.797 2.441,-2.895 1.866,-2.988 1.324,-3.077 0.812,-3.161 0.474,-3.255 0.406,-3.272 0.332,-3.277 0.248,-3.284 0.233,-3.286 0.22,-3.288 0.205,-3.289 c -0.003,0.005 -0.004,0.01 -0.006,0.015 -0.03,0.075 -0.055,0.138 -0.058,0.191 -0.044,0.809 -0.08,1.619 -0.118,2.43 l -0.024,0.557 C -0.003,-0.063 -0.001,-0.033 0,0 m 0.095,-3.466 c 0.17,0.021 0.304,0.021 0.421,0.053 0.703,0.193 2.232,0.354 2.923,0.566 0.491,0.15 0.885,0.398 1.225,0.678 0.489,0.403 0.802,0.857 0.7,1.403 C 5.323,-0.543 5.215,-0.35 4.915,-0.229 3.684,0.27 1.538,0.448 0.135,0.29 -0.061,0.269 -0.16,0.201 -0.163,0.066 -0.164,0.01 -0.168,-0.047 -0.166,-0.104 -0.12,-1.1 -0.077,-2.096 -0.023,-3.092 -0.018,-3.21 0.049,-3.327 0.095,-3.466" />
          </g>
          <g
             transform="translate(453.9775,251.9509)"
             id="g4326">
            <path
               inkscape:connector-curvature="0"
               id="path4328"
               style="fill:#35ae95;fill-opacity:1;fill-rule:nonzero;stroke:none"
               d="m 0,0 c 0.034,0.453 -0.317,0.794 -0.707,1.12 -0.119,0.099 -0.231,0.193 -0.206,0.327 0.01,0.046 0.054,0.119 0.101,0.127 0.283,0.047 0.89,0.247 0.887,0.781 C 0.066,3.888 0.038,5.42 0.035,6.953 0.158,8.722 3.483,8.59 4.121,8.446 5.438,8.151 6.656,7.727 7.77,7.164 8.302,6.895 8.835,6.624 9.341,6.332 10.668,5.565 11.518,4.603 11.781,3.418 11.964,2.598 11.656,1.872 10.864,1.234 10.056,0.584 9.029,0.16 7.892,-0.142 6.78,-0.437 5.161,-0.726 3.962,-0.802 3.591,-0.825 3.551,-0.863 3.543,-1.162 3.522,-1.889 3.533,-2.615 3.494,-3.342 3.438,-4.396 3.352,-5.45 3.271,-6.504 3.258,-6.674 3.21,-6.842 3.175,-7.01 3.09,-7.412 2.571,-7.64 1.963,-7.535 c -0.736,0.126 -2.042,1.358 -2.241,1.713 -0.092,0.164 -0.165,0.314 -0.152,0.485 0.07,0.827 0.147,1.653 0.213,2.481 C -0.141,-1.904 -0.072,-0.952 0,0 m -0.381,-2.843 c -0.038,-0.472 -0.079,-0.945 -0.121,-1.417 -0.03,-0.355 -0.061,-0.709 -0.092,-1.064 -0.018,-0.219 0.075,-0.405 0.172,-0.578 0.204,-0.366 1.549,-1.657 2.357,-1.795 0.108,-0.019 0.212,-0.028 0.314,-0.028 0.556,0 0.999,0.265 1.087,0.681 l 0.027,0.121 c 0.031,0.132 0.062,0.267 0.072,0.407 L 3.476,-6 c 0.066,0.869 0.135,1.767 0.183,2.65 0.024,0.456 0.029,0.918 0.035,1.366 0.002,0.272 0.006,0.546 0.014,0.819 0.002,0.116 0.012,0.153 0.016,0.162 0.02,0.016 0.104,0.027 0.249,0.037 1.127,0.07 2.756,0.344 3.962,0.665 1.289,0.344 2.282,0.804 3.033,1.407 0.843,0.679 1.171,1.469 0.974,2.347 C 11.677,4.646 10.829,5.664 9.423,6.475 8.925,6.763 8.413,7.022 7.844,7.31 6.738,7.871 5.497,8.307 4.157,8.607 3.682,8.714 1.551,8.844 0.481,8.045 0.106,7.765 -0.1,7.4 -0.13,6.953 -0.128,6.097 -0.118,5.241 -0.108,4.385 -0.101,3.708 -0.094,3.031 -0.09,2.354 -0.087,1.874 -0.761,1.751 -0.84,1.737 -0.978,1.713 -1.057,1.566 -1.075,1.478 -1.117,1.248 -0.941,1.102 -0.812,0.994 -0.382,0.633 -0.139,0.357 -0.164,0.013 L -0.23,-0.866 c -0.048,-0.658 -0.098,-1.319 -0.151,-1.977" />
          </g>
          <g
             transform="translate(457.0479,257.7448)"
             id="g4330">
            <path
               inkscape:connector-curvature="0"
               id="path4332"
               style="fill:#35ae95;fill-opacity:1;fill-rule:nonzero;stroke:none"
               d="m 0,0 c 0.003,0.135 0.103,0.202 0.298,0.224 1.403,0.158 3.549,-0.021 4.78,-0.519 0.3,-0.121 0.408,-0.314 0.449,-0.537 0.102,-0.547 -0.211,-1 -0.7,-1.403 C 4.487,-2.516 4.093,-2.764 3.603,-2.913 2.911,-3.125 1.382,-3.286 0.679,-3.479 0.562,-3.512 0.428,-3.512 0.258,-3.532 0.212,-3.394 0.146,-3.276 0.14,-3.158 0.086,-2.162 0.043,-1.166 -0.003,-0.17 -0.005,-0.113 -0.001,-0.057 0,0 M -0.026,-3.168 C -0.02,-3.273 0.019,-3.369 0.056,-3.462 0.071,-3.501 0.088,-3.54 0.102,-3.583 l 0.042,-0.128 0.133,0.015 c 0.059,0.007 0.112,0.012 0.161,0.015 0.106,0.011 0.199,0.019 0.284,0.041 0.325,0.091 0.851,0.176 1.361,0.26 0.586,0.096 1.192,0.195 1.567,0.31 0.454,0.136 0.872,0.369 1.283,0.708 0.61,0.506 0.857,1.014 0.757,1.56 -0.058,0.318 -0.239,0.535 -0.55,0.66 C 3.833,0.386 1.642,0.543 0.278,0.388 -0.082,0.347 -0.161,0.155 -0.164,0.002 L -0.166,-0.053 C -0.168,-0.094 -0.17,-0.135 -0.168,-0.176 l 0.025,-0.557 c 0.037,-0.813 0.074,-1.622 0.117,-2.435" />
          </g>
          <g
             transform="translate(453.8047,247.6628)"
             id="g4334">
            <path
               inkscape:connector-curvature="0"
               id="path4336"
               style="fill:#35ae95;fill-opacity:1;fill-rule:nonzero;stroke:none"
               d="m 0,0 c 0.041,0.473 0.083,0.945 0.12,1.418 0.054,0.66 0.103,1.32 0.151,1.98 L 0.337,4.276 C 0.378,4.812 -0.019,5.191 -0.428,5.535 -0.493,5.59 -0.573,5.656 -0.57,5.707 -0.105,5.795 0.416,6.089 0.413,6.646 0.408,7.323 0.401,8 0.395,8.679 c -0.011,0.852 -0.021,1.707 -0.023,2.55 0.024,0.341 0.181,0.617 0.481,0.841 0.961,0.716 2.976,0.598 3.405,0.504 1.314,-0.296 2.528,-0.722 3.61,-1.27 C 8.433,11.021 8.94,10.761 9.432,10.477 10.754,9.714 11.549,8.769 11.794,7.67 11.963,6.912 11.682,6.253 10.934,5.651 10.219,5.076 9.267,4.638 8.021,4.306 6.834,3.989 5.232,3.721 4.125,3.651 3.703,3.624 3.562,3.545 3.551,3.131 3.544,2.856 3.54,2.583 3.537,2.308 3.532,1.864 3.526,1.404 3.502,0.955 3.455,0.075 3.386,-0.821 3.319,-1.686 L 3.279,-2.204 C 3.271,-2.318 3.244,-2.435 3.215,-2.56 L 3.186,-2.688 C 3.12,-2.997 2.669,-3.17 2.164,-3.084 c -0.678,0.116 -1.955,1.326 -2.126,1.631 -0.092,0.164 -0.14,0.275 -0.13,0.39 C -0.062,-0.71 -0.031,-0.354 0,0 m -0.105,-1.534 c 0.199,-0.355 1.504,-1.587 2.241,-1.713 0.608,-0.105 1.127,0.123 1.212,0.525 0.035,0.168 0.083,0.336 0.095,0.506 0.081,1.054 0.167,2.108 0.224,3.162 0.039,0.727 0.028,1.453 0.049,2.18 0.008,0.299 0.048,0.337 0.419,0.36 1.199,0.077 2.818,0.366 3.929,0.66 1.138,0.302 2.165,0.726 2.973,1.376 0.792,0.638 1.1,1.364 0.917,2.184 C 11.69,8.891 10.841,9.854 9.514,10.62 9.008,10.912 8.475,11.183 7.942,11.452 6.829,12.015 5.611,12.439 4.294,12.734 3.656,12.878 0.331,13.01 0.208,11.241 0.211,9.708 0.239,8.176 0.248,6.644 0.251,6.109 -0.356,5.909 -0.639,5.862 -0.687,5.854 -0.73,5.781 -0.74,5.735 -0.766,5.602 -0.653,5.507 -0.534,5.408 -0.145,5.082 0.207,4.741 0.173,4.288 0.101,3.336 0.032,2.384 -0.044,1.432 -0.11,0.604 -0.187,-0.222 -0.257,-1.049 -0.271,-1.22 -0.197,-1.37 -0.105,-1.534" />
          </g>
          <g
             transform="translate(488.2598,259.8816)"
             id="g4338">
            <path
               inkscape:connector-curvature="0"
               id="path4340"
               style="fill:#35ae95;fill-opacity:1;fill-rule:nonzero;stroke:none"
               d="m 0,0 c -1.733,0 -3.129,-0.631 -4.117,-1.884 -1.603,-2.029 -2.662,-5.166 -2.575,-7.628 0.043,-1.218 0.406,-2.278 1.111,-3.239 0.631,-0.858 1.531,-1.549 2.677,-2.055 0.779,-0.344 1.679,-0.507 2.55,-0.663 l 0.18,-0.032 c 0.852,-0.152 1.788,-0.178 2.86,-0.082 1.27,0.114 2.496,0.468 3.747,1.083 0.808,0.396 1.276,0.852 1.431,1.397 0.028,0.097 0.028,0.178 -0.219,0.323 -0.038,0.02 -0.079,0.038 -0.12,0.054 -0.114,0.048 -0.254,0.105 -0.329,0.241 -0.033,0.009 -0.085,0.02 -0.114,0.027 -0.041,0.007 -0.07,0.007 -0.1,0.007 -0.055,0.001 -0.119,-0.004 -0.183,0.018 l -0.056,0.019 c -0.436,0.152 -0.435,0.15 -0.79,-0.003 -0.841,-0.364 -1.714,-0.76 -2.596,-1.172 -0.877,-0.408 -1.882,-0.67 -3.072,-0.8 -0.915,-0.098 -1.547,0.062 -1.998,0.499 -0.058,0.059 -0.121,0.114 -0.184,0.17 -0.114,0.101 -0.23,0.205 -0.33,0.32 -0.621,0.726 -0.97,1.524 -1.039,2.373 -0.102,1.283 0.048,2.524 0.449,3.69 0.512,1.494 1.285,3.346 2.713,4.426 1.034,0.779 2.086,0.767 2.713,0.75 0.168,-0.005 0.316,-0.005 0.417,0.009 0.119,0.015 0.234,0.056 0.345,0.097 0.023,0.009 0.045,0.017 0.067,0.026 l 0.057,0.222 c 0.006,0.024 0.017,0.048 0.027,0.074 -0.084,0.175 0.024,0.401 0.121,0.603 0.047,0.101 0.136,0.289 0.119,0.342 L 3.613,-0.737 C 2.288,-0.244 1.079,0 0,0" />
          </g>
          <g
             transform="translate(491.9512,258.1892)"
             id="g4342">
            <path
               inkscape:connector-curvature="0"
               id="path4344"
               style="fill:#35ae95;fill-opacity:1;fill-rule:nonzero;stroke:none"
               d="m 0,0 c 0.03,-0.035 -0.022,-0.104 -0.036,-0.156 -0.023,-0.084 -0.044,-0.169 -0.08,-0.309 -0.151,-0.047 -0.33,-0.134 -0.528,-0.16 -0.517,-0.068 -1.786,0.23 -3.052,-0.726 -1.467,-1.108 -2.223,-3.082 -2.658,-4.347 -0.41,-1.197 -0.537,-2.406 -0.438,-3.624 0.064,-0.805 0.398,-1.575 1,-2.279 0.145,-0.169 0.339,-0.317 0.504,-0.478 0.466,-0.454 1.124,-0.531 1.864,-0.452 1.087,0.116 2.103,0.356 3.02,0.785 0.857,0.399 1.723,0.791 2.6,1.172 0.43,0.186 0.443,0.169 0.965,-0.011 0.065,-0.021 0.158,0.001 0.232,-0.014 0.087,-0.018 0.227,-0.043 0.242,-0.083 0.056,-0.153 0.261,-0.182 0.401,-0.264 0.229,-0.133 0.362,-0.272 0.295,-0.508 -0.186,-0.66 -0.767,-1.134 -1.518,-1.503 -1.14,-0.56 -2.399,-0.971 -3.804,-1.098 -0.968,-0.088 -1.944,-0.088 -2.904,0.084 -0.957,0.171 -1.917,0.33 -2.768,0.706 -1.199,0.532 -2.103,1.239 -2.741,2.11 -0.77,1.047 -1.103,2.163 -1.144,3.331 -0.086,2.423 0.951,5.634 2.611,7.736 2.664,3.373 7.421,1.37 8.046,1.151 C 0.513,0.922 -0.194,0.229 0,0 M 0.375,1.03 C 0.35,1.091 0.292,1.175 0.165,1.219 L 0.037,1.265 c -3.604,1.339 -6.405,0.904 -8.103,-1.251 -1.648,-2.086 -2.736,-5.312 -2.647,-7.843 0.045,-1.289 0.43,-2.409 1.176,-3.424 0.664,-0.904 1.609,-1.633 2.808,-2.161 0.815,-0.362 1.736,-0.528 2.626,-0.688 l 0.179,-0.032 c 0.539,-0.095 1.109,-0.143 1.721,-0.143 0.39,0 0.798,0.018 1.225,0.058 1.314,0.117 2.577,0.482 3.864,1.115 0.897,0.439 1.422,0.963 1.604,1.605 0.115,0.411 -0.225,0.611 -0.372,0.695 -0.048,0.03 -0.102,0.052 -0.157,0.075 -0.077,0.033 -0.157,0.066 -0.171,0.105 -0.047,0.121 -0.186,0.15 -0.367,0.187 -0.05,0.007 -0.098,0.007 -0.141,0.007 -0.022,0 -0.057,-0.005 -0.068,0 l -0.055,0.02 c -0.503,0.174 -0.572,0.185 -1.028,-0.014 -0.843,-0.364 -1.72,-0.76 -2.605,-1.175 -0.843,-0.393 -1.814,-0.644 -2.967,-0.769 -0.809,-0.083 -1.36,0.043 -1.732,0.407 -0.063,0.062 -0.13,0.121 -0.196,0.18 -0.11,0.097 -0.213,0.189 -0.298,0.289 -0.575,0.671 -0.898,1.406 -0.962,2.184 -0.099,1.238 0.047,2.434 0.431,3.557 0.499,1.448 1.245,3.243 2.601,4.269 0.942,0.711 1.879,0.699 2.509,0.683 0.181,-0.003 0.338,-0.007 0.466,0.011 0.154,0.02 0.294,0.072 0.416,0.118 0.049,0.017 0.095,0.034 0.139,0.048 l 0.088,0.027 0.114,0.426 c 0.024,0.051 0.079,0.171 -0.003,0.267 -0.014,0.05 0.071,0.228 0.116,0.324 0.1,0.209 0.203,0.426 0.127,0.608" />
          </g>
          <g
             transform="translate(491.9023,258.7517)"
             id="g4346">
            <path
               inkscape:connector-curvature="0"
               id="path4348"
               style="fill:#35ae95;fill-opacity:1;fill-rule:nonzero;stroke:none"
               d="m 0,0 c -0.097,-0.202 -0.204,-0.428 -0.12,-0.604 -0.011,-0.025 -0.022,-0.049 -0.027,-0.073 l -0.057,-0.222 c -0.023,-0.009 -0.045,-0.017 -0.067,-0.026 -0.112,-0.041 -0.227,-0.082 -0.345,-0.097 -0.102,-0.014 -0.249,-0.014 -0.417,-0.009 -0.627,0.017 -1.68,0.029 -2.713,-0.75 -1.429,-1.08 -2.201,-2.932 -2.714,-4.426 -0.4,-1.166 -0.551,-2.407 -0.448,-3.69 0.068,-0.849 0.418,-1.647 1.039,-2.374 0.099,-0.114 0.216,-0.218 0.329,-0.319 0.063,-0.056 0.126,-0.111 0.185,-0.17 0.451,-0.437 1.083,-0.597 1.998,-0.499 1.189,0.13 2.195,0.392 3.072,0.8 0.882,0.412 1.755,0.808 2.596,1.172 0.354,0.153 0.353,0.155 0.79,0.003 l 0.055,-0.019 c 0.065,-0.022 0.128,-0.017 0.184,-0.018 0.029,0 0.058,0 0.099,-0.007 0.03,-0.007 0.082,-0.018 0.115,-0.027 0.074,-0.136 0.215,-0.193 0.329,-0.241 0.041,-0.016 0.082,-0.034 0.119,-0.054 0.247,-0.145 0.247,-0.226 0.22,-0.323 -0.156,-0.546 -0.623,-1.002 -1.432,-1.397 -1.251,-0.615 -2.477,-0.969 -3.747,-1.083 -1.071,-0.096 -2.008,-0.07 -2.859,0.082 l -0.18,0.032 c -0.871,0.155 -1.772,0.318 -2.551,0.663 -1.145,0.506 -2.046,1.197 -2.677,2.055 -0.705,0.961 -1.068,2.02 -1.111,3.239 -0.087,2.462 0.973,5.599 2.575,7.628 0.989,1.253 2.384,1.884 4.117,1.884 1.08,0 2.289,-0.244 3.614,-0.737 L 0.119,0.342 C 0.137,0.289 0.048,0.101 0,0 m 0.158,0.501 c -0.625,0.219 -5.383,2.222 -8.047,-1.151 -1.659,-2.103 -2.696,-5.314 -2.61,-7.737 0.041,-1.168 0.374,-2.284 1.144,-3.331 0.638,-0.871 1.542,-1.578 2.741,-2.109 0.85,-0.376 1.811,-0.535 2.768,-0.706 0.96,-0.172 1.936,-0.172 2.904,-0.084 1.405,0.127 2.664,0.538 3.804,1.097 0.751,0.37 1.331,0.843 1.518,1.503 0.067,0.237 -0.067,0.375 -0.295,0.508 -0.141,0.082 -0.345,0.112 -0.401,0.265 -0.015,0.04 -0.155,0.064 -0.243,0.083 -0.073,0.015 -0.167,-0.008 -0.231,0.014 -0.522,0.179 -0.535,0.197 -0.965,0.01 -0.877,-0.381 -1.743,-0.772 -2.6,-1.172 -0.917,-0.428 -1.933,-0.669 -3.02,-0.785 -0.74,-0.079 -1.398,-0.002 -1.864,0.452 -0.165,0.162 -0.36,0.31 -0.504,0.479 -0.602,0.703 -0.936,1.474 -1,2.278 -0.099,1.218 0.028,2.428 0.438,3.624 0.435,1.266 1.191,3.24 2.658,4.348 1.266,0.956 2.535,0.657 3.052,0.726 0.198,0.026 0.377,0.113 0.528,0.16 0.036,0.139 0.057,0.224 0.08,0.308 0.013,0.053 0.066,0.121 0.036,0.157 -0.195,0.229 0.513,0.921 0.109,1.063" />
          </g>
          <g
             transform="translate(387.2598,251.7448)"
             id="g4350">
            <path
               inkscape:connector-curvature="0"
               id="path4352"
               style="fill:#35ae95;fill-opacity:1;fill-rule:nonzero;stroke:none"
               d="M 0,0 C 0.043,-1.392 0.044,-2.773 0.033,-4.423 0.032,-4.469 0.028,-4.542 0.022,-4.635 c -0.033,-0.524 -0.121,-1.909 0.545,-2.234 0.215,0.006 0.434,0 0.632,0.024 0.344,0.043 0.906,0.108 1.597,0.187 2.923,0.338 8.361,0.966 9.091,1.28 0.174,0.075 0.328,0.181 0.432,0.297 0.118,0.132 0.147,0.499 0.003,0.838 -0.079,0.182 -0.271,0.492 -0.67,0.506 -0.253,0.007 -0.394,0.015 -0.513,0.024 -0.17,0.01 -0.293,0.014 -0.658,0.017 C 9.46,-3.705 8.452,-3.824 7.477,-3.938 6.492,-4.055 5.475,-4.177 4.434,-4.184 4.35,-4.184 4.24,-4.18 4.115,-4.175 l -0.418,0.016 0.012,0.171 c 0.036,0.519 0.05,1.104 0.063,1.67 0.013,0.585 0.026,1.188 0.065,1.74 l 0.011,0.152 0.154,0 c 0.256,0 2.135,0.42 3.507,0.729 l 0.99,0.219 c 1.845,0.406 2.474,1.025 2.438,1.319 -0.025,0.2 -0.389,0.405 -1.13,0.405 C 9.767,2.246 9.725,2.244 9.682,2.244 8.835,2.239 7.953,2.119 7.1,2.005 6.244,1.889 5.358,1.771 4.501,1.764 4.4,1.764 4.3,1.769 4.181,1.775 L 3.846,1.793 3.813,1.907 C 3.803,1.945 3.791,1.982 3.779,2.021 3.75,2.109 3.719,2.203 3.708,2.303 3.639,2.878 3.615,3.311 3.592,3.729 3.57,4.14 3.548,4.562 3.481,5.123 c -0.058,0.49 0.134,0.513 0.772,0.59 0.427,0.051 5.591,0.805 6.637,0.988 0.762,0.133 1.188,0.504 1.138,0.991 -0.043,0.427 -0.483,0.879 -1.123,0.879 l -0.039,0 C 9.674,8.538 8.505,8.362 7.374,8.191 6.617,8.077 5.835,7.959 5.044,7.884 L 3.746,7.759 C 0.953,7.292 0.254,6.627 -0.005,5.638 -0.028,5.55 -0.053,5.465 -0.078,5.379 -0.158,5.103 -0.234,4.841 -0.226,4.586 -0.201,3.834 -0.157,3.066 -0.115,2.324 -0.07,1.563 -0.025,0.775 0,0" />
          </g>
          <g
             transform="translate(386.8691,256.3259)"
             id="g4354">
            <path
               inkscape:connector-curvature="0"
               id="path4356"
               style="fill:#35ae95;fill-opacity:1;fill-rule:nonzero;stroke:none"
               d="M 0,0 C -0.012,0.365 0.13,0.732 0.226,1.098 0.51,2.182 1.264,2.864 4.121,3.342 4.57,3.386 4.995,3.426 5.42,3.467 7.394,3.656 9.257,4.099 11.253,4.154 12.646,4.193 13.358,2.315 11.309,1.958 10.272,1.776 5.135,1.024 4.664,0.968 3.99,0.887 3.999,0.879 4.036,0.561 4.17,-0.576 4.125,-1.124 4.261,-2.261 4.276,-2.382 4.328,-2.503 4.364,-2.629 4.588,-2.64 4.739,-2.653 4.89,-2.652 6.591,-2.64 8.367,-2.184 10.067,-2.174 12.16,-2.11 12.088,-3.524 8.925,-4.22 7.453,-4.543 4.734,-5.171 4.392,-5.171 4.316,-6.257 4.337,-7.523 4.264,-8.581 c 0.257,-0.01 0.408,-0.021 0.56,-0.02 2.062,0.016 3.986,0.473 6.048,0.488 0.618,0.004 0.56,-0.022 1.176,-0.041 0.883,-0.029 1.111,-1.253 0.785,-1.617 -0.11,-0.124 -0.278,-0.249 -0.49,-0.34 -0.927,-0.399 -8.899,-1.251 -10.734,-1.478 -0.215,-0.027 -0.454,-0.018 -0.684,-0.026 -0.926,0.39 -0.669,2.258 -0.666,2.613 C 0.27,-7.53 0.272,-6.058 0.226,-4.586 0.177,-3.058 0.05,-1.528 0,0 m 0.083,-9.193 c -0.041,-0.655 -0.139,-2.187 0.778,-2.575 l 0.033,-0.013 0.037,0.001 c 0.075,0.002 0.151,0.004 0.227,0.004 0.161,0.003 0.321,0.005 0.472,0.022 0.344,0.042 0.905,0.108 1.596,0.188 4.067,0.47 8.467,0.997 9.183,1.304 0.217,0.094 0.411,0.229 0.547,0.381 0.218,0.245 0.243,0.754 0.059,1.187 -0.186,0.434 -0.536,0.69 -0.962,0.704 -0.248,0.009 -0.386,0.017 -0.503,0.024 -0.175,0.01 -0.313,0.032 -0.68,0.017 C 9.83,-7.956 8.813,-8.077 7.829,-8.193 6.853,-8.308 5.845,-8.428 4.822,-8.437 4.732,-8.439 4.638,-8.431 4.521,-8.428 l -0.082,0.004 c 0.029,0.484 0.041,1.008 0.053,1.516 0.011,0.532 0.024,1.081 0.056,1.587 0.484,0.066 1.794,0.357 3.423,0.72 L 8.96,-4.38 c 1.716,0.376 2.773,1.036 2.694,1.681 -0.057,0.46 -0.668,0.722 -1.587,0.69 C 9.203,-2.014 8.31,-2.134 7.446,-2.25 6.6,-2.364 5.725,-2.482 4.89,-2.489 c -0.093,0 -0.187,0.007 -0.299,0.012 L 4.486,-2.47 C 4.485,-2.467 4.484,-2.463 4.483,-2.46 4.459,-2.385 4.434,-2.313 4.425,-2.241 4.357,-1.674 4.334,-1.246 4.312,-0.834 4.29,-0.419 4.267,0.01 4.198,0.59 4.191,0.646 4.184,0.716 4.174,0.716 4.22,0.749 4.466,0.777 4.683,0.804 c 0.428,0.05 5.606,0.808 6.654,0.991 1.121,0.196 1.463,0.825 1.41,1.349 -0.058,0.572 -0.627,1.175 -1.451,1.175 -0.016,0 -0.032,0 -0.048,-0.001 C 10.036,4.285 8.856,4.107 7.715,3.937 6.963,3.822 6.186,3.706 5.403,3.631 L 4.094,3.504 C 1.113,3.007 0.36,2.26 0.066,1.139 0.044,1.057 0.021,0.973 -0.003,0.891 -0.088,0.602 -0.175,0.303 -0.165,-0.005 -0.139,-0.763 -0.096,-1.531 -0.053,-2.275 -0.009,-3.034 0.036,-3.82 0.061,-4.592 0.104,-5.978 0.106,-7.355 0.094,-9 0.094,-9.045 0.09,-9.109 0.083,-9.193" />
          </g>
          <g
             transform="translate(387.1821,257.1237)"
             id="g4358">
            <path
               inkscape:connector-curvature="0"
               id="path4360"
               style="fill:#35ae95;fill-opacity:1;fill-rule:nonzero;stroke:none"
               d="m 0,0 c 0.024,0.086 0.049,0.171 0.072,0.259 0.26,0.989 0.959,1.654 3.752,2.121 l 1.298,0.125 c 0.791,0.075 1.573,0.193 2.329,0.308 1.132,0.17 2.301,0.346 3.493,0.379 l 0.039,0 c 0.64,0 1.08,-0.452 1.123,-0.879 C 12.156,1.826 11.73,1.455 10.968,1.322 9.921,1.139 4.758,0.385 4.331,0.334 3.693,0.257 3.5,0.234 3.559,-0.256 3.625,-0.816 3.648,-1.239 3.67,-1.649 3.693,-2.068 3.716,-2.501 3.785,-3.076 3.796,-3.176 3.827,-3.27 3.856,-3.358 3.868,-3.396 3.881,-3.434 3.891,-3.472 l 0.033,-0.114 0.335,-0.018 c 0.118,-0.006 0.219,-0.011 0.32,-0.011 0.857,0.007 1.742,0.125 2.599,0.241 0.853,0.114 1.735,0.234 2.582,0.239 0.043,0 0.084,0.002 0.125,0.002 0.74,0 1.105,-0.205 1.13,-0.405 0.035,-0.294 -0.594,-0.913 -2.439,-1.318 l -0.99,-0.22 C 6.214,-5.385 4.336,-5.805 4.08,-5.805 l -0.155,0 -0.01,-0.152 C 3.876,-6.509 3.862,-7.112 3.85,-7.697 3.836,-8.263 3.823,-8.848 3.787,-9.367 L 3.775,-9.538 4.193,-9.554 c 0.125,-0.005 0.234,-0.009 0.319,-0.009 1.041,0.007 2.058,0.129 3.043,0.246 0.975,0.114 1.983,0.233 3.004,0.242 0.365,-0.003 0.488,-0.007 0.657,-0.017 0.12,-0.009 0.261,-0.017 0.514,-0.024 0.399,-0.014 0.591,-0.323 0.669,-0.506 0.144,-0.339 0.116,-0.706 -0.003,-0.838 -0.104,-0.116 -0.257,-0.222 -0.431,-0.297 -0.73,-0.314 -6.169,-0.942 -9.091,-1.28 -0.691,-0.079 -1.253,-0.144 -1.597,-0.187 -0.198,-0.024 -0.417,-0.018 -0.632,-0.024 -0.666,0.325 -0.579,1.71 -0.545,2.234 0.006,0.093 0.01,0.166 0.011,0.212 0.011,1.65 0.01,3.031 -0.033,4.423 -0.025,0.775 -0.071,1.564 -0.115,2.324 -0.043,0.742 -0.087,1.51 -0.111,2.262 C -0.157,-0.538 -0.081,-0.276 0,0 m -0.054,-9.8 c -0.003,-0.355 -0.26,-2.222 0.666,-2.613 0.23,0.008 0.469,-10e-4 0.684,0.026 1.835,0.227 9.807,1.079 10.734,1.478 0.212,0.092 0.38,0.217 0.49,0.34 0.326,0.364 0.098,1.589 -0.785,1.617 -0.616,0.019 -0.558,0.045 -1.176,0.041 -2.062,-0.015 -3.986,-0.472 -6.048,-0.487 -0.152,-10e-4 -0.303,0.009 -0.56,0.019 0.073,1.058 0.052,2.324 0.128,3.41 0.342,0 3.061,0.628 4.533,0.951 3.163,0.696 3.235,2.11 1.142,2.046 C 8.054,-2.981 6.278,-3.438 4.577,-3.45 4.426,-3.451 4.275,-3.438 4.051,-3.427 4.015,-3.301 3.963,-3.18 3.948,-3.059 3.813,-1.922 3.857,-1.374 3.723,-0.237 3.686,0.081 3.677,0.089 4.351,0.17 4.822,0.227 9.959,0.979 10.996,1.16 13.045,1.518 12.333,3.396 10.94,3.356 8.944,3.301 7.081,2.858 5.107,2.669 4.682,2.628 4.257,2.588 3.808,2.544 0.951,2.066 0.197,1.384 -0.087,0.3 c -0.096,-0.365 -0.238,-0.733 -0.226,-1.098 0.05,-1.528 0.177,-3.057 0.226,-4.586 0.046,-1.471 0.044,-2.944 0.033,-4.416" />
          </g>
          <g
             transform="translate(526.4238,246.9919)"
             id="g4362">
            <path
               inkscape:connector-curvature="0"
               id="path4364"
               style="fill:#35ae95;fill-opacity:1;fill-rule:nonzero;stroke:none"
               d="m 0,0 c -0.361,0.212 -0.908,0.527 -1.171,0.471 -0.418,-0.105 -0.795,-0.399 -0.893,-0.479 -0.36,-0.516 -0.75,-1.487 -0.543,-1.842 0.278,-0.478 1.236,-1.173 1.799,-1.205 0.008,-10e-4 0.018,-10e-4 0.027,-10e-4 0.554,0 1.713,0.843 1.804,1.164 C 1.142,-1.485 0.83,-0.429 0.611,-0.315 0.443,-0.26 0.238,-0.14 0,0" />
          </g>
          <g
             transform="translate(527.7646,245.0085)"
             id="g4366">
            <path
               inkscape:connector-curvature="0"
               id="path4368"
               style="fill:#35ae95;fill-opacity:1;fill-rule:nonzero;stroke:none"
               d="m 0,0 c -0.146,-0.504 -1.494,-1.437 -2.168,-1.4 -0.673,0.037 -1.729,0.793 -2.065,1.369 -0.335,0.576 0.245,1.762 0.583,2.23 0,0 0.481,0.431 1.058,0.574 0.578,0.143 1.538,-0.649 1.971,-0.794 C -0.188,1.835 0.146,0.503 0,0 m -0.516,2.291 c -0.107,0.036 -0.302,0.151 -0.49,0.262 -0.511,0.3 -1.145,0.674 -1.665,0.54 C -3.32,2.933 -3.848,2.464 -3.87,2.445 L -3.918,2.393 c -0.303,-0.421 -1.061,-1.797 -0.6,-2.59 0.38,-0.654 1.531,-1.488 2.332,-1.533 l 0.05,0 c 0.796,0 2.259,0.966 2.453,1.638 0.169,0.588 -0.157,2.159 -0.833,2.383" />
          </g>
          <g
             transform="translate(527.4473,245.1003)"
             id="g4370">
            <path
               inkscape:connector-curvature="0"
               id="path4372"
               style="fill:#35ae95;fill-opacity:1;fill-rule:nonzero;stroke:none"
               d="m 0,0 c -0.092,-0.321 -1.25,-1.164 -1.805,-1.164 -0.008,0 -0.018,0 -0.026,10e-4 -0.564,0.031 -1.522,0.726 -1.8,1.205 -0.207,0.354 0.184,1.325 0.543,1.842 0.099,0.08 0.476,0.374 0.894,0.478 0.262,0.057 0.809,-0.258 1.171,-0.47 0.238,-0.14 0.443,-0.26 0.611,-0.316 C -0.193,1.463 0.118,0.406 0,0 M -0.304,1.888 C -0.736,2.032 -1.696,2.824 -2.274,2.682 -2.852,2.538 -3.333,2.107 -3.333,2.107 -3.671,1.64 -4.251,0.453 -3.916,-0.123 c 0.336,-0.576 1.393,-1.332 2.065,-1.369 0.674,-0.037 2.023,0.896 2.168,1.4 0.146,0.503 -0.188,1.835 -0.621,1.98" />
          </g>
          <g
             transform="translate(434.502,252.1296)"
             id="g4374">
            <path
               inkscape:connector-curvature="0"
               id="path4376"
               style="fill:#35ae95;fill-opacity:1;fill-rule:nonzero;stroke:none"
               d="m 0,0 -0.11,-0.011 -0.051,0.1 c -0.034,0.064 -0.837,1.622 -1.14,2.513 -0.419,1.241 -1.223,2.877 -1.503,2.916 -0.053,0 -0.339,-0.125 -0.511,-2.579 -0.073,-1.021 0.661,-3.116 0.669,-3.136 l 0.065,-0.185 -4.794,-0.797 0.13,0.283 c 0.031,0.068 3.091,6.711 3.388,7.414 l 0.065,0.152 c 0.185,0.424 0.414,0.95 0.232,1.241 -0.105,0.167 -0.359,0.26 -0.754,0.277 l -0.035,0 c -1.357,0 -3.539,-2.989 -4.335,-4.368 -0.021,-0.038 -0.468,-0.861 -1.204,-2.252 -0.691,-1.307 -2.405,-5.267 -3.307,-7.403 -0.477,-1.126 -0.706,-2.672 -0.265,-3.304 0.131,-0.188 0.309,-0.268 0.557,-0.265 1.003,0.048 1.246,0.348 1.833,1.077 0.114,0.14 0.24,0.298 0.384,0.467 0.877,1.037 2.223,4.134 2.237,4.166 l 0.034,0.078 0.083,0.017 5.975,1.276 0.063,-0.084 c 0.028,-0.036 0.7,-0.929 1.082,-2.189 0.225,-0.745 0.778,-1.426 1.378,-1.697 0.221,-0.101 0.554,-0.189 0.88,-0.039 0.765,0.351 0.964,0.877 0.666,1.756 -0.294,0.868 -1.114,2.574 -1.122,2.591 l -0.076,0.159 0.162,0.065 c 0.723,0.294 1.929,0.912 2.093,1.326 0.023,0.058 0.014,0.092 0.004,0.115 C 2.599,0.058 1.046,0.096 0,0" />
          </g>
          <g
             transform="translate(435.2402,250.2155)"
             id="g4378">
            <path
               inkscape:connector-curvature="0"
               id="path4380"
               style="fill:#35ae95;fill-opacity:1;fill-rule:nonzero;stroke:none"
               d="m 0,0 c 0,0 0.829,-1.721 1.13,-2.61 0.302,-0.89 0.151,-1.543 -0.753,-1.958 -0.904,-0.415 -2.109,0.593 -2.486,1.839 -0.376,1.246 -1.054,2.136 -1.054,2.136 l -5.873,-1.252 c 0,0 -1.359,-3.138 -2.263,-4.207 -0.903,-1.068 -1.055,-1.543 -2.335,-1.601 -1.281,-0.06 -1.13,2.195 -0.452,3.797 0.678,1.602 2.562,5.993 3.315,7.417 0.752,1.423 1.205,2.254 1.205,2.254 0.753,1.306 3.013,4.509 4.519,4.451 1.507,-0.06 0.904,-1.187 0.603,-1.9 C -4.745,7.654 -7.834,0.95 -7.834,0.95 l 4.294,0.712 c 0,0 -0.753,2.136 -0.678,3.204 0.075,1.068 0.226,2.73 0.678,2.73 0.452,0 1.355,-2.137 1.657,-3.027 0.301,-0.889 1.13,-2.492 1.13,-2.492 0,0 2.637,0.237 2.938,-0.415 C 2.486,1.009 0,0 0,0 M 2.337,1.358 C 2.388,1.488 2.388,1.616 2.334,1.73 2.023,2.406 -0.018,2.302 -0.656,2.252 -0.839,2.611 -1.476,3.88 -1.727,4.621 -1.737,4.652 -2.819,7.76 -3.54,7.76 -4,7.76 -4.236,6.953 -4.382,4.878 -4.447,3.963 -3.941,2.343 -3.759,1.794 L -7.554,1.163 c 0.597,1.298 2.995,6.508 3.262,7.139 l 0.064,0.15 c 0.216,0.494 0.484,1.111 0.209,1.547 -0.169,0.271 -0.502,0.41 -1.021,0.431 -0.015,0.002 -0.03,0.002 -0.046,0.002 -1.638,0 -3.939,-3.349 -4.623,-4.536 L -9.711,5.894 c 0,0 -0.452,-0.832 -1.205,-2.257 -0.698,-1.319 -2.416,-5.289 -3.322,-7.428 -0.517,-1.224 -0.762,-2.861 -0.231,-3.624 0.186,-0.265 0.457,-0.405 0.787,-0.405 0.018,0 0.037,0 0.056,0.002 1.151,0.052 1.46,0.436 2.074,1.198 0.113,0.139 0.237,0.293 0.379,0.462 0.839,0.993 2.033,3.667 2.254,4.169 l 5.685,1.214 c 0.171,-0.248 0.669,-1.014 0.967,-2.002 0.255,-0.844 0.867,-1.591 1.558,-1.903 0.408,-0.182 0.807,-0.196 1.155,-0.039 0.915,0.422 1.19,1.128 0.84,2.162 -0.251,0.741 -0.85,2.026 -1.063,2.472 0.5,0.216 1.881,0.855 2.114,1.443" />
          </g>
          <g
             transform="translate(435.1777,250.3689)"
             id="g4382">
            <path
               inkscape:connector-curvature="0"
               id="path4384"
               style="fill:#35ae95;fill-opacity:1;fill-rule:nonzero;stroke:none"
               d="m 0,0 -0.162,-0.065 0.076,-0.16 c 0.008,-0.016 0.828,-1.722 1.122,-2.59 0.298,-0.879 0.099,-1.406 -0.666,-1.756 -0.326,-0.151 -0.659,-0.062 -0.88,0.039 -0.599,0.27 -1.153,0.952 -1.378,1.697 -0.382,1.26 -1.053,2.152 -1.082,2.189 l -0.063,0.084 -5.975,-1.276 -0.083,-0.017 -0.034,-0.079 c -0.014,-0.031 -1.359,-3.128 -2.236,-4.166 -0.145,-0.169 -0.271,-0.326 -0.385,-0.466 -0.587,-0.729 -0.83,-1.03 -1.833,-1.078 -0.248,-0.002 -0.425,0.078 -0.557,0.266 -0.441,0.632 -0.212,2.178 0.265,3.304 0.902,2.136 2.616,6.095 3.308,7.403 0.735,1.391 1.182,2.214 1.204,2.252 0.796,1.379 2.977,4.367 4.335,4.367 l 0.034,0 C -4.595,9.932 -4.341,9.839 -4.235,9.672 -4.054,9.381 -4.283,8.854 -4.468,8.431 L -4.533,8.278 C -4.83,7.576 -7.89,0.933 -7.921,0.864 l -0.13,-0.282 4.794,0.797 -0.065,0.184 C -3.33,1.584 -4.063,3.679 -3.991,4.7 c 0.173,2.453 0.458,2.578 0.512,2.578 0.279,-0.039 1.083,-1.674 1.502,-2.916 0.303,-0.89 1.106,-2.448 1.14,-2.512 l 0.051,-0.1 0.11,0.011 C 0.37,1.856 1.923,1.818 2.098,1.44 2.107,1.418 2.116,1.384 2.093,1.326 1.93,0.912 0.724,0.294 0,0 m -0.69,1.924 c 0,0 -0.83,1.602 -1.13,2.492 -0.302,0.89 -1.205,3.026 -1.658,3.026 C -3.93,7.442 -4.08,5.78 -4.155,4.713 -4.23,3.645 -3.478,1.509 -3.478,1.509 L -7.771,0.797 c 0,0 3.088,6.704 3.389,7.416 0.302,0.713 0.904,1.84 -0.602,1.899 -1.506,0.059 -3.766,-3.144 -4.52,-4.45 0,0 -0.452,-0.831 -1.205,-2.255 -0.753,-1.424 -2.636,-5.814 -3.314,-7.417 -0.678,-1.601 -0.829,-3.856 0.452,-3.797 1.28,0.059 1.431,0.534 2.335,1.602 0.904,1.068 2.262,4.207 2.262,4.207 l 5.873,1.252 c 0,0 0.678,-0.891 1.054,-2.136 0.377,-1.246 1.582,-2.255 2.486,-1.84 0.905,0.415 1.055,1.069 0.753,1.958 -0.3,0.89 -1.13,2.611 -1.13,2.611 0,0 2.487,1.008 2.185,1.662 C 1.946,2.161 -0.69,1.924 -0.69,1.924" />
          </g>
          <g
             transform="translate(474.9668,257.6472)"
             id="g4386">
            <path
               inkscape:connector-curvature="0"
               id="path4388"
               style="fill:#35ae95;fill-opacity:1;fill-rule:nonzero;stroke:none"
               d="M 0,0 C -0.054,0 -0.34,-0.125 -0.512,-2.578 -0.584,-3.6 0.149,-5.694 0.157,-5.715 l 0.066,-0.184 -4.794,-0.797 0.13,0.282 c 0.031,0.068 3.09,6.712 3.387,7.414 l 0.066,0.152 c 0.184,0.424 0.414,0.951 0.232,1.242 -0.105,0.167 -0.359,0.259 -0.755,0.276 l -0.034,0 c -1.357,0 -3.54,-2.988 -4.336,-4.367 -0.023,-0.045 -0.471,-0.868 -1.203,-2.252 -0.659,-1.246 -1.711,-3.743 -2.407,-5.397 l -0.268,-0.633 c -0.477,-1.125 -0.707,-2.669 -0.265,-3.305 0.131,-0.188 0.314,-0.277 0.557,-0.265 1.003,0.048 1.247,0.349 1.833,1.077 0.115,0.142 0.239,0.297 0.384,0.467 0.876,1.035 1.596,2.773 1.604,2.791 l 0.032,0.08 0.086,0.018 6.001,1.28 0.055,-0.118 c 0.039,-0.084 0.964,-2.073 1.34,-3.317 0.226,-0.745 0.779,-1.428 1.38,-1.699 0.222,-0.098 0.558,-0.189 0.879,-0.037 0.765,0.351 0.964,0.875 0.666,1.755 -0.296,0.876 -1.394,3.733 -1.405,3.762 l -0.058,0.151 0.149,0.061 c 0.723,0.294 1.929,0.912 2.093,1.326 0.024,0.059 0.015,0.092 0.005,0.114 -0.175,0.378 -1.728,0.416 -2.773,0.32 l -0.111,-0.01 -0.05,0.099 C 2.608,-5.364 1.805,-3.807 1.503,-2.916 1.084,-1.675 0.279,-0.039 0,0" />
          </g>
          <g
             transform="translate(477.7559,252.2927)"
             id="g4390">
            <path
               inkscape:connector-curvature="0"
               id="path4392"
               style="fill:#35ae95;fill-opacity:1;fill-rule:nonzero;stroke:none"
               d="m 0,0 c 0,0 2.637,0.237 2.938,-0.415 0.301,-0.653 -2.185,-1.662 -2.185,-1.662 0,0 1.105,-2.878 1.407,-3.768 0.302,-0.889 0.151,-1.543 -0.753,-1.958 -0.904,-0.415 -2.109,0.593 -2.486,1.839 -0.376,1.246 -1.331,3.294 -1.331,3.294 l -5.873,-1.252 c 0,0 -0.726,-1.766 -1.63,-2.834 -0.903,-1.068 -1.055,-1.543 -2.335,-1.602 -1.28,-0.059 -1.13,2.195 -0.452,3.797 0.678,1.602 1.929,4.621 2.681,6.044 0.754,1.424 1.206,2.255 1.206,2.255 0.753,1.306 3.013,4.509 4.519,4.45 1.507,-0.059 0.904,-1.186 0.603,-1.899 -0.301,-0.712 -3.39,-7.416 -3.39,-7.416 l 4.294,0.712 c 0,0 -0.753,2.136 -0.678,3.204 0.075,1.067 0.226,2.73 0.678,2.73 0.452,0 1.355,-2.137 1.657,-3.027 C -0.828,1.603 0,0 0,0 m -2.787,5.683 c -0.46,0 -0.696,-0.807 -0.842,-2.882 -0.065,-0.915 0.441,-2.535 0.623,-3.084 l -3.795,-0.631 c 0.597,1.298 2.994,6.508 3.262,7.139 l 0.064,0.15 c 0.216,0.494 0.484,1.111 0.209,1.547 -0.169,0.27 -0.503,0.41 -1.021,0.431 -0.015,10e-4 -0.03,10e-4 -0.046,10e-4 -1.639,0 -3.939,-3.348 -4.623,-4.535 L -8.958,3.816 c 0,0 -0.452,-0.831 -1.206,-2.256 -0.666,-1.26 -1.722,-3.765 -2.42,-5.422 l -0.268,-0.633 c -0.504,-1.193 -0.757,-2.867 -0.232,-3.622 0.187,-0.267 0.458,-0.407 0.789,-0.407 0.018,0 0.035,0 0.055,0.002 1.151,0.052 1.46,0.435 2.075,1.198 0.111,0.139 0.235,0.292 0.378,0.461 0.81,0.958 1.467,2.434 1.623,2.797 l 5.659,1.209 c 0.208,-0.456 0.951,-2.105 1.268,-3.155 0.256,-0.844 0.869,-1.591 1.56,-1.902 0.408,-0.183 0.806,-0.196 1.153,-0.039 0.915,0.42 1.19,1.128 0.841,2.162 -0.259,0.766 -1.123,3.02 -1.353,3.624 0.489,0.21 1.891,0.855 2.126,1.448 0.051,0.13 0.05,0.258 -0.003,0.372 -0.312,0.676 -2.352,0.572 -2.99,0.522 -0.184,0.359 -0.82,1.628 -1.071,2.369 -0.01,0.031 -1.092,3.139 -1.813,3.139" />
          </g>
          <g
             transform="translate(477.6094,252.2185)"
             id="g4394">
            <path
               inkscape:connector-curvature="0"
               id="path4396"
               style="fill:#35ae95;fill-opacity:1;fill-rule:nonzero;stroke:none"
               d="m 0,0 0.051,-0.1 0.11,0.011 C 1.206,0.007 2.76,-0.031 2.935,-0.409 2.944,-0.432 2.953,-0.464 2.93,-0.523 2.766,-0.937 1.56,-1.556 0.837,-1.85 L 0.687,-1.91 0.745,-2.062 C 0.757,-2.09 1.854,-4.947 2.15,-5.823 2.448,-6.703 2.249,-7.228 1.484,-7.578 1.163,-7.73 0.827,-7.64 0.605,-7.541 c -0.6,0.27 -1.154,0.954 -1.379,1.699 -0.376,1.243 -1.301,3.233 -1.34,3.317 l -0.056,0.118 -6.001,-1.281 -0.086,-0.017 -0.032,-0.08 c -0.008,-0.019 -0.728,-1.756 -1.604,-2.791 -0.144,-0.17 -0.268,-0.325 -0.383,-0.467 -0.586,-0.728 -0.83,-1.029 -1.833,-1.077 -0.244,-0.012 -0.426,0.077 -0.558,0.265 -0.441,0.635 -0.212,2.179 0.266,3.304 l 0.267,0.634 c 0.696,1.653 1.748,4.15 2.407,5.396 0.733,1.384 1.18,2.208 1.204,2.252 0.795,1.379 2.978,4.368 4.336,4.368 l 0.034,0 C -3.758,8.082 -3.504,7.989 -3.398,7.822 -3.217,7.531 -3.446,7.005 -3.631,6.581 L -3.696,6.429 C -3.993,5.727 -7.053,-0.917 -7.084,-0.985 l -0.13,-0.283 4.794,0.797 -0.065,0.185 c -0.008,0.02 -0.742,2.115 -0.669,3.137 0.172,2.453 0.458,2.578 0.511,2.578 C -2.363,5.39 -1.559,3.754 -1.14,2.513 -0.838,1.622 -0.034,0.064 0,0 m -2.641,5.593 c -0.452,0 -0.602,-1.662 -0.677,-2.73 -0.076,-1.068 0.677,-3.204 0.677,-3.204 l -4.294,-0.712 c 0,0 3.089,6.704 3.39,7.416 0.302,0.713 0.904,1.84 -0.602,1.9 -1.506,0.058 -3.766,-3.145 -4.52,-4.45 0,0 -0.451,-0.832 -1.205,-2.255 -0.753,-1.424 -2.004,-4.443 -2.682,-6.044 -0.677,-1.603 -0.828,-3.857 0.452,-3.798 1.281,0.059 1.432,0.534 2.335,1.602 0.905,1.068 1.63,2.834 1.63,2.834 l 5.873,1.252 c 0,0 0.955,-2.048 1.331,-3.294 0.377,-1.246 1.582,-2.254 2.487,-1.839 0.903,0.416 1.054,1.069 0.753,1.958 -0.302,0.89 -1.408,3.768 -1.408,3.768 0,0 2.487,1.009 2.185,1.662 -0.301,0.653 -2.938,0.415 -2.938,0.415 0,0 -0.828,1.603 -1.129,2.492 -0.302,0.89 -1.205,3.027 -1.658,3.027" />
          </g>
          <g
             transform="translate(519.2246,242.3298)"
             id="g4398">
            <path
               inkscape:connector-curvature="0"
               id="path4400"
               style="fill:#35ae95;fill-opacity:1;fill-rule:nonzero;stroke:none"
               d="m 0,0 -144.257,-0.89 c -1.959,0.006 -3.588,-3.421 -1.06,-3.42 L -0.512,-2.057 C 2.466,-1.87 1.282,0.001 0,0" />
          </g>
          <g
             transform="translate(332.5552,286.0681)"
             id="g4402">
            <path
               inkscape:connector-curvature="0"
               id="path4404"
               style="fill:#efa02a;fill-opacity:1;fill-rule:nonzero;stroke:none"
               d="m 0,0 9.23,-8.944 0,61.973 L 0,48.465 0,0 Z" />
          </g>
          <g
             transform="translate(262.1396,277.4323)"
             id="g4406">
            <path
               inkscape:connector-curvature="0"
               id="path4408"
               style="fill:#35ae95;fill-opacity:1;fill-rule:nonzero;stroke:none"
               d="m 0,0 16.595,-16.596 6.527,6.528 L 9.23,3.823 9.23,57.137 0,61.701 0,0 Z" />
          </g>
          <g
             transform="translate(301.9629,237.6091)"
             id="g4410">
            <path
               inkscape:connector-curvature="0"
               id="path4412"
               style="fill:#2caee4;fill-opacity:1;fill-rule:nonzero;stroke:none"
               d="M 0,0 37.021,37.021 30.494,43.548 0,13.054 -14.071,27.125 -20.598,20.598 0,0 Z" />
          </g>
        </g>
      </g>
    </g>
  </g>
</svg>
