<?xml version="1.0" encoding="UTF-8"?>
<svg width="1920px" height="550px" viewBox="0 0 1920 550" version="1.1" xmlns="http://www.w3.org/2000/svg" xmlns:xlink="http://www.w3.org/1999/xlink">
    <!-- Generator: Sketch 46.2 (44496) - http://www.bohemiancoding.com/sketch -->
    <title>bg</title>
    <desc>Created with Sketch.</desc>
    <defs>
        <rect id="path-1" x="0" y="0" width="1920" height="550"></rect>
        <polygon id="path-3" points="0.698225 352 670.944725 352 670.944725 1.3102375 0.698225 1.3102375"></polygon>
        <polygon id="path-5" points="0.4302375 173.25 319.212987 173.25 319.212987 0.4203375 0.4302375 0.4203375"></polygon>
    </defs>
    <g id="Page-1" stroke="none" stroke-width="1" fill="none" fill-rule="evenodd">
        <g id="screen-2.0">
            <g id="bg">
                <mask id="mask-2" fill="white">
                    <use xlink:href="#path-1"></use>
                </mask>
                <use id="Mask" fill="#D8D8D8" xlink:href="#path-1"></use>
                <g mask="url(#mask-2)">
                    <g transform="translate(-574.000000, -56.000000)">
                        <polygon id="Fill-1" stroke="none" fill="#5BA9D7" fill-rule="evenodd" points="40 606 2505 606 2505 56 40 56"></polygon>
                        <g id="Group-108" stroke="none" stroke-width="1" fill="none" fill-rule="evenodd">
                            <g id="Group-68" transform="translate(280.500000, 254.000000)">
                                <mask id="mask-4" fill="white">
                                    <use xlink:href="#path-3"></use>
                                </mask>
                                <g id="Clip-67"></g>
                                <path d="M0.698225,340.492487 C0.698225,527.816987 150.738225,679.674737 335.821475,679.674737 C520.904725,679.674737 670.944725,527.816987 670.944725,340.492487 C670.944725,153.167988 520.904725,1.3102375 335.821475,1.3102375 C150.738225,1.3102375 0.698225,153.167988 0.698225,340.492487" id="Fill-66" fill="#89BCE1" mask="url(#mask-4)"></path>
                            </g>
                            <g id="Group-71" transform="translate(456.500000, 432.750000)">
                                <mask id="mask-6" fill="white">
                                    <use xlink:href="#path-5"></use>
                                </mask>
                                <g id="Clip-70"></g>
                                <path d="M159.821612,0.4203375 C71.7927375,0.4203375 0.4302375,72.6463375 0.4302375,161.742213 C0.4302375,250.838088 71.7927375,323.064088 159.821612,323.064088 C247.850487,323.064088 319.212987,250.838088 319.212987,161.742213 C319.212987,72.6463375 247.850487,0.4203375 159.821612,0.4203375 M159.821612,32.0453375 C230.272487,32.0453375 287.587987,90.2270875 287.587987,161.742213 C287.587987,233.257338 230.272487,291.439088 159.821612,291.439088 C89.3707375,291.439088 32.0552375,233.257338 32.0552375,161.742213 C32.0552375,90.2270875 89.3707375,32.0453375 159.821612,32.0453375" id="Fill-69" fill="#FFFFFE" mask="url(#mask-6)"></path>
                            </g>
                            <path d="M680.841837,128.636025 L638.414837,171.063025" id="Stroke-72" stroke="#357198" stroke-width="3"></path>
                            <path d="M638.414288,128.636025 L680.841288,171.063025" id="Stroke-74" stroke="#357198" stroke-width="3"></path>
                            <g id="Group-97" transform="translate(951.125000, 0.000000)" fill="#89BCE1">
                                <path d="M5.33985,84.2888375 C-13.356025,146.335713 21.786225,211.791213 83.8331,230.487088 C145.879975,249.182963 211.3341,214.040713 230.03135,151.993838 C248.727225,89.9469625 213.584975,24.4914625 151.5381,5.7955875 C89.491225,-12.9002875 24.035725,22.2419625 5.33985,84.2888375" id="Fill-95"></path>
                                <path d="M1086.02032,588.513567 C1067.32444,650.560442 1102.46669,716.015942 1164.51357,734.711817 C1226.56044,753.407692 1292.01457,718.265442 1310.71182,656.218567 C1329.40769,594.171692 1294.26544,528.716192 1232.21857,510.020317 C1170.17169,491.324442 1104.71619,526.466692 1086.02032,588.513567" id="Fill-95"></path>
                            </g>
                            <polyline id="Stroke-98" stroke="#357198" stroke-width="3" points="1125.51271 143.612663 1170.47659 179.742163 1216.76459 143.612663"></polyline>
                            <polyline id="Stroke-100" stroke="#357198" stroke-width="3" points="1125.51271 189.559662 1170.47659 225.689162 1216.76459 189.559662"></polyline>
                            <polyline id="Stroke-102" stroke="#357198" stroke-width="3" points="1125.51271 235.50735 1170.47659 271.63685 1216.76459 235.50735"></polyline>
                            <polyline id="Stroke-104" stroke="#FFFFFE" stroke-width="3" points="815.7798 408.446462 848.9558 440.585712 917.4748 372.640087"></polyline>
                            <path d="M1106.09926,526.066937 C1106.09926,540.284437 1094.57264,551.811062 1080.35514,551.811062 C1066.13764,551.811062 1054.61239,540.284437 1054.61239,526.066937 C1054.61239,511.849437 1066.13764,500.324187 1080.35514,500.324187 C1094.57264,500.324187 1106.09926,511.849437 1106.09926,526.066937 Z" id="Stroke-106" stroke="#357198" stroke-width="3"></path>
                        </g>
                        <g id="Group-5" stroke="none" stroke-width="1" fill="none" fill-rule="evenodd" transform="translate(2421.500000, 246.500000) scale(-1, -1) translate(-2421.500000, -246.500000) translate(2128.000000, 117.000000)">
                            <polyline id="Stroke-76" stroke="#FFFFFE" stroke-width="3" points="433.162125 27 305.430125 27 232.68575 89.206375 0 90.518125"></polyline>
                            <path d="M533.622375,146 L0,147.31175" id="Stroke-79" stroke="#357198" stroke-width="3"></path>
                            <polyline id="Stroke-82" stroke="#357198" stroke-width="3" points="327.2885 232.1675 263.184625 232.1675 230.553125 202 0 203.310375"></polyline>
                            <path d="M432,26.11675 C432,11.693 443.693,0 458.11675,0 C472.5405,0 484.2335,11.693 484.2335,26.11675 C484.2335,40.5405 472.5405,52.234875 458.11675,52.234875 C443.693,52.234875 432,40.5405 432,26.11675 Z" id="Stroke-85" stroke="#FFFFFE" stroke-width="3"></path>
                            <path d="M534,146.11675 C534,131.693 545.693,120 560.11675,120 C574.5405,120 586.2335,131.693 586.2335,146.11675 C586.2335,160.5405 574.5405,172.2335 560.11675,172.2335 C545.693,172.2335 534,160.5405 534,146.11675 Z" id="Stroke-89" stroke="#357198" stroke-width="3"></path>
                            <path d="M326,232.11675 C326,217.693 337.693,206 352.11675,206 C366.5405,206 378.234875,217.693 378.234875,232.11675 C378.234875,246.5405 366.5405,258.2335 352.11675,258.2335 C337.693,258.2335 326,246.5405 326,232.11675 Z" id="Stroke-93" stroke="#357198" stroke-width="3"></path>
                        </g>
                        <polyline id="Stroke-98" stroke="#357198" stroke-width="3" fill="none" points="2048 424 2092.96387 460.1295 2139.25187 424"></polyline>
                        <polyline id="Stroke-100" stroke="#357198" stroke-width="3" fill="none" points="2048 470 2092.96387 506.1295 2139.25187 470"></polyline>
                        <polyline id="Stroke-102" stroke="#357198" stroke-width="3" fill="none" points="2048 516 2092.96387 552.1295 2139.25187 516"></polyline>
                        <path d="M1922.48688,136.74275 C1922.48688,150.96025 1910.96025,162.486875 1896.74275,162.486875 C1882.52525,162.486875 1871,150.96025 1871,136.74275 C1871,122.52525 1882.52525,111 1896.74275,111 C1910.96025,111 1922.48688,122.52525 1922.48688,136.74275 Z" id="Stroke-106" stroke="#357198" stroke-width="3" fill="none"></path>
                    </g>
                </g>
            </g>
        </g>
    </g>
</svg>