<?xml version="1.0" encoding="UTF-8"?>
<svg width="567px" height="236px" viewBox="0 0 567 236" version="1.1" xmlns="http://www.w3.org/2000/svg" xmlns:xlink="http://www.w3.org/1999/xlink">
    <!-- Generator: Sketch 46.2 (44496) - http://www.bohemiancoding.com/sketch -->
    <title>logo</title>
    <desc>Created with Sketch.</desc>
    <defs></defs>
    <g id="Page-1" stroke="none" stroke-width="1" fill="none" fill-rule="evenodd">
        <g id="screen-2.0" transform="translate(-700.000000, -146.000000)">
            <g id="logo" transform="translate(699.000000, 146.000000)">
                <path d="M237.087625,169.317475 C235.85425,168.00985 220.406125,168.959975 212.070875,168.98335 C209.28375,168.9916 207.169,168.56535 204.53175,169.09885 C201.769375,169.658475 204.695375,174.0296 204.9415,174.781725 C205.134,175.3716 205.156,175.99035 205.134,176.593975 C204.947,181.596225 204.530375,186.598475 204.57575,191.600725 C204.634875,198.08935 205.033625,204.57935 205.344375,211.067975 C205.396625,212.178975 205.65375,213.292725 205.96175,214.392725 C206.246375,215.410225 207.01775,216.2971 208.4175,217.00935 C209.865375,217.74635 209.202625,217.6446 210.915875,217.2706 C214.474375,216.49235 215.44925,211.5946 215.412125,210.454725 C215.255375,205.51985 215.249875,200.58085 214.91575,195.6501 C214.496375,189.43235 214.48675,185.833975 214.66825,179.610725 C214.68475,179.03735 214.76725,178.4626 214.848375,177.8906 C214.886875,177.62385 214.9955,177.361225 215.09175,177.0271 C215.557875,176.989975 216.00475,176.926725 216.453,176.921225 C218.626875,176.89785 225.625625,177.10135 227.7995,177.1041 C229.69975,177.10685 229.830375,177.1646 229.838625,178.241225 C229.866125,181.656725 229.426125,182.454225 229.488,185.869725 C229.60075,192.224975 229.76575,198.580225 229.932125,204.935475 C229.9775,206.62535 230.07375,208.315225 230.212625,210.00235 C230.264875,210.641725 230.467,211.27835 230.663625,211.909475 C231.006,213.014975 232.110125,213.4536 234.059875,213.2776 C236.45925,213.06035 239.55575,211.7101 239.55575,208.9656 C238.9205,201.77435 239.529625,194.17885 238.893,186.9876 C238.61525,183.8471 238.402125,180.705225 238.182125,177.564725 C238.072125,175.972475 238.319625,170.6251 237.087625,169.317475" id="Fill-2" fill="#FFFFFE"></path>
                <path d="M207.433138,169.326825 C206.522888,169.326825 205.603013,169.384575 204.618513,169.58395 C204.072638,169.695325 203.953013,169.962075 203.911763,170.05145 C203.514388,170.9342 204.526388,172.893575 205.015888,173.836825 C205.200138,174.194325 205.340388,174.474825 205.389887,174.623325 C205.616763,175.3287 205.626387,176.053325 205.607138,176.608825 C205.542513,178.2602 205.460013,179.90745 205.372013,181.556075 C205.197388,184.8492 205.015888,188.25645 205.048888,191.59495 C205.094263,196.736075 205.362387,201.966575 205.616763,207.0252 L205.816138,211.044325 C205.867013,212.177325 206.148888,213.299325 206.417013,214.250825 C206.675513,215.18445 207.396013,215.9407 208.625263,216.563575 C208.865887,216.690075 209.051512,216.79045 209.198638,216.8702 C209.586388,217.077825 209.586388,217.0902 210.030512,216.976075 C210.220263,216.9252 210.474638,216.8592 210.815638,216.78495 C214.029013,216.0837 214.976388,211.60945 214.943388,210.469575 C214.892513,208.871825 214.855387,207.271325 214.819638,205.6722 C214.745388,202.395575 214.671137,199.007575 214.444262,195.682825 C214.015263,189.2987 214.019388,185.7127 214.194012,179.5967 C214.213263,179.034325 214.287512,178.478825 214.361763,177.939825 L214.365887,177.9357 L214.379637,177.8092 C214.412638,177.60845 214.477263,177.40495 214.546013,177.178075 L214.735762,176.55795 L215.503012,176.49195 C215.947138,176.446575 216.307388,176.4177 216.871138,176.424575 C218.220013,176.424575 220.619387,176.47545 222.948638,176.523575 C224.950638,176.567575 226.845387,176.606075 227.801013,176.608825 C229.566513,176.611575 230.296637,176.611575 230.311762,178.23545 C230.325513,179.928075 230.223763,180.9937 230.126137,182.023575 C230.024388,183.112575 229.928137,184.138325 229.959763,185.859825 C230.071137,192.2137 230.241638,198.6762 230.403887,204.922825 C230.450638,206.539825 230.542763,208.233825 230.685763,209.958075 C230.727013,210.5122 230.897513,211.069075 231.083138,211.65895 C231.277012,212.295575 231.785763,212.980325 234.017388,212.7837 C236.056513,212.59945 239.084263,211.43345 239.084263,208.9667 C238.769388,205.39995 238.759762,201.636575 238.755638,197.99695 C238.746012,194.365575 238.741888,190.611825 238.422888,187.0327 C238.182263,184.2882 237.988388,181.54095 237.794512,178.7937 L237.710638,177.601575 C237.687262,177.25645 237.679013,176.740825 237.669388,176.1262 C237.641888,174.18195 237.591013,170.558825 236.753638,169.66645 C235.903887,168.8882 226.923763,169.13295 220.355387,169.307575 C217.305638,169.392825 214.426388,169.472575 212.069638,169.4767 C211.163513,169.453325 210.322013,169.4382 209.517638,169.39695 C208.810888,169.3612 208.126137,169.326825 207.433138,169.326825 M209.605637,218.05545 C209.355387,218.05545 209.157387,217.963325 208.764138,217.74745 C208.621138,217.671825 208.445138,217.575575 208.210013,217.45595 C206.748388,216.712075 205.843638,215.727575 205.510888,214.52995 C205.229012,213.5262 204.927888,212.32995 204.872887,211.093825 L204.674887,207.076075 C204.420513,202.007825 204.152388,196.7677 204.105637,191.604575 C204.072638,188.2317 204.252762,184.809325 204.428763,181.501075 C204.516762,179.85795 204.604763,178.21345 204.665263,176.573075 C204.679013,176.075325 204.674887,175.49095 204.493388,174.94095 C204.456263,174.8227 204.336638,174.598575 204.184012,174.30845 C203.541888,173.058575 202.455638,170.965825 203.060637,169.62795 C203.301262,169.0917 203.767388,168.7507 204.442513,168.6132 C206.278138,168.237825 207.871763,168.320325 209.564388,168.408325 C210.326138,168.446825 211.116763,168.488075 211.976138,168.488075 L212.069638,168.488075 C214.412638,168.4812 217.287762,168.402825 220.327887,168.31895 C230.339263,168.0467 236.467638,167.951825 237.419138,168.96795 C238.446263,170.05145 238.570013,172.965075 238.611263,176.11245 C238.620888,176.70095 238.630513,177.1987 238.653887,177.527325 L238.736388,178.720825 C238.931637,181.4612 239.120013,184.204325 239.364763,186.94195 C239.685137,190.56645 239.693388,194.3422 239.697512,197.99695 C239.703013,201.614575 239.712637,205.3532 240.026138,208.91995 C240.026138,211.90095 236.953013,213.511075 234.101263,213.7682 C233.277638,213.8452 230.834263,214.05695 230.214138,212.0632 C229.992762,211.34545 229.798888,210.70745 229.742512,210.043325 C229.599513,208.299825 229.507388,206.5852 229.460638,204.9517 C229.299763,198.699575 229.127888,192.237075 229.016512,185.879075 C228.984888,184.099825 229.086638,182.9957 229.188387,181.927325 C229.286013,180.923575 229.382263,179.8827 229.368513,178.24645 C229.364388,177.93845 229.349263,177.758325 229.317637,177.71295 C229.192513,177.601575 228.356513,177.598825 227.801013,177.598825 C226.839888,177.598825 224.941012,177.557575 222.930763,177.516325 C220.341637,177.45995 217.689263,177.414575 216.460013,177.41595 C216.168513,177.4187 215.882513,177.447575 215.591013,177.47645 L215.442513,177.494325 C215.387513,177.6662 215.336638,177.816075 215.313263,177.970075 C215.225262,178.616325 215.156513,179.12095 215.138638,179.628325 C214.962638,185.70445 214.957138,189.2712 215.387513,195.61545 C215.614388,198.9622 215.687262,202.3612 215.761513,205.6502 C215.798638,207.2452 215.835763,208.84295 215.886637,210.43795 C215.923763,211.808825 214.851263,216.912825 211.010888,217.754325 C210.682263,217.8272 210.441638,217.8877 210.257388,217.9372 C209.965888,218.01145 209.772013,218.05545 209.605637,218.05545" id="Fill-4" fill="#FFFFFE"></path>
                <path d="M414.22365,182.30545 C413.650275,184.2057 413.072775,186.10595 412.63415,188.0172 C411.8119,191.604575 411.7514,195.215325 412.019525,198.82195 C412.2904,202.4327 412.4334,205.167575 415.8489,208.038575 C419.593025,211.184575 426.127025,208.869075 429.402275,203.366325 C433.084525,197.18295 434.9174,190.977575 432.6459,184.86295 C431.48815,181.743075 428.22115,175.489575 422.2619,176.69545 C418.6924,177.4187 414.379025,181.78845 414.22365,182.30545 M443.347525,189.03745 C443.4369,195.4037 441.5559,201.446825 437.578025,207.1407 C436.073775,209.29395 434.159775,211.2547 431.7549,212.92945 C430.664525,213.689825 429.358275,214.3127 428.0589,214.8902 C426.281025,215.67945 424.298275,215.832075 422.20415,215.8362 C417.6144,215.845825 413.98165,214.501075 410.52765,212.4097 C406.5044,209.9732 404.528525,206.781825 403.032525,203.34845 C401.7029,200.29595 401.1364,197.143075 401.1694,193.9407 C401.214775,189.5077 401.40865,185.084325 402.66265,180.720075 C403.36115,178.289075 404.234275,175.91445 406.371025,173.894575 C407.418775,172.904575 408.359275,171.826575 409.607775,170.987825 C410.699525,170.2522 412.118525,169.747575 413.74515,169.758575 C415.1834,169.7682 416.631275,169.813575 418.061275,169.728325 C420.2764,169.593575 422.4874,169.3887 424.691525,169.16595 C427.614775,168.86895 430.329025,169.24295 432.79165,170.415825 C435.419275,171.6657 437.32915,173.38995 438.84165,175.352075 C441.788275,179.1732 443.4424,183.2432 443.35165,187.6432 C443.342025,188.10795 443.3489,188.5727 443.347525,189.03745" id="Fill-6" fill="#FFFFFE"></path>
                <path d="M414.665437,182.482 L414.614562,182.634625 C414.074187,184.435875 413.510438,186.30175 413.089688,188.131875 C412.369187,191.272375 412.179437,194.657625 412.492938,198.782625 L412.508062,198.97925 C412.766562,202.45525 412.950812,204.96875 416.144937,207.65275 C417.471812,208.773375 419.301938,209.19 421.275062,208.838 C424.251937,208.30725 427.213687,206.11 429.002562,203.105625 C433.167437,196.1055 434.183562,190.364875 432.204938,185.04225 C431.410188,182.8945 428.405812,176.00025 422.351687,177.181375 C419.014562,177.857875 414.998187,181.8935 414.665437,182.482 L414.665437,182.482 Z M419.934438,209.95175 C418.266562,209.95175 416.749938,209.427875 415.553687,208.424125 C412.040562,205.472 411.831563,202.640875 411.564812,199.0535 L411.551062,198.859625 C411.232062,194.62875 411.430062,191.145875 412.173938,187.8995 C412.604312,186.033625 413.168063,184.155375 413.718062,182.337625 L413.774438,182.15475 C414.017812,181.347625 418.566312,176.94075 422.175687,176.210625 C428.882937,174.8315 432.220062,182.351375 433.083562,184.68475 C435.181812,190.32225 434.136812,196.343375 429.806937,203.6295 C427.846187,206.91575 424.718062,209.2285 421.431812,209.815625 C420.923062,209.905 420.423938,209.95175 419.934438,209.95175 L419.934438,209.95175 Z M413.686437,170.25275 C411.938813,170.25275 410.644937,170.877 409.858437,171.40225 C408.985312,171.994875 408.268937,172.703 407.515437,173.452375 C407.239062,173.72325 406.965438,173.9955 406.683562,174.260875 C404.561937,176.267 403.757562,178.621 403.116812,180.86225 C401.835313,185.321375 401.682687,189.9565 401.641437,193.94675 C401.609813,197.204125 402.218938,200.297875 403.463313,203.14275 C404.755812,206.11 406.638188,209.4815 410.764562,211.98125 C414.600812,214.303625 418.118062,215.34175 422.152312,215.34175 L422.203187,215.34175 C424.097937,215.337625 426.099937,215.224875 427.875062,214.435625 C429.325687,213.788 430.499937,213.21325 431.494062,212.5175 C433.744937,210.95275 435.663062,209.04425 437.201687,206.847 C441.051687,201.329125 442.965688,195.339625 442.877687,189.0435 L442.877687,188.690125 C442.877687,188.335375 442.872187,187.983375 442.881812,187.63275 C442.965688,183.5325 441.523312,179.6165 438.476312,175.660625 C436.841437,173.539 434.917812,171.970125 432.598187,170.867375 C430.286813,169.76875 427.620687,169.363125 424.737312,169.656 C422.925063,169.844375 420.531188,170.074 418.090562,170.221125 C416.949313,170.289875 415.788812,170.270625 414.665437,170.262375 L413.741437,170.25275 L413.686437,170.25275 Z M422.152312,216.33175 C417.942062,216.33175 414.281812,215.252375 410.292937,212.83925 C405.934188,210.200625 403.961062,206.6655 402.602563,203.55525 C401.304562,200.577 400.666562,197.34025 400.698188,193.937125 C400.740813,189.875375 400.897563,185.159125 402.209313,180.57625 C402.862437,178.306125 403.753438,175.704625 406.055188,173.523875 C406.328812,173.265375 406.595563,172.998625 406.863687,172.734625 C407.621312,171.98525 408.398187,171.213875 409.351062,170.567625 C410.242062,169.97225 411.713313,169.264125 413.686437,169.264125 L413.749687,169.264125 L414.675063,169.27375 C415.775062,169.283375 416.925937,169.305375 418.035562,169.2325 C420.461062,169.08675 422.841187,168.857125 424.643812,168.672875 C427.708688,168.358 430.532937,168.79525 432.985937,169.964 C435.444437,171.134125 437.479438,172.795125 439.207812,175.0405 C442.400562,179.18475 443.913062,183.30975 443.825063,187.652 C443.819562,187.9985 443.819562,188.340875 443.819562,188.687375 L443.819562,189.0325 C443.907562,195.5445 441.938562,201.736125 437.959312,207.434125 C436.356063,209.7235 434.359563,211.71175 432.016562,213.341125 C430.961938,214.078125 429.746438,214.677625 428.244937,215.34725 C426.313062,216.20525 424.201062,216.32625 422.203187,216.33175 L422.152312,216.33175 Z" id="Fill-8" fill="#FFFFFE"></path>
                <path d="M138.934212,185.251525 C138.983713,184.709775 139.056587,184.3124 139.049713,183.9164 C138.978212,180.15165 138.869587,180.892775 138.824213,177.12665 C138.807712,175.750275 138.939712,173.206525 138.993337,171.828775 C139.040087,170.662775 141.025587,167.533275 144.563463,168.009025 C146.566837,168.278525 149.297587,170.426275 149.117462,171.8494 C148.992337,172.835275 149.861337,199.1569 149.791212,207.328525 C149.774712,209.4144 149.476337,211.489275 148.538587,213.516025 C148.010588,215.779275 143.507462,216.260525 142.429462,215.416275 C139.948963,213.47065 138.000587,208.6664 138.132587,204.9429 C138.259087,201.3129 138.479088,197.6829 138.666088,194.0529 C138.737587,192.651775 138.697712,191.9519 136.474337,192.418025 C132.926838,193.163275 128.683588,193.856275 124.488462,194.367775 C122.751838,194.57815 122.621213,194.41865 122.577213,195.4829 C122.409463,199.4154 123.442087,213.2314 120.100838,215.4039 C119.168588,216.0089 114.670963,215.779275 112.723963,213.2314 C111.791713,212.011775 111.190838,207.193775 111.183963,203.407025 C111.179838,201.592025 111.270588,199.77565 111.370963,197.962025 C111.556588,194.601525 111.831588,191.243775 111.975963,187.883275 C112.116213,184.65615 112.186338,181.42765 112.195963,178.200525 C112.664838,168.627775 116.523088,167.863275 118.844087,168.627775 C120.554588,169.191525 121.732963,170.8539 122.463088,171.9319 C122.799963,172.4269 122.441088,175.13015 122.439712,175.898775 C122.432838,178.4879 122.480963,183.33065 122.545587,185.919775 C122.564838,186.720025 122.724338,186.808025 124.078712,186.940025 C126.792963,187.204025 138.351213,185.15115 138.934212,185.251525" id="Fill-10" fill="#FFFFFE"></path>
                <path d="M137.597575,191.7814 C138.0967,191.7814 138.452825,191.895525 138.7072,192.1279 C139.21595,192.591275 139.173325,193.3489 139.137575,194.0804 L138.9712,197.194775 C138.832325,199.7839 138.69345,202.37165 138.59995,204.963525 C138.4762,208.5674 140.3627,213.172275 142.71395,215.02165 C143.14845,215.361275 144.8452,215.49465 146.389325,214.913025 C146.933825,214.706775 147.885325,214.233775 148.080575,213.39915 C148.9207,211.55665 149.3057,209.657775 149.318075,207.325775 C149.3607,202.628775 149.087075,192.0069 148.875325,183.4764 C148.685575,176.09265 148.59345,172.219275 148.64845,171.7834 C148.68145,171.5359 148.542575,171.18665 148.264825,170.80715 C147.456325,169.705775 145.7692,168.671775 144.502825,168.4999 C142.8212,168.29365 141.5727,168.97565 140.8522,169.6109 C139.93645,170.423525 139.484075,171.427275 139.464825,171.8494 L139.423575,172.799525 C139.36445,174.1649 139.2847,176.0349 139.294325,177.12115 C139.3177,179.061275 139.35895,179.798275 139.404325,180.579275 C139.442825,181.313525 139.4882,182.08765 139.519825,183.90815 C139.525325,184.19415 139.492325,184.48565 139.456575,184.8239 L139.35345,185.823525 L138.873575,185.743775 C138.615075,185.746525 136.9142,185.9844 135.27795,186.22365 C131.308325,186.808025 125.84545,187.602775 124.037325,187.4309 C122.7297,187.305775 122.101325,187.1889 122.073825,185.933525 C122.0092,183.274275 121.96245,178.442525 121.966575,175.898775 C121.966575,175.673275 121.994075,175.2979 122.032575,174.86065 C122.087575,174.160775 122.2127,172.5204 122.068325,172.202775 C121.468825,171.3159 120.330325,169.6384 118.699575,169.10215 C118.05195,168.883525 116.77595,168.65115 115.5797,169.53115 C113.892575,170.761775 112.8847,173.7689 112.668825,178.2239 C112.6592,181.42215 112.58495,184.68915 112.446075,187.9039 C112.358075,189.95265 112.2247,192.002775 112.085825,194.051525 C112.00195,195.363275 111.91395,196.677775 111.841075,197.992275 C111.739325,199.9214 111.651325,201.663525 111.65545,203.404275 C111.66095,207.4784 112.330575,211.92515 113.0937,212.924775 C114.904575,215.29665 119.161575,215.427275 119.85045,214.98315 C122.291075,213.397775 122.170075,203.973525 122.10545,198.910775 C122.087575,197.491775 122.073825,196.270775 122.10545,195.459525 C122.16045,194.18215 122.582575,194.073525 123.7967,193.944275 L124.430575,193.87415 C128.558325,193.375025 132.8002,192.68615 136.382075,191.934025 C136.863325,191.832275 137.264825,191.7814 137.597575,191.7814 M144.16045,216.301775 C143.3107,216.301775 142.566825,216.139525 142.1502,215.815025 C139.580325,213.7979 137.5247,208.81215 137.658075,204.927775 C137.7502,202.32765 137.889075,199.733025 138.02795,197.1384 L138.194325,194.026775 C138.2177,193.603275 138.249325,193.020275 138.087075,192.877275 C137.990825,192.7879 137.68145,192.671025 136.5677,192.904775 C132.96245,193.661025 128.6917,194.354025 124.54195,194.85865 L123.8902,194.931525 C123.534075,194.967275 123.1642,195.00715 123.080325,195.06215 C123.0762,195.0869 123.058325,195.242275 123.0487,195.503525 C123.017075,196.284525 123.02945,197.494525 123.0487,198.89565 C123.14495,206.5104 123.017075,214.090775 120.349575,215.82465 C119.202825,216.5644 114.442575,216.2729 112.35395,213.54215 C111.230575,212.06265 110.7177,206.726275 110.713575,203.407025 C110.708075,201.638775 110.796075,199.8829 110.897825,197.9359 C110.972075,196.617275 111.060075,195.300025 111.148075,193.9814 C111.28145,191.942275 111.414825,189.901775 111.502825,187.8599 C111.6417,184.657525 111.71595,181.40565 111.725575,178.197775 C111.9607,173.333025 113.07445,170.151275 115.039325,168.718525 C116.5642,167.6034 118.168825,167.8894 118.985575,168.15615 C120.913325,168.7914 122.22095,170.71915 122.8452,171.644525 C123.140825,172.076275 123.12295,173.011275 122.970325,174.9404 C122.937325,175.3474 122.909825,175.698025 122.909825,175.901525 C122.904325,178.437025 122.95245,183.255025 123.017075,185.908775 C123.0212,186.172775 123.044575,186.2429 123.058325,186.2594 C123.154575,186.3529 123.806325,186.41615 124.1212,186.4464 C125.86745,186.6279 131.4417,185.790525 135.1487,185.24465 C137.0242,184.9669 137.996325,184.8294 138.5092,184.778525 C138.513325,184.7524 138.51745,184.72765 138.51745,184.704275 C138.554575,184.4169 138.582075,184.17215 138.57795,183.93015 C138.54495,182.12615 138.5037,181.36165 138.46245,180.637025 C138.4157,179.84365 138.37445,179.099775 138.351075,177.133525 C138.342825,176.017025 138.4212,174.130525 138.4817,172.75415 L138.52295,171.80815 C138.55045,171.072525 139.151325,169.8199 140.2472,168.85465 C141.106575,168.0929 142.54345,167.2294 144.62245,167.519525 C146.12945,167.72165 148.0572,168.900025 149.0087,170.20215 C149.45695,170.811275 149.6522,171.3874 149.582075,171.914025 C149.5367,172.351275 149.6742,177.741275 149.818575,183.4489 C150.035825,191.9904 150.30395,202.617775 150.261325,207.33265 C150.24345,209.81865 149.83095,211.852275 148.963325,213.7319 C148.76945,214.599525 147.978825,215.364025 146.70695,215.8439 C145.894325,216.14915 144.978575,216.301775 144.16045,216.301775" id="Fill-12" fill="#FFFFFE"></path>
                <path d="M16.4041125,180.482612 C16.3504875,179.800612 16.2721125,179.301487 16.2803625,178.802362 C16.3546125,174.062737 16.4687375,169.324487 16.5168625,164.584862 C16.5333625,162.852362 16.3958625,161.118487 16.3367375,159.385987 C16.2872375,157.917487 14.4942375,153.932737 10.8862375,154.537737 C7.5009875,155.105612 5.3257375,160.066612 5.5182375,161.858237 C5.6516125,163.098487 5.4728625,164.297487 5.3793625,165.517112 C5.1222375,168.896862 4.7358625,172.277987 4.7166125,175.659112 C4.6629875,185.944112 3.6537375,200.711612 3.7307375,210.997987 C3.7499875,213.622862 3.4309875,216.760612 4.4333625,219.313987 C5.9774875,223.236862 10.5878625,222.805112 12.0151125,221.898987 C15.9902375,219.373112 16.3284875,212.683737 16.1868625,207.997737 C16.0493625,203.427237 16.8922375,194.375612 16.6928625,189.807862 C16.6158625,188.045112 16.5938625,187.959862 19.0331125,187.750862 C23.2887375,187.386487 30.9516125,185.279987 35.2251125,185.039362 C37.0951125,184.934862 37.2188625,185.105362 37.2669875,186.443237 C37.4484875,191.394612 37.5846125,200.193237 37.8362375,205.141862 C37.9201125,206.786362 37.9723625,209.580362 38.0658625,211.231737 C38.2487375,214.401112 38.2349875,215.564362 39.2868625,217.648862 C41.4524875,221.941612 44.7978625,217.771237 45.8483625,216.691862 C48.1033625,213.130612 48.5144875,209.303987 48.5199875,204.538237 C48.5227375,202.252987 48.4251125,196.121862 48.3164875,193.836612 C48.1611125,190.521487 47.9452375,187.207737 47.7857375,183.892612 C47.7857375,183.892612 51.1696125,181.828737 51.1696125,178.663487 C51.0912375,176.536362 47.4901125,174.765362 47.4901125,174.765362 C47.4543625,172.832112 47.4337375,170.897487 47.4282375,168.962862 C47.4199875,166.086362 47.6234875,165.394737 47.6001125,162.518237 C47.7898625,157.480237 43.8504875,156.080487 41.3713625,157.041612 C37.6286125,158.235112 37.4099875,164.176487 37.4127375,165.143112 C37.4209875,168.401862 37.3646125,171.660612 37.2972375,174.920737 C37.2766125,175.927237 37.1061125,176.038612 35.6596125,176.203612 C32.7597375,176.534987 17.0269875,180.357487 16.4041125,180.482612" id="Fill-14" fill="#FFFFFE"></path>
                <path d="M11.6125125,154.971962 C11.3993875,154.971962 11.1821375,154.988462 10.9607625,155.028337 C7.9013875,155.539838 5.8168875,160.205212 5.9873875,161.802962 C6.0987625,162.828712 6.0066375,163.817337 5.9186375,164.775712 L5.8540125,165.556713 C5.7838875,166.431212 5.7110125,167.309837 5.6312625,168.184337 C5.4195125,170.638712 5.2022625,173.178337 5.1885125,175.660212 C5.1651375,180.403962 4.9382625,185.964462 4.7072625,191.852212 C4.4391375,198.537462 4.1627625,205.453712 4.2040125,210.993587 C4.2081375,211.524337 4.1985125,212.075712 4.1902625,212.636712 C4.1476375,214.869712 4.1063875,217.178337 4.8695125,219.125338 C5.3768875,220.412337 6.2788875,221.285462 7.5452625,221.724087 C9.2502625,222.311213 11.0666375,221.920712 11.7692625,221.475212 C14.6402625,219.651962 15.9286375,215.247838 15.7168875,208.011212 C15.6467625,205.800212 15.8035125,202.640462 15.9698875,199.290962 C16.1458875,195.797087 16.3260125,192.183587 16.2201375,189.832337 C16.1280125,187.644712 16.4827625,187.472837 18.9990125,187.258337 C20.9762625,187.086462 23.6657625,186.543338 26.5133875,185.967212 C29.6566375,185.331963 32.9043875,184.674712 35.2020125,184.545462 C36.3432625,184.475337 36.9221375,184.516587 37.3057625,184.882338 C37.6660125,185.228837 37.7113875,185.738962 37.7388875,186.425087 C37.8090125,188.391337 37.8736375,190.963963 37.9423875,193.663087 C38.0496375,197.829338 38.1555125,202.138587 38.3081375,205.116837 C38.3452625,205.867588 38.3768875,206.857587 38.4098875,207.868212 C38.4470125,209.071337 38.4827625,210.306087 38.5391375,211.201212 L38.5762625,211.895587 C38.7192625,214.508087 38.7797625,215.586087 39.7037625,217.417587 C40.1987625,218.392462 40.7762625,218.938337 41.4280125,219.037337 C42.7631375,219.221587 44.4365125,217.502837 45.2175125,216.661338 L45.5227625,216.338212 C47.6017625,213.028587 48.0417625,209.360087 48.0500125,204.539337 C48.0500125,202.161962 47.9537625,196.109212 47.8478875,193.862462 C47.7681375,192.205587 47.6760125,190.550087 47.5838875,188.895962 C47.4862625,187.234962 47.3941375,185.576712 47.3157625,183.917088 L47.3020125,183.617337 L47.5508875,183.467462 C47.5797625,183.446837 50.6982625,181.499837 50.6982625,178.663212 C50.6432625,177.189212 48.2218875,175.672587 47.2923875,175.214712 L47.0242625,175.084088 L47.0201375,174.776087 C46.9830125,172.838712 46.9596375,170.902713 46.9555125,168.965337 C46.9513875,167.542212 47.0022625,166.640212 47.0476375,165.769837 C47.0943875,164.845837 47.1397625,163.975462 47.1315125,162.520713 C47.2236375,159.993462 46.2432625,158.709212 45.4072625,158.072587 C44.3113875,157.239337 42.7906375,157.023462 41.5338875,157.506087 C37.9245125,158.658337 37.8818875,164.880212 37.8818875,165.144212 C37.8915125,168.519837 37.8323875,171.841837 37.7663875,174.931462 C37.7388875,176.340837 37.2122625,176.523712 35.7107625,176.696962 C33.4365125,176.955462 23.0277625,179.424962 18.5823875,180.476837 C17.4026375,180.757338 16.6230125,180.942962 16.4923875,180.969088 L15.9795125,181.068087 L15.8791375,179.928213 C15.8365125,179.508837 15.8035125,179.149962 15.8090125,178.791088 C15.8365125,177.015963 15.8695125,175.239463 15.9011375,173.464337 C15.9616375,170.502587 16.0166375,167.540837 16.0441375,164.579087 C16.0578875,163.439212 15.9987625,162.273212 15.9423875,161.145713 C15.9148875,160.562712 15.8832625,159.983837 15.8640125,159.402212 C15.8420125,158.721587 15.2686375,156.991837 13.9885125,155.890462 C13.2803875,155.279962 12.4856375,154.971962 11.6125125,154.971962 M9.3850125,223.005587 C8.6782625,223.005587 7.9426375,222.902462 7.2537625,222.664587 C5.7288875,222.139338 4.6055125,221.047587 4.0005125,219.503462 C3.1590125,217.363962 3.2057625,214.842212 3.2428875,212.618837 C3.2566375,212.066087 3.2648875,211.522963 3.2607625,211.003212 C3.2195125,205.435837 3.4972625,198.508587 3.7640125,191.808212 C3.9950125,185.930088 4.2177625,180.380587 4.2452625,175.656087 C4.2590125,173.130212 4.4803875,170.571337 4.6935125,168.094963 C4.7677625,167.221837 4.8461375,166.348712 4.9107625,165.478337 C4.9341375,165.211587 4.9575125,164.947587 4.9795125,164.683587 C5.0675125,163.733462 5.1458875,162.835587 5.0537625,161.911587 C4.8420125,159.950838 7.1300125,154.666712 10.8122625,154.047962 C12.2037625,153.818337 13.5072625,154.188212 14.5893875,155.127337 C16.0633875,156.395087 16.7742625,158.370962 16.8072625,159.367837 C16.8265125,159.942588 16.8540125,160.517337 16.8856375,161.094837 C16.9406375,162.236087 17.0011375,163.419962 16.9873875,164.588712 C16.9598875,167.554587 16.9048875,170.517712 16.8485125,173.483587 C16.8113875,175.258712 16.7797625,177.033837 16.7522625,178.807587 C16.7467625,179.130712 16.7797625,179.451087 16.8168875,179.825087 C16.8210125,179.841587 16.8210125,179.860837 16.8210125,179.880088 C17.1812625,179.794837 17.7175125,179.669712 18.3733875,179.511587 C22.8338875,178.454212 33.2797625,175.976462 35.6090125,175.711087 C36.8107625,175.576337 36.8107625,175.576337 36.8245125,174.909462 C36.8891375,171.826712 36.9496375,168.512962 36.9400125,165.146962 C36.9400125,164.407212 37.0596375,157.897963 41.2327625,156.569712 C42.7535125,155.972962 44.6166375,156.254837 45.9613875,157.270962 C47.4078875,158.370962 48.1572625,160.240962 48.0733875,162.537212 C48.0830125,163.997462 48.0362625,164.925587 47.9867625,165.823462 C47.9441375,166.681462 47.8987625,167.566962 47.8987625,168.963962 C47.9028875,170.794087 47.9262625,172.622837 47.9578875,174.455712 C48.8736375,174.947962 51.5631375,176.567712 51.6415125,178.643962 C51.6415125,181.582337 49.0950125,183.588462 48.2727625,184.157712 C48.3456375,185.716962 48.4350125,187.276212 48.5216375,188.835463 C48.6192625,190.496463 48.7113875,192.154712 48.7911375,193.814337 C48.8970125,196.073462 48.9932625,202.152337 48.9932625,204.539337 C48.9836375,209.545712 48.5216375,213.370962 46.2432625,216.966588 L45.8871375,217.354337 C44.9301375,218.382837 43.1275125,220.262462 41.2891375,220.017712 C40.3225125,219.869213 39.5098875,219.151462 38.8718875,217.880962 C37.8502625,215.861087 37.7815125,214.635962 37.6330125,211.951962 L37.5958875,211.261712 C37.5450125,210.358337 37.5037625,209.112587 37.4666375,207.899837 C37.4350125,206.896087 37.4020125,205.914337 37.3648875,205.169087 C37.2122625,202.177087 37.1063875,197.863712 36.9991375,193.690587 C36.9303875,190.995587 36.8657625,188.425713 36.7970125,186.463587 C36.7873875,186.199588 36.7681375,185.707337 36.6718875,185.615212 C36.5151375,185.462587 35.6323875,185.516212 35.2528875,185.535462 C33.0198875,185.659212 29.8037625,186.310962 26.6935125,186.939337 C23.8183875,187.520962 21.1055125,188.069587 19.0718875,188.244213 C17.1028875,188.413337 17.1028875,188.413337 17.1633875,189.745712 C17.2692625,192.186337 17.0891375,195.825962 16.9131375,199.344587 C16.7563875,202.523587 16.5955125,205.809837 16.6587625,207.982337 C16.8856375,215.606712 15.4446375,220.295462 12.2587625,222.323587 C11.6166375,222.730587 10.5400125,223.005587 9.3850125,223.005587" id="Fill-16" fill="#FFFFFE"></path>
                <path d="M459.034625,196.503287 C458.701875,198.591913 458.552,199.117163 458.580875,201.227788 C458.596,202.250788 458.08175,204.849537 457.038125,204.595162 C455.88725,204.316037 450.478,200.918413 450.476625,196.968037 C450.47525,195.073287 450.542625,190.827288 450.611375,188.933913 C450.73925,185.426287 450.9125,187.409037 451.012875,183.901413 C451.109125,180.534037 451.16825,173.243787 451.1765,169.876412 C451.183375,167.489412 450.930375,165.102413 451.056875,162.718163 C451.381375,156.563662 460.5595,155.047037 461.43675,162.231412 C461.504125,162.778663 461.643,163.386412 461.627875,163.965288 C461.60725,164.768287 461.418875,165.568538 461.4175,166.371538 C461.412,169.073412 459.249125,195.151662 459.034625,196.503287" id="Fill-18" fill="#FFFFFE"></path>
                <path d="M456.5808,157.939487 C456.521675,157.939487 456.461175,157.942237 456.400675,157.944987 C454.159425,158.028862 451.6858,159.742112 451.52905,162.746487 C451.4548,164.142112 451.5153,165.573487 451.5703,166.958112 C451.612925,167.930237 451.65005,168.902362 451.65005,169.875862 C451.640425,173.058987 451.585425,180.448237 451.4823,183.915987 C451.431425,185.733737 451.35855,186.120112 451.2843,186.527112 C451.21555,186.888737 451.145425,187.258612 451.084925,188.951237 C451.016175,190.896862 450.94605,195.118112 450.94605,196.968862 C450.95155,200.646987 456.136675,203.867237 457.14455,204.111987 C457.17205,204.114737 457.2133,204.128487 457.3013,204.059737 C457.778425,203.654112 458.119425,202.065987 458.111175,201.234112 C458.0878,199.376487 458.1978,198.699987 458.438425,197.217737 L458.567675,196.420237 C458.82205,194.805987 460.938175,168.932612 460.943675,166.370987 C460.943675,165.929612 460.998675,165.493737 461.053675,165.056487 C461.1018,164.687987 461.147175,164.322237 461.1568,163.953737 C461.16505,163.594862 461.105925,163.201612 461.045425,162.820737 C461.017925,162.641987 460.990425,162.464612 460.971175,162.292737 C460.5793,159.076612 458.479675,157.939487 456.5808,157.939487 M457.181675,205.106112 C457.0978,205.106112 457.0153,205.096487 456.931425,205.077237 C455.61005,204.756862 450.0083,201.256112 450.004175,196.968862 C450.004175,195.108487 450.072925,190.869362 450.14305,188.912737 C450.207675,187.145862 450.28055,186.733362 450.3603,186.334612 C450.424925,185.968862 450.493675,185.622362 450.540425,183.885737 C450.642175,180.426237 450.697175,173.052112 450.7068,169.873112 C450.7068,168.917487 450.669675,167.959112 450.62705,167.002112 C450.57205,165.592737 450.51155,164.135237 450.5858,162.692862 C450.77555,159.101362 453.705675,157.053987 456.367675,156.954987 C458.5773,156.877987 461.419425,158.184237 461.9048,162.168987 C461.92405,162.328487 461.95155,162.493487 461.974925,162.663987 C462.043675,163.087487 462.1083,163.526112 462.098675,163.978487 C462.090425,164.379987 462.03955,164.782862 461.988675,165.185737 C461.941925,165.583112 461.89105,165.977737 461.886925,166.373737 C461.881425,168.946362 459.755675,194.968237 459.502675,196.582487 L459.502675,196.585237 L459.367925,197.385487 C459.131425,198.847112 459.03105,199.453487 459.05305,201.220362 C459.0668,202.097612 458.729925,204.124362 457.893925,204.828362 C457.676675,205.013987 457.431925,205.106112 457.181675,205.106112" id="Fill-20" fill="#FFFFFE"></path>
                <path d="M385.519838,187.625463 C385.561088,187.094713 385.622963,186.706963 385.616088,186.319213 C385.558338,182.632838 385.468963,180.597838 385.433213,176.911463 C385.419463,175.565338 385.526713,174.216463 385.573463,172.868963 C385.610588,171.726338 387.377463,167.979463 389.681963,167.994588 C391.985088,168.009713 393.705213,170.879338 394.094338,175.986088 C394.293713,178.615088 394.596213,181.244088 394.609963,183.873088 C394.652588,191.872838 394.596213,199.872588 394.537088,207.873713 C394.520588,209.914213 394.271713,211.945088 393.492088,213.929213 C393.196463,214.685463 390.688463,217.699463 388.416963,215.790963 C385.727463,213.533213 384.738838,209.185463 384.847463,205.538963 C384.954713,201.984588 385.140338,198.431588 385.295713,194.878588 C385.354838,193.507713 385.372713,193.441713 383.475213,193.279463 C380.164213,192.994838 376.843588,192.770713 373.518838,192.583713 C372.064088,192.502588 371.702463,193.660338 371.505838,197.508963 C371.441213,198.787713 371.204713,200.067838 370.939338,201.335588 C370.528213,203.293588 370.349463,201.621588 370.386588,203.601588 C370.403088,204.559963 369.774713,204.790963 368.483588,204.554463 C367.059088,204.290463 366.099338,203.696463 365.282588,202.856338 C362.386838,199.884963 361.695213,200.029338 361.689713,196.322338 C361.686963,194.545838 362.213588,192.131338 362.334588,188.842338 C362.452838,185.682588 362.513338,182.522838 362.521588,179.363088 C362.527088,177.124588 362.351088,174.886088 362.368963,172.648963 C362.374463,171.774463 363.235213,168.009713 367.405588,168.009713 C371.140088,168.009713 371.819338,176.357338 371.817963,177.110838 C371.811088,179.644963 371.855088,182.179088 371.907338,184.713213 C371.923838,185.496963 372.055838,185.583588 373.180588,185.711463 C375.436963,185.969963 377.694713,186.222963 379.956588,186.455338 C381.547463,186.620338 383.109463,186.834838 384.529838,187.420588 C384.752588,187.511338 385.034463,187.527838 385.519838,187.625463" id="Fill-22" fill="#FFFFFE"></path>
                <path d="M373.383813,192.084863 C373.434688,192.084863 373.489688,192.087613 373.546062,192.088987 C377.182937,192.292488 380.441688,192.520738 383.510688,192.786113 C385.497563,192.957988 385.844062,193.127113 385.765688,194.867863 L385.617188,198.151363 C385.507188,200.620862 385.395813,203.086238 385.317438,205.557113 C385.219813,208.858488 386.061313,213.178738 388.713687,215.404863 C389.278813,215.880613 389.887938,216.023612 390.567188,215.840738 C391.852813,215.494237 392.911563,214.115112 393.058688,213.741112 C393.724188,212.044362 394.043188,210.179863 394.066563,207.868488 C394.131188,199.315987 394.182063,191.606362 394.140813,183.876113 C394.131188,181.970363 393.959313,180.023363 393.798438,178.139612 C393.737938,177.434237 393.677438,176.730238 393.622438,176.024862 C393.270438,171.391112 391.760688,168.502238 389.676188,168.488488 L389.666563,168.488488 C387.674188,168.488488 386.075063,171.963113 386.043438,172.887113 C386.029687,173.338113 386.006313,173.789112 385.982938,174.241488 C385.940313,175.117363 385.894938,176.022113 385.903188,176.907612 C385.927938,179.016863 385.963687,180.582988 386.000813,182.230238 C386.033813,183.459488 386.061313,184.735488 386.088813,186.311237 C386.094313,186.587613 386.065438,186.863988 386.033813,187.184363 L385.945813,188.215613 L385.432937,188.112487 C385.266563,188.078113 385.127688,188.054737 385.002563,188.035488 C384.748188,187.991488 384.550188,187.959863 384.354938,187.880113 C382.931813,187.295738 381.314813,187.092238 379.909563,186.949237 C377.650438,186.715487 375.385812,186.461113 373.129438,186.203988 C372.034938,186.078863 371.461563,185.955113 371.438188,184.723112 C371.391437,182.634488 371.340562,179.880362 371.346063,177.111112 C371.350188,176.444238 370.901937,171.281113 368.987938,169.258488 C368.508062,168.752488 367.989688,168.504987 367.408063,168.504987 C363.673563,168.504987 362.845813,171.829738 362.841688,172.651987 C362.832063,173.805612 362.873312,174.959238 362.915937,176.111488 C362.957187,177.196362 362.998437,178.279863 362.994312,179.364737 C362.984687,182.602863 362.920063,185.799737 362.804563,188.861863 C362.739937,190.623238 362.563938,192.109612 362.407188,193.421363 C362.272438,194.543363 362.161062,195.514113 362.161062,196.318488 C362.166563,199.144112 362.522688,199.490612 364.245563,201.151612 C364.634687,201.526987 365.087062,201.964237 365.609562,202.501862 C366.451063,203.362613 367.361312,203.845237 368.568563,204.066613 C369.427938,204.228862 369.718063,204.107863 369.806062,204.028113 C369.880313,203.959362 369.917438,203.821863 369.913313,203.610113 C369.894063,202.606362 369.903688,202.305237 370.226812,202.050862 C370.240562,202.037112 370.338188,201.900988 370.477062,201.228612 C370.731437,200.037862 370.972063,198.760487 371.035312,197.483112 C371.174188,194.764738 371.381813,193.253613 372.144937,192.535863 C372.463937,192.231988 372.870937,192.084863 373.383813,192.084863 M390.022688,216.909112 C389.342063,216.909112 388.699937,216.661612 388.122438,216.176237 C385.201938,213.724612 384.272438,209.066112 384.374188,205.525487 C384.452563,203.050487 384.563938,200.576862 384.679438,198.103238 L384.822438,194.856862 C384.841688,194.491112 384.855438,194.078612 384.808688,193.998862 C384.702813,193.881987 383.908063,193.811862 383.436438,193.770612 C380.375688,193.507987 377.122438,193.282488 373.495187,193.078988 C373.064813,193.063862 372.884687,193.168363 372.773313,193.270112 C372.270063,193.748613 372.089938,195.321613 371.978563,197.535362 C371.909813,198.886988 371.659563,200.211112 371.401063,201.443113 C371.225063,202.281862 371.068313,202.592612 370.860687,202.786487 C370.851062,202.892362 370.846937,203.117863 370.855188,203.590862 C370.864812,204.110613 370.721813,204.510738 370.420688,204.778863 C370.013688,205.137737 369.394937,205.220237 368.400812,205.041487 C367.020313,204.785737 365.918937,204.204112 364.953687,203.209988 C364.436687,202.679237 363.988437,202.250237 363.603437,201.878987 C361.824188,200.160237 361.223312,199.579987 361.219188,196.321237 C361.213687,195.453612 361.334688,194.453988 361.473562,193.297613 C361.626188,192.005112 361.796688,190.539363 361.861312,188.823363 C361.976812,185.770862 362.041437,182.589112 362.051063,179.361987 C362.051063,178.292237 362.013937,177.219738 361.972688,176.151363 C361.930063,175.004613 361.888813,173.817988 361.898437,172.643737 C361.902563,171.628987 362.900812,167.514988 367.408063,167.514988 C368.244062,167.514988 369.001688,167.866988 369.658937,168.561363 C371.825938,170.852113 372.293438,176.361738 372.287937,177.113863 C372.283813,179.870737 372.334688,182.617988 372.381438,184.701112 C372.385562,184.980237 372.408937,185.053112 372.417188,185.072362 C372.501062,185.136988 373.013938,185.196113 373.231187,185.219488 C375.486188,185.476612 377.741188,185.730987 380.001688,185.964738 C381.471563,186.114612 383.164188,186.327737 384.702813,186.957487 C384.789438,186.994613 384.924188,187.019362 385.100188,187.048237 C385.127688,186.784238 385.151063,186.553237 385.145563,186.326363 C385.118063,184.754738 385.090562,183.484238 385.058938,182.256362 C385.020438,180.604988 384.984687,179.031988 384.961313,176.917237 C384.951688,176.002863 384.998437,175.081612 385.039688,174.189237 C385.063063,173.742363 385.086438,173.296863 385.100188,172.849987 C385.151063,171.509363 387.059563,167.498488 389.666563,167.498488 L389.684438,167.498488 C392.338188,167.517738 394.162813,170.674738 394.565688,175.946488 C394.616563,176.647738 394.677063,177.348987 394.736188,178.048863 C394.902563,179.953238 395.073062,181.924987 395.082688,183.871987 C395.125313,191.609112 395.073062,199.320112 395.009813,207.878112 C394.985063,210.317362 394.644063,212.301487 393.927688,214.119237 C393.700813,214.703612 392.434438,216.360487 390.802312,216.801862 C390.539688,216.871987 390.281188,216.909112 390.022688,216.909112" id="Fill-24" fill="#FFFFFE"></path>
                <path d="M257.571687,186.832638 C258.058437,186.772138 258.443437,186.772138 258.776187,186.675888 C260.787812,186.094263 265.163062,185.610263 267.143062,184.975013 C268.545562,184.525388 269.675813,183.781513 270.647937,182.940013 C272.047687,181.725888 272.941438,180.367388 272.652688,178.725638 C272.535812,178.057388 272.225062,177.475763 271.367062,177.111388 C267.842937,175.616763 261.703563,175.079138 257.685812,175.553513 C257.128938,175.619513 256.842937,175.821638 256.836062,176.227263 C256.833312,176.396388 256.819562,176.566888 256.827812,176.736013 C256.957063,179.728013 257.079437,182.718638 257.233437,185.709263 C257.251312,186.065388 257.441062,186.417388 257.571687,186.832638 M248.262937,186.550763 C248.238187,181.950013 248.158437,177.349263 248.148812,172.747138 C248.500812,167.434138 258.015813,167.831513 259.841813,168.260513 C263.612062,169.146013 267.094937,170.422013 270.282187,172.111888 C271.807063,172.921763 273.331937,173.734388 274.779813,174.611638 C278.577562,176.912013 281.008563,179.803638 281.763438,183.362138 C282.284562,185.823388 281.405938,188.004138 279.137187,189.918138 C276.823062,191.870638 273.886062,193.142513 270.631438,194.048638 C267.451062,194.935513 262.818687,195.803138 259.386687,196.031388 C258.322437,196.101513 258.209687,196.217013 258.186312,197.113513 C258.129937,199.295638 258.158812,201.479138 258.047437,203.658513 C257.886562,206.825138 257.639062,209.990388 257.408063,213.155638 C257.370937,213.664388 257.234813,214.169013 257.133062,214.675013 C256.891063,215.882263 255.406062,216.564262 253.666687,216.250763 C251.558812,215.871263 247.821563,212.172513 247.252312,211.106888 C246.989688,210.613263 246.777938,210.163637 246.819187,209.650763 C247.018562,207.167513 247.238562,204.684263 247.428312,202.201013 C247.646937,199.342388 247.842187,196.483763 248.047063,193.623763 C248.146062,192.263888 247.139562,191.240888 246.025812,190.261888 C245.683437,189.963513 245.364437,189.681638 245.437312,189.280138 C245.462062,189.141263 245.591312,188.921263 245.726062,188.897888 C246.534562,188.754888 248.272562,188.156763 248.262937,186.550763" id="Fill-26" fill="#FFFFFE"></path>
                <path d="M260.852025,175.881587 C259.724525,175.881587 258.665775,175.937962 257.736275,176.046588 C257.4544,176.080962 257.307275,176.140087 257.307275,176.230837 L257.301775,176.368338 C257.29765,176.487963 257.293525,176.606212 257.29765,176.723087 L257.354025,178.018338 C257.464025,180.571712 257.5754,183.129212 257.70465,185.682588 C257.714275,185.843462 257.78715,186.037337 257.871025,186.260087 C257.87515,186.275212 257.88065,186.288962 257.884775,186.301337 C257.9219,186.298587 257.9549,186.297212 257.99065,186.291712 C258.2409,186.269712 258.45265,186.254588 258.652025,186.196837 C259.6269,185.914962 261.08715,185.666088 262.631275,185.402087 C264.281275,185.117462 265.991775,184.827337 267.003775,184.502837 C268.191775,184.121962 269.25465,183.504588 270.345025,182.559962 C271.82865,181.274337 272.41165,180.083588 272.1889,178.815837 C272.1064,178.355212 271.9304,177.886337 271.192025,177.570087 C268.47365,176.417837 264.341775,175.881587 260.852025,175.881587 L260.852025,175.881587 Z M257.24265,187.371087 L257.123025,186.987462 C257.0859,186.860962 257.03915,186.742712 256.9924,186.625837 C256.886525,186.346712 256.78065,186.056588 256.7614,185.736212 C256.63215,183.178712 256.52215,180.619837 256.410775,178.060963 L256.3544,176.758837 C256.350275,176.614462 256.3544,176.472837 256.3599,176.335338 C256.36815,175.843087 256.540025,175.191337 257.6359,175.062087 C261.52165,174.608338 267.80815,175.068962 271.54265,176.652963 C272.448775,177.037962 272.9479,177.669088 273.1129,178.638462 C273.4044,180.270588 272.69765,181.803712 270.9459,183.321712 C269.77165,184.339213 268.5699,185.034963 267.281525,185.448837 C266.2049,185.792587 264.4669,186.090962 262.7839,186.378337 C261.333275,186.625837 259.826275,186.882962 258.902275,187.152462 C258.65615,187.222587 258.3839,187.252837 258.0704,187.278962 C257.931525,187.289962 257.783025,187.305087 257.626275,187.324337 L257.24265,187.371087 Z M245.812275,189.385462 L245.804025,189.385462 L245.812275,189.385462 Z M245.92365,189.363462 C245.914025,189.521587 246.1409,189.718212 246.326525,189.880462 C247.4994,190.913087 248.636525,192.055712 248.5169,193.663087 L248.3409,196.111962 C248.1979,198.153837 248.053525,200.198462 247.902275,202.240337 C247.7909,203.622212 247.6754,205.002712 247.564025,206.381837 L247.291775,209.691462 C247.258775,210.068212 247.434775,210.431212 247.665775,210.865712 C248.169025,211.808962 251.77015,215.407337 253.743275,215.763462 C255.217275,216.035712 256.485025,215.502212 256.669275,214.574087 L256.757275,214.156087 C256.84115,213.794462 256.914025,213.453462 256.9374,213.116587 L257.03915,211.762212 C257.233025,209.097462 257.436525,206.340587 257.5754,203.631837 C257.64415,202.278837 257.659275,200.899712 257.67715,199.563212 C257.681275,198.743712 257.6909,197.921462 257.714275,197.101962 C257.7459,195.854837 258.1529,195.618337 259.35465,195.534462 C262.5199,195.326837 267.105525,194.516962 270.5114,193.570962 C274.0754,192.576837 276.7979,191.255462 278.839775,189.531212 C280.98065,187.727212 281.785025,185.745837 281.29965,183.468837 C280.60115,180.168837 278.3269,177.332212 274.541525,175.040087 C273.128025,174.184837 271.621025,173.376338 270.06865,172.555462 C266.96665,170.905462 263.49065,169.622588 259.738275,168.742587 C258.51315,168.456587 252.764275,168.094962 249.995025,170.256462 C249.13565,170.927462 248.6874,171.755212 248.61865,172.779587 C248.622775,175.282087 248.650275,177.818962 248.677775,180.357212 C248.70115,182.418337 248.724525,184.484962 248.73415,186.548837 C248.7424,188.209837 247.250525,189.093962 245.92365,189.363462 L245.92365,189.363462 Z M254.483025,216.820837 C254.191525,216.820837 253.891775,216.794712 253.586525,216.738337 C251.28065,216.324462 247.43065,212.446962 246.843525,211.349712 C246.552025,210.805212 246.299025,210.262087 246.348525,209.608962 L246.620775,206.297962 C246.736275,204.917462 246.851775,203.539712 246.959025,202.160587 C247.115775,200.120088 247.258775,198.079587 247.40315,196.040462 L247.57365,193.587462 C247.652025,192.553462 246.9549,191.722962 245.72015,190.639462 C245.3544,190.319087 244.847025,189.877712 244.976275,189.184712 C245.02165,188.905587 245.262275,188.471087 245.6514,188.407837 C245.86865,188.372087 247.800525,187.989837 247.7909,186.552962 C247.781275,184.491837 247.759275,182.429338 247.7359,180.368212 C247.707025,177.828587 247.679525,175.287588 247.6754,172.746588 C247.7634,171.397713 248.35465,170.304587 249.431275,169.463088 C252.505775,167.062338 258.5874,167.458337 259.941775,167.777337 C263.7739,168.675212 267.322775,169.986963 270.493525,171.671337 C272.055525,172.499088 273.576275,173.313087 275.01315,174.182088 C279.03915,176.618587 281.460525,179.671087 282.22365,183.255712 C282.7819,185.898462 281.84415,188.267587 279.4324,190.302587 C277.283275,192.116212 274.445275,193.499462 270.752025,194.526587 C267.295275,195.489087 262.636775,196.311337 259.41515,196.524462 C259.00265,196.551962 258.7634,196.590463 258.7029,196.635837 C258.68915,196.663337 258.665775,196.777462 258.65615,197.128087 C258.638275,197.943462 258.62865,198.757462 258.619025,199.575587 C258.60115,200.920337 258.5874,202.313212 258.51865,203.685462 C258.379775,206.406588 258.176275,209.167587 257.9769,211.837837 L257.88065,213.193587 C257.84765,213.603337 257.75965,213.997962 257.67715,214.380212 L257.593275,214.777587 C257.3444,216.026087 256.072525,216.820837 254.483025,216.820837 L254.483025,216.820837 Z" id="Fill-28" fill="#FFFFFE"></path>
                <path d="M356.381663,176.287075 C355.951288,176.430075 355.437038,176.68995 354.873288,176.768325 C353.392413,176.9732 349.762413,176.0767 346.139288,178.949075 C341.941413,182.276575 339.777163,188.202825 338.535538,192.00195 C337.359913,195.594825 336.996913,199.227575 337.277413,202.885075 C337.463038,205.302325 338.418663,207.61645 340.141538,209.7257 C340.555413,210.2317 341.110913,210.678575 341.582538,211.1612 C342.916288,212.526575 344.800038,212.75895 346.917538,212.521075 C350.026413,212.17045 352.933163,211.451325 355.559413,210.164325 C358.012413,208.962575 360.491538,207.78695 362.999538,206.6457 C364.228788,206.0847 364.265913,206.138325 365.760538,206.67595 C365.944788,206.740575 366.212913,206.674575 366.423288,206.718575 C366.674913,206.7722 367.073663,206.847825 367.116288,206.96745 C367.277163,207.4267 367.862913,207.5147 368.264413,207.75945 C368.920288,208.16095 369.301163,208.577575 369.110038,209.287075 C368.576538,211.267075 366.915538,212.691575 364.766413,213.79845 C361.500788,215.480075 357.901038,216.71345 353.877788,217.097075 C351.109913,217.3597 348.315913,217.361075 345.571413,216.844075 C342.831038,216.329825 340.083788,215.851325 337.648663,214.72245 C334.215288,213.12745 331.631663,211.00445 329.801538,208.390575 C327.600163,205.24595 326.647288,201.8937 326.530413,198.38745 C326.284288,191.109575 329.252913,181.468075 334.002163,175.156825 C341.623788,165.0272 355.240413,171.04145 357.029288,171.6987 C358.184288,172.123575 356.157538,174.202575 356.715788,174.892825 C356.801038,174.9987 356.652538,175.200825 356.611288,175.360325 C356.548038,175.613325 356.486163,175.8677 356.381663,176.287075" id="Fill-30" fill="#FFFFFE"></path>
                <path d="M346.147675,169.809588 C341.18805,169.809588 337.199175,171.702963 334.372175,175.462213 C329.782425,181.565838 326.75055,190.985963 326.999425,198.369713 C327.12455,202.036838 328.16405,205.217213 330.1798,208.096463 C331.98105,210.671838 334.56055,212.748088 337.837175,214.267463 C340.08805,215.312463 342.685425,215.800588 345.2003,216.273588 L345.652675,216.358838 C348.083675,216.816713 350.7553,216.889588 353.83805,216.604963 C357.480425,216.258463 360.98805,215.194213 364.556175,213.353088 C366.8758,212.160963 368.216425,210.785963 368.65505,209.153838 C368.7348,208.859588 368.7348,208.623088 368.02255,208.185838 C367.924925,208.125338 367.8053,208.077213 367.6898,208.026338 C367.361175,207.881963 366.959675,207.707338 366.742425,207.301713 C366.640675,207.270088 366.4743,207.232963 366.382175,207.213713 C366.294175,207.198588 366.2103,207.206838 366.1278,207.198588 C365.961425,207.210963 365.78955,207.208213 365.609425,207.143588 L365.452675,207.087213 C364.204175,206.632088 364.204175,206.641713 363.183925,207.096838 C360.747425,208.210588 358.247675,209.394463 355.756175,210.612713 C353.2468,211.844713 350.371675,212.628463 346.969925,213.012088 C344.3313,213.310463 342.5328,212.831963 341.252675,211.516088 C341.082175,211.341463 340.897925,211.168213 340.7123,210.999088 C340.3933,210.700713 340.06055,210.389963 339.7828,210.048963 C338.00355,207.865463 337.001175,205.470213 336.8073,202.923713 C336.5103,199.068213 336.940675,195.339213 338.09155,191.842588 C339.5573,187.358713 341.76555,181.795463 345.85205,178.553213 C348.817925,176.203338 351.8498,176.256963 353.6208,176.300963 C354.106175,176.310588 354.5173,176.313338 354.812925,176.278963 C355.1553,176.230838 355.48805,176.100212 355.811175,175.973713 C355.871675,175.948963 355.932175,175.928337 355.987175,175.906338 L356.15355,175.231213 C356.1728,175.161088 356.204425,175.088213 356.231925,175.016713 C355.987175,174.491463 356.29655,173.808087 356.5743,173.198963 C356.70905,172.896463 356.96205,172.334088 356.916675,172.175963 L356.490425,172.020588 C352.700925,170.543837 349.24005,169.809588 346.147675,169.809588 M350.4143,217.764088 C348.65705,217.764088 347.0263,217.621088 345.4863,217.333713 L345.03255,217.247088 C342.468175,216.764463 339.811675,216.266713 337.45905,215.174963 C334.0243,213.581338 331.32105,211.396463 329.4208,208.682213 C327.290925,205.640713 326.18955,202.276088 326.056175,198.404088 C325.8018,190.807213 328.91755,181.121713 333.63105,174.851713 C338.494425,168.389213 346.513425,167.078838 356.81905,171.092463 L357.183425,171.231337 C357.549175,171.366088 357.711425,171.613588 357.785675,171.795087 C358.002925,172.346463 357.711425,172.995463 357.42405,173.623838 C357.2948,173.909838 357.05555,174.443338 357.0913,174.598713 C357.3278,174.890213 357.16555,175.253213 357.100925,175.408588 L356.768175,176.677713 L356.523425,176.758838 C356.402425,176.798713 356.273175,176.849588 356.1398,176.900463 C355.789175,177.040713 355.3863,177.198838 354.933925,177.257963 C354.568175,177.312963 354.119925,177.300588 353.602925,177.289588 C351.8278,177.253838 349.12455,177.200213 346.42405,179.345213 C342.5383,182.423838 340.402925,187.812463 338.983925,192.162963 C337.8743,195.530338 337.463175,199.124588 337.75055,202.846713 C337.925175,205.178713 338.849175,207.385588 340.50055,209.402713 C340.7343,209.694213 341.0313,209.969213 341.340675,210.259338 C341.535925,210.438088 341.7298,210.620963 341.90855,210.806588 C342.98655,211.901088 344.5623,212.298463 346.868175,212.027588 C350.168175,211.656338 352.94155,210.900088 355.3588,209.716213 C357.854425,208.491088 360.3638,207.305838 362.80855,206.190713 C364.121675,205.593963 364.325175,205.632463 365.757925,206.152213 L365.914675,206.207213 C365.93805,206.207213 366.030175,206.209963 366.104425,206.209963 C366.225425,206.215463 366.368425,206.200338 366.51555,206.234713 C367.01055,206.335088 367.4313,206.423088 367.56055,206.801213 C367.6018,206.915338 367.828675,207.015713 368.05005,207.109213 C368.2068,207.177963 368.359425,207.248088 368.4983,207.330588 C368.91905,207.590463 369.89805,208.191338 369.561175,209.423338 C369.0483,211.341463 367.5468,212.917213 364.971425,214.241338 C361.297425,216.137463 357.683925,217.233338 353.921925,217.590838 C352.6968,217.706338 351.526675,217.764088 350.4143,217.764088" id="Fill-32" fill="#FFFFFE"></path>
                <path d="M58.65525,215.3665 C59.313875,215.34175 59.995875,215.367875 60.614625,215.28675 C65.864375,214.606125 88.677,212.045875 91.329375,210.84825 C91.937125,210.574625 92.417,210.19925 92.731875,209.829375 C93.664125,208.7335 93.01375,205.05675 90.485125,204.972875 C88.72375,204.915125 88.88875,204.83675 87.119125,204.8505 C81.217625,204.8945 75.7135,206.265375 69.813375,206.312125 C69.378875,206.314875 68.944375,206.28325 68.210125,206.25575 C68.4205,203.0795 68.361375,199.274875 68.57725,196.013375 C69.55625,196.01475 77.337375,194.12825 81.547625,193.1575 C90.600625,191.071625 90.8055,186.825625 84.81875,187.012625 C79.95125,187.04425 74.86925,188.41375 70.000375,188.45225 C69.57,188.455 69.136875,188.412375 68.496125,188.382125 C68.393,188.002625 68.2445,187.639625 68.20325,187.273875 C67.814125,183.861125 67.942,182.216625 67.558375,178.8025 C67.451125,177.84825 67.425,177.824875 69.354125,177.5815 C70.701625,177.411 85.4045,175.151875 88.369,174.60875 C94.23475,173.5335 92.198375,167.894625 88.2095,168.0115 C82.49775,168.17925 77.166875,169.5075 71.518375,170.07675 C70.302875,170.199125 69.087375,170.3215 67.80175,170.45075 C59.627375,171.884875 57.46725,173.93775 56.654625,177.192375 C56.381,178.28825 55.974,179.389625 56.008375,180.4855 C56.151375,185.078 56.51575,189.66775 56.65325,194.258875 C56.788,198.678125 56.77975,203.09875 56.7495,207.519375 C56.742625,208.585 56.005625,214.19225 58.65525,215.3665" id="Fill-34" fill="#FFFFFE"></path>
                <path d="M88.3338,168.505125 C88.29805,168.505125 88.260925,168.507875 88.2238,168.507875 C84.812425,168.606875 81.465675,169.134875 78.2303,169.64775 C76.0633,169.987375 73.826175,170.34075 71.56705,170.567625 L67.850425,170.944375 C59.850675,172.34825 57.854175,174.34475 57.114425,177.3175 C57.0498,177.569125 56.979675,177.816625 56.90955,178.066875 C56.6758,178.905625 56.45305,179.699 56.48055,180.470375 C56.550675,182.735 56.679925,185.040875 56.79955,187.268375 C56.924675,189.553625 57.053925,191.91725 57.122675,194.245125 C57.26155,198.782625 57.2533,203.309125 57.2203,207.5235 C57.2203,207.665125 57.20655,207.887875 57.188675,208.16975 C57.095175,209.74825 56.8463,213.896625 58.745175,214.86875 C59.377675,214.848125 59.993675,214.87425 60.551925,214.79725 C61.5323,214.67075 63.1218,214.479625 65.072925,214.24175 C73.452175,213.227 89.04605,211.3405 91.1443,210.3945 C91.637925,210.17175 92.077925,209.854125 92.377675,209.50075 C92.715925,209.10475 92.798425,207.99925 92.383175,206.983125 C92.160425,206.4345 91.610425,205.506375 90.469175,205.467875 C89.748675,205.443125 89.3513,205.417 89.008925,205.395 C88.52355,205.363375 88.134425,205.34825 87.1238,205.344125 C84.1978,205.368875 81.308925,205.725 78.517675,206.0715 C75.70305,206.42075 72.7908,206.78375 69.819425,206.80575 C69.4963,206.814 69.241925,206.796125 68.87205,206.779625 L67.707425,206.73425 L67.73905,206.22275 C67.8408,204.664875 67.877925,202.91725 67.91505,201.224625 C67.9563,199.46325 67.993425,197.64275 68.1048,195.979 L68.1378,195.517 L68.576425,195.518375 L68.58055,195.518375 C69.30105,195.518375 74.552175,194.289125 78.3843,193.389875 L81.4478,192.67625 C86.726425,191.456625 88.52905,189.599 88.4218,188.714875 C88.34755,188.08375 87.24755,187.411375 84.8303,187.509 C82.408925,187.524125 79.8858,187.88025 77.445175,188.224 C74.9908,188.5705 72.45805,188.928 70.003675,188.94725 C69.7218,188.92525 69.412425,188.929375 69.0563,188.90875 L68.14055,188.85925 L67.94805,188.200625 C67.86005,187.92425 67.76655,187.63825 67.734925,187.331625 C67.536925,185.6005 67.470925,184.301125 67.4063,183.044375 C67.3458,181.815125 67.281175,180.541875 67.0928,178.861625 C66.926425,177.387625 67.476425,177.32025 69.296925,177.08925 C70.72005,176.90775 85.329425,174.662375 88.288425,174.120625 C90.469175,173.7205 91.6888,172.610875 91.5458,171.145125 C91.426175,169.860875 90.163925,168.505125 88.3338,168.505125 L88.3338,168.505125 Z M58.56505,215.865625 L58.4688,215.821625 C55.852175,214.6625 56.129925,210.07 56.24955,208.107875 C56.2633,207.852125 56.278425,207.64725 56.278425,207.516625 C56.31005,203.311875 56.319675,198.796375 56.1808,194.274 C56.110675,191.96125 55.981425,189.6045 55.8563,187.3275 C55.736675,185.09175 55.607425,182.777625 55.5373,180.503375 C55.505675,179.5725 55.76005,178.665 56.0048,177.78775 C56.07355,177.547125 56.138175,177.305125 56.198675,177.06725 C57.034675,173.70125 59.1893,171.461375 67.7253,169.965375 L71.47355,169.5845 C73.710675,169.359 75.938175,169.007 78.0873,168.667375 C81.355675,168.153125 84.72855,167.619625 88.194925,167.517875 C88.241675,167.515125 88.288425,167.515125 88.3338,167.515125 C90.69605,167.515125 92.322675,169.327375 92.48905,171.046125 C92.63755,172.6205 91.657175,174.50975 88.4548,175.0955 C85.48755,175.638625 70.83555,177.89225 69.4083,178.07375 C68.788175,178.152125 68.08555,178.23875 67.9563,178.335 C67.979675,178.335 68.00305,178.544 68.0223,178.709 C68.2203,180.456625 68.284925,181.745 68.34955,182.992125 C68.41005,184.232375 68.4788,185.516625 68.66855,187.21475 C68.691925,187.421 68.766175,187.6465 68.83905,187.887125 C68.84455,187.892625 68.84455,187.8995 68.848675,187.906375 L69.107175,187.9215 C69.439925,187.94075 69.676425,187.947625 69.995425,187.95725 C72.3893,187.938 74.89455,187.58325 77.315925,187.24225 C79.788175,186.89575 82.340175,186.534125 84.812425,186.520375 C87.488175,186.42 89.193175,187.20925 89.360925,188.58975 C89.586425,190.52575 86.558675,192.509875 81.6513,193.6415 L78.591925,194.3565 C73.900425,195.455125 70.3598,196.274625 69.019175,196.46575 C68.93255,197.992 68.895425,199.643375 68.8583,201.246625 C68.8253,202.76875 68.793675,204.337625 68.7098,205.78275 L68.9133,205.791 C69.2653,205.8075 69.547175,205.811625 69.8098,205.817125 C72.7303,205.792375 75.619175,205.43625 78.4063,205.08975 C81.226425,204.7405 84.1373,204.376125 87.114175,204.354125 C88.23755,204.354125 88.560675,204.373375 89.069425,204.405 C89.402175,204.42975 89.79405,204.4545 90.496675,204.47925 C91.717675,204.519125 92.72005,205.2905 93.252175,206.595375 C93.7788,207.893375 93.71005,209.425125 93.0803,210.159375 C92.688425,210.62 92.132925,211.025625 91.514175,211.30475 C89.4668,212.22875 76.848425,213.814125 65.1843,215.22625 C63.233175,215.46 61.6478,215.6525 60.672925,215.780375 C60.04455,215.860125 59.355675,215.8395 58.670925,215.860125 L58.56505,215.865625 Z" id="Fill-36" fill="#FFFFFE"></path>
                <path d="M448.753063,207.868488 C447.786438,209.270988 446.126813,212.833612 447.086563,214.563362 C448.046313,216.293113 451.069938,218.565987 452.996313,218.675987 C454.924063,218.787362 458.783688,215.983737 459.200313,214.471237 C459.615563,212.960112 458.661313,208.961612 457.423813,208.527113 C456.184938,208.093987 453.437688,205.713863 451.784938,206.144238 C450.132188,206.573238 448.753063,207.868488 448.753063,207.868488" id="Fill-38" fill="#FFFFFE"></path>
                <path d="M449.454037,208.542512 C448.428287,210.088012 447.309037,212.998887 447.901663,214.064512 C448.700537,215.504137 451.446413,217.596887 453.049662,217.686262 C454.676288,217.720637 458.027162,215.176887 458.295288,214.197887 C458.633537,212.972762 457.741163,209.803387 457.107288,209.461012 C456.631538,209.294637 456.044412,208.933012 455.365162,208.513637 C454.321537,207.872887 452.754038,206.928262 452.010162,207.104262 C450.816662,207.415012 449.735912,208.297762 449.454037,208.542512 M453.092287,219.667637 C453.040037,219.667637 452.994663,219.667637 452.947912,219.664887 C450.659912,219.534262 447.364037,217.024887 446.273662,215.062762 C444.948162,212.677137 447.120663,208.546637 447.989662,207.288512 L448.123037,207.131762 C448.187662,207.071262 449.698788,205.666012 451.556412,205.184762 C453.031788,204.776387 454.856413,205.909387 456.316663,206.805887 C456.858412,207.138637 457.412538,207.482387 457.721912,207.589637 C459.659288,208.268887 460.592913,212.982387 460.107538,214.745137 C459.552038,216.763637 455.374788,219.667637 453.092287,219.667637" id="Fill-40" fill="#FFFFFE"></path>
                <path d="M167.053925,181.372925 C169.209925,177.4528 175.67655,167.831925 179.987175,168.010675 C184.299175,168.18805 182.574925,171.574675 181.711425,173.711425 C180.8493,175.84955 172.012175,195.9823 172.012175,195.9823 L184.299175,193.84555 C184.299175,193.84555 182.143175,187.431175 182.35905,184.2233 C182.574925,181.0168 183.0053,176.0283 184.299175,176.0283 C185.591675,176.0283 188.17805,182.442675 189.040175,185.1143 C189.903675,187.7873 192.274175,192.598425 192.274175,192.598425 C192.274175,192.598425 199.8188,191.886175 200.680925,193.84555 C201.54305,195.804925 194.430175,198.83405 194.430175,198.83405 C194.430175,198.83405 196.800675,204.0013 197.6628,206.672925 C198.524925,209.345925 198.09455,211.306675 195.5068,212.5538 C192.920425,213.79955 189.471925,210.7718 188.393925,207.030425 C187.315925,203.287675 185.3758,200.61605 185.3758,200.61605 L168.571925,204.3753 C168.571925,204.3753 164.68205,213.79955 162.09705,217.007425 C159.5093,220.2153 159.078925,221.6398 155.41455,221.81855 C151.750175,221.995925 152.18055,215.225425 154.120675,210.415675 C156.0608,205.60455 161.449425,192.419675 163.605425,188.143425 C165.761425,183.867175 167.053925,181.372925 167.053925,181.372925" id="Fill-42" fill="#FFFFFE"></path>
                <path d="M167.464225,181.616575 C167.3996,181.740325 166.119475,184.2112 164.021225,188.3747 C162.052225,192.281075 157.143475,204.1872 154.555725,210.60845 C153.191725,213.9882 152.53585,218.626075 153.7981,220.529075 C154.1721,221.095575 154.6891,221.36095 155.391725,221.323825 C158.262725,221.183575 158.95985,220.278825 160.64285,218.0912 C160.965975,217.6677 161.326225,217.198825 161.73735,216.687325 C164.2481,213.571575 168.102225,204.2697 168.13935,204.177575 L168.2356,203.94245 L185.5716,200.06495 L185.7531,200.3152 C185.8356,200.429325 187.753725,203.1037 188.8496,206.886325 C189.491725,209.124825 191.0771,211.173575 192.791725,211.9862 C193.424225,212.279075 194.3716,212.551325 195.310725,212.10445 C197.5011,211.047075 198.068975,209.471325 197.2151,206.8327 C196.3681,204.218825 194.0251,199.0997 194.001725,199.048825 L193.78585,198.57445 L194.251975,198.375075 C196.3186,197.495075 199.77535,195.6347 200.23735,194.395825 C200.3061,194.217075 200.2841,194.11945 200.2511,194.05345 C199.7561,192.921825 195.310725,192.81045 192.315975,193.09095 L192.0011,193.122575 L191.853975,192.82695 C191.75635,192.627575 189.4601,187.949825 188.5911,185.27545 C187.393475,181.5492 185.091725,176.63495 184.291475,176.5222 C184.19935,176.5222 183.331725,176.740825 182.831225,184.256575 C182.6236,187.3297 184.72185,193.617575 184.739725,193.67945 L184.929475,194.2377 L171.212475,196.6247 L171.58235,195.7777 C171.67035,195.57695 180.427725,175.624325 181.27885,173.51645 L181.4686,173.05445 C181.995225,171.78395 182.646975,170.19995 182.129975,169.3337 C181.82885,168.83045 181.10285,168.551325 179.971225,168.504575 C179.9341,168.501825 179.9011,168.501825 179.863975,168.501825 C175.953475,168.501825 169.840225,177.301825 167.464225,181.616575 M155.276225,222.316575 C154.33435,222.316575 153.551975,221.895825 153.021225,221.0942 C151.500475,218.804825 152.207225,213.89195 153.686725,210.2207 C154.4031,208.448325 160.748725,192.759575 163.18935,187.914075 C165.3426,183.63095 166.636475,181.1367 166.636475,181.1367 L166.6461,181.127075 C168.60685,177.5672 175.197225,167.5132 179.8736,167.5132 C179.92035,167.5132 179.9616,167.5132 180.00835,167.51595 C181.486475,167.57645 182.443475,167.998575 182.92885,168.8057 C183.70985,170.1147 182.946725,171.9627 182.3321,173.449075 L182.14785,173.902825 C181.3806,175.79895 174.520725,191.44645 172.8116,195.3432 L183.672725,193.452575 C183.150225,191.8012 181.703725,186.9337 181.88935,184.1892 C182.3046,177.959075 182.979725,175.5322 184.296975,175.5322 C186.362225,175.5322 189.4546,184.86295 189.4876,184.957825 C190.2081,187.1867 192.024475,190.99545 192.5511,192.077575 C194.3716,191.9277 200.213975,191.612825 201.110475,193.636825 C201.258975,193.980575 201.264475,194.368325 201.115975,194.7602 C200.4546,196.524325 196.498725,198.44245 195.065975,199.0887 C195.6751,200.432075 197.389725,204.2862 198.1116,206.512325 C199.113975,209.617075 198.32885,211.7387 195.7081,213.002325 C194.705725,213.47395 193.5686,213.436825 192.4026,212.8882 C190.42535,211.95045 188.6736,209.70645 187.943475,207.172325 C187.088225,204.202325 185.6651,201.9047 185.174225,201.166325 L168.910725,204.80595 C168.27685,206.3157 164.857225,214.3457 162.459225,217.328075 C162.052225,217.8327 161.6961,218.293325 161.372975,218.7127 C159.615725,221.002075 158.732975,222.1502 155.438475,222.313825 C155.3821,222.316575 155.331225,222.316575 155.276225,222.316575" id="Fill-44" fill="#FFFFFE"></path>
                <path d="M290.873087,181.372925 C293.029088,177.4528 299.495712,167.831925 303.806337,168.010675 C308.118337,168.18805 306.394087,171.574675 305.531963,173.711425 C304.668462,175.84955 295.831338,195.9823 295.831338,195.9823 L308.118337,193.84555 C308.118337,193.84555 305.962337,187.431175 306.176838,184.2233 C306.394087,181.0168 306.824463,176.0283 308.118337,176.0283 C309.410837,176.0283 311.997212,182.442675 312.860712,185.1143 C313.722837,187.7873 316.093338,192.598425 316.093338,192.598425 C316.093338,192.598425 323.637962,191.886175 324.500087,193.84555 C325.362212,195.804925 318.249338,198.83405 318.249338,198.83405 C318.249338,198.83405 321.411837,207.475925 322.275337,210.148925 C323.137462,212.821925 322.705713,214.7813 320.119337,216.028425 C317.532962,217.27555 314.083088,214.246425 313.006462,210.50505 C311.928463,206.763675 309.196337,200.61605 309.196337,200.61605 L292.391088,204.3753 C292.391088,204.3753 290.313463,209.6773 287.725713,212.885175 C285.140712,216.091675 284.708963,217.51755 281.044588,217.6963 C277.380212,217.873675 277.810588,211.103175 279.750713,206.293425 C281.690837,201.4823 285.268588,192.419675 287.424587,188.143425 C289.580587,183.867175 290.873087,181.372925 290.873087,181.372925" id="Fill-46" fill="#FFFFFE"></path>
                <path d="M291.286687,181.616575 C291.217938,181.7472 289.937812,184.2167 287.839562,188.37745 C285.962687,192.096825 282.967938,199.563075 280.985187,204.50345 L280.184937,206.4862 C278.822312,209.86595 278.166438,214.50245 279.427312,216.406825 C279.801312,216.973325 280.327937,217.242825 281.022313,217.201575 C283.896062,217.061325 284.589062,216.156575 286.272063,213.96895 C286.595187,213.54545 286.956813,213.076575 287.366562,212.565075 C289.871812,209.457575 291.934312,204.238075 291.956313,204.185825 L292.049813,203.9452 L292.294562,203.888825 L309.464187,200.049825 L309.620937,200.407325 C309.736437,200.65895 312.380562,206.6292 313.457187,210.36095 C314.104812,212.6022 315.690187,214.65095 317.408937,215.460825 C318.038687,215.76195 318.994312,216.02045 319.918313,215.579075 C322.110062,214.52445 322.677937,212.9487 321.826812,210.30595 C320.977062,207.6742 317.843437,199.09695 317.811812,199.010325 L317.644063,198.556575 L318.074437,198.375075 C320.141062,197.495075 323.593688,195.6347 324.055688,194.395825 C324.124437,194.217075 324.101062,194.11945 324.069438,194.05345 C323.574437,192.924575 319.137313,192.81045 316.132937,193.09095 L315.819438,193.122575 L315.670937,192.82695 C315.574687,192.627575 313.277062,187.949825 312.413562,185.2727 C311.211812,181.5492 308.910062,176.63495 308.115312,176.5222 C307.961312,176.5222 307.148687,176.894825 306.649562,184.256575 C306.441937,187.32695 308.544312,193.617575 308.562188,193.67945 L308.753312,194.2377 L295.030812,196.6247 L295.400687,195.7777 C295.488687,195.57695 304.246062,175.624325 305.095812,173.51645 L305.285562,173.061325 C305.812188,171.788075 306.469437,170.2027 305.952437,169.3337 C305.651312,168.83045 304.921187,168.551325 303.788188,168.504575 C303.751062,168.501825 303.719437,168.501825 303.682313,168.501825 C299.763562,168.501825 293.657187,177.301825 291.286687,181.616575 M280.906812,218.194325 C279.963563,218.194325 279.182562,217.773575 278.650437,216.970575 C277.129687,214.682575 277.837812,209.7697 279.315938,206.09845 L280.112062,204.117075 C282.103062,199.16295 285.111562,191.67195 287.007687,187.914075 C289.165063,183.63095 290.458937,181.1367 290.458937,181.1367 L290.468562,181.127075 C292.423812,177.5672 299.004563,167.5132 303.691937,167.5132 C303.737313,167.5132 303.778562,167.5132 303.825312,167.51595 C305.308938,167.57645 306.265937,168.001325 306.751313,168.80845 C307.532312,170.1202 306.765062,171.969575 306.150437,173.45595 L305.964812,173.905575 C305.198937,175.79895 298.339062,191.44645 296.629937,195.3432 L307.495187,193.452575 C306.968562,191.8012 305.522063,186.9337 305.706313,184.1892 C306.136687,177.876575 306.788438,175.5322 308.119437,175.5322 C310.166812,175.5322 313.277062,184.86295 313.310063,184.955075 C314.026437,187.18945 315.842812,190.99545 316.369437,192.077575 C318.185813,191.91945 324.036437,191.607325 324.928813,193.639575 C325.077313,193.980575 325.081437,194.368325 324.932937,194.7602 C324.267438,196.53945 320.251062,198.474075 318.855437,199.1052 C319.516812,200.913325 321.980813,207.689325 322.724687,209.988325 C323.736687,213.137075 322.969437,215.1982 320.315688,216.478325 C319.331187,216.951325 318.195437,216.918325 317.021187,216.365575 C315.042562,215.4292 313.286687,213.1852 312.551062,210.64695 C311.646312,207.49545 309.519187,202.54545 308.923812,201.182825 L292.729062,204.8032 C292.284938,205.89495 290.403937,210.326575 288.088437,213.205825 C287.681437,213.71045 287.326687,214.171075 287.002187,214.59045 C285.246312,216.879825 284.363562,218.02795 281.067687,218.191575 C281.012687,218.194325 280.961812,218.194325 280.906812,218.194325" id="Fill-48" fill="#FFFFFE"></path>
                <path d="M433.299025,228.69025 L18.91665,235.45525 C11.682775,235.458 16.3454,225.17025 21.9499,225.188125 L434.76065,222.51375 C438.430525,222.512375 441.81715,228.130625 433.299025,228.69025" id="Fill-50" fill="#FFFFFE"></path>
                <path d="M0.958875,120.031563 L7.7665,111.495563 C12.115625,115.135188 16.969375,117.053313 22.076125,117.053313 C25.35825,117.053313 27.12375,115.862563 27.12375,113.746438 C27.12375,111.828313 25.67175,110.768188 19.68225,109.313438 C10.291,107.065313 3.03925,104.286438 3.03925,94.6284375 C3.03925,86.0278125 9.532,79.8100625 20.125,79.8100625 C27.627,79.8100625 33.48725,81.9261875 38.2805,85.9618125 L32.165875,95.0230625 C28.13025,92.0475625 23.7165,90.4594375 19.807375,90.4594375 C16.84425,90.4594375 15.393625,91.7835625 15.393625,93.5683125 C15.393625,95.6844375 16.908875,96.6111875 23.0235,98.0659375 C33.172375,100.381438 39.47675,103.823063 39.47675,112.620313 C39.47675,122.080313 32.35425,127.704063 21.6375,127.704063 C13.8165,127.704063 6.3805,125.123188 0.958875,120.031563" id="Fill-52" fill="#282E2A"></path>
                <path d="M46.0821125,103.757888 C46.0821125,90.2608875 55.9821125,79.6761375 69.3471125,79.6761375 C78.3602375,79.6761375 83.9716125,83.7791375 87.8807375,89.4675125 L78.9294875,96.7453875 C76.4049875,93.4371375 73.4418625,91.3856375 69.2178625,91.3856375 C63.0441125,91.3856375 58.6894875,96.8760125 58.6894875,103.757888 C58.6894875,110.703013 63.0441125,116.127388 69.2178625,116.127388 C73.8213625,116.127388 76.5342375,113.879263 79.1824875,110.503638 L88.3853625,117.385513 C84.2259875,123.405263 78.6146125,127.836888 68.8438625,127.836888 C56.2309875,127.836888 46.0821125,117.715513 46.0821125,103.757888" id="Fill-54" fill="#282E2A"></path>
                <path d="M116.609988,102.831412 C120.769363,102.831412 123.168738,100.713912 123.168738,97.2090375 C123.168738,93.5680375 120.645613,91.7159125 116.545363,91.7159125 L108.540113,91.7159125 L108.540113,102.831412 L116.609988,102.831412 Z M96.3108625,80.6017875 L117.179238,80.6017875 C123.922238,80.6017875 128.590363,82.4552875 131.552113,85.5641625 C134.135738,88.2770375 135.462613,91.8492875 135.462613,96.5462875 C135.462613,103.624787 131.866988,108.321787 126.380738,110.767912 L136.909112,126.910412 L122.789237,126.910412 L113.897113,112.885412 L108.540113,112.885412 L108.540113,126.910412 L96.3108625,126.910412 L96.3108625,80.6017875 Z" id="Fill-56" fill="#282E2A"></path>
                <polygon id="Fill-58" fill="#282E2A" points="144.835712 80.602475 180.327212 80.602475 180.327212 91.5186 156.939838 91.5186 156.939838 98.529725 178.121713 98.529725 178.121713 108.6511 156.939838 108.6511 156.939838 115.99635 180.644837 115.99635 180.644837 126.9111 144.835712 126.9111"></polygon>
                <polygon id="Fill-60" fill="#282E2A" points="190.7163 80.602475 226.2078 80.602475 226.2078 91.5186 202.820425 91.5186 202.820425 98.529725 224.0023 98.529725 224.0023 108.6511 202.820425 108.6511 202.820425 115.99635 226.525425 115.99635 226.525425 126.9111 190.7163 126.9111"></polygon>
                <polygon id="Fill-62" fill="#282E2A" points="236.592212 80.602475 248.003337 80.602475 266.157462 105.07885 266.157462 80.602475 278.262962 80.602475 278.262962 126.9111 267.544837 126.9111 248.696337 101.507975 248.696337 126.9111 236.592212 126.9111"></polygon>
                <polygon id="Fill-64" fill="#FFFFFE" points="457.199288 135.66215 401.020913 76.7159 419.701663 57.11665 457.199288 96.4664 548.609288 0.545025 567.290038 20.1429"></polygon>
                <path d="M336.022,124 L336.022,113.8 L319.43,113.8 C330.718,105.912 335.682,99.996 335.682,93.06 C335.682,83.948 327.998,77.964 317.322,77.964 C310.998,77.964 303.79,80.208 298.962,85.512 L305.422,93.264 C308.686,90.204 312.494,88.3 317.526,88.3 C320.858,88.3 323.782,89.932 323.782,93.06 C323.782,97.548 320.11,100.676 300.458,114.888 L300.458,124 L336.022,124 Z M344.854,124.816 C348.322,124.816 351.246,121.892 351.246,118.424 C351.246,114.956 348.322,112.032 344.854,112.032 C341.386,112.032 338.462,114.956 338.462,118.424 C338.462,121.892 341.386,124.816 344.854,124.816 Z M372.318,124.816 C359.058,124.816 352.87,113.324 352.87,101.356 C352.87,89.388 359.058,77.964 372.318,77.964 C385.578,77.964 391.766,89.388 391.766,101.356 C391.766,113.324 385.578,124.816 372.318,124.816 Z M372.318,114.48 C377.758,114.48 379.934,109.38 379.934,101.356 C379.934,93.332 377.758,88.3 372.318,88.3 C366.878,88.3 364.702,93.332 364.702,101.356 C364.702,109.38 366.878,114.48 372.318,114.48 Z" id="2.0" fill="#282E2A"></path>
            </g>
        </g>
    </g>
</svg>