<?xml version="1.0" encoding="UTF-8"?>
<svg width="470px" height="272px" viewBox="0 0 470 272" version="1.1" xmlns="http://www.w3.org/2000/svg" xmlns:xlink="http://www.w3.org/1999/xlink">
    <!-- Generator: Sketch 46.2 (44496) - http://www.bohemiancoding.com/sketch -->
    <title>logo</title>
    <desc>Created with Sketch.</desc>
    <defs></defs>
    <g id="Header,-slide" stroke="none" stroke-width="1" fill="none" fill-rule="evenodd">
        <g id="screen-2.0-copy" transform="translate(-725.000000, -139.000000)">
            <g id="logo" transform="translate(725.000000, 139.000000)">
                <path d="M179.75992,90.9789305 L185.789492,90.9789305 C188.159599,90.9789305 189.521845,90.052754 189.521845,88.3260695 C189.521845,86.7979412 188.320455,85.795107 185.707807,85.795107 L179.75992,85.795107 L179.75992,90.9789305 Z M179.75992,75.3847326 L179.75992,80.3272727 L184.662246,80.3272727 C187.03361,80.3272727 188.358155,79.5280214 188.358155,77.7975668 C188.358155,76.2694385 187.155508,75.3847326 184.824358,75.3847326 L179.75992,75.3847326 Z M197.324599,89.4935294 C197.324599,94.3141711 193.384893,97.246016 186.672941,97.246016 L172.165775,97.246016 L172.165775,69.1176471 L186.588743,69.1176471 C190.12631,69.1176471 192.618316,70.0023529 194.269599,71.6486096 C195.390561,72.7745989 196.076711,74.26 196.076711,76.2694385 C196.076711,79.5280214 194.226872,81.453262 191.734866,82.5377807 C195.153048,83.6625134 197.324599,85.5927807 197.324599,89.4935294 Z" id="Fill-221" fill="#282E2A"></path>
                <path d="M208.864733,90.6986898 L208.864733,84.0671658 L212.961524,84.0671658 C215.495,84.0671658 217.018102,85.3540107 217.018102,87.3219786 C217.018102,89.535 215.495,90.6986898 212.922567,90.6986898 L208.864733,90.6986898 Z M224.820856,87.5243048 C224.820856,81.1767914 219.875802,77.9609358 213.12615,77.9609358 L208.864733,77.9609358 L208.864733,69.1176471 L201.069519,69.1176471 L201.069519,97.2485294 L213.524519,97.2485294 C220.401096,97.2485294 224.820856,93.5928342 224.820856,87.5243048 L224.820856,87.5243048 Z" id="Fill-223" fill="#282E2A"></path>
                <polygon id="Fill-225" fill="#282E2A" points="228.716578 97.2497861 236.508021 97.2497861 236.508021 69.1176471 228.716578 69.1176471"></polygon>
                <path d="M254.532647,98.3720053 C260.764545,98.3720053 264.34107,95.6801872 266.992674,92.024492 L261.125214,87.8435027 C259.438743,89.8918984 257.713316,91.2591711 254.777701,91.2591711 C250.837995,91.2591711 248.065749,87.9654011 248.065749,83.7429412 C248.065749,79.5657219 250.837995,76.231738 254.777701,76.231738 C257.469519,76.231738 259.355802,77.4758556 260.963102,79.4852941 L266.672219,75.0642781 C264.180214,71.607139 260.604947,69.1176471 254.856872,69.1176471 C246.339064,69.1176471 240.026738,75.5455882 240.026738,83.7429412 C240.026738,92.2230481 246.498663,98.3720053 254.532647,98.3720053" id="Fill-227" fill="#282E2A"></path>
                <polygon id="Fill-228" fill="#282E2A" points="309.572914 69.1176471 301.77393 69.1176471 301.77393 90.4159358 293.77639 90.4159358 293.77639 69.1176471 285.98369 69.1176471 285.98369 90.4159358 277.983636 90.4159358 277.983636 69.1176471 270.187166 69.1176471 270.187166 97.2497861 309.572914 97.2497861"></polygon>
                <path d="M328.592834,78.3593048 L331.724492,86.3568449 L325.412166,86.3568449 L328.592834,78.3593048 Z M323.12123,92.4253743 L333.975214,92.4253743 L336.021096,97.4483422 L344.381818,97.4483422 L332.401845,69.1176471 L324.891898,69.1176471 L312.914439,97.4483422 L321.116818,97.4483422 L323.12123,92.4253743 Z" id="Fill-229" fill="#282E2A"></path>
                <polygon id="Fill-230" fill="#282E2A" points="211.551524 123.15508 203.75254 123.15508 203.75254 144.453369 195.755 144.453369 195.755 123.15508 187.963556 123.15508 187.963556 144.453369 179.959733 144.453369 179.959733 123.15508 172.165775 123.15508 172.165775 151.287219 211.551524 151.287219"></polygon>
                <polygon id="Fill-231" fill="#282E2A" points="244.489225 151.287219 233.478155 135.253182 244.128556 123.15508 234.884385 123.15508 225.199118 134.568289 225.199118 123.15508 217.406417 123.15508 217.406417 151.287219 225.199118 151.287219 225.199118 144.008503 228.053048 140.839144 235.125668 151.287219"></polygon>
                <path d="M266.144412,136.52369 C266.144412,140.665722 263.289225,144.119091 258.98885,144.119091 C254.727433,144.119091 251.798102,140.585294 251.798102,136.52369 C251.798102,132.385428 254.648262,128.930802 258.910936,128.930802 C263.20754,128.930802 266.144412,132.465856 266.144412,136.52369 M243.796791,136.52369 C243.796791,144.682086 250.228503,151.152754 258.910936,151.152754 C267.590856,151.152754 274.095455,144.601658 274.095455,136.52369 C274.095455,128.369064 267.670027,121.898396 258.98885,121.898396 C250.30893,121.898396 243.796791,128.445722 243.796791,136.52369" id="Fill-232" fill="#282E2A"></path>
                <path d="M303.462914,151.287219 L303.462914,123.15508 L281.839144,123.15508 L281.839144,127.052059 C281.839144,144.092701 279.753048,145.21869 277.543797,145.21869 C277.180615,145.21869 276.097353,145.138262 275.735428,145.057834 L275.213904,151.045936 C275.814599,151.244492 277.824037,151.688102 279.872433,151.688102 C285.335241,151.688102 289.116604,148.232219 289.116604,131.072193 L289.116604,129.98893 L295.670214,129.98893 L295.670214,151.287219 L303.462914,151.287219 Z" id="Fill-233" fill="#282E2A"></path>
                <path d="M317.870802,140.395535 L321.051471,132.397995 L324.183128,140.395535 L317.870802,140.395535 Z M328.482246,151.487032 L336.844225,151.487032 L324.864251,123.15508 L317.349278,123.15508 L305.374332,151.487032 L313.574198,151.487032 L315.58615,146.464064 L326.435107,146.464064 L328.482246,151.487032 Z" id="Fill-234" fill="#282E2A"></path>
                <path d="M186.023235,182.969492 C190.318583,182.969492 193.255455,186.507059 193.255455,190.564893 C193.255455,194.703155 190.401524,198.160294 186.099893,198.160294 C181.838476,198.160294 178.909144,194.626497 178.909144,190.564893 C178.909144,186.426631 181.760561,182.969492 186.023235,182.969492 M186.023235,205.193957 C194.700642,205.193957 201.207754,198.642861 201.207754,190.564893 C201.207754,182.410267 194.782326,175.935829 186.099893,175.935829 C177.423743,175.935829 170.909091,182.486925 170.909091,190.564893 C170.909091,198.724545 177.339545,205.193957 186.023235,205.193957" id="Fill-235" fill="#282E2A"></path>
                <polygon id="Fill-236" fill="#282E2A" points="206.096257 177.192513 206.096257 205.320882 213.890214 205.320882 213.890214 194.631524 223.899706 194.631524 223.899706 205.320882 231.693663 205.320882 231.693663 177.192513 223.899706 177.192513 223.899706 187.721016 213.890214 187.721016 213.890214 177.192513"></polygon>
                <polygon id="Fill-237" fill="#282E2A" points="244.046872 198.047193 246.902059 194.874064 253.973422 205.322139 263.339492 205.322139 252.328422 189.286845 262.978824 177.192513 253.734652 177.192513 244.046872 188.605722 244.046872 177.192513 236.256684 177.192513 236.256684 205.322139 244.046872 205.322139"></polygon>
                <path d="M270.648369,190.564893 C270.648369,186.426631 273.501043,182.969492 277.761203,182.969492 C282.059064,182.969492 284.994679,186.507059 284.994679,190.564893 C284.994679,194.703155 282.142005,198.160294 277.839118,198.160294 C273.576444,198.160294 270.648369,194.626497 270.648369,190.564893 M292.945722,190.564893 C292.945722,182.409011 286.522807,175.935829 277.839118,175.935829 C269.161711,175.935829 262.647059,182.486925 262.647059,190.564893 C262.647059,198.723289 269.080027,205.193957 277.761203,205.193957 C286.441123,205.193957 292.945722,198.642861 292.945722,190.564893" id="Fill-238" fill="#282E2A"></path>
                <path d="M307.971898,185.109626 L307.971898,184.026364 L314.520481,184.026364 L314.520481,205.324652 L322.313182,205.324652 L322.313182,177.192513 L300.694439,177.192513 L300.694439,181.089492 C300.694439,198.130134 298.605829,199.256123 296.394064,199.256123 C296.030882,199.256123 294.948877,199.175695 294.584439,199.095267 L294.064171,205.083369 C294.668636,205.285695 296.674305,205.726791 298.726471,205.726791 C304.189278,205.726791 307.971898,202.269652 307.971898,185.109626" id="Fill-239" fill="#282E2A"></path>
                <path d="M341.852112,182.969492 C346.14746,182.969492 349.083075,186.507059 349.083075,190.564893 C349.083075,194.703155 346.230401,198.160294 341.92877,198.160294 C337.667353,198.160294 334.736765,194.626497 334.736765,190.564893 C334.736765,186.426631 337.590695,182.969492 341.852112,182.969492 M341.852112,205.193957 C350.529519,205.193957 357.035374,198.642861 357.035374,190.564893 C357.035374,182.410267 350.611203,175.935829 341.92877,175.935829 C333.251364,175.935829 326.737968,182.486925 326.737968,190.564893 C326.737968,198.724545 333.168422,205.193957 341.852112,205.193957" id="Fill-240" fill="#282E2A"></path>
                <polygon id="Fill-241" fill="#282E2A" points="360.668449 205.320882 368.463663 205.320882 368.463663 184.022594 380.922433 184.022594 380.922433 177.192513 360.668449 177.192513"></polygon>
                <polygon id="Fill-242" fill="#282E2A" points="402.703289 189.490428 402.703289 205.322139 410.423102 205.322139 410.423102 177.192513 403.148155 177.192513 392.258984 193.024225 392.258984 177.192513 384.545455 177.192513 384.545455 205.322139 391.816631 205.322139"></polygon>
                <polygon id="Fill-243" fill="#282E2A" points="432.868743 189.490428 432.868743 205.322139 440.582273 205.322139 440.582273 177.192513 433.308583 177.192513 422.420668 193.024225 422.420668 177.192513 414.705882 177.192513 414.705882 205.322139 421.977059 205.322139"></polygon>
                <path d="M358.566016,75.7491711 L363.670668,75.7491711 L363.670668,82.740107 L358.525802,82.740107 C355.875455,82.740107 354.348583,81.3313636 354.348583,79.2829679 C354.348583,76.9932888 355.954626,75.7491711 358.566016,75.7491711 L358.566016,75.7491711 Z M354.58861,97.246016 L360.252487,88.7282086 L363.670668,88.7282086 L363.670668,97.246016 L371.464626,97.246016 L371.464626,69.1176471 L358.16639,69.1176471 C351.774893,69.1176471 346.509385,72.1311765 346.509385,78.7199733 C346.509385,83.1032888 348.800321,85.9559626 352.29516,87.4413636 L345.588235,97.246016 L354.58861,97.246016 Z" id="Fill-244" fill="#282E2A"></path>
                <path d="M304.015796,236.154531 C303.895154,239.247232 303.623711,242.339932 303.655128,245.432633 C303.694085,249.445227 303.951705,253.45782 304.152775,257.469157 C304.187962,258.156564 304.355101,258.845227 304.553657,259.525093 C304.73839,260.153435 305.239807,260.702606 306.147133,261.142446 C307.085876,261.598622 306.657347,261.535788 307.766999,261.304558 C310.075529,260.821991 310.708898,257.794638 310.686277,257.089638 C310.584486,254.038408 310.579459,250.985922 310.36331,247.937205 C310.090609,244.093007 310.084326,241.867419 310.203711,238.020708 C310.213764,237.665066 310.267801,237.310681 310.319326,236.956296 C310.343203,236.79167 310.414834,236.629558 310.478924,236.422205 C310.779272,236.399585 311.069566,236.360628 311.35986,236.356858 C312.771117,236.343034 317.311518,236.468703 318.720261,236.469959 C319.955582,236.471216 320.038523,236.50766 320.044807,237.173703 C320.0624,239.284932 319.775876,239.778809 319.81609,241.890039 C319.891491,245.819692 319.997053,249.748088 320.105128,253.67774 C320.134031,254.722045 320.198122,255.767606 320.287347,256.810654 C320.321277,257.205253 320.453229,257.598596 320.580154,257.989424 C320.801331,258.673061 321.518898,258.943248 322.783122,258.835173 C324.338898,258.700708 326.348336,257.866269 326.34708,256.169745 C325.936144,251.723596 326.331999,247.026109 325.919807,242.581216 C325.737588,240.639638 325.600609,238.696804 325.457347,236.755227 C325.386973,235.769986 325.549085,232.464906 324.748577,231.655601 C323.945555,230.847553 313.92601,231.435681 308.51724,231.449505 C306.708871,231.454531 305.339085,231.190628 303.624967,231.519879 C301.834192,231.866724 303.731785,234.569852 303.890128,235.034826 C304.015796,235.399264 304.03339,235.781296 304.015796,236.154531" id="Fill-245" fill="#FFFFFE"></path>
                <path d="M449.360998,252.436226 C447.235944,255.838071 442.997148,257.269435 440.567976,255.324087 C438.351185,253.549649 438.259447,251.858151 438.082255,249.62628 C437.908832,247.395665 437.947789,245.163793 438.48188,242.945745 C438.764634,241.764461 439.140383,240.589461 439.513618,239.414461 C439.614153,239.094007 442.412789,236.392135 444.728859,235.946012 C448.59442,235.200798 450.714447,239.06636 451.464688,240.995371 C452.940035,244.775477 451.748698,248.613392 449.360998,252.436226 M451.560196,232.062857 C449.96295,231.33775 448.199821,231.10652 446.304741,231.289996 C444.874634,231.428231 443.440757,231.555157 442.00311,231.638098 C441.07442,231.690879 440.135677,231.663231 439.203217,231.656948 C438.146345,231.649408 437.226452,231.962322 436.518939,232.415986 C435.709634,232.934996 435.097629,233.602296 434.419019,234.214301 C433.032896,235.462189 432.464875,236.931253 432.012468,238.432991 C431.199394,241.132349 431.072468,243.866895 431.043565,246.607723 C431.023458,248.588258 431.389153,250.537376 432.253752,252.424916 C433.223912,254.547456 434.504474,256.520451 437.115864,258.027215 C439.355276,259.320344 441.712816,260.151012 444.689902,260.145986 C446.048378,260.143472 447.336479,260.049221 448.490116,259.560371 C449.333351,259.203472 450.179099,258.818927 450.88787,258.348927 C452.446158,257.313419 453.689019,256.100718 454.665463,254.768633 C457.245436,251.248659 458.465677,247.512536 458.40787,243.575344 C458.40787,243.28882 458.402843,243.001039 458.410383,242.714515 C458.469447,239.993793 457.397495,237.477911 455.484821,235.115344 C454.503351,233.901387 453.26426,232.835718 451.560196,232.062857" id="Fill-246" fill="#FFFFFE"></path>
                <path d="M469.570214,226.649251 C469.000936,222.206872 463.048021,223.145615 462.836898,226.950856 C462.755214,228.42369 462.918583,229.900294 462.91607,231.375642 C462.908529,233.457968 462.870829,237.965695 462.807995,240.048021 C462.743904,242.215802 462.629545,240.990535 462.547861,243.158315 C462.503877,244.328289 462.459893,246.954759 462.459893,248.125989 C462.462406,250.568984 465.969813,252.668904 466.71754,252.842326 C467.393636,252.998155 467.726658,251.390856 467.719118,250.76 C467.700267,249.454305 467.797032,249.13008 468.011925,247.838208 C468.151417,247.00377 469.555134,230.879251 469.557647,229.209118 C469.56016,228.713984 469.682059,228.21885 469.694626,227.721203 C469.704679,227.363048 469.614198,226.987299 469.570214,226.649251" id="Fill-247" fill="#FFFFFE"></path>
                <path d="M406.98357,251.527939 C407.512634,252.04695 408.134693,252.413902 409.057099,252.576014 C409.896565,252.724303 410.306244,252.581041 410.29242,251.987886 C410.2698,250.763875 410.385415,251.798127 410.650575,250.586683 C410.825254,249.802512 410.97857,249.012057 411.020041,248.221603 C411.146966,245.842699 411.381966,245.126389 412.324479,245.176656 C414.482206,245.292271 416.63742,245.430506 418.786351,245.606442 C420.016645,245.706977 420.004078,245.747191 419.965121,246.595453 C419.864586,248.792137 419.745201,250.988822 419.676083,253.186763 C419.604452,255.439998 420.247875,258.129303 421.98964,259.524223 C423.464987,260.70425 425.091137,258.840586 425.284666,258.374357 C425.789853,257.146576 425.951966,255.891148 425.962019,254.629437 C425.99972,249.683127 426.034907,244.736816 426.008517,239.791763 C425.99972,238.165613 425.804934,236.539463 425.674238,234.91457 C425.421645,231.757779 424.305709,229.982084 422.811511,229.973287 C421.316057,229.96449 420.171217,232.28056 420.144827,232.986816 C420.11718,233.819998 420.048062,234.65318 420.054345,235.486362 C420.078222,237.765988 420.137287,239.023929 420.17373,241.302298 C420.178757,241.542324 420.1398,241.783608 420.112153,242.110346 C419.797982,242.050025 419.614506,242.039972 419.469987,241.983421 C418.546324,241.621496 417.534693,241.489544 416.501698,241.387752 C415.033891,241.243234 413.57111,241.086148 412.107073,240.927806 C411.376939,240.847378 411.291484,240.794597 411.278918,240.310774 C411.2475,238.743688 411.21734,237.176603 411.222367,235.609517 C411.222367,235.144544 410.780014,229.982084 408.360896,229.982084 C405.653998,229.982084 405.09603,232.31072 405.091003,232.851095 C405.079693,234.234704 405.194051,235.618314 405.191538,237.001923 C405.183998,238.956068 405.145041,240.910212 405.070896,242.8631 C404.990468,244.897672 404.649907,246.389357 404.65242,247.487699 C404.653677,249.778635 405.10357,249.690667 406.98357,251.527939" id="Fill-248" fill="#FFFFFE"></path>
                <path d="M336.655065,235.039732 C336.657578,234.788395 336.843567,234.663983 337.204236,234.623769 C339.810599,234.329705 343.795546,234.66147 346.082712,235.587646 C346.63691,235.811336 346.839236,236.170748 346.914637,236.584197 C347.101883,237.599598 346.522551,238.44032 345.613968,239.189304 C344.983113,239.710828 344.250466,240.170774 343.340626,240.448502 C342.056295,240.840587 339.217444,241.139678 337.913006,241.500347 C337.696856,241.559411 337.446776,241.559411 337.130091,241.597111 C337.04715,241.339491 336.922738,241.122085 336.911428,240.902165 C336.81215,239.053582 336.732979,237.203742 336.647525,235.353903 C336.642498,235.249598 336.651295,235.144036 336.655065,235.039732 M329.640252,243.717138 C330.361589,244.321603 331.015065,244.954972 330.950974,245.796951 C330.817765,247.563849 330.693353,249.332004 330.550091,251.098903 C330.428193,252.634571 330.284931,254.17024 330.154236,255.704651 C330.129102,256.021336 330.266081,256.30032 330.438247,256.605694 C330.805198,257.264197 333.229343,259.550106 334.597872,259.785106 C335.726375,259.978635 336.688995,259.557646 336.846081,258.811175 C336.911428,258.498261 337.000653,258.185347 337.025787,257.871175 C337.175332,255.914518 337.334931,253.95786 337.440492,251.999946 C337.512124,250.651523 337.492017,249.301844 337.529717,247.953421 C337.543541,247.399224 337.620198,247.327593 338.307605,247.283609 C340.535706,247.14286 343.540439,246.606256 345.603915,246.058341 C347.715145,245.49786 349.619022,244.711175 351.123273,243.503502 C352.594851,242.320962 353.164129,240.972539 352.824824,239.450694 C352.33723,237.251496 350.758835,235.461978 348.295733,234.040667 C347.35699,233.49778 346.365466,232.996363 345.376455,232.496202 C343.309209,231.450641 341.04969,230.661443 338.604182,230.114785 C337.417872,229.849625 331.246295,229.603315 331.018835,232.888288 C331.025118,235.733421 331.075386,238.577298 331.092979,241.423689 C331.096749,242.415213 329.97076,242.785935 329.446722,242.873903 C329.357498,242.888983 329.275813,243.024705 329.25822,243.110159 C329.210466,243.357726 329.419075,243.532405 329.640252,243.717138" id="Fill-249" fill="#FFFFFE"></path>
                <path d="M389.253549,259.295051 C390.834458,259.993768 392.617693,260.289089 394.393388,260.60703 C396.175367,260.926228 397.986249,260.926228 399.783308,260.762859 C402.392185,260.526602 404.728362,259.763795 406.847132,258.72326 C408.240795,258.039623 409.31903,257.158688 409.664618,255.934677 C409.790287,255.497351 409.54272,255.238474 409.117961,254.990907 C408.857827,254.838848 408.477051,254.784811 408.37149,254.5008 C408.343843,254.426656 408.084966,254.380158 407.921597,254.346228 C407.784618,254.319837 407.609939,254.361308 407.491811,254.319837 C406.52165,253.988073 406.49903,253.955399 405.701035,254.300987 C404.073629,255.007244 402.465073,255.734864 400.872854,256.477565 C399.170046,257.273046 397.285019,257.717912 395.266784,257.934062 C393.894485,258.081094 392.670474,257.937832 391.805875,257.094597 C391.499244,256.795506 391.139832,256.520292 390.870902,256.206121 C389.752453,254.901682 389.132907,253.470319 389.013522,251.977377 C388.832559,249.715345 389.066303,247.46965 389.827854,245.247832 C390.635902,242.899089 392.038362,239.235853 394.762854,237.177404 C397.112854,235.401709 399.46788,235.955907 400.429244,235.828982 C400.794939,235.781228 401.127961,235.620372 401.405688,235.532404 C401.474805,235.272271 401.516276,235.115185 401.557747,234.958099 C401.58288,234.861335 401.679645,234.735666 401.624351,234.670319 C401.262426,234.243046 402.576918,232.957458 401.827934,232.694811 C400.666757,232.287645 391.833522,228.570372 386.888469,234.832431 C383.807078,238.735693 381.880581,244.696148 382.041436,249.195078 C382.115581,251.364115 382.735126,253.436388 384.163977,255.380479 C385.351543,256.995319 387.026704,258.309811 389.253549,259.295051" id="Fill-250" fill="#FFFFFE"></path>
                <path d="M466.838864,255.356176 C466.035842,255.088502 464.253864,253.616924 463.181912,253.882085 C462.108703,254.148502 461.213944,254.947753 461.213944,254.947753 C460.586858,255.816122 459.512393,258.01909 460.133195,259.088529 C460.756511,260.157967 462.718195,261.561684 463.969853,261.630801 C465.217741,261.698662 467.722313,259.965694 467.9925,259.030721 C468.262687,258.097005 467.641885,255.623849 466.838864,255.356176" id="Fill-251" fill="#FFFFFE"></path>
                <path d="M270.722154,263.242992 C273.099801,263.13366 273.378785,262.251468 275.057715,260.268419 C276.734132,258.285371 279.257555,252.458125 279.257555,252.458125 L290.160549,250.134516 C290.160549,250.134516 291.419747,251.785799 292.117207,254.100612 C292.81718,256.412911 295.054079,258.285371 296.733009,257.515024 C298.41194,256.743419 298.690924,255.531976 298.132956,253.879435 C297.572475,252.226895 296.034293,249.032403 296.034293,249.032403 C296.034293,249.032403 300.647582,247.159943 300.089614,245.9485 C299.530389,244.735799 294.63686,245.176895 294.63686,245.176895 C294.63686,245.176895 293.096164,242.202323 292.538197,240.549783 C291.977715,238.897243 290.300041,234.932403 289.460576,234.932403 C288.621111,234.932403 288.342127,238.016307 288.202635,239.999355 C288.063143,241.982403 289.460576,245.9485 289.460576,245.9485 L281.490683,247.270532 C281.490683,247.270532 287.223678,234.821815 287.781646,233.50104 C288.342127,232.179008 289.460576,230.085371 286.663197,229.974783 C283.867074,229.864195 279.672261,235.813339 278.272314,238.237484 C278.272314,238.237484 277.434106,239.779435 276.035416,242.4235 C274.637983,245.067564 271.14063,253.218419 269.882689,256.192992 C268.624747,259.167564 268.34325,263.352323 270.722154,263.242992" id="Fill-252" fill="#FFFFFE"></path>
                <path d="M352.405782,260.694435 C354.784686,260.583847 355.06367,259.702911 356.741344,257.719863 C358.420274,255.736815 359.766183,252.458125 359.766183,252.458125 L370.670435,250.134516 C370.670435,250.134516 372.443617,253.93473 373.14359,256.248286 C373.84105,258.561842 376.079205,260.434302 377.758135,259.663954 C379.434552,258.89235 379.714793,257.680906 379.155568,256.028366 C378.597601,254.375826 376.542921,249.032403 376.542921,249.032403 C376.542921,249.032403 381.157467,247.159943 380.600756,245.9485 C380.039018,244.735799 375.146745,245.176895 375.146745,245.176895 C375.146745,245.176895 373.607306,242.202323 373.048082,240.549783 C372.487601,238.897243 370.809927,234.932403 369.971718,234.932403 C369.132253,234.932403 368.853269,238.016307 368.713777,239.999355 C368.573028,241.982403 369.971718,245.9485 369.971718,245.9485 L362.000568,247.269275 C362.000568,247.269275 367.733563,234.821815 368.292788,233.499783 C368.853269,232.179008 369.971718,230.085371 367.174339,229.974783 C364.376959,229.864195 360.180889,235.813339 358.783456,238.236227 C358.783456,238.236227 357.943991,239.779435 356.546558,242.422243 C355.147868,245.066307 352.825515,250.669863 351.566317,253.644435 C350.308376,256.617751 350.029392,260.803767 352.405782,260.694435" id="Fill-253" fill="#FFFFFE"></path>
                <polygon id="Fill-254" fill="#FFFFFE" points="98.8105882 207.785241 17.1386631 207.785241 17.1386631 78.7124332 34.9295455 78.7124332 34.9295455 70.145615 34.9295455 61.5775401 0 61.5775401 0 224.920134 131.245615 224.920134 115.026845 216.352059"></polygon>
                <path d="M58.6079947,62.1229412 L58.6079947,28.6197326 L121.143128,62.1229412 L121.846872,62.4999465 L121.846872,70.6897594 L121.846872,79.2578342 L121.846872,193.769439 L58.6079947,159.886711 L58.6079947,79.2578342 L58.6079947,70.6897594 L58.6079947,62.1229412 Z M41.4705882,0 L41.4705882,62.1229412 L41.4705882,70.6897594 L41.4705882,79.2578342 L41.4705882,163.043503 L41.4705882,170.14754 L98.1671658,200.521604 L112.742193,208.330642 L128.732246,216.89746 L138.984278,222.389171 L138.984278,222.087567 L138.984278,62.1229412 L138.984278,52.2403743 L41.5447326,0.0389572193 L41.4705882,0 Z" id="Fill-255" fill="#FFFFFE"></path>
                <path d="M248.792197,259.874412 C250.522651,258.801204 250.604336,254.116284 250.541501,249.41 C250.532705,248.542888 250.522651,247.793904 250.541501,247.310081 C250.550298,247.150482 250.560352,247.05246 250.562865,247.03738 C250.614389,247.00345 250.856929,246.979573 251.086902,246.956952 L251.511662,246.911712 C254.213533,246.597541 256.980753,246.169011 259.313159,245.702781 C260.026956,245.559519 260.236822,245.629893 260.299656,245.686444 C260.401448,245.775669 260.382598,246.133824 260.370031,246.397728 L260.269496,248.206097 C260.176501,249.848583 260.084763,251.49107 260.024443,253.13607 C259.932705,255.540107 261.26856,258.622754 262.934924,259.866872 C263.205111,260.067942 263.686421,260.169733 264.239362,260.169733 C264.768426,260.169733 265.362838,260.076738 265.889389,259.886979 C266.715031,259.590401 267.227758,259.117888 267.354683,258.580027 C267.917678,257.420107 268.187865,256.163423 268.196662,254.625241 C268.225566,251.712246 268.04963,245.1423 267.910138,239.862968 C267.819656,236.332942 267.730432,232.996444 267.763106,232.725 C267.80332,232.400776 267.675138,232.043877 267.387357,231.666872 C266.765298,230.862594 265.514897,230.133717 264.53971,230.009305 C263.205111,229.828343 262.255058,230.36369 261.69332,230.83746 C260.985806,231.434385 260.598747,232.20599 260.583667,232.660909 L260.550993,233.321926 C260.513293,234.195321 260.461769,235.282353 260.471822,235.953423 C260.488159,237.162353 260.513293,237.623557 260.542197,238.11115 C260.56733,238.5623 260.596234,239.033557 260.617598,240.155776 C260.620111,240.304065 260.601261,240.454867 260.579897,240.629546 C260.576127,240.645883 260.576127,240.663476 260.573614,240.68107 C260.239336,240.712487 259.60848,240.797942 258.386983,240.970107 C255.984202,241.305642 252.347357,241.823396 251.238961,241.711551 C251.035378,241.692701 250.614389,241.652487 250.550298,241.595936 C250.545271,241.584626 250.530191,241.541899 250.522651,241.377273 C250.48118,239.797621 250.448507,236.809225 250.452277,235.189359 C250.452277,235.05992 250.471127,234.834974 250.493747,234.57484 C250.593025,233.394813 250.600566,232.824278 250.414576,232.559118 C250.008667,231.98607 249.160405,230.794733 247.907491,230.402647 C247.3734,230.238022 246.336635,230.064599 245.350138,230.749492 C244.073346,231.635455 243.350753,233.603423 243.198694,236.610669 C243.191154,238.593717 243.13963,240.604412 243.055432,242.584947 C242.997624,243.810214 242.91217,245.034225 242.825459,246.259492 C242.768908,247.110268 242.708587,247.9623 242.660833,248.813075 C242.591715,250.015722 242.537678,251.101498 242.540191,252.197327 C242.540191,254.250749 242.874469,257.553316 243.607116,258.461899 C244.955539,260.145856 248.040699,260.334359 248.792197,259.874412" id="Fill-256" fill="#FFFFFE"></path>
                <path d="M181.046431,249.219257 C181.162046,247.045193 181.280174,244.796984 181.208543,243.286449 C181.172099,242.464578 181.172099,242.464578 182.447634,242.360273 C183.763383,242.253455 185.525255,241.91415 187.391431,241.553481 C189.410923,241.163909 191.497019,240.763027 192.942206,240.685112 C193.196057,240.672546 193.764078,240.642385 193.865869,240.736637 C193.92996,240.793187 193.942527,241.107358 193.948811,241.258161 C193.996565,242.488455 194.038035,244.103294 194.082019,245.791022 C194.148623,248.348375 194.217741,250.991182 194.317019,252.824685 C194.342153,253.297198 194.36226,253.923027 194.383623,254.560166 C194.408757,255.295326 194.432634,256.04431 194.466565,256.592225 L194.486672,257.000647 C194.58595,258.669524 194.63119,259.429818 195.29472,260.68399 C195.709426,261.469417 196.237233,261.914284 196.861805,262.004765 C198.060682,262.159337 199.219345,260.993134 199.845174,260.357252 L200.073891,260.118481 C201.555522,257.889123 201.854613,255.5253 201.857126,252.433856 C201.85964,251.032653 201.796805,247.226155 201.726431,245.802332 C201.676164,244.732893 201.612073,243.662198 201.547982,242.59276 C201.492688,241.672867 201.43865,240.752973 201.38964,239.83308 C201.92373,239.479952 203.577527,238.242118 203.577527,236.426209 C203.529773,235.141877 201.781725,234.139043 201.183543,233.834925 C201.16595,232.702653 201.153383,231.57038 201.149613,230.438107 C201.145843,229.577278 201.178517,229.030621 201.20742,228.5003 C201.237581,227.944845 201.270255,227.37054 201.261458,226.466984 C201.334345,224.649818 200.558971,223.694738 199.896698,223.212171 C199.027073,222.576289 197.810602,222.406637 196.826618,222.776102 C194.097099,223.60677 194.040549,227.623134 194.043062,228.078054 C194.048089,230.208134 194.006618,232.324391 193.966404,234.115166 C193.957607,234.527358 193.957607,234.527358 193.17595,234.6103 C191.647821,234.777439 184.817741,236.323161 181.900976,236.98292 C181.517688,237.070888 181.20603,237.140006 180.98988,237.189016 C180.987367,237.170166 180.984853,237.152572 180.984853,237.133722 C180.958463,236.912546 180.939613,236.71776 180.939613,236.528 C180.958463,235.502546 180.977313,234.475834 180.999934,233.45038 C181.037634,231.545246 181.075335,229.640112 181.095442,227.734979 C181.101725,227.018669 181.066538,226.296075 181.028837,225.596102 C181.009987,225.234177 180.98988,224.870995 180.977313,224.507813 C180.958463,223.893294 180.498517,222.673054 179.539666,221.886369 C178.838436,221.308294 178.000228,221.072038 177.090388,221.21907 C174.696404,221.599845 173.21226,224.865968 173.351752,226.079925 C173.414586,226.64669 173.361805,227.199631 173.302741,227.780219 C173.287661,227.949872 173.271324,228.117011 173.258757,228.285407 C173.214773,228.839604 173.164506,229.395059 173.114238,229.950514 C172.976003,231.464818 172.836511,233.030647 172.831484,234.577626 C172.822688,236.07685 172.77996,237.71431 172.718383,239.442252 C172.661832,241.084738 172.590201,242.808909 172.517313,244.582091 C172.497206,245.030727 172.480869,245.480621 172.460763,245.929257 C172.307447,249.636476 172.164185,253.367572 172.189319,256.431369 C172.189319,256.75308 172.183035,257.088615 172.176752,257.43169 C172.151618,258.806503 172.122714,260.367305 172.669372,261.685567 C173.061458,262.640647 173.792848,263.316744 174.780602,263.640968 C175.226725,263.788 175.703009,263.852091 176.162955,263.852091 C176.911939,263.852091 177.610656,263.681182 178.026618,263.429845 C180.095121,262.175674 181.031351,259.276503 180.879292,254.563936 C180.837821,253.221797 180.945896,251.185968 181.046431,249.219257" id="Fill-257" fill="#FFFFFE"></path>
                <path d="M206.51643,246.517513 C206.601884,249.337513 206.595601,252.118556 206.57675,254.70607 C206.574237,254.786497 206.567954,254.912166 206.5579,255.069251 C206.482499,256.283209 206.301536,259.123316 208.003087,259.840882 L208.060895,259.866016 L208.128756,259.864759 C208.557285,259.844652 209.013462,259.862246 209.425654,259.813235 C210.06405,259.735321 211.102071,259.614679 212.381376,259.467647 C219.939077,258.596765 228.111296,257.619064 229.437098,257.046016 C229.843007,256.872594 230.206189,256.621257 230.456269,256.339759 C230.862178,255.88484 230.909932,254.937299 230.566857,254.135535 C230.221269,253.33 229.570307,252.85246 228.779852,252.827326 C228.326189,252.812246 228.072339,252.797166 227.856189,252.782086 C227.523167,252.763235 227.310788,252.751925 226.580654,252.750668 C224.64913,252.764492 222.760333,252.988182 220.933114,253.204332 C219.122232,253.417968 217.251028,253.639144 215.355948,253.652968 C215.168702,253.650455 214.990253,253.646684 214.750226,253.636631 L214.644665,253.632861 C214.696189,252.730561 214.717553,251.752861 214.740173,250.802807 C214.76405,249.821337 214.78667,248.808449 214.845734,247.872219 C215.710333,247.752834 218.000012,247.248904 221.033649,246.571551 L223.038061,246.125428 C226.222499,245.425455 228.186697,244.200187 228.038408,243.003824 C227.932847,242.148021 226.784237,241.672995 225.08897,241.722005 C223.486697,241.730802 221.8329,241.955749 220.230627,242.169385 C218.659772,242.381765 217.031109,242.600428 215.47659,242.611738 L215.45397,242.611738 C215.288087,242.611738 215.123462,242.602941 214.926162,242.590374 L214.733889,242.580321 C214.730119,242.572781 214.727606,242.562727 214.723836,242.555187 C214.676082,242.411925 214.632098,242.27746 214.619531,242.153048 C214.492606,241.097433 214.448622,240.298182 214.405895,239.527834 C214.365681,238.761257 214.32421,237.969545 214.197285,236.896337 C214.184718,236.793289 214.168381,236.662594 214.153301,236.662594 C214.234986,236.604786 214.692419,236.548235 215.098328,236.499225 C216.013194,236.388636 225.504932,234.998743 227.45028,234.660695 C229.528836,234.297513 230.165975,233.12754 230.067954,232.154866 C229.961135,231.092968 228.904264,229.973262 227.373622,229.973262 C227.345975,229.973262 227.317071,229.974519 227.285654,229.974519 C225.038702,230.03861 222.844531,230.366604 220.727018,230.685802 C219.328328,230.894412 217.884397,231.111818 216.434184,231.252567 L214.003756,231.487567 C208.469317,232.41123 207.069371,233.797353 206.52774,235.879679 C206.486269,236.030481 206.441028,236.18254 206.397044,236.334599 C206.239959,236.873717 206.077847,237.431684 206.097954,238.002219 C206.141938,239.410963 206.226135,240.839813 206.30405,242.222166 C206.386991,243.630909 206.472446,245.08615 206.51643,246.517513" id="Fill-258" fill="#FFFFFE"></path>
                <path d="M451.893385,263.903743 L184.073813,265.55754 C180.438224,265.54623 177.412128,271.907567 182.105845,271.90631 L450.945845,267.724064 C456.472743,267.377219 454.274802,263.903743 451.893385,263.903743" id="Fill-259" fill="#FFFFFE"></path>
            </g>
        </g>
    </g>
</svg>