<?xml version="1.0" encoding="UTF-8"?>
<svg width="1920px" height="550px" viewBox="0 0 1920 550" version="1.1" xmlns="http://www.w3.org/2000/svg" xmlns:xlink="http://www.w3.org/1999/xlink">
    <!-- Generator: Sketch 46.2 (44496) - http://www.bohemiancoding.com/sketch -->
    <title>bg</title>
    <desc>Created with Sketch.</desc>
    <defs>
        <polygon id="path-1" points="0 550 1920 550 1920 0 0 0"></polygon>
    </defs>
    <g id="Header,-slide" stroke="none" stroke-width="1" fill="none" fill-rule="evenodd">
        <g id="screen-2.0-copy">
            <g id="bg">
                <mask id="mask-2" fill="white">
                    <use xlink:href="#path-1"></use>
                </mask>
                <use id="Mask" fill="#E4973A" xlink:href="#path-1"></use>
                <g id="Page-3" opacity="0.5" mask="url(#mask-2)">
                    <g id="Group-274">
                        <path d="M228.167998,0.720185471 L228.167998,238.269181 L294.814642,269.698238 L374.622678,307.332009 L374.622678,151.176213 L374.622678,69.7830139 L228.167998,0.720185471 Z M249.415238,34.2344822 L353.376287,83.259289 L353.376287,151.176213 L353.376287,273.817713 L303.876166,250.47544 L249.415238,224.792906 L249.415238,34.2344822 Z" id="Fill-260" fill="#FFFFFE"></path>
                        <path d="M294.814557,113.541762 L294.814557,269.697558 L294.814557,351.090757 L441.270937,420.154436 L441.270937,182.60544 L374.622593,151.176383 L294.814557,113.541762 Z M316.061798,147.056909 L365.562769,170.399181 L420.023696,196.080866 L420.023696,386.639289 L316.061798,337.615332 L316.061798,269.697558 L316.061798,147.056909 Z" id="Fill-261" fill="#FFFFFE"></path>
                        <path d="M294.814557,113.541762 L294.814557,269.697558 L374.622593,307.332179 L374.622593,151.176383 L294.814557,113.541762 Z M316.061798,147.056909 L353.376202,164.652658 L353.376202,273.817883 L316.061798,256.222133 L316.061798,147.056909 Z" id="Fill-262" fill="#FFFFFE"></path>
                        <path d="M424.407852,338.451128 L458.136572,338.451128" id="Stroke-263" stroke="#FFFFFE" stroke-width="3"></path>
                        <path d="M424.407852,356.052063 L458.136572,356.052063" id="Stroke-264" stroke="#FFFFFE" stroke-width="3"></path>
                        <path d="M424.407852,373.652998 L458.136572,373.652998" id="Stroke-265" stroke="#FFFFFE" stroke-width="3"></path>
                        <polyline id="Stroke-266" stroke="#FFFFFE" stroke-width="3" points="0.485541943 215.029683 36.1409614 189.431306 72.8459945 215.029683"></polyline>
                        <polyline id="Stroke-267" stroke="#FFFFFE" stroke-width="3" points="0.485541943 186.39891 36.1409614 160.800533 72.8459945 186.39891"></polyline>
                        <polyline id="Stroke-268" stroke="#FFFFFE" stroke-width="3" points="0.485541943 157.768648 36.1409614 132.17027 72.8459945 157.768648"></polyline>
                        <path d="M605.934135,111.732295 L632.288362,111.732295" id="Stroke-269" stroke="#FFFFFE" stroke-width="3"></path>
                        <path d="M605.934135,130.437311 L632.288362,130.437311" id="Stroke-270" stroke="#FFFFFE" stroke-width="3"></path>
                        <path d="M605.934135,149.142326 L632.288362,149.142326" id="Stroke-271" stroke="#FFFFFE" stroke-width="3"></path>
                        <path d="M76.8096247,244.997032 L76.8096247,480.874776 L222.235088,549.45221 L222.235088,313.574467 L76.8096247,244.997032 Z M98.0568653,278.511329 L200.987848,327.049892 L200.987848,515.937063 L98.0568653,467.398501 L98.0568653,278.511329 Z" id="Fill-272" fill="#FFFFFE"></path>
                        <path d="M531,375 L531,464.812365 L586.372009,490.924189 L586.372009,401.111824 L531,375 Z M552.247241,408.514297 L565.124768,414.587249 L565.124768,457.409892 L552.247241,451.33694 L552.247241,408.514297 Z" id="Fill-273" fill="#FFFFFE"></path>
                        <path d="M737,491 L737,652.148179 L836.352672,699 L836.352672,537.851821 L737,491 Z M775.123416,551.133901 L798.229256,562.030454 L798.229256,638.866099 L775.123416,627.969546 L775.123416,551.133901 Z" id="Fill-273" fill="#FFFFFE"></path>
                    </g>
                </g>
                <g id="Page-3" opacity="0.5" mask="url(#mask-2)">
                    <g transform="translate(1011.000000, -172.000000)" id="Group-274">
                        <g>
                            <path d="M566.29959,172.925766 L566.29959,478.284202 L651.970822,518.684826 L754.560424,567.061328 L754.560424,366.330151 L754.560424,261.702892 L566.29959,172.925766 Z M593.611952,216.006871 L727.249154,279.026032 L727.249154,366.330151 L727.249154,523.980223 L663.618998,493.974794 L593.611952,460.961062 L593.611952,216.006871 Z" id="Fill-260" fill="#FFFFFE"></path>
                            <path d="M651.970713,317.952774 L651.970713,518.683952 L651.970713,623.31121 L840.233732,712.089429 L840.233732,406.730994 L754.560315,366.330369 L651.970713,317.952774 Z M679.283075,361.034972 L742.914323,391.040402 L812.92137,424.05304 L812.92137,669.007232 L679.283075,605.989164 L679.283075,518.683952 L679.283075,361.034972 Z" id="Fill-261" fill="#FFFFFE"></path>
                            <path d="M0.938329513,0.839045396 L0.938329513,174.887529 L49.7692978,197.915115 L108.243414,225.488798 L108.243414,111.075856 L108.243414,51.4403143 L0.938329513,0.839045396 Z M16.5058549,25.3944536 L92.6765113,61.3141731 L92.6765113,111.075856 L92.6765113,200.93339 L56.408536,183.830867 L16.5058549,165.013671 L16.5058549,25.3944536 Z" id="Fill-260" fill="#FFFFFE"></path>
                            <path d="M49.9566891,83.4862796 L49.9566891,197.899222 L49.9566891,257.534764 L157.263019,308.136655 L157.263019,134.088171 L108.430805,111.060586 L49.9566891,83.4862796 Z M65.5242145,108.042311 L101.792812,125.144833 L141.695494,143.961407 L141.695494,283.580624 L65.5242145,247.661528 L65.5242145,197.899222 L65.5242145,108.042311 Z" id="Fill-261" fill="#FFFFFE"></path>
                            <path d="M651.970713,317.952774 L651.970713,518.683952 L754.560315,567.061547 L754.560315,366.330369 L651.970713,317.952774 Z M679.283075,361.034972 L727.249045,383.653508 L727.249045,523.980442 L679.283075,501.361905 L679.283075,361.034972 Z" id="Fill-262" fill="#FFFFFE"></path>
                            <path d="M818.557003,607.063541 L861.913739,607.063541" id="Stroke-263" stroke="#FFFFFE" stroke-width="3"></path>
                            <path d="M818.557003,629.688743 L861.913739,629.688743" id="Stroke-264" stroke="#FFFFFE" stroke-width="3"></path>
                            <path d="M818.557003,652.313945 L861.913739,652.313945" id="Stroke-265" stroke="#FFFFFE" stroke-width="3"></path>
                            <polyline id="Stroke-266" stroke="#FFFFFE" stroke-width="3" points="303.624142 418.410884 349.457563 385.505333 396.640215 418.410884"></polyline>
                            <polyline id="Stroke-267" stroke="#FFFFFE" stroke-width="3" points="303.624142 381.607327 349.457563 348.701776 396.640215 381.607327"></polyline>
                            <polyline id="Stroke-268" stroke="#FFFFFE" stroke-width="3" points="303.624142 344.804425 349.457563 311.898875 396.640215 344.804425"></polyline>
                            <path d="M379,593 L379,896.210117 L565.937823,984.363292 L565.937823,681.153175 L379,593 Z M406.312362,636.081105 L538.625461,698.475221 L538.625461,941.281094 L406.312362,878.886978 L406.312362,636.081105 Z" id="Fill-272" fill="#FFFFFE"></path>
                        </g>
                    </g>
                </g>
            </g>
        </g>
    </g>
</svg>